<svg width="96" height="50" viewBox="0 0 96 50" fill="none" xmlns="http://www.w3.org/2000/svg">
<path d="M9.50015 1.64319C11.6597 3.83411 11.4703 11.6754 11.4703 11.6754C11.4703 11.6754 3.77924 11.7908 1.61963 9.59974C-0.539878 7.40882 -0.539878 3.83411 1.61963 1.64319C3.77924 -0.547729 7.30271 -0.547729 9.50015 1.64319Z" fill="#CDCDCD"/>
<path d="M94.0249 39.9655C96.1849 42.1565 95.9958 49.9977 95.9958 49.9977C95.9958 49.9977 88.3043 50.1515 86.1453 47.9221C83.9853 45.7312 83.9853 42.1565 86.1453 39.9655C88.3043 37.7746 91.8659 37.7746 94.0249 39.9655Z" fill="#CDCDCD"/>
<path d="M35.0358 28.6649C37.0438 32.0858 34.1644 35.9296 30.6788 36.1602C27.1553 36.3524 21.8512 36.2371 21.8512 36.2371C19.2749 36.2371 14.2359 36.0065 13.895 31.5861C13.6298 27.5117 17.3047 24.4367 21.8512 20.593C18.2898 20.6314 14.8801 20.862 14.1222 20.7083C12.4931 18.8632 12.872 13.5589 17.6079 13.3282C20.7145 13.1361 30.603 13.2898 33.4445 13.2898C34.5811 14.4429 35.3388 17.172 33.5203 19.7089C31.929 21.9767 26.7764 26.4739 24.238 28.4727C26.928 28.4727 31.0955 28.2421 35.0358 28.6649Z" fill="#CDCDCD"/>
<path d="M58.5636 28.6649C60.571 32.0858 57.692 35.9296 54.2064 36.1602C50.6829 36.3524 45.3788 36.2371 45.3788 36.2371C42.8025 36.2371 37.7636 36.0065 37.4226 31.5861C37.1573 27.5117 40.8324 24.4367 45.3788 20.593C41.8175 20.6314 38.4076 20.862 37.6499 20.7083C36.0586 18.8632 36.3996 13.5589 41.1355 13.3282C44.2422 13.1361 54.1307 13.2898 56.9721 13.2898C58.1086 14.4429 58.866 17.172 57.0479 19.7089C55.4567 21.9767 50.3041 26.4739 47.7657 28.4727C50.4556 28.4727 54.6231 28.2421 58.5636 28.6649Z" fill="#CDCDCD"/>
<path d="M82.0912 28.6649C84.0986 32.0858 81.2195 35.9296 77.7338 36.1602C74.2106 36.3524 68.9066 36.2371 68.9066 36.2371C66.33 36.2371 61.291 36.0065 60.9502 31.5861C60.6852 27.5117 64.3601 24.4367 68.9066 20.593C65.345 20.6314 61.9351 20.862 61.1777 20.7083C59.586 18.8632 59.9268 13.5589 64.6634 13.3282C67.77 13.1361 77.6579 13.2898 80.4995 13.2898C81.6362 14.4429 82.3936 17.172 80.5754 19.7089C78.9847 21.9767 73.8314 26.4739 71.2932 28.4727C73.9831 28.4727 78.1504 28.2421 82.0912 28.6649Z" fill="#CDCDCD"/>
<path d="M10.9399 35.2377C8.81817 37.2749 3.24885 36.5446 2.11221 31.4708C1.69548 29.4721 1.39241 17.0951 2.22587 14.3276C4.57489 12.4826 10.2957 12.4826 11.205 17.8639C11.6597 20.593 11.5081 31.4324 10.9399 35.2377Z" fill="#CDCDCD"/>
<path d="M85.0845 14.2892C87.2061 12.252 92.775 12.9823 93.9116 18.056C94.3283 20.0548 94.6316 32.4317 93.7984 35.1992C91.4493 37.0443 85.7277 37.0443 84.8186 31.663C84.3261 28.934 84.4778 18.056 85.0845 14.2892Z" fill="#CDCDCD"/>
</svg>
