<svg width="130" height="26" viewBox="0 0 130 26" fill="none" xmlns="http://www.w3.org/2000/svg">
<path d="M90.8266 16.3077C89.7 16.3077 88.92 15.5914 88.92 14.2429C88.92 12.8945 89.57 12.0938 90.9133 12.0938C92.2566 12.0938 92.82 13.0209 92.82 14.1165C92.82 15.2121 92.0833 16.3077 90.8266 16.3077ZM90.5233 7.62704C89.4205 7.59943 88.3404 7.92527 87.4466 8.5541V10.2397C88.3036 9.63677 89.3349 9.31229 90.3933 9.31261C92.0833 9.31261 92.8633 10.1554 92.9067 11.2932C92.2837 10.731 91.4593 10.4285 90.61 10.4504C88.2266 10.4504 86.8833 12.1359 86.8833 14.2429C86.8833 16.3499 88.2267 17.9512 90.6967 17.9512C93.1666 17.9512 94.9 16.3499 94.9 12.9787V12.8102C94.9 9.31261 93.34 7.62704 90.5233 7.62704Z" fill="#CDCDCD"/>
<path d="M125.45 16.3498C124.28 16.3498 123.587 15.4648 123.587 14.2007C123.587 12.9365 124.28 11.9251 125.45 11.883C126.62 11.8409 127.487 12.8101 127.487 14.1164C127.487 15.4227 126.663 16.3498 125.45 16.3498ZM130 17.7404C129.61 17.1083 129.523 16.3919 129.523 14.0321V10.4503H127.53V11.0824C126.898 10.5394 126.076 10.2527 125.233 10.2817C122.937 10.2817 121.55 12.0516 121.55 14.2428C121.55 16.4341 123.153 17.9511 125.017 17.9511C125.517 17.9528 126.011 17.8436 126.462 17.6319C126.912 17.4201 127.307 17.1113 127.617 16.729C127.651 17.0874 127.77 17.4334 127.963 17.7404H130Z" fill="#CDCDCD"/>
<path d="M48.62 16.3077C47.3633 16.3077 46.7133 15.3806 46.7133 14.1165C46.7133 12.8523 47.4067 11.9252 48.62 11.9252C49.8333 11.9252 50.5267 12.8944 50.5267 14.1165C50.5267 15.3385 49.8767 16.3077 48.62 16.3077ZM48.62 10.2818C46.15 10.2818 44.6767 11.9252 44.6767 14.1165C44.6767 16.3077 46.1067 17.9511 48.62 17.9511C51.1333 17.9511 52.5633 16.3077 52.5633 14.1165C52.5633 11.9252 51.1333 10.2818 48.62 10.2818Z" fill="#CDCDCD"/>
<path d="M13.3467 24.0194C7.15 24.0194 2.08 19.5105 2.08 13.0211C2.08 6.53161 7.15 1.98055 13.3467 1.98055C19.5433 1.98055 24.6133 6.48947 24.6133 13.0211C24.6133 19.5527 19.5867 24.0194 13.3467 24.0194ZM13.3467 0C5.98 0 0 5.39385 0 13.0211C0 20.6483 5.98 26 13.3467 26C20.7133 26 26.7367 20.6062 26.7367 13.0211C26.7367 5.43598 20.7133 0 13.3467 0Z" fill="#CDCDCD"/>
<path d="M10.2266 8.09043H8.18999C8.62418 8.99011 8.87433 9.96332 8.92665 10.9559C8.92665 12.7679 7.49665 14.6642 7.49665 16.5183C7.48971 17.0524 7.59285 17.5826 7.79998 18.0775H9.83665C9.65801 17.5762 9.57004 17.0486 9.57665 16.5183C9.57665 14.6642 10.9633 12.7679 10.9633 10.9559C10.911 9.96332 10.6608 8.99011 10.2266 8.09043Z" fill="#CDCDCD"/>
<path d="M18.4166 8.09043H16.38C16.8142 8.99011 17.0643 9.96332 17.1166 10.9559C17.1166 12.7679 15.73 14.6642 15.73 16.5183C15.7234 17.0486 15.8113 17.5762 15.99 18.0775H18.0266C17.848 17.5762 17.76 17.0486 17.7666 16.5183C17.7666 14.6642 19.1966 12.7679 19.1966 10.9559C19.1388 9.95921 18.8734 8.98431 18.4166 8.09043Z" fill="#CDCDCD"/>
<path d="M14.3434 8.09043H12.2634C12.7201 8.98431 12.9855 9.95921 13.0434 10.9559C13.0434 12.7679 11.6134 14.6642 11.6134 16.5183C11.6068 17.0486 11.6947 17.5762 11.8734 18.0775H13.9101C13.7314 17.5762 13.6434 17.0486 13.6501 16.5183C13.6501 14.6642 15.0801 12.7679 15.0801 10.9559C15.0277 9.96332 14.7776 8.99011 14.3434 8.09043Z" fill="#CDCDCD"/>
<path d="M41.2967 16.0549H39.0433V8.25915H37.0067V16.0549H34.7533V8.25915H32.0667C32.5 8.89124 32.7167 9.86045 32.7167 11.6303V17.7405H43.3333V8.25915H41.2967V16.0549Z" fill="#CDCDCD"/>
<path d="M101.27 13.316H98.2801V10.4505H95.8967C95.8967 10.4505 96.2867 11.2933 96.2867 13.8216V17.7406H98.2801V14.8751H101.27V17.7406H103.307V10.4505H101.27V13.316Z" fill="#CDCDCD"/>
<path d="M106.817 14.9173V10.4505H104.823V17.7406H106.817L109.807 13.2738V17.7406H111.843V10.4505H109.807L106.817 14.9173Z" fill="#CDCDCD"/>
<path d="M60.71 10.4505H58.4567L55.9434 13.4845V10.4505H53.5167C53.5167 10.4505 53.9067 11.2933 53.9067 13.7795V17.7406H55.9434V14.4959L58.24 17.7406H60.6667L57.85 13.9059L60.71 10.4505Z" fill="#CDCDCD"/>
<path d="M81.4667 16.3499C80.34 16.3499 79.6033 15.465 79.6033 14.2008C79.6033 12.9366 80.2967 11.9253 81.4667 11.8831C82.6367 11.841 83.5033 12.8102 83.5033 14.1165C83.5033 15.4229 82.68 16.3499 81.4667 16.3499ZM85.54 10.4504H83.5467V11.1246C82.9238 10.5625 82.0993 10.2599 81.25 10.2818C78.9533 10.2818 77.5667 12.0517 77.5667 14.2429C77.5667 16.4342 79.17 17.9512 81.0767 17.9512C81.5653 17.9458 82.0462 17.8377 82.4883 17.6339C82.9292 17.4303 83.3203 17.1359 83.6333 16.7713C83.6864 17.119 83.8197 17.4503 84.0233 17.7405H86.0167C85.6267 17.1084 85.54 16.3921 85.54 14.0323V10.4504Z" fill="#CDCDCD"/>
<path d="M70.4601 15.0858C70.4601 15.8865 70.1567 16.2236 69.5934 16.2236C69.4303 16.2281 69.2679 16.1994 69.1167 16.1393V17.7406C69.4103 17.8902 69.7389 17.9628 70.0701 17.9513C71.9767 17.9513 72.4101 16.4764 72.4101 15.0858V12.0518H74.2301V17.7406H76.2234V10.4505H70.4601V15.0858Z" fill="#CDCDCD"/>
<path d="M121.117 16.1393H120.207V10.4505H118.213V16.1393H115.353V10.4505H113.317V17.7406H119.08C119.079 18.3236 119.212 18.8994 119.47 19.4262H121.507C121.507 19.4262 120.943 18.5834 121.117 16.1393Z" fill="#CDCDCD"/>
<path d="M64.6534 16.3077C63.3967 16.3077 62.7467 15.3806 62.7467 14.1165C62.7467 12.8523 63.3967 11.9252 64.6534 11.9252C65.9101 11.9252 66.5601 12.8944 66.5601 14.1165C66.5601 15.3385 65.9101 16.3077 64.6534 16.3077ZM64.6534 10.2818C62.1401 10.2818 60.7101 11.9252 60.7101 14.1165C60.7101 16.3077 62.0967 17.9511 64.6534 17.9511C67.2101 17.9511 68.5967 16.3077 68.5967 14.1165C68.5967 11.9252 67.1667 10.2818 64.6534 10.2818Z" fill="#CDCDCD"/>
</svg>
