<svg width="64" height="82" viewBox="0 0 64 82" fill="none" xmlns="http://www.w3.org/2000/svg">
<path d="M0 0V20.5C11.2649 20.5238 20.3931 29.6757 20.3931 40.9525C20.3931 52.2293 11.2649 61.3694 0 61.3931V82C22.6485 82 40.9995 63.6366 40.9995 41C40.9995 18.3634 22.6485 0 0 0Z" fill="white" fill-opacity="0.2"/>
<path d="M2.48127 31.7537H0.166595V30.0918H6.73088V31.7537H4.40426V38.3892H2.48127V31.7537Z" fill="white"/>
<path d="M7.94196 30.0918H13.7821V31.7655H9.87679V33.4512H13.2242V35.1129H9.87679V36.7273H13.8415V38.3892H7.94196V30.0918Z" fill="white"/>
<path d="M20.5726 37.0715H17.0946L16.5723 38.3892H14.5306L17.9255 30.0918H19.7417L23.1366 38.3892H21.0949L20.5726 37.0715ZM17.7593 35.4216H19.9079L18.8989 32.917L18.8395 32.6439H18.8277L18.7683 32.917L17.7593 35.4216Z" fill="white"/>
<path d="M24.9156 31.7537H22.601V30.0918H29.1652V31.7537H26.8506V38.3892H24.9156V31.7537Z" fill="white"/>
<path d="M32.3112 35.8489V38.3892H30.3763V30.0918H33.9612C34.4003 30.0918 34.792 30.163 35.16 30.3054C35.528 30.4479 35.8485 30.6498 36.1097 30.9109C36.3708 31.172 36.5844 31.4688 36.7269 31.8249C36.8812 32.181 36.9524 32.5608 36.9524 32.9763C36.9524 33.4036 36.8812 33.7834 36.7388 34.1396C36.5964 34.4957 36.3946 34.7925 36.1215 35.0418C35.8604 35.2911 35.5518 35.4928 35.1838 35.6353C34.8158 35.7777 34.4241 35.8489 33.9967 35.8489H32.3112ZM33.8781 34.1871C34.0323 34.1871 34.1867 34.1514 34.3172 34.0921C34.4596 34.0327 34.5784 33.9378 34.6852 33.831C34.792 33.7241 34.8751 33.5936 34.9345 33.4512C34.9938 33.3087 35.0176 33.1425 35.0176 32.9763C35.0176 32.8101 34.982 32.6558 34.9345 32.5015C34.8751 32.3472 34.792 32.2166 34.6852 32.1097C34.5784 32.0029 34.4596 31.908 34.3172 31.8486C34.1748 31.7893 34.0323 31.7537 33.8781 31.7537H32.3112V34.1871H33.8781Z" fill="white"/>
<path d="M1.8168 45.3089H5.88838C5.82897 45.0358 5.71026 44.7985 5.56785 44.561C5.41351 44.3355 5.23548 44.1337 5.03366 43.9675C4.82001 43.8013 4.58257 43.6708 4.32145 43.5758C4.06032 43.4808 3.77542 43.4333 3.49052 43.4333C3.09883 43.4333 2.73083 43.5164 2.39846 43.6826C2.06608 43.8488 1.78118 44.0625 1.54384 44.3474L0.155029 43.1722C0.356749 42.9586 0.594185 42.7568 0.843465 42.5906C1.09274 42.4125 1.36571 42.27 1.63877 42.1514C1.92368 42.0327 2.22043 41.9377 2.52902 41.8665C2.8377 41.8071 3.15814 41.7715 3.49052 41.7715C3.90598 41.7715 4.3096 41.819 4.70129 41.9258C5.09307 42.0327 5.44913 42.1751 5.78151 42.3651C6.11388 42.5549 6.42247 42.7805 6.69553 43.0417C6.9685 43.3028 7.20594 43.5995 7.40775 43.9201C7.60956 44.2405 7.75196 44.5967 7.87068 44.9647C7.97746 45.3327 8.03687 45.7243 8.03687 46.128C8.03687 46.5315 7.97746 46.9233 7.87068 47.2912C7.76381 47.6592 7.60956 48.0153 7.40775 48.3358C7.20594 48.6563 6.9685 48.953 6.69553 49.2261C6.42247 49.4872 6.11388 49.7247 5.78151 49.9145C5.44913 50.1045 5.08113 50.2469 4.70129 50.3538C4.3096 50.4606 3.91783 50.508 3.49052 50.508C3.17008 50.508 2.84955 50.4724 2.54095 50.4131C2.23227 50.3538 1.93552 50.2588 1.65062 50.1282C1.36571 50.0095 1.10459 49.8552 0.85531 49.689C0.60603 49.5109 0.38053 49.321 0.166874 49.1074L1.54384 47.9322C1.78118 48.217 2.06608 48.4426 2.39846 48.6088C2.73083 48.775 3.09883 48.8463 3.49052 48.8463C3.78727 48.8463 4.06032 48.7987 4.32145 48.7038C4.58257 48.6088 4.82001 48.4783 5.03366 48.3121C5.24732 48.1459 5.42535 47.9441 5.56785 47.7186C5.72219 47.493 5.81713 47.2437 5.88838 46.9707H1.8168V45.3089Z" fill="white"/>
<path d="M16.1088 45.0358C16.0139 44.7747 15.8952 44.5492 15.729 44.3474C15.5628 44.1456 15.3848 43.9794 15.171 43.8488C14.9574 43.7183 14.7319 43.6114 14.4944 43.5402C14.2571 43.469 14.0078 43.4333 13.7585 43.4333C13.4024 43.4333 13.0581 43.5046 12.7496 43.6352C12.429 43.7657 12.156 43.9557 11.9186 44.205C11.6812 44.4423 11.4912 44.7272 11.3607 45.0596C11.2301 45.392 11.1589 45.7362 11.1589 46.128C11.1589 46.5078 11.2301 46.8639 11.3607 47.1962C11.5032 47.5286 11.6812 47.8135 11.9186 48.051C12.156 48.2883 12.429 48.4783 12.7496 48.6207C13.07 48.7632 13.4024 48.8225 13.7585 48.8225C14.0078 48.8225 14.2571 48.7869 14.4944 48.7275C14.7319 48.6563 14.9574 48.5614 15.171 48.4308C15.3728 48.3001 15.5628 48.134 15.717 47.9322C15.8832 47.7304 16.0019 47.5048 16.085 47.2437H18.0674C17.9843 47.5999 17.8656 47.9322 17.6994 48.229C17.5332 48.5257 17.3433 48.7987 17.1296 49.0361C16.9041 49.2736 16.6667 49.4872 16.3937 49.6653C16.1207 49.8433 15.8477 49.9976 15.5509 50.1163C15.2541 50.2351 14.9574 50.33 14.6488 50.3893C14.3402 50.4487 14.0433 50.4843 13.7466 50.4843C13.3311 50.4843 12.9276 50.4369 12.5358 50.33C12.1441 50.2231 11.7881 50.0807 11.4557 49.8909C11.1233 49.7009 10.8146 49.4754 10.5417 49.2142C10.2686 48.953 10.0313 48.6563 9.82945 48.3358C9.62763 48.0153 9.48523 47.671 9.36651 47.2912C9.25963 46.9233 9.20032 46.5315 9.20032 46.128C9.20032 45.7243 9.25963 45.3445 9.36651 44.9647C9.47329 44.5967 9.62763 44.2524 9.82945 43.9201C10.0313 43.5995 10.2567 43.3028 10.5417 43.0417C10.8146 42.7805 11.1233 42.5549 11.4557 42.3651C11.7881 42.1751 12.156 42.0327 12.5358 41.9258C12.9276 41.819 13.3193 41.7715 13.7466 41.7715C14.0433 41.7715 14.3402 41.8071 14.6488 41.8546C14.9574 41.914 15.2541 41.9971 15.5509 42.1158C15.8477 42.2345 16.1325 42.3888 16.3937 42.5668C16.6667 42.7449 16.916 42.9586 17.1296 43.1959C17.3552 43.4334 17.5451 43.7064 17.6994 44.015C17.8656 44.3236 17.9843 44.656 18.0555 45.024L16.1088 45.0358Z" fill="white"/>
<path d="M21.5555 43.647H19.2408V41.9971H25.7931V43.647H23.4785V50.2825H21.5555V43.647Z" fill="white"/>
<path d="M28.9527 47.7424V50.2827H27.0179V41.9854H30.6027C31.0419 41.9854 31.4336 42.0565 31.8016 42.199C32.1696 42.3414 32.49 42.5432 32.7513 42.8044C33.0124 43.0655 33.226 43.3622 33.3684 43.7184C33.5109 44.0744 33.594 44.4544 33.594 44.8697C33.594 45.2972 33.5228 45.677 33.3804 46.0331C33.2379 46.3892 33.0242 46.686 32.7631 46.9352C32.502 47.1845 32.1933 47.3863 31.8253 47.5287C31.4574 47.6711 31.0656 47.7424 30.6383 47.7424H28.9527ZM30.5196 46.0805C30.6739 46.0805 30.8283 46.045 30.9707 45.9856C31.1131 45.9263 31.2318 45.8432 31.3387 45.7245C31.4455 45.6176 31.5286 45.487 31.588 45.3446C31.6473 45.2021 31.6711 45.0359 31.6711 44.8697C31.6711 44.7036 31.6473 44.5493 31.588 44.395C31.5286 44.2406 31.4455 44.122 31.3387 44.0033C31.2318 43.8964 31.1131 43.8015 30.9707 43.7422C30.8283 43.6828 30.6858 43.6471 30.5196 43.6471H28.9527V46.0805H30.5196Z" fill="white"/>
<path d="M40.0636 48.965H36.5856L36.0633 50.2827H34.0216L37.4165 41.9854H39.2327L42.6273 50.2827H40.5978L40.0636 48.965ZM37.2503 47.3269H39.3989L38.3899 44.8223L38.3306 44.5493H38.3187L38.2593 44.8223L37.2503 47.3269Z" fill="white"/>
<path d="M50.4135 50.2827H43.4453V48.6208H43.9683C44.0749 48.5377 44.1815 48.4309 44.2762 48.2884C44.3719 48.146 44.4666 47.9917 44.5495 47.8136C44.6325 47.6356 44.7035 47.4575 44.7755 47.2676C44.8466 47.0776 44.9058 46.8878 44.9532 46.6978C45.0005 46.5079 45.0479 46.3417 45.0835 46.1756C45.119 46.0094 45.1427 45.8669 45.1545 45.7601L45.5581 41.9854H51.3865V48.6089H52.3368V50.2708H50.4135V50.2827ZM47.0779 45.9619C47.0187 46.496 46.9239 46.9827 46.7927 47.4219C46.6624 47.8611 46.4729 48.2647 46.2233 48.6208H49.4641V43.6591H47.3157L47.0779 45.9619Z" fill="white"/>
<path d="M57.5116 44.5375C57.9389 44.5375 58.3425 44.6086 58.6987 44.7511C59.0668 44.8935 59.3748 45.0835 59.6363 45.3446C59.8978 45.5939 60.0991 45.9025 60.254 46.2467C60.3961 46.6029 60.4672 46.9827 60.4672 47.41C60.4672 47.8255 60.3961 48.2173 60.2413 48.5615C60.0873 48.9175 59.8859 49.2143 59.6244 49.4755C59.3629 49.7366 59.0431 49.9265 58.6751 50.0808C58.307 50.2233 57.9033 50.2945 57.476 50.2945H53.8908V41.9972H55.826V44.5375H57.5116ZM55.826 46.1992V48.6326H57.3931C57.5471 48.6326 57.7011 48.5971 57.8441 48.5377C57.9863 48.4784 58.1047 48.3834 58.2122 48.2766C58.3188 48.1697 58.4017 48.0391 58.4609 47.8849C58.5202 47.7306 58.5439 47.5762 58.5439 47.41C58.5439 47.2438 58.5083 47.0776 58.4609 46.9352C58.4017 46.7927 58.3188 46.6622 58.2122 46.5554C58.1047 46.4485 57.9863 46.3654 57.8441 46.2943C57.7011 46.2349 57.5589 46.1992 57.3931 46.1992H55.826ZM63.1495 50.2827V41.9854H61.2152V50.2827H63.1495Z" fill="white"/>
<path d="M0.928521 55.7661H0.429962V52.668H0.86921V54.6384L1.04724 53.95L1.43893 52.668H1.97311V55.7661H1.53387V53.5938L1.34399 54.3535L0.928521 55.7661Z" fill="white"/>
<path d="M3.79795 54.8759L4.13032 52.668H4.80691V55.7661H4.34397V53.5464L4.0116 55.7661H3.54867L3.18067 53.582V55.7661H2.75336V52.668H3.42995L3.79795 54.8759Z" fill="white"/>
<path d="M6.09032 53.9737H6.75507V54.4248H6.09032V55.3269H6.93319V55.7661H5.6037V52.668H6.93319V53.1191H6.09032V53.9737Z" fill="white"/>
<path d="M8.15709 55.7661H7.67038V52.668H8.15709V53.9975H8.71497V52.668H9.21353V55.7661H8.71497V54.4485H8.15709V55.7661Z" fill="white"/>
<path d="M10.5074 55.7661H10.0089V52.668H10.4362V54.6384L10.6142 53.95L11.0178 52.668H11.552V55.7661H11.1128V53.5938L10.9111 54.3535L10.5074 55.7661Z" fill="white"/>
<path d="M15.0413 55.7661H14.5547L14.4716 55.2082H13.878L13.795 55.7661H13.3439L13.8425 52.668H14.5547L15.0413 55.7661ZM13.9374 54.7928H14.4003L14.1629 53.2258L13.9374 54.7928Z" fill="white"/>
<path d="M17.1537 53.4395V53.8431C17.1537 54.3417 16.9163 54.6146 16.4296 54.6146H16.2041V55.778H15.7173V52.668H16.4296C16.9163 52.668 17.1537 52.9409 17.1537 53.4395ZM16.1922 54.1637H16.4177C16.5721 54.1637 16.6551 54.0924 16.6551 53.8669V53.4039C16.6551 53.1784 16.5721 53.1071 16.4177 53.1071H16.1922V54.1637Z" fill="white"/>
<path d="M18.4583 54.5316L18.304 54.8165V55.7661H17.8174V52.668H18.304V54.0212L18.9451 52.668H19.4317L18.7551 54.0568L19.4317 55.7661H18.9331L18.4583 54.5316Z" fill="white"/>
<path d="M21.6768 55.7661H21.1901L21.107 55.2082H20.5135L20.4304 55.7661H19.9793L20.4778 52.668H21.1901L21.6768 55.7661ZM20.5609 54.7928H21.0358L20.7984 53.2258L20.5609 54.7928Z" fill="white"/>
<path d="M23.7538 56.1934V55.778H22.7092V56.1934H22.2343V55.3388H22.4243C22.5074 55.2319 22.5311 55.1132 22.543 54.9352L22.6498 52.668H24.0149V55.3269H24.2286V56.1816H23.7538V56.1934ZM23.0178 54.9233C23.006 55.1608 22.9585 55.2557 22.8754 55.3388H23.5164V53.1191H23.1009L23.0178 54.9233Z" fill="white"/>
<path d="M25.4398 55.7661H24.9412V52.668H25.3804V54.6384L25.5585 53.95L25.9502 52.668H26.4844V55.7661H26.0571V53.5938L25.8552 54.3535L25.4398 55.7661Z" fill="white"/>
<path d="M27.1845 55.7661C27.232 55.6474 27.2438 55.5406 27.2438 55.3863V54.9115C27.2438 54.591 27.3269 54.3535 27.5644 54.2467C27.3507 54.1399 27.2438 53.9381 27.2438 53.6176V53.3802C27.2438 52.9054 27.4575 52.668 27.9679 52.668H28.7039V55.7661H28.2172V54.5079H28.051C27.8255 54.5079 27.7305 54.6147 27.7305 54.8996V55.3863C27.7305 55.6355 27.7068 55.683 27.683 55.7661H27.1845ZM27.9798 53.1191C27.8017 53.1191 27.7305 53.214 27.7305 53.4395V53.7482C27.7305 53.9975 27.8373 54.0806 28.0273 54.0806H28.2172V53.1309H27.9798V53.1191Z" fill="white"/>
<path d="M32.0729 53.4395V53.8431C32.0729 54.3417 31.8355 54.6146 31.3488 54.6146H31.1233V55.778H30.6248V52.668H31.337C31.8355 52.668 32.0729 52.9409 32.0729 53.4395ZM31.1115 54.1637H31.337C31.4913 54.1637 31.5744 54.0924 31.5744 53.8669V53.4039C31.5744 53.1784 31.4913 53.1071 31.337 53.1071H31.1115V54.1637Z" fill="white"/>
<path d="M34.3189 55.7661H33.8321L33.7491 55.2082H33.1555L33.0725 55.7661H32.6214L33.1199 52.668H33.8321L34.3189 55.7661ZM33.203 54.7928H33.6779L33.4405 53.2258L33.203 54.7928Z" fill="white"/>
<path d="M35.4803 55.7662H34.9817V52.668H35.4208V54.6266L35.599 53.95L36.0025 52.668H36.5367V55.7662H36.0856V53.582L35.8839 54.3417L35.4803 55.7662ZM35.9788 51.9795C35.967 52.1457 35.8957 52.1813 35.7532 52.1813C35.6227 52.1813 35.5633 52.1457 35.5396 51.9795H35.2548C35.2666 52.2763 35.4208 52.4662 35.7652 52.4662C36.1094 52.4662 36.2874 52.2763 36.2874 51.9795H35.9788Z" fill="white"/>
<path d="M37.9627 54.5316L37.8085 54.8165V55.7661H37.3217V52.668H37.8085V54.0212L38.4494 52.668H38.9361L38.2595 54.0568L38.9361 55.7661H38.4376L37.9627 54.5316Z" fill="white"/>
<path d="M40.0988 55.7661H39.6002V52.668H40.0394V54.6384L40.2056 53.95L40.6092 52.668H41.1435V55.7661H40.7044V53.5938L40.5024 54.3535L40.0988 55.7661Z" fill="white"/>
<path d="M42.425 55.7661H41.9385V52.668H42.425V53.9975H42.9708V52.668H43.4691V55.7661H42.9708V54.4485H42.425V55.7661Z" fill="white"/>
<path d="M45.843 55.7661H45.3446L45.2617 55.2082H44.6676L44.5847 55.7661H44.1337L44.6321 52.668H45.3446L45.843 55.7661ZM44.7269 54.7928H45.2025L44.9647 53.2258L44.7269 54.7928Z" fill="white"/>
</svg>
