<svg width="116" height="13" viewBox="0 0 116 13" fill="none" xmlns="http://www.w3.org/2000/svg">
<path d="M42.5841 6.50324H42.3466V5.80538H42.5841C44.4538 5.80538 45.1335 4.2714 45.1335 3.24082V3.16952C45.1335 1.09756 43.3078 0 39.8544 0H32.3758V12.7472H40.257C43.8093 12.7472 45.4634 11.6713 45.4634 9.36164V9.29036C45.4634 7.94002 44.456 6.50324 42.5841 6.50324ZM37.3249 3.45688H39.5245C39.9314 3.45688 40.1844 3.73774 40.1844 3.99701V4.32109C40.1844 4.70351 39.9138 4.96926 39.5245 4.96926H37.3249V3.45688ZM40.2944 8.64219C40.2944 8.90145 40.0414 9.18232 39.6345 9.18232H37.3249V7.56191H39.6345C40.0238 7.56191 40.2944 7.82766 40.2944 8.21007V8.64219Z" fill="#CDCDCD"/>
<path d="M87.0687 0H75.9454V12.7472H87.0687V9.10238H80.8835V7.68938H86.7388V4.89364H80.8835V3.64052H87.0687V0Z" fill="#CDCDCD"/>
<path d="M6.23365 0H0V12.7472H6.25125C8.56742 12.7472 10.3205 12.2049 11.4643 11.1376C12.5993 10.0789 13.1756 8.4607 13.1756 6.32824V6.20077C13.1756 1.97042 10.9694 0 6.23365 0ZM8.02412 7.86006C8.02412 8.42612 7.5556 8.88633 6.97931 8.88633H4.96009V3.86089H6.97931C7.5556 3.86089 8.02412 4.32109 8.02412 4.88716V7.86006Z" fill="#CDCDCD"/>
<path d="M52.8563 8.89497C52.2712 8.89497 51.7938 8.44341 51.7938 7.88599V0H46.7348V6.80572C46.7348 11.0317 48.7496 13 53.0784 13C57.3808 13 59.3846 11.0317 59.3846 6.80572V0H54.3256V7.88599C54.3256 8.45205 53.8747 8.89497 53.2984 8.89497H52.8563Z" fill="#CDCDCD"/>
<path d="M109.912 8.89497H109.472C108.884 8.89497 108.409 8.44341 108.409 7.88599V0H103.35V6.80572C103.35 11.0317 105.365 13 109.694 13C113.996 13 116 11.0317 116 6.80572V0H110.941V7.88599C110.938 8.45205 110.488 8.89497 109.912 8.89497Z" fill="#CDCDCD"/>
<path d="M71.7002 7.94649H70.8863V7.24863H71.2778C72.701 7.24863 74.1373 6.20941 74.1373 3.88899V3.81769C74.1395 1.35467 72.1467 0 68.5306 0H61.2719V12.7472H66.2584V9.21906H67.5055C67.8575 9.21906 68.1522 9.44159 68.2358 9.77215L69.1245 12.7472H74.3507L73.0265 8.95546C72.7736 8.21008 72.426 7.94649 71.7002 7.94649ZM69.1904 4.93037C69.1904 5.18963 68.9375 5.4705 68.5306 5.4705H66.2584V3.63404H68.5306C68.9199 3.63404 69.1904 3.89979 69.1904 4.2822V4.93037Z" fill="#CDCDCD"/>
<path d="M17.6385 0L12.8654 12.7472H17.9355L18.4788 11.1203H22.5964L23.1529 12.7472H28.1944L23.4389 0H17.6385ZM19.4972 7.77797L19.9195 6.34336C20.0383 5.90261 20.0933 5.60446 20.1351 5.16803L20.2011 4.3643H20.8588L20.9247 5.17019C20.9665 5.60662 21.0215 5.90477 21.1403 6.34768L21.5648 7.77797H19.4972Z" fill="#CDCDCD"/>
<path d="M92.7921 0L88.019 12.7472H93.089L93.6323 11.1203H97.75L98.3065 12.7472H103.348L98.5924 0H92.7921ZM94.6507 7.77797L95.0731 6.34336C95.1918 5.90261 95.2468 5.60446 95.2886 5.16803L95.3546 4.3643H96.0123L96.0783 5.17019C96.1201 5.60662 96.1751 5.90477 96.2939 6.34768L96.7162 7.78013H94.6508L94.6507 7.77797Z" fill="#CDCDCD"/>
</svg>
