<svg width="113" height="45" viewBox="0 0 113 45" fill="none" xmlns="http://www.w3.org/2000/svg">
<path d="M104.847 1.10121C105.687 0.441441 106.739 0.0476231 107.813 0.00236825C109.393 -0.0476258 110.975 0.696988 111.926 1.94452C112.534 2.67863 112.809 3.60092 113 4.5127V17.4399C112.83 18.1077 112.702 18.8012 112.326 19.3936C111.676 20.5575 110.522 21.4287 109.218 21.7563C107.939 22.1024 106.525 21.8828 105.397 21.1998C104.011 20.3867 103.067 18.8686 102.995 17.2761C102.967 16.909 103.012 16.5326 102.909 16.1749C102.8 16.6581 102.75 17.1611 102.525 17.6118C102.301 18.1508 101.921 18.6026 101.52 19.0219C103.687 19.8257 105.471 21.6169 106.155 23.8087C106.856 25.8763 106.545 28.2343 105.384 30.0824C104.388 31.7051 102.73 32.9085 100.877 33.3999C99.4268 33.8134 97.8514 33.7507 96.4267 33.2686C94.613 32.6901 93.0753 31.3811 92.1525 29.7444C91.6618 30.1556 91.0479 30.4309 90.3944 30.4181C85.558 30.4227 80.7206 30.4193 75.8842 30.4204C75.8814 28.8302 75.8852 27.2389 75.8814 25.6487C78.0708 25.637 80.2601 25.6719 82.4495 25.6313C82.0182 25.335 81.5286 25.1352 81.1039 24.8309C79.6217 23.832 78.5444 22.286 78.084 20.5796C77.986 20.1951 77.9324 19.8013 77.8137 19.4226C77.7544 20.1138 77.7967 20.8072 77.7854 21.4995C77.2063 21.4938 76.6272 21.4949 76.049 21.4972C76.05 15.0145 76.049 8.53174 76.049 2.05017C75.597 2.05017 75.1441 2.05017 74.693 2.04906C74.6977 1.47756 74.7015 0.906073 74.6845 0.334579C75.7185 0.317109 76.7524 0.331048 77.7864 0.326402C77.7826 4.42675 77.7854 8.52709 77.7854 12.6274C77.8043 14.3896 77.745 16.154 77.8146 17.9138C77.9634 17.3806 78.0171 16.8242 78.212 16.3027C78.5972 15.1074 79.3204 14.0341 80.2244 13.1594C80.9127 12.509 81.7461 12.0362 82.6068 11.6436C81.4683 10.6202 80.8845 8.97082 81.327 7.48865C81.7574 5.81487 83.3554 4.5429 85.1003 4.45927C86.5712 4.38846 88.0647 5.14692 88.8312 6.39333C89.4489 7.35279 89.6175 8.57476 89.2888 9.66432C89.0958 10.3972 88.6438 11.0245 88.1212 11.5658C89.9169 12.2418 91.465 13.5753 92.3059 15.291C93.1403 16.8695 93.3361 18.7512 92.8917 20.4727C92.7787 20.9594 92.5527 21.4136 92.4735 21.9084C92.9095 21.4716 93.258 20.9559 93.7363 20.5575C94.3974 19.943 95.1893 19.4877 96.0189 19.1299C95.3663 18.5016 94.8588 17.7105 94.6855 16.8184C94.3682 15.464 94.8739 13.9947 95.8767 13.0398C96.5924 12.387 97.5341 11.963 98.5153 11.9259C99.876 11.8236 101.229 12.4973 102.043 13.5626C102.588 14.2409 102.788 15.0993 102.911 15.9368C103.02 15.5407 102.967 15.1271 102.976 14.7229C102.979 11.4694 102.971 8.21579 102.98 4.96228C102.972 3.48123 103.683 2.03047 104.847 1.10121ZM106.052 2.28602C105.134 2.89236 104.63 4.00515 104.681 5.08188C104.692 5.94376 104.669 6.80453 104.694 7.66521C105.555 6.93927 106.35 6.14011 107.177 5.3758C108.156 4.39311 109.251 3.5184 110.174 2.4846C109.045 1.52746 107.258 1.39969 106.052 2.28602ZM111.065 4.0307C108.933 6.01698 106.822 8.02297 104.689 10.0081C104.675 12.315 104.687 14.6219 104.681 16.9288C104.677 18.0183 105.243 19.1183 106.194 19.6921C107.279 20.396 108.789 20.3601 109.853 19.6294C110.739 19.0323 111.282 17.9788 111.262 16.9206C111.259 12.8946 111.267 8.8686 111.257 4.84259C111.2 4.58472 111.281 4.21534 111.065 4.0307ZM84.8056 6.19819C83.6341 6.43283 82.7716 7.62107 82.9316 8.79314C83.0164 9.89775 83.9939 10.8363 85.1078 10.9223C85.9563 11.0257 86.8254 10.6261 87.3208 9.9431C88.0383 8.98829 87.8905 7.49794 86.9497 6.73716C86.38 6.21678 85.5542 6.04486 84.8056 6.19819ZM84.2142 12.9295C82.5465 13.2745 81.0624 14.378 80.2554 15.8566C79.5191 17.2076 79.3213 18.8488 79.7827 20.3206C80.2554 21.9607 81.5154 23.3464 83.0917 24.033C84.3941 24.5835 85.8941 24.6556 87.253 24.2594C88.4696 23.8645 89.5713 23.1014 90.3143 22.0664C91.3492 20.6376 91.6816 18.7303 91.1759 17.0461C90.7399 15.5012 89.6269 14.1457 88.1645 13.4382C86.9582 12.8179 85.541 12.6705 84.2142 12.9295ZM97.9776 13.7298C96.76 14.1003 96.0039 15.5024 96.4116 16.7022C96.695 17.6594 97.6329 18.3679 98.6415 18.4017C99.5926 18.4516 100.535 17.8824 100.941 17.0356C101.243 16.3643 101.237 15.5581 100.909 14.8972C100.391 13.8669 99.0737 13.3465 97.9776 13.7298ZM97.9475 20.2973C96.0585 20.5715 94.3522 21.8085 93.5169 23.4997C92.8992 24.7694 92.7278 26.262 93.1111 27.6245C93.4246 28.8383 94.1601 29.943 95.1601 30.7143C96.6602 31.9014 98.7639 32.2941 100.602 31.7376C102.054 31.3218 103.305 30.3019 104.052 29.0115C104.787 27.7186 105 26.1481 104.644 24.709C104.347 23.4568 103.609 22.308 102.584 21.5147C101.306 20.482 99.5709 20.0545 97.9475 20.2973ZM90.9914 23.897C90.3011 24.6625 89.3774 25.1492 88.495 25.6592C89.4056 25.7219 90.3237 25.6127 91.2296 25.7498C91.2993 25.1283 91.385 24.5046 91.579 23.9063C91.6939 23.5416 91.8587 23.192 91.9387 22.8156C91.5686 23.128 91.3275 23.5555 90.9914 23.897Z" fill="#CDCDCD"/>
<path d="M14.8089 11.5531C16.013 11.1489 17.3138 11.0444 18.572 11.2023C20.2623 11.4242 21.8102 12.2292 23.1485 13.2421C24.7588 14.4106 26.0242 15.9984 26.9505 17.7373C28.1017 19.899 28.7809 22.2686 29.2494 24.6557C29.8814 24.3513 30.6689 24.0888 31.3328 24.4559C31.7448 24.6498 31.8566 25.118 32.0956 25.4618C32.2321 25.6593 32.5051 25.6581 32.7217 25.6755C33.4491 25.6883 34.1766 25.6732 34.9052 25.6778C34.9064 25.6198 34.9088 25.5024 34.9099 25.4432C35.0959 25.4084 35.2913 25.3967 35.4702 25.3235C35.555 24.9298 35.5055 24.5244 35.5162 24.126C35.4997 22.9144 35.5468 21.7017 35.4891 20.4914C35.2971 20.4647 35.1053 20.4392 34.9134 20.417C34.9111 20.3393 34.9076 20.1824 34.9052 20.1046C35.5455 20.1011 36.1859 20.1034 36.8262 20.1023C36.8227 20.208 36.8215 20.3125 36.8192 20.4182C36.6225 20.4426 36.4249 20.4682 36.2295 20.4972C36.2059 21.2301 36.2259 21.9643 36.2154 22.6973C37.1181 22.6996 38.0221 22.6949 38.9261 22.6996C38.9097 21.9643 38.952 21.2278 38.8932 20.4937C38.6954 20.4624 38.4977 20.4356 38.3011 20.4066C38.3035 20.3311 38.307 20.1813 38.3093 20.1057C38.9555 20.1011 39.6007 20.1046 40.2457 20.1023C40.2457 20.179 40.2457 20.3334 40.2457 20.4113C40.0456 20.4415 39.8455 20.474 39.6465 20.5076C39.6442 22.1141 39.6395 23.7218 39.6489 25.3294C39.8443 25.3665 40.0409 25.4025 40.2386 25.4386C40.2433 25.4978 40.2528 25.6174 40.2575 25.6766C41.7252 25.6732 43.1942 25.6929 44.6621 25.6673C44.0276 25.37 43.465 24.8903 43.1895 24.2409C42.9164 23.659 42.9224 22.9923 43.0048 22.3697C43.1566 21.3951 43.8687 20.5007 44.8163 20.1685C45.7673 19.8827 46.9115 20.0872 47.5813 20.8504C48.1992 21.4637 48.4205 22.365 48.3252 23.2083C48.2616 24.2572 47.5565 25.1772 46.6325 25.6604C48.55 25.7011 50.4697 25.6697 52.3873 25.6755C52.3884 25.6151 52.3896 25.4943 52.3896 25.4339C52.5956 25.4095 52.8074 25.4048 53.0052 25.3375C53.1382 25.1539 53.1218 24.9205 53.13 24.7068C53.1229 23.3117 53.1299 21.9155 53.1252 20.5193C52.7404 20.5205 52.3555 20.5193 51.9706 20.51C51.8894 20.783 51.8128 21.0582 51.7446 21.3347C51.5975 21.3324 51.4515 21.3312 51.3067 21.3312C51.3056 20.9305 51.3067 20.5309 51.3067 20.1313C52.7474 20.129 54.1894 20.1325 55.6302 20.1302C55.6313 20.5298 55.6313 20.9305 55.6325 21.3312C55.4842 21.3312 55.3382 21.3324 55.1923 21.3336C55.1228 21.0606 55.0522 20.79 54.9815 20.5181C54.592 20.5193 54.2023 20.5193 53.8139 20.5181C53.8092 21.8772 53.8175 23.2373 53.808 24.5964C53.8139 24.8369 53.7927 25.0912 53.901 25.3166C54.1023 25.406 54.3294 25.4048 54.546 25.4386C54.5484 25.499 54.5543 25.6186 54.5567 25.679C55.9303 25.679 57.3051 25.6766 58.6799 25.6802C58.6812 25.6198 58.6858 25.499 58.687 25.4386C58.9059 25.3642 59.3885 25.4815 59.3804 25.1423C59.4097 23.688 59.3885 22.2314 59.3898 20.7771C59.4262 20.3961 58.9354 20.4542 58.6859 20.4263C58.6859 20.3497 58.6858 20.1975 58.687 20.1209C60.0536 20.1197 61.4202 20.1174 62.7867 20.122C62.788 20.5251 62.788 20.9293 62.7867 21.3336C62.6832 21.3324 62.4772 21.3324 62.3748 21.3312C62.3041 21.0629 62.2336 20.7957 62.163 20.5274C61.4696 20.5588 60.7775 20.575 60.0842 20.5843C60.0783 21.2755 60.0807 21.9678 60.0819 22.6589C60.5198 22.6578 60.9576 22.6578 61.3966 22.6612C61.4473 22.4777 61.4991 22.2941 61.5485 22.1106C61.6521 22.1036 61.7556 22.0967 61.8604 22.0897C61.8628 22.631 61.8675 23.1723 61.8545 23.7136C61.4637 23.767 61.4897 23.3535 61.4002 23.0992C60.9564 23.0829 60.5127 23.0829 60.0689 23.0875C60.0689 23.8065 60.07 24.5244 60.0677 25.2434C60.7799 25.2504 61.4897 25.2992 62.2006 25.298C62.2642 25.032 62.3312 24.766 62.396 24.5C62.5326 24.4988 62.6691 24.4977 62.8068 24.4965C62.8057 24.8903 62.8057 25.284 62.808 25.6778C63.8544 25.679 64.9009 25.679 65.9487 25.6778C65.9477 25.6162 65.9449 25.492 65.944 25.4293C66.1568 25.4095 66.3696 25.3862 66.5824 25.3607C66.6333 25.068 66.6549 24.7718 66.6474 24.4756C66.6323 23.2316 66.6549 21.9864 66.6398 20.7412C66.6832 20.3881 66.2726 20.4577 66.0447 20.4124C66.0447 20.3346 66.0438 20.1801 66.0438 20.1023C66.6832 20.1034 67.3216 20.1023 67.961 20.1046C67.9591 20.2103 67.9563 20.316 67.9544 20.4217C67.7623 20.4392 67.5712 20.4577 67.38 20.4774C67.3028 22.063 67.3649 23.6532 67.348 25.2411C68.0297 25.2631 68.7096 25.298 69.3923 25.3189C69.4658 25.0506 69.5383 24.7822 69.6089 24.514C69.7445 24.5151 69.8811 24.5163 70.0176 24.5174C70.0157 24.9089 70.0157 25.3003 70.0157 25.6918C70.4941 25.6778 70.9809 25.7463 71.4546 25.6616C71.754 25.6046 71.835 25.2933 71.9377 25.0564C72.0874 24.665 72.3586 24.3106 72.739 24.1155C73.2334 23.8344 73.9039 23.9401 74.3022 24.3374C74.7956 24.7869 74.9849 25.4641 74.9971 26.1076C75.0169 27.232 74.9896 28.3564 75.0084 29.4796C74.999 30.0802 75.0979 30.7632 74.692 31.2684C74.0828 32.1176 72.5158 32.063 72.0554 31.0942C71.9141 30.8549 71.8152 30.5216 71.4979 30.4635C71.093 30.3857 70.6777 30.4287 70.269 30.4194C57.8701 30.4217 45.4719 30.4205 33.0737 30.4205C32.7088 30.4275 32.2756 30.4484 32.0344 30.7597C31.7942 31.0989 31.6577 31.5508 31.2421 31.732C30.5936 32.0618 29.8579 31.7715 29.2564 31.4798C28.9504 32.3139 28.7914 33.192 28.5654 34.0492C27.9133 36.7441 26.7328 39.3705 24.8118 41.4229C23.0826 43.2512 20.7849 44.7067 18.2165 44.9576C16.1248 45.1853 14.039 44.4732 12.2946 43.3686C9.98872 41.9084 8.35023 39.6109 7.28031 37.1565C6.667 35.7963 6.25624 34.3605 5.79831 32.9458C5.16627 32.9981 4.51294 33.0445 3.90208 32.8412C2.96983 32.5381 2.07873 32.0549 1.41014 31.3358C0.640333 30.5495 0.221292 29.5087 0 28.4528V27.2158C0.237771 26.1738 0.647395 25.1423 1.41014 24.3606C2.54608 23.1537 4.28581 22.5474 5.94078 22.7832C6.50578 21.0989 7.02248 19.3845 7.85708 17.8047C8.32198 16.9475 8.84818 16.1204 9.46846 15.3642C10.0382 14.615 10.6479 13.8844 11.4095 13.3164C12.4017 12.4963 13.6059 11.991 14.8089 11.5531ZM11.9333 16.1553C10.8574 17.3935 10.2642 19.0197 10.2712 20.6494C10.2524 22.5822 11.1093 24.5047 12.5595 25.8021C13.6141 26.772 14.9984 27.2494 16.2497 27.9104C15.4304 28.368 14.5735 28.7548 13.7566 29.2171C11.7885 30.3345 10.4454 32.4509 10.2983 34.6881C10.1265 36.7732 10.9681 38.9198 12.5336 40.3334C13.8966 41.5948 15.7905 42.2639 17.6539 42.1779C19.6537 42.0943 21.6042 41.136 22.8472 39.5842C23.9018 38.2797 24.4668 36.5966 24.3868 34.9274C24.3327 33.3407 23.6935 31.7912 22.6282 30.604C21.5194 29.302 19.8633 28.6898 18.3719 27.9336C19.0959 27.5886 19.8127 27.2274 20.5272 26.8627C21.6324 26.3062 22.5929 25.4618 23.2568 24.4257C24.1455 23.0794 24.5281 21.416 24.3244 19.8223C24.1407 18.1671 23.3086 16.6024 22.0645 15.4839C20.6625 14.2189 18.718 13.5847 16.8288 13.716C14.9572 13.8438 13.1257 14.7114 11.9333 16.1553ZM44.9834 20.5611C44.5585 20.7237 44.2359 21.0873 44.0876 21.5089C43.645 22.6136 43.7051 23.9889 44.502 24.9263C45.1929 25.6778 46.6266 25.5326 47.0893 24.6033C47.6566 23.4836 47.6519 22.0073 46.8503 20.9955C46.4077 20.4787 45.6132 20.3091 44.9834 20.5611ZM36.2283 23.1258C36.2436 23.8217 36.2154 24.5186 36.24 25.2143C36.3059 25.4595 36.632 25.3955 36.8262 25.4316C36.8262 25.4931 36.8262 25.6151 36.8262 25.6766C37.3182 25.6813 37.8103 25.6802 38.3023 25.6778C38.3035 25.6174 38.3035 25.4978 38.3035 25.4374C38.5118 25.4048 38.7755 25.449 38.9226 25.2643C38.9721 24.5522 38.9285 23.8367 38.9414 23.1247C38.0374 23.127 37.1323 23.1247 36.2283 23.1258ZM4.60833 25.6593C3.28764 25.9311 2.44711 27.3761 2.78375 28.6479C3.01098 29.6306 3.92091 30.4031 4.93198 30.51C5.8937 30.6354 6.88716 30.1231 7.3756 29.3054C7.97243 28.3181 7.74756 26.9428 6.87181 26.1877C6.25389 25.6755 5.39462 25.4664 4.60833 25.6593Z" fill="#CDCDCD"/>
</svg>
