<svg width="70" height="70" viewBox="0 0 70 70" fill="none" xmlns="http://www.w3.org/2000/svg">
<path d="M70 0H0V70H70V0Z" fill="#CDCDCD"/>
<path d="M51.0289 43.4161V50.1732C51.0289 50.7587 51.4815 51.2293 52.0345 51.2293H58.9167V50.1782H54.0633C53.7822 50.1782 53.5535 49.9429 53.5535 49.6526V47.0349H58.8409V45.9987H53.5535V43.9316C53.5535 43.6364 53.7775 43.4062 54.0633 43.4062H58.9167V42.36H52.0345C51.4815 42.36 51.0289 42.8306 51.0289 43.4161Z" fill="#0F0F0F"/>
<path d="M40.5264 43.4261H43.4699V51.2242H46.104V43.4261H49.5997V42.36H40.5264V43.4261Z" fill="#0F0F0F"/>
<path d="M30.4904 43.4261H33.9866V51.2242H36.6206V43.4261H39.5643V42.36H30.4904V43.4261Z" fill="#0F0F0F"/>
<path d="M24.7319 42.0004C21.4215 42.0004 19.4306 44.1527 19.4306 46.8205C19.4306 49.4731 21.4215 51.6254 24.7319 51.6254C28.047 51.6254 30.0379 49.4731 30.0379 46.8205C30.0379 44.1577 28.047 42.0004 24.7319 42.0004ZM24.7319 50.5944C23.1505 50.5944 21.9359 48.9026 21.9359 46.8255C21.9359 44.7382 23.1457 43.0415 24.7319 43.0415C26.3228 43.0415 27.5326 44.7333 27.5326 46.8255C27.5326 48.9026 26.3228 50.5944 24.7319 50.5944Z" fill="#0F0F0F"/>
<path d="M14.1911 49.6426V42.36H11.6667V50.1732C11.6667 50.7587 12.1144 51.2293 12.667 51.2293H19.1305V50.1681H14.696C14.4102 50.163 14.1911 49.928 14.1911 49.6426Z" fill="#0F0F0F"/>
<path d="M11.6667 54.3071H12.2176V55.7072H13.7123V54.3071H14.2632V57.6732H13.7123V56.2527H12.2176V57.6732H11.6667V54.3071Z" fill="#0F0F0F"/>
<path d="M15.116 55.9996V55.9893C15.116 55.0422 15.7963 54.2496 16.7591 54.2496C17.7221 54.2496 18.3928 55.032 18.3928 55.9791V55.9893C18.3928 56.9364 17.7125 57.7291 16.7495 57.7291C15.7867 57.7291 15.116 56.9467 15.116 55.9996ZM17.8131 55.9996V55.9893C17.8131 55.3357 17.3675 54.7952 16.7495 54.7952C16.1268 54.7952 15.6957 55.3254 15.6957 55.9791V55.9893C15.6957 56.643 16.1363 57.1834 16.7591 57.1834C17.3819 57.1834 17.8131 56.6533 17.8131 55.9996Z" fill="#0F0F0F"/>
<path d="M18.8527 54.8578V54.3071H21.4013V54.8578H20.4048V57.6732H19.8539V54.8578H18.8527Z" fill="#0F0F0F"/>
<path d="M22.1006 54.3071H24.4241V54.8373H22.6515V55.7123H24.2229V56.2476H22.6515V57.1483H24.448V57.6785H22.1055V54.3071H22.1006Z" fill="#0F0F0F"/>
<path d="M25.3056 54.3071H25.8567V57.1328H27.5046V57.6732H25.3056V54.3071Z" fill="#0F0F0F"/>
<path d="M28.1081 57.1839L28.4387 56.7619C28.7405 57.0398 29.0424 57.1994 29.4256 57.1994C29.7658 57.1994 29.9813 57.0244 29.9813 56.7773V56.7671C29.9813 56.5251 29.8568 56.3964 29.2723 56.2523C28.6064 56.0774 28.228 55.8663 28.228 55.2487V55.2384C28.228 54.6619 28.6735 54.2605 29.2962 54.2605C29.7513 54.2605 30.1155 54.4097 30.4316 54.6825L30.1346 55.1302C29.852 54.9038 29.5693 54.7855 29.2867 54.7855C28.9657 54.7855 28.7788 54.9655 28.7788 55.1817V55.1921C28.7788 55.4495 28.9227 55.5677 29.5262 55.7222C30.1873 55.8972 30.5274 56.1494 30.5274 56.7052V56.7156C30.5274 57.3435 30.0676 57.7193 29.4065 57.7193C28.937 57.7245 28.4818 57.5443 28.1081 57.1839Z" fill="#0F0F0F"/>
<path d="M34.1203 57.2872C33.8521 57.5549 33.5406 57.7247 33.1621 57.7247C32.5777 57.7247 32.1322 57.3438 32.1322 56.7622V56.7519C32.1322 56.3196 32.3718 56.0055 32.8029 55.8151C32.6257 55.5629 32.5443 55.3571 32.5443 55.1151V55.1049C32.5443 54.6467 32.8843 54.2555 33.4448 54.2555C33.9431 54.2555 34.2784 54.6159 34.2784 55.0688V55.0791C34.2784 55.5217 34.0054 55.7842 33.5885 55.9541L34.1252 56.5409C34.2401 56.3504 34.3599 56.1291 34.4605 55.8924L34.8772 56.1291C34.7528 56.3967 34.6138 56.6644 34.4509 56.8961L34.9491 57.4313L34.5372 57.7504L34.1203 57.2872ZM33.8089 56.9372L33.1095 56.1703C32.8173 56.3041 32.6927 56.51 32.6927 56.7262V56.7365C32.6927 57.0196 32.9132 57.2254 33.215 57.2254C33.4305 57.2305 33.6269 57.1225 33.8089 56.9372ZM33.7898 55.1049V55.0946C33.7898 54.868 33.6413 54.7137 33.4352 54.7137C33.2101 54.7137 33.0617 54.8887 33.0617 55.1203V55.1305C33.0617 55.3004 33.1239 55.424 33.3011 55.6299C33.622 55.5063 33.7898 55.3467 33.7898 55.1049Z" fill="#0F0F0F"/>
<path d="M36.6691 54.3071H38.0632C38.456 54.3071 38.7674 54.4306 38.9686 54.6417C39.1363 54.8218 39.2273 55.074 39.2273 55.3674V55.3777C39.2273 55.9285 38.9207 56.263 38.4847 56.3968L39.3326 57.6732H38.6811L37.9099 56.4997H37.22V57.6732H36.6691V54.3071ZM38.0248 55.9799C38.4177 55.9799 38.6716 55.7586 38.6716 55.4189V55.4085C38.6716 55.0482 38.4321 54.8527 38.0248 54.8527H37.2248V55.9799H38.0248Z" fill="#0F0F0F"/>
<path d="M40.0992 54.3071H42.4225V54.8373H40.6501V55.7123H42.2213V56.2476H40.6501V57.1483H42.4465V57.6785H40.1039V54.3071H40.0992Z" fill="#0F0F0F"/>
<path d="M43.0883 57.1839L43.419 56.7619C43.7208 57.0398 44.0226 57.1994 44.4058 57.1994C44.7459 57.1994 44.9615 57.0244 44.9615 56.7773V56.7671C44.9615 56.5251 44.8369 56.3964 44.2525 56.2523C43.5866 56.0774 43.2081 55.8663 43.2081 55.2487V55.2384C43.2081 54.6619 43.6537 54.2605 44.2765 54.2605C44.7316 54.2605 45.0956 54.4097 45.4117 54.6825L45.1148 55.1302C44.8321 54.9038 44.5496 54.7855 44.2669 54.7855C43.9459 54.7855 43.7543 54.9655 43.7543 55.1817V55.1921C43.7543 55.4495 43.898 55.5677 44.5015 55.7222C45.1627 55.8972 45.5029 56.1494 45.5029 56.7052V56.7156C45.5029 57.3435 45.043 57.7193 44.3818 57.7193C43.9123 57.7245 43.462 57.5443 43.0883 57.1839Z" fill="#0F0F0F"/>
<path d="M46.1545 55.9996V55.9893C46.1545 55.0422 46.8347 54.2496 47.7972 54.2496C48.7609 54.2496 49.4317 55.032 49.4317 55.9791V55.9893C49.4317 56.9364 48.7515 57.7291 47.7879 57.7291C46.8254 57.7291 46.1545 56.9467 46.1545 55.9996ZM48.8565 55.9996V55.9893C48.8565 55.3357 48.4155 54.7952 47.7925 54.7952C47.1695 54.7952 46.739 55.3254 46.739 55.9791V55.9893C46.739 56.643 47.18 57.1834 47.803 57.1834C48.4202 57.1834 48.8565 56.6533 48.8565 55.9996Z" fill="#0F0F0F"/>
<path d="M50.2892 54.3071H51.688C52.08 54.3071 52.3915 54.4306 52.5933 54.6417C52.7602 54.8218 52.8512 55.074 52.8512 55.3674V55.3777C52.8512 55.9285 52.5455 56.263 52.1092 56.3968L52.9573 57.6732H52.3052L51.534 56.4997H50.8445V57.6732H50.2938V54.3071H50.2892ZM51.6448 55.9799C52.0368 55.9799 52.2912 55.7586 52.2912 55.4189V55.4085C52.2912 55.0482 52.052 54.8527 51.6402 54.8527H50.8398V55.9799H51.6448Z" fill="#0F0F0F"/>
<path d="M53.4415 54.8578V54.3071H55.9895V54.8578H54.9932V57.6732H54.4425V54.8578H53.4415Z" fill="#0F0F0F"/>
<path d="M56.497 57.1839L56.8284 56.7619C57.1294 57.0398 57.4315 57.1994 57.82 57.1994C58.1595 57.1994 58.3754 57.0244 58.3754 56.7773V56.7671C58.3754 56.5251 58.2505 56.3964 57.666 56.2523C57.001 56.0774 56.6219 55.8663 56.6219 55.2487V55.2384C56.6219 54.6619 57.0675 54.2605 57.6905 54.2605C58.1455 54.2605 58.5095 54.4097 58.8257 54.6825L58.5294 55.1302C58.2459 54.9038 57.9635 54.7855 57.6754 54.7855C57.3545 54.7855 57.1679 54.9655 57.1679 55.1817V55.1921C57.1679 55.4495 57.3114 55.5677 57.9157 55.7222C58.5772 55.8972 58.9167 56.1494 58.9167 56.7052V56.7156C58.9167 57.3435 58.457 57.7193 57.7955 57.7193C57.3265 57.7245 56.8762 57.5443 56.497 57.1839Z" fill="#0F0F0F"/>
<path d="M45.4615 19.4577L40.3355 14.3333C37.5619 11.5558 33.0214 11.5558 30.2479 14.3333L25.1218 19.4577C22.3483 22.2302 22.3483 26.769 25.1218 29.5465L30.2479 34.6708C33.0214 37.4435 37.5619 37.4435 40.3355 34.6708L45.4615 29.5465C48.2346 26.769 48.2346 22.2302 45.4615 19.4577ZM32.2809 32.0288C32.2713 32.0288 32.2616 32.0288 32.247 32.0288C31.8404 32.0288 31.5064 31.7094 31.4919 31.3029C31.4822 31.0997 31.5548 30.9062 31.6904 30.7561C31.8259 30.6061 32.0147 30.5191 32.2179 30.5142C32.6342 30.4949 32.9876 30.8191 33.007 31.2401C33.0215 31.6562 32.6972 32.0095 32.2809 32.0288ZM41.3857 28.8643C40.3451 30.5191 38.9704 31.6804 37.7119 31.9706C37.7071 31.9755 37.6925 31.9755 37.6779 31.9804C37.4457 32.0192 37.2182 32.0433 37.0052 32.0433C36.192 32.0433 35.6208 31.7337 35.2093 31.4627C34.8027 31.1965 34.4301 30.8385 34.0864 30.403C31.9178 27.6207 31.7726 22.4044 31.7629 21.8189C31.7388 20.4302 31.9371 18.5528 33.0214 17.4737C33.549 16.9463 34.2122 16.685 34.9916 16.685H35.1175C35.8967 16.685 36.5599 16.9512 37.0923 17.4737C38.1766 18.5479 38.375 20.4302 38.3556 21.8189C38.3315 23.2657 38.0653 26.0674 36.5647 28.5788C36.4437 28.782 36.2162 28.9078 35.979 28.9078C35.8581 28.9078 35.7369 28.8738 35.6304 28.8109C35.311 28.6174 35.2045 28.2014 35.3934 27.8771C36.4437 26.1206 36.9519 24.1851 36.9907 21.7947C37.0197 20.2076 36.7147 19.0172 36.1291 18.4366C35.8628 18.1705 35.5288 18.0398 35.1125 18.0398H34.9916C34.5753 18.0398 34.2413 18.1705 33.975 18.4366C33.3942 19.0125 33.0892 20.2076 33.1183 21.7947C33.1522 23.7496 33.6169 27.5868 35.1562 29.5659C35.4031 29.8852 35.6741 30.1416 35.9548 30.3255C36.2259 30.5045 36.5309 30.6788 37.0052 30.6788C37.131 30.6788 37.2715 30.6642 37.4166 30.64C38.2976 30.4271 39.406 29.4448 40.2289 28.1384C40.3547 27.94 40.5678 27.819 40.805 27.819C40.9308 27.819 41.0566 27.8529 41.168 27.9207C41.3228 28.0175 41.4293 28.1674 41.4681 28.3464C41.5165 28.5304 41.4826 28.7094 41.3857 28.8643Z" fill="#0F0F0F"/>
</svg>
