<svg width="100" height="38" viewBox="0 0 100 38" fill="none" xmlns="http://www.w3.org/2000/svg">
<path fill-rule="evenodd" clip-rule="evenodd" d="M37.2671 0C38.2793 0 39.2914 0 40.3037 0C43.1169 0.1341 45.7624 0.881701 48.2402 2.2429C48.8866 2.6359 49.4732 3.1075 50 3.6577C51.1737 2.5124 52.5424 1.6727 54.1063 1.1387C55.9469 0.483302 57.8333 0.1038 59.7654 0C60.755 0 61.744 0 62.733 0C65.406 0.1164 67.937 0.795 70.324 2.0359C72.122 3.0057 73.445 4.4205 74.293 6.2802C75.391 9.5881 74.62 12.3831 71.981 14.6653C69.613 16.4365 66.945 17.4486 63.975 17.7018C61.948 17.8565 59.9239 17.8335 57.902 17.6328C55.3614 17.3164 53.0379 16.4422 50.9317 15.0103C50.6224 14.7586 50.3233 14.494 50.0345 14.2167C48.2114 15.8299 46.095 16.8765 43.6853 17.3568C41.4039 17.7833 39.1035 17.9213 36.784 17.7709C33.7923 17.6171 31.0548 16.7199 28.5714 15.0793C25.7069 12.9507 24.7062 10.1557 25.5694 6.6943C26.2716 4.8642 27.4563 3.4265 29.1235 2.3809C31.6475 0.921901 34.362 0.1283 37.2671 0ZM38.1643 0.621101C41.1443 0.429101 43.6633 1.3952 45.7212 3.5196C47.7637 6.2 48.1778 9.1216 46.9634 12.2843C45.6121 15.0722 43.3922 16.671 40.3037 17.0807C37.1177 17.5597 34.3686 16.6971 32.0566 14.4927C29.8423 11.7561 29.3822 8.7425 30.6763 5.452C31.8769 2.9923 33.8208 1.4625 36.5079 0.862602C37.067 0.759202 37.6191 0.678701 38.1643 0.621101ZM60.594 0.621101C63.613 0.426701 66.155 1.4158 68.219 3.5887C70.297 6.398 70.643 9.4116 69.255 12.6294C67.943 15.0437 65.93 16.5045 63.216 17.0117C60.666 17.4692 58.2737 17.0551 56.0386 15.7695C53.6545 14.1192 52.4353 11.8303 52.381 8.9027C52.6143 4.6278 54.7997 1.9478 58.9372 0.862602C59.4963 0.759202 60.048 0.678701 60.594 0.621101Z" fill="#CDCDCD"/>
<path fill-rule="evenodd" clip-rule="evenodd" d="M0 0.207003C4.0948 0.195503 8.1896 0.207003 12.2843 0.241503C14.2893 0.290903 16.2677 0.543904 18.2195 1.0007C19.681 1.3113 20.9346 1.9899 21.9807 3.0366C22.8678 4.279 23.0979 5.6363 22.6708 7.1083C22.0344 8.31981 21.1028 9.2285 19.8758 9.8343C17.9903 10.6853 16.0119 11.1454 13.9406 11.2146C14.8272 11.3817 15.6553 11.7037 16.4251 12.1808C17.4618 12.8831 18.474 13.6193 19.4617 14.3892C20.7248 15.232 22.1166 15.7036 23.637 15.804C24.2023 15.7949 24.7315 15.6569 25.2243 15.3899C25.1866 15.5689 25.0831 15.7184 24.9137 15.8385C22.0177 18.2594 18.9351 18.5124 15.666 16.5976C14.3872 15.7103 13.1679 14.7441 12.0083 13.6991C10.3798 12.3444 8.5164 11.4932 6.4182 11.1456C8.197 11.1405 9.9683 11.0255 11.7322 10.8005C13.1053 10.6126 14.4166 10.2215 15.666 9.6273C17.6299 8.5865 18.4465 6.9647 18.1159 4.7619C17.8075 3.3489 16.9908 2.3482 15.666 1.7598C14.299 1.1873 12.8727 0.888304 11.3872 0.862604C9.4533 0.800604 7.5209 0.823604 5.5901 0.931704C5.0506 0.987603 4.717 1.2751 4.5894 1.7943C4.5434 12.7214 4.5434 23.6485 4.5894 34.5755C7.3271 30.3548 10.0762 26.145 12.8364 21.9462C16.0104 26.2696 19.1504 30.6174 22.2567 34.9896C22.2912 30.0208 22.3028 25.0518 22.2912 20.0828C22.5443 20.0828 22.7973 20.0828 23.0504 20.0828C23.0504 25.8799 23.0504 31.677 23.0504 37.4741C21.6009 37.4856 20.1516 37.4741 18.7026 37.4396C16.077 33.7643 13.443 30.0951 10.8006 26.432C8.391 30.0779 5.9985 33.7356 3.6232 37.4051C2.4208 37.4735 1.213 37.4965 0 37.4741C0 25.0517 0 12.6294 0 0.207003Z" fill="#CDCDCD"/>
<path fill-rule="evenodd" clip-rule="evenodd" d="M100 0.207002C100 12.6294 100 25.0517 100 37.4741C95.859 37.4856 91.718 37.4741 87.578 37.4396C85.62 37.3789 83.687 37.1258 81.781 36.6804C80.562 36.3747 79.458 35.8457 78.468 35.0931C77.253 33.8314 76.873 32.3477 77.329 30.6418C77.862 29.5106 78.679 28.6479 79.779 28.0538C81.752 27.0602 83.845 26.5311 86.059 26.4665C85.222 26.3176 84.44 26.0185 83.713 25.5693C82.549 24.815 81.422 24.0098 80.331 23.1539C79.127 22.4036 77.816 21.978 76.398 21.8771C75.836 21.8967 75.307 22.0347 74.81 22.2912C74.787 22.2682 74.764 22.2452 74.741 22.2222C77.647 19.4695 80.844 19.09 84.334 21.0835C85.685 22.0661 86.996 23.1013 88.268 24.1891C89.827 25.4398 91.598 26.222 93.582 26.5355C91.544 26.5363 89.52 26.6974 87.509 27.0186C86.019 27.2617 84.662 27.8139 83.437 28.6749C81.874 30.0947 81.448 31.8085 82.16 33.8164C82.891 35.1098 83.983 35.9495 85.438 36.3354C86.453 36.6234 87.489 36.7844 88.544 36.8185C90.524 36.8814 92.502 36.8584 94.479 36.7495C95.226 36.5806 95.56 36.109 95.48 35.3347C95.526 24.5686 95.526 13.8026 95.48 3.0366C92.748 7.2811 89.999 11.5139 87.233 15.735C84.037 11.4142 80.874 7.0664 77.743 2.6915C77.709 7.6604 77.697 12.6293 77.709 17.5983C77.455 17.5983 77.203 17.5983 76.95 17.5983C76.95 11.8012 76.95 6.0041 76.95 0.207002C78.399 0.195502 79.848 0.207002 81.297 0.241502C83.957 3.8925 86.591 7.5617 89.199 11.2491C91.617 7.6007 94.021 3.9431 96.411 0.276002C97.607 0.207102 98.803 0.184002 100 0.207002Z" fill="#CDCDCD"/>
<path fill-rule="evenodd" clip-rule="evenodd" d="M62.733 37.6811C61.721 37.6811 60.709 37.6811 59.6963 37.6811C56.9374 37.5491 54.3379 36.8245 51.8979 35.5072C51.2215 35.0709 50.5888 34.5764 50 34.0234C48.8876 35.1266 47.5879 35.9433 46.1008 36.4734C44.2195 37.1647 42.2872 37.5673 40.3037 37.6811C39.2914 37.6811 38.2793 37.6811 37.2671 37.6811C34.648 37.5641 32.1636 36.9085 29.8137 35.7143C28.0963 34.756 26.7735 33.4103 25.8454 31.677C24.6148 28.4214 25.2704 25.6034 27.8123 23.2229C29.5959 21.7792 31.6202 20.813 33.8854 20.3243C36.1668 19.8978 38.4672 19.7598 40.7867 19.9103C43.7784 20.064 46.5159 20.9612 48.9993 22.6018C49.3343 22.9023 49.6794 23.1899 50.0345 23.4644C51.1393 22.4282 52.4045 21.6346 53.8302 21.0835C56.868 20.0021 59.9967 19.611 63.216 19.9103C66.297 20.0706 69.103 21.0138 71.636 22.7398C74.402 24.896 75.333 27.668 74.431 31.0559C73.62 33.0853 72.252 34.6151 70.324 35.6453C67.937 36.8861 65.406 37.5647 62.733 37.6811ZM38.0262 20.4969C40.9756 20.2796 43.4945 21.1997 45.5832 23.2574C47.7121 25.9325 48.1722 28.8771 46.9634 32.0911C45.7071 34.749 43.6253 36.3479 40.7177 36.8875C37.73 37.4268 35.0384 36.7827 32.6432 34.9551C30.2946 32.647 29.4779 29.875 30.1932 26.639C31.0486 23.6903 32.9464 21.7694 35.8868 20.8764C36.6021 20.7036 37.3152 20.5771 38.0262 20.4969ZM60.455 20.4969C62.831 20.3314 64.994 20.9181 66.943 22.2567C69.005 23.931 70.04 26.1049 70.048 28.7784C69.948 32.4069 68.246 34.9489 64.941 36.4044C62.534 37.2503 60.118 37.2733 57.695 36.4734C54.2871 35.0529 52.5157 32.4879 52.381 28.7784C52.5576 24.639 54.628 21.982 58.5921 20.8074C59.2195 20.6802 59.8406 20.5767 60.455 20.4969Z" fill="#CDCDCD"/>
</svg>
