<svg width="106" height="50" viewBox="0 0 106 50" fill="none" xmlns="http://www.w3.org/2000/svg">
<path d="M37.834 0.178964C39.0641 -0.151035 40.3848 0.085841 41.6517 0.03796C41.7623 0.0745563 41.9806 0.145109 42.091 0.178964C42.5615 0.463718 43.0546 0.709029 43.5648 0.917744C44.0495 1.19691 44.5058 1.52965 45.0103 1.77781C45.4383 2.20926 45.8379 2.70832 46.4331 2.91419C47.204 3.64738 47.9494 4.40599 48.7004 5.1589C48.7629 5.31678 48.8904 5.63265 48.9556 5.79053C49.3835 6.16271 49.8568 5.58181 50.2791 5.46907C50.5569 5.28577 50.8318 5.09963 51.1067 4.91074C51.3958 4.73029 51.6764 4.5413 51.9542 4.34397C52.2433 4.16626 52.5238 3.97738 52.8073 3.78279C53.0963 3.60509 53.3769 3.41335 53.6575 3.22162C53.9466 3.04117 54.2244 2.84659 54.4993 2.64631C54.9273 2.38412 55.341 2.09367 55.7946 1.87367L55.8427 1.77496C56.18 1.63965 56.5087 1.48166 56.8375 1.31819C57.1096 1.22791 57.3873 1.14892 57.6679 1.08691C57.9457 0.929029 58.2206 0.768302 58.4956 0.604726C58.6344 0.590594 58.9065 0.559585 59.0454 0.545453C59.4394 0.198685 59.9835 0.331148 60.4596 0.260698C61.0038 -0.156625 61.7266 0.0802494 62.3586 0.0209783C63.1692 0.085839 64.0335 -0.139752 64.8042 0.195837C65.0851 0.291704 65.366 0.387574 65.6458 0.489137C65.9182 0.570872 66.1906 0.6583 66.4599 0.748578C67.0916 1.03618 67.6439 1.45635 68.2513 1.78909C68.741 2.23468 69.2063 2.70558 69.6568 3.19061C69.8211 3.49509 70.0024 3.78838 70.19 4.07883C70.385 4.37772 70.6066 4.65689 70.8419 4.92762C70.8589 5.06577 70.8928 5.34219 70.9098 5.48035C71.1843 5.85538 71.1504 6.33198 71.2182 6.76618C70.7338 7.20048 70.0819 7.08489 69.4862 7.10177C69.4183 6.9326 69.2858 6.58857 69.2169 6.41941C69.1523 6.27271 69.0166 5.98226 68.9477 5.83851C68.7664 5.55935 68.5746 5.28577 68.3785 5.01789C68.0923 4.39755 67.6047 3.88425 66.956 3.63894C66.6019 3.29492 66.25 2.92273 65.7624 2.78172L65.7285 2.66603C65.5504 2.59843 65.19 2.46301 65.0119 2.39541C64.7194 2.30513 64.4332 2.20083 64.1501 2.08513C63.7611 2.0034 63.3081 2.06541 63.0048 1.74965C62.5683 1.73552 62.1319 1.73551 61.6982 1.7468C61.3269 2.14725 60.7544 1.97798 60.2811 2.06256C59.6349 2.37558 58.8668 2.36155 58.2717 2.80429C57.7785 2.91704 57.308 3.10877 56.8546 3.32592C56.5767 3.51492 56.3019 3.7038 56.0298 3.89838C55.735 4.07599 55.4487 4.27057 55.1681 4.468C54.8791 4.64845 54.5956 4.83744 54.315 5.03202C54.0317 5.20963 53.751 5.39862 53.4762 5.5875C53.0595 5.8075 52.7052 6.11768 52.3679 6.44198C52.0619 6.61114 51.7727 6.80847 51.4921 7.01719C51.2173 7.16378 50.9423 7.31048 50.6702 7.45993C50.71 8.04082 51.1096 8.4553 51.512 8.83603C51.6821 9.13776 51.8719 9.43106 52.0675 9.71866C52.2517 10.0035 52.4444 10.2854 52.64 10.5646C52.8186 10.8523 53.0113 11.1315 53.2069 11.4106C53.3854 11.6954 53.5754 11.969 53.7709 12.2425C54.0713 12.7134 54.4029 13.1646 54.641 13.6722C54.8054 13.9598 54.9896 14.2334 55.1767 14.504C55.3609 14.7889 55.5536 15.068 55.752 15.3472C55.9986 15.7505 56.2792 16.1311 56.5513 16.5203C56.6193 16.8136 56.6845 17.1069 56.7412 17.4058C56.4975 17.6285 56.2594 17.8569 56.0241 18.0854C55.854 18.0881 55.5168 18.091 55.3467 18.0938C54.8933 17.6398 54.4142 17.1829 54.1988 16.5654C54.0317 16.2806 53.8446 16.0042 53.6575 15.7335C53.4733 15.4488 53.2806 15.1668 53.0879 14.8904C52.9036 14.6 52.7081 14.318 52.5096 14.0416C52.2092 13.5735 51.8777 13.1223 51.6452 12.6147C51.4752 12.3327 51.291 12.0592 51.1067 11.7885C50.8829 11.3712 50.5569 11.0243 50.2366 10.6803C50.0723 10.3729 49.8738 10.0881 49.6641 9.80894C49.3948 9.37748 49.1 8.95446 48.896 8.48641C48.7656 8.50044 48.5048 8.5287 48.3746 8.54273C48.0939 8.67245 47.8077 8.79374 47.5186 8.90374C47.153 9.0362 46.7675 9.0786 46.3877 9.13776C45.5204 9.57481 44.4944 9.23363 43.5592 9.3662C42.8081 9.80609 41.6546 9.7948 40.8979 9.37179C40.2431 9.31821 39.5516 9.45078 38.9309 9.1829C38.6418 9.07005 38.3556 8.94887 38.075 8.82474C37.9333 8.81346 37.6498 8.7853 37.5081 8.77117C36.5529 8.30027 35.9436 7.4035 35.1444 6.73243C35.1331 6.58573 35.1104 6.29243 35.0962 6.14583C34.705 5.70594 34.8893 5.09119 34.8411 4.56387C34.8865 4.02241 34.7108 3.40207 35.0962 2.94245C35.1104 2.79575 35.1359 2.50256 35.1472 2.35586C36.0144 1.59166 36.706 0.59344 37.834 0.178964ZM39.8775 1.75239C39.4552 2.05697 38.9167 2.05138 38.4321 2.17541C37.7406 2.60402 37.1708 3.1962 36.7202 3.86738C36.6323 4.21984 36.5842 4.578 36.5388 4.9389C37.2417 5.92594 38.0381 7.0059 39.2908 7.28791C39.6819 7.35836 40.1298 7.30763 40.4415 7.61506C42.0117 7.66294 43.5846 7.66294 45.152 7.61221C45.4638 7.31892 45.9031 7.36121 46.2914 7.28222C46.6485 7.1159 47.0283 7.01719 47.425 6.98333C46.9092 6.11483 46.076 5.51421 45.3929 4.78661C44.7609 4.19727 44.2423 3.45849 43.4571 3.05519C43.1142 2.80988 42.7627 2.57586 42.4056 2.35586C41.8955 2.17541 41.374 2.02027 40.9035 1.7468C40.5606 1.7411 40.2204 1.74395 39.8775 1.75239Z" fill="#CDCDCD"/>
<path d="M62.4436 6.48142C62.761 6.12611 63.3675 6.11767 63.6795 6.48427C63.9742 6.49545 64.2657 6.50673 64.5604 6.51527C64.7448 6.72388 64.9292 6.93544 65.1137 7.1469C65.2663 7.47964 65.5016 7.76166 65.7454 8.03513C65.7592 8.31155 65.7762 8.58502 65.7963 8.86144C66.1959 9.52977 66.2214 10.5703 65.7794 11.2216C65.7539 11.7518 65.7571 12.282 65.7847 12.8121C65.8875 13.0208 66.0942 13.4438 66.1991 13.6524C66.5023 13.4438 66.7768 13.1956 67.0238 12.9193C67.1743 12.9813 67.4711 13.1053 67.6216 13.1675C68.0668 13.8188 67.1457 14.2474 66.8139 14.6957C66.6666 14.707 66.3751 14.7324 66.2277 14.7437C65.8048 15.1245 65.1953 15.0342 64.7225 14.8227C64.0738 14.7156 63.6456 14.2051 63.189 13.785C63.1975 12.5554 63.2231 11.326 63.1748 10.0965C62.7498 9.70178 62.9566 9.10106 62.9085 8.59915C62.6165 8.36228 62.3246 8.1254 62.0213 7.89981C61.8229 8.00981 61.4262 8.22697 61.2277 8.33412C61.2277 8.4187 61.2249 8.58502 61.2249 8.6696C61.0464 8.94602 60.865 9.22234 60.6836 9.5015C60.6298 9.98369 60.7913 10.5506 60.4002 10.9397C60.3519 12.0338 60.3577 13.1308 60.4002 14.2248C60.4937 14.4138 60.6808 14.7889 60.7742 14.975C59.7879 14.9863 58.8017 14.9806 57.8154 14.9806C57.821 12.5357 57.8096 10.0908 57.8181 7.64607C57.4384 7.64881 57.0614 7.64881 56.6817 7.65165C56.6844 7.43735 56.6844 7.01433 56.6844 6.80003C57.2796 6.80003 57.8777 6.79718 58.4729 6.76902C59 6.30941 59.7427 6.57444 60.3746 6.50958C60.3718 6.88746 60.3718 7.26534 60.3718 7.64322L60.6523 7.64607C60.6523 7.52763 60.6523 7.28791 60.6523 7.16662C61.018 7.02562 61.3241 6.78874 61.6132 6.52656C61.8881 6.51243 62.1659 6.4983 62.4436 6.48142Z" fill="#CDCDCD"/>
<path d="M42.0854 11.4614C43.3579 11.1935 44.7808 11.2019 46.0562 11.4614C46.4869 11.6926 46.9234 11.9182 47.3372 12.1861C47.4591 12.5893 47.5952 12.9897 47.7227 13.393C47.955 13.7991 47.9098 14.2671 47.9125 14.7156C47.8927 16.1791 47.9069 17.6455 47.8984 19.1118C48.2612 19.7265 48.57 19.2612 48.8592 18.8636C49.2871 18.8693 49.701 18.9906 49.9617 19.3599C49.5961 19.9042 49.2219 20.4653 48.6239 20.7869C47.8785 20.987 47.0708 20.9842 46.3254 20.784C45.8266 20.4907 45.3277 20.1015 45.2484 19.4896L45.1662 19.4925C45.0698 20.0988 44.588 20.4907 44.0892 20.784C43.151 21.0322 42.1648 20.863 41.2068 20.8996C40.9319 20.6458 40.64 20.4146 40.2998 20.2595C40.1468 19.9465 39.9937 19.6363 39.8321 19.3318C39.5488 18.7142 39.6139 17.9895 39.7981 17.3522C40.1666 16.7939 40.6286 16.2918 41.2181 15.962C41.4958 15.8802 41.7708 15.7984 42.0457 15.7166C42.57 15.4459 43.1681 15.5474 43.7321 15.4995C44.0948 15.1498 44.6135 15.2739 45.0642 15.2259C45.0613 14.6337 45.0954 14.0247 44.8998 13.4551C44.6447 13.111 44.3727 12.7754 44.1006 12.4399C43.9078 12.4399 43.5223 12.4399 43.3296 12.4399C43.5535 12.9419 43.8086 13.4805 43.5308 14.0218C43.2758 14.3518 43.0094 14.676 42.7429 14.9976C42.2186 14.9863 41.6943 14.9806 41.1727 14.9778C40.9573 14.7635 40.7419 14.5492 40.5237 14.3377C40.5237 13.7455 40.4869 13.1505 40.5464 12.5611C40.8468 11.969 41.5525 11.7857 42.0854 11.4614ZM43.8227 16.5513C43.3466 16.8277 42.9555 17.2112 42.6806 17.6878C42.4794 17.981 42.519 18.2488 42.794 18.4914C42.7968 18.669 42.8025 19.0272 42.8025 19.2076C42.9442 19.2049 43.2248 19.202 43.3636 19.1992L43.3693 19.4896H43.6385L43.6471 19.2725C44.5029 19.14 44.7523 18.294 45.0273 17.6088C45.0471 17.197 45.0585 16.7826 45.067 16.368C44.6475 16.3963 44.2252 16.4244 43.8227 16.5513Z" fill="#CDCDCD"/>
<path d="M60.4596 17.1802C60.5815 17.1237 60.8225 17.0082 60.9443 16.9517C62.35 16.9376 63.7558 16.9376 65.1614 16.9546C65.2896 17.0137 65.5419 17.135 65.6691 17.1943C66.2299 17.2393 66.8256 17.1379 67.3492 17.3945C67.7435 17.527 68.1347 17.6736 68.529 17.8118C69.1152 18.1728 69.6197 18.6437 70.1985 19.0159C70.3882 19.3205 70.6066 19.6053 70.8419 19.8788C70.8589 20.0142 70.8928 20.2905 70.9098 20.4258C71.2808 20.8856 71.1165 21.4946 71.1589 22.0304C71.1133 22.5661 71.2839 23.1753 70.9034 23.6293C70.8928 23.7759 70.8674 24.0664 70.8557 24.213C69.9886 24.9772 69.2943 25.9755 68.1686 26.3928C67.7319 26.5761 67.2559 26.5507 66.797 26.5901C66.4684 26.9314 65.8896 26.923 65.561 26.593C65.0851 26.5535 64.5943 26.5704 64.1501 26.3758C63.8862 26.2857 63.6254 26.1898 63.3648 26.0911C63.0529 25.9388 62.744 25.7865 62.4294 25.6512C61.9391 25.3748 61.4885 25.042 60.9868 24.7883C60.5617 24.3597 60.1592 23.8689 59.5725 23.6603C58.5012 22.6367 57.4639 21.5792 56.4123 20.5358L56.3954 20.815C56.0468 20.9532 55.7463 21.1816 55.4573 21.4213C55.3098 21.4805 55.0123 21.6046 54.8649 21.6638C54.5843 21.8442 54.3123 22.0304 54.0458 22.225C53.7539 22.4027 53.4733 22.5916 53.1956 22.7861C52.9036 22.9637 52.6202 23.1556 52.3425 23.3502C52.0533 23.5306 51.7756 23.7224 51.5006 23.9198C51.0246 24.2158 50.5654 24.5345 50.0808 24.8109C49.5734 25.0223 49.0859 25.2705 48.6041 25.5328C48.3377 25.6258 48.0656 25.7161 47.7935 25.7978C47.5129 25.8965 47.2295 25.9952 46.9489 26.0939C46.5861 26.2321 46.2006 26.28 45.8237 26.3421C44.605 26.7904 43.2275 26.452 41.9465 26.5394C41.8275 26.4887 41.5923 26.39 41.4732 26.3392C41.1048 26.28 40.7335 26.2264 40.3735 26.1305C40.229 26.0262 39.9456 25.8175 39.801 25.7132C39.6565 25.7076 39.3646 25.6963 39.22 25.6906C38.9479 25.4509 38.6673 25.2253 38.3612 25.0336C38.0693 24.8474 37.7773 24.6586 37.4656 24.5063C37.1765 24.2328 36.8959 23.9535 36.6238 23.6631C36.3291 23.0315 35.765 22.5774 35.4675 21.9458C35.3994 21.8048 35.2606 21.5256 35.1925 21.3846C34.7136 20.7981 34.8298 20.0988 35.1671 19.4812C35.6177 19.484 36.0655 19.4869 36.5133 19.4896C36.5813 19.6532 36.7146 19.9775 36.7798 20.1411C36.9668 20.5217 37.1567 20.9024 37.3352 21.2916C37.8114 22.084 38.4944 22.7777 39.305 23.2317C39.58 23.4235 39.8548 23.6208 40.1327 23.8098C40.7533 24.1933 41.5129 24.1933 42.1421 24.5317C43.3325 24.5824 44.5256 24.5768 45.7189 24.5344C46.0277 24.2412 46.47 24.2807 46.8583 24.1989C47.1473 24.089 47.4421 23.9931 47.7425 23.9085C48.2073 23.6801 48.6693 23.4432 49.1285 23.1979C49.2758 23.1386 49.5706 23.0173 49.7179 22.9553C49.9957 22.7749 50.265 22.586 50.5371 22.3941C50.8233 22.2137 51.1067 22.0248 51.3873 21.8331C51.8096 21.6159 52.1583 21.2916 52.5012 20.9701C52.9348 20.7727 53.2919 20.4541 53.6348 20.127C53.9352 19.9549 54.2244 19.7632 54.5106 19.5658C54.9783 19.2697 55.4346 18.9539 55.9192 18.6803C56.0666 18.6183 56.3585 18.4914 56.506 18.4294C56.6448 18.3588 56.9198 18.2151 57.0586 18.1445C57.3647 17.9895 57.6708 17.8259 57.974 17.6595C58.3198 17.5383 58.6826 17.4903 59.0425 17.4283C59.4706 17.1632 59.9807 17.2281 60.4596 17.1802ZM61.6983 18.9539C61.2391 19.3938 60.5617 19.1597 59.9977 19.2472C59.6179 19.6278 59.0454 19.4586 58.5721 19.5461C58.9746 20.3413 59.7171 20.8743 60.3236 21.5059C60.9443 22.1009 61.48 22.8143 62.2537 23.2317C62.5343 23.4262 62.8177 23.618 63.1068 23.8041C63.5121 24.1397 64.0081 24.3061 64.5074 24.4584C64.819 24.5345 65.1137 24.6586 65.385 24.8306C65.8419 24.8334 66.3295 24.8897 66.7344 24.6331C67.01 24.5457 67.2814 24.4527 67.5538 24.3597C67.6958 24.2864 67.982 24.1397 68.123 24.0664C68.5343 23.9424 68.8237 23.6688 68.917 23.243C69.0781 22.9582 69.254 22.6818 69.4438 22.4167C69.4925 21.8218 69.2063 21.3057 68.9392 20.7981C68.8152 20.3667 68.5205 20.0875 68.0721 20.0114C67.9619 19.8985 67.7467 19.6673 67.6354 19.5545C67.3068 19.5179 66.9931 19.4305 66.6952 19.2895C66.3094 19.2076 65.862 19.2669 65.5589 18.9567C64.272 18.9116 62.985 18.9116 61.6983 18.9539Z" fill="#CDCDCD"/>
<path d="M4.24286 39.9368C4.91172 39.9989 5.44734 40.3119 5.49843 41.0253C5.57772 41.1804 5.73365 41.4878 5.81304 41.6429C5.88671 41.9079 5.95752 42.1758 6.02271 42.4437C6.11058 42.5904 6.2806 42.878 6.36562 43.0247C6.45921 43.301 6.54985 43.5773 6.63772 43.8593C6.71711 44.1385 6.79364 44.4234 6.86445 44.7081C6.96081 44.8576 7.15076 45.1565 7.24711 45.306C7.30944 45.5739 7.37177 45.8418 7.43134 46.1096C7.52483 46.2591 7.71754 46.558 7.814 46.7074C7.87347 46.9753 7.93018 47.2489 7.98403 47.5196C8.2504 47.9877 8.57349 48.422 8.91651 48.8393C9.09787 48.8252 9.4606 48.8027 9.64208 48.7886C9.64483 49.0084 9.6477 49.4512 9.6477 49.6712C8.22496 49.6599 6.80213 49.6599 5.3794 49.6683C5.3794 49.4512 5.37367 49.0141 5.37081 48.797C5.75633 48.8054 6.14174 48.8111 6.52727 48.8196C6.5102 48.6475 6.47342 48.3007 6.45349 48.1287C6.34304 47.8523 6.2381 47.5732 6.13613 47.2969C6.06246 47.1136 5.92073 46.7441 5.84696 46.5608C4.88056 46.5664 3.91405 46.5664 2.94754 46.5608C2.86825 46.7441 2.70671 47.1107 2.62445 47.2912C2.47997 47.8016 2.19653 48.3458 2.56785 48.8337C2.94479 48.8167 3.32172 48.8054 3.69866 48.7914C3.6958 49.0113 3.69304 49.4484 3.69018 49.6683C2.46015 49.6599 1.23002 49.6628 0 49.6628V48.876C0.683064 48.9154 1.06848 48.4304 1.33772 47.8749C1.40864 47.7113 1.55311 47.3842 1.62403 47.2207C1.68922 46.9584 1.75441 46.6934 1.82246 46.4311C1.91595 46.2873 2.1058 45.9968 2.1994 45.8502C2.26172 45.5739 2.32405 45.2975 2.3921 45.0211C2.48273 44.8773 2.66982 44.5868 2.76342 44.4402C2.83984 44.1414 2.91924 43.8452 3.0015 43.5492C3.08651 43.2813 3.17438 43.0134 3.26501 42.7483C3.35289 42.6017 3.53149 42.3112 3.61926 42.1674C3.67597 41.8967 3.73268 41.6259 3.79215 41.3553C3.90557 41.203 4.1323 40.9041 4.24562 40.7518C4.24562 40.5488 4.24286 40.1399 4.24286 39.9368ZM4.3619 42.9006C4.27403 43.0867 4.09828 43.4589 4.01041 43.645C3.99906 43.8086 3.97638 44.1385 3.96504 44.3021L3.79787 44.3274C3.70714 44.5079 3.52577 44.8633 3.43228 45.0409C3.42655 45.21 3.41246 45.5485 3.40387 45.7176C4.07559 45.712 4.74732 45.7149 5.4219 45.7261C5.2717 45.3059 5.10729 44.8914 5.03362 44.4544C4.94288 44.3161 4.76152 44.0398 4.67078 43.9016C4.58291 43.5689 4.51772 43.2333 4.48094 42.895L4.3619 42.9006Z" fill="#CDCDCD"/>
<path d="M37.6981 40.0751C37.8992 40.0665 38.2989 40.0468 38.5 40.0384C38.6531 40.2781 38.8062 40.5205 38.9564 40.7659C39.0471 41.0366 39.1377 41.3102 39.2229 41.5865C39.3135 41.8741 39.3929 42.1645 39.4609 42.4578C39.5487 42.6017 39.7245 42.8864 39.8123 43.0274C39.8917 43.3066 39.9654 43.5858 40.0334 43.8678C40.1213 44.0116 40.297 44.2964 40.3848 44.4402C40.4642 44.7166 40.5379 44.9986 40.6031 45.2806C40.6881 45.4216 40.8554 45.7036 40.9404 45.8445C41.0339 46.1152 41.1246 46.3888 41.2096 46.6623C41.3004 46.9527 41.3796 47.246 41.4448 47.5449C41.6858 48.0074 42.0004 48.4248 42.3433 48.8196C42.5275 48.8167 42.896 48.8139 43.0802 48.8111C43.0802 49.0254 43.0802 49.4512 43.0802 49.6655C41.6631 49.6627 40.246 49.6627 38.8289 49.6655C38.8289 49.4512 38.826 49.0226 38.826 48.8111C39.2058 48.8111 39.5856 48.814 39.9683 48.814C39.9541 48.6504 39.9285 48.3232 39.9172 48.1597C39.7727 47.8834 39.6593 47.5958 39.5771 47.2996C39.5062 47.1135 39.3673 46.7441 39.2965 46.5608C38.3272 46.5637 37.3579 46.5637 36.3914 46.5608C36.3008 46.7497 36.125 47.122 36.0371 47.308C36.0202 47.4435 35.9918 47.7113 35.9777 47.8439C35.4193 48.1399 35.8727 48.4953 36.0796 48.8224C36.4283 48.8167 36.7797 48.8111 37.1312 48.8054C37.1283 49.0197 37.1283 49.4484 37.1283 49.6655C35.9039 49.6627 34.6796 49.6628 33.4552 49.6628C33.4495 49.4596 33.4439 49.0536 33.441 48.8506C34.0022 48.845 34.5406 48.6814 34.6314 48.0666C34.7731 47.7931 34.9148 47.5252 35.0594 47.2573C35.1331 47.1136 35.2775 46.8259 35.3513 46.6821C35.425 46.3917 35.5071 46.104 35.5979 45.8163C35.6829 45.5428 35.7736 45.2693 35.87 44.9986C35.9521 44.8576 36.1165 44.57 36.1987 44.429C36.2667 44.1469 36.3433 43.8706 36.4226 43.5943C36.5104 43.4533 36.6862 43.1656 36.774 43.0219C36.8392 42.7427 36.9129 42.4607 36.9923 42.1844C37.0802 42.0434 37.2558 41.7556 37.3437 41.6146C37.3862 41.296 37.4883 41 37.6527 40.7264C37.664 40.5657 37.6867 40.2385 37.6981 40.0751ZM37.7831 42.785C37.63 43.284 37.4685 43.786 37.3749 44.2992L37.2389 44.3359C37.1454 44.5164 36.9554 44.8745 36.8619 45.055C36.8591 45.2213 36.8506 45.5513 36.8477 45.7148C37.5052 45.7148 38.1629 45.7148 38.8204 45.7148C38.8204 45.5456 38.826 45.2044 38.826 45.0324C38.724 44.8914 38.52 44.6094 38.4179 44.4657C38.2564 43.8875 38.0523 43.3207 37.7831 42.785Z" fill="#CDCDCD"/>
<path d="M76.6263 40.2695C77.4277 39.9312 78.4485 39.9368 79.253 40.2724C79.5307 40.3457 79.8116 40.419 80.0925 40.4923C80.8462 41.0282 81.5235 41.6879 82.0588 42.4437C82.1362 42.7229 82.2125 43.002 82.2888 43.2812C82.6206 44.3641 82.6005 45.6556 82.2973 46.744C82.2147 47.0204 82.1362 47.2996 82.0567 47.5788C81.5288 48.3401 80.8515 49.0029 80.0894 49.5302C79.8116 49.6063 79.5339 49.6824 79.2562 49.7585C78.4432 50.0715 77.4341 50.0913 76.6263 49.7529C76.3454 49.6768 76.0677 49.6035 75.79 49.5302C75.0162 49.0056 74.3675 48.3176 73.8004 47.5816C73.7177 47.2122 73.6785 46.8371 73.6329 46.4621C73.2227 45.5061 73.2926 44.2654 73.5873 43.2785C73.6647 42.9992 73.7442 42.72 73.8258 42.4409C74.3526 41.6795 75.0279 41.0169 75.7932 40.4895C76.0677 40.4161 76.3454 40.3428 76.6263 40.2695ZM77.5528 40.9407C77.1934 41.217 76.7758 41.4032 76.3624 41.5808C76.2034 41.9079 75.9797 42.1984 75.7593 42.4831C75.7073 42.8019 75.595 43.0979 75.4243 43.3686C75.3734 44.4656 75.3819 45.5653 75.419 46.6623C75.7073 47.2968 76.0455 47.9087 76.3677 48.5291C76.4758 48.5291 76.691 48.5319 76.8023 48.5319L76.8383 48.6983C77.0196 48.7941 77.3832 48.983 77.5613 49.0762C77.8188 49.0817 78.0743 49.0902 78.3319 49.093C78.6785 48.7857 79.1057 48.6137 79.5286 48.4444C79.7947 47.9171 80.1402 47.4406 80.4921 46.9669C80.5907 46.386 80.1826 45.5456 80.8801 45.2242C80.7985 44.9422 80.6702 44.6856 80.4975 44.4543C80.4858 43.989 80.489 43.5265 80.4837 43.064C80.3925 42.9203 80.2081 42.627 80.118 42.4804C79.9304 42.0207 79.7046 41.5469 79.1746 41.4313C78.882 41.2819 78.6011 41.1155 78.3319 40.9323C78.0711 40.9323 77.8104 40.9323 77.5528 40.9407Z" fill="#CDCDCD"/>
<path d="M11.9038 40.357C13.9359 40.4388 15.9992 40.1935 18.0115 40.4698C18.4848 40.7461 18.8759 41.1297 19.1481 41.6035C19.3521 42.2605 19.3663 42.9767 19.1367 43.6281C18.6832 44.4347 17.8641 44.8548 17.1783 45.4216L17.49 45.4356C17.6431 45.9207 17.9973 46.2872 18.3544 46.637C18.5444 47.074 18.8702 47.4237 19.2075 47.7565C19.3266 48.171 19.61 48.4671 20.0011 48.6447C20.3242 48.7208 20.6473 48.7914 20.9733 48.8534C20.9733 49.0564 20.9733 49.4625 20.9733 49.6628C20.0578 49.6628 19.1396 49.6655 18.2212 49.6628C17.8698 48.907 17.3738 48.2245 16.8013 47.6211C16.6227 47.3222 16.43 47.0317 16.2373 46.747C15.9396 46.0871 15.3671 45.6218 14.7578 45.2609C14.7238 46.4452 14.7521 47.6296 14.7323 48.8167C15.1121 48.814 15.4948 48.8111 15.8745 48.8111C15.8717 49.0226 15.8631 49.4512 15.8604 49.6628C14.5425 49.6628 13.2217 49.6628 11.9038 49.6628C11.9038 49.4512 11.9038 49.0254 11.9009 48.8111C12.2807 48.8111 12.6577 48.814 13.0375 48.8167C13.0346 46.2788 13.0317 43.7409 13.0375 41.203C12.6577 41.2059 12.2807 41.2059 11.9009 41.2086C11.9009 40.9971 11.9038 40.5685 11.9038 40.357ZM14.7379 41.203C14.7436 42.4438 14.7408 43.6873 14.7379 44.9309C14.9023 44.914 15.2283 44.8858 15.3927 44.8717C16.07 44.5474 16.8353 44.2767 17.2264 43.583C17.3285 43.1374 17.2661 42.675 17.2661 42.2266C17.1725 42.0687 16.9883 41.7501 16.8977 41.5922C16.7361 41.5019 16.4158 41.3186 16.2571 41.2283C15.7498 41.2114 15.2453 41.2059 14.7379 41.203Z" fill="#CDCDCD"/>
<path d="M23.5354 40.357C25.474 40.4416 27.4438 40.1878 29.3625 40.4754C29.8217 40.7546 30.1958 41.1381 30.4764 41.5949C30.6918 42.1532 30.6833 42.7793 30.4849 43.3433C30.1902 43.8396 29.7933 44.288 29.1981 44.4092C29.1981 44.5051 29.1925 44.6997 29.1925 44.7983C29.3767 44.8519 29.7452 44.9647 29.9266 45.0211C30.2752 45.2439 30.5954 45.5062 30.9157 45.7684C30.9157 45.9178 30.9185 46.2195 30.9185 46.3718C31.2898 46.6567 31.321 47.339 30.8873 47.59C30.8846 47.7226 30.8789 47.9877 30.876 48.1202C30.7995 48.2753 30.6465 48.5883 30.57 48.7434C30.4934 48.8224 30.3375 48.9831 30.261 49.0649C29.9435 49.1974 29.6318 49.344 29.3229 49.4963C29.2181 49.5358 29.0054 49.6148 28.9006 49.6571C27.0129 49.6909 25.1254 49.6458 23.2406 49.6655C23.2406 49.454 23.2377 49.0339 23.2377 48.8251C23.765 48.8393 24.2836 48.7716 24.7258 48.4614C24.6946 46.1604 24.6833 43.8565 24.7314 41.5555C24.3517 41.3496 23.952 41.2086 23.5212 41.1692C23.524 40.9661 23.5325 40.56 23.5354 40.357ZM26.3583 41.203C26.3639 42.2378 26.3639 43.2756 26.3583 44.3134C26.7749 44.2964 27.1915 44.3105 27.6025 44.2512C27.9681 43.9665 28.2884 43.6338 28.6256 43.3235C28.5604 42.7285 28.8042 41.9897 28.2827 41.5442C27.7839 41.014 26.9988 41.2679 26.3583 41.203ZM26.3611 45.1509C26.5 46.3634 26.0267 47.7339 26.704 48.8224C27.2142 48.8111 27.7244 48.8139 28.2346 48.8224C28.5775 48.4078 28.8949 47.9735 29.1981 47.528C29.1925 47.1643 29.1896 46.7977 29.1868 46.4338C28.8977 45.8755 28.4556 45.4469 27.8973 45.1536C27.3842 45.1536 26.8713 45.1536 26.3611 45.1509Z" fill="#CDCDCD"/>
<path d="M44.7779 40.3541C47.5186 40.357 50.2593 40.357 53 40.357C52.9971 41.3355 53.0029 42.314 53 43.2925C52.4104 43.2136 52.1015 42.751 51.9287 42.2322C51.685 41.2932 50.7383 41.0789 49.8852 41.2002C49.8852 43.7409 49.8852 46.2816 49.8823 48.8223C50.3556 48.8139 50.8261 48.811 51.2994 48.8083C51.2994 49.0226 51.3023 49.4512 51.3023 49.6655C49.6556 49.6599 48.0089 49.6683 46.3623 49.6599C46.4927 49.3695 46.6287 49.0846 46.776 48.8026C47.2975 48.8308 47.8162 48.7773 48.2527 48.4614C48.1988 46.0419 48.2413 43.6225 48.23 41.2029C47.4704 41.2537 46.2262 40.9181 46.1525 42.0122C46.0221 42.1194 45.7585 42.3365 45.6281 42.4465C45.631 42.6298 45.6367 42.9936 45.6395 43.1769C45.4241 43.1769 44.9933 43.1769 44.7779 43.1769C44.7779 42.2378 44.7779 41.296 44.7779 40.3541Z" fill="#CDCDCD"/>
<path d="M60.5362 40.3627C61.6784 40.5093 63.036 39.9904 64.0335 40.6671C64.13 41.1466 64.4872 41.4878 64.8211 41.8233C64.9971 42.1251 65.1847 42.4184 65.3797 42.7116C65.6034 43.129 65.9267 43.4786 66.2532 43.8198C66.4482 44.2485 66.7662 44.601 67.0916 44.9421C67.3948 45.5118 67.9312 45.9319 68.1569 46.5495L68.3043 46.5636C68.2767 44.9703 68.3499 43.3771 68.2651 41.7866C68.1887 41.6316 68.035 41.3242 67.9587 41.1719C67.6015 41.1917 67.2443 41.2086 66.8881 41.2255C66.8881 41.0084 66.8881 40.5741 66.8881 40.357C68.2449 40.3598 69.606 40.3514 70.9659 40.3598C70.8949 40.529 70.7592 40.8646 70.6914 41.0337C70.2971 41.3186 69.4586 41.1409 69.4724 41.7979C69.4014 44.4177 69.4586 47.0402 69.4438 49.6626C69.0781 49.6683 68.7134 49.6739 68.3477 49.6852C68.0467 49.1326 67.7011 48.6053 67.2358 48.1765C67.0524 47.7366 66.7238 47.3899 66.392 47.0571C66.2044 46.6171 65.8758 46.2675 65.544 45.9319C65.349 45.4949 65.031 45.1396 64.6971 44.8096C64.4989 44.3697 64.1777 44.0116 63.8438 43.676C63.6848 43.3433 63.4668 43.0443 63.2117 42.785C63.1946 44.4543 63.2089 46.1265 63.2004 47.7988C63.4385 48.1342 63.6562 48.4811 63.8777 48.8308C64.2212 48.8196 64.5604 48.8111 64.9038 48.8026C64.9038 49.0169 64.9038 49.4483 64.9038 49.6655C63.5858 49.6626 62.265 49.6626 60.9471 49.6626C60.9415 49.4512 60.9358 49.0282 60.9329 48.8167C61.1087 48.8139 61.4629 48.8083 61.6387 48.8026C61.8768 48.5657 62.1148 48.3317 62.3586 48.1032C62.3416 46.369 62.3643 44.6376 62.3558 42.9034C62.3841 42.424 62.1602 41.9954 62.0043 41.5555C61.8371 41.5019 61.5027 41.3919 61.3354 41.3383C60.9075 41.155 60.6523 40.7997 60.5362 40.3627Z" fill="#CDCDCD"/>
<path d="M85.489 40.3598C87.5581 40.436 89.658 40.1935 91.707 40.4698C92.1606 40.7969 92.6313 41.1297 92.9482 41.6035C93.0224 42.6242 93.1411 43.7748 92.3642 44.5841C92.0356 44.6856 91.7154 44.8011 91.3921 44.9168C91.2819 44.993 91.0582 45.148 90.9448 45.2242C91.4716 45.7346 91.7981 46.4029 92.3196 46.9161C92.679 47.6859 93.4189 48.1625 93.9457 48.8054C94.1269 48.8083 94.4873 48.814 94.6654 48.8167C94.6633 49.0283 94.6569 49.4512 94.6516 49.6627C93.7422 49.6627 92.8295 49.6627 91.9168 49.6627C91.7525 49.3356 91.5564 49.0254 91.355 48.7237C91.1685 48.4388 90.9756 48.1597 90.7826 47.8833C90.5993 47.5929 90.4063 47.3109 90.2134 47.0317C89.8276 46.276 89.1566 45.7092 88.4506 45.2609C88.5471 46.4339 88.0818 47.7818 88.7824 48.8251C89.1365 48.8167 89.4905 48.8083 89.8445 48.8054C89.8445 49.0197 89.8445 49.4484 89.8445 49.6655C88.4273 49.6627 87.0112 49.6627 85.5939 49.6655C85.5939 49.4512 85.5908 49.0254 85.5908 48.8111C85.9702 48.8111 86.3476 48.814 86.7271 48.814C86.7218 46.3014 86.7218 43.786 86.7271 41.2735C86.0837 41.3073 85.5515 41.0394 85.489 40.3598ZM88.4273 41.2057C88.4273 42.4465 88.4273 43.6873 88.4273 44.9309C88.5927 44.9168 88.9181 44.8858 89.0824 44.8717C89.7884 44.57 90.4572 44.1949 90.9755 43.6168C90.9734 43.0444 90.9734 42.4748 90.9734 41.9052C90.7381 41.6739 90.5028 41.4427 90.2728 41.2086C89.6548 41.2059 89.04 41.2057 88.4273 41.2057Z" fill="#CDCDCD"/>
<path d="M97.22 40.3541C99.1747 40.467 101.176 40.1285 103.106 40.529C103.225 40.5628 103.467 40.6306 103.585 40.6643C103.875 40.8617 104.171 41.0563 104.478 41.2396C104.886 41.6005 105.269 41.9925 105.575 42.4494C105.717 42.7652 105.858 43.0839 106 43.4025V46.6877C105.553 47.6436 105.008 48.6447 103.956 49.0423C103.8 49.1213 103.484 49.2792 103.325 49.3582C103.206 49.3863 102.967 49.4455 102.845 49.4738C101.008 49.908 99.0877 49.5471 97.2168 49.6655C97.2168 49.4738 97.2137 49.0902 97.2137 48.8985C97.6843 48.7829 98.4634 48.656 98.3415 47.9933C98.3585 46.0137 98.3563 44.0314 98.3479 42.0545C98.4613 41.3835 97.7129 41.2142 97.2137 41.1353C97.2137 40.9407 97.2168 40.5487 97.22 40.3541ZM100.048 41.2058C100.057 43.3715 100.043 45.5372 100.051 47.7056C100 48.1258 100.162 48.5009 100.402 48.8364C100.986 48.811 101.57 48.8083 102.156 48.8026C102.832 48.4107 103.455 47.9171 103.855 47.2319C103.926 46.916 103.99 46.6003 104.053 46.2816L104.33 46.2478C104.302 45.5146 104.3 44.7814 104.325 44.0482L104.05 44.0201C103.99 43.7014 103.926 43.3799 103.855 43.064C103.35 42.3027 102.661 41.6852 101.879 41.217C101.267 41.2086 100.658 41.2058 100.048 41.2058Z" fill="#CDCDCD"/>
</svg>
