<svg width="97" height="50" viewBox="0 0 97 50" fill="none" xmlns="http://www.w3.org/2000/svg">
<path d="M1.57518 1.76077H91.5864V33.4356H1.57518V1.76077ZM0 35.036H93.1879V0.173703H0V35.036Z" fill="#CDCDCD"/>
<path d="M24.9383 9.28244V25.8867L26.2355 26.0601V27.0337H19.8421V26.0601L21.2187 25.8867V18.3248H13.0383V25.8867L14.2958 26.0601V27.0337H8.0083V26.0601L9.26581 25.8867V9.28244L8.0083 9.10907V8.16214H14.2958V9.10907L13.0383 9.28244V16.3776H21.2187V9.28244L19.8421 9.10907V8.16214H26.2355V9.10907L24.9383 9.28244Z" fill="#CDCDCD"/>
<path d="M33.6614 26.0065L34.866 26.1798V27.0334H28.9888V26.1798L30.1934 26.0065V14.6302L28.9888 14.4568V13.6033H33.6614V26.0065Z" fill="#CDCDCD"/>
<path d="M37.4207 26.2068L38.5988 26.0468V9.17569L37.4207 9.00241V8.1755H42.0934V26.0468L43.2979 26.2068V27.047H37.4207V26.2068Z" fill="#CDCDCD"/>
<path d="M50.4458 13.6037H53.5962V14.8574H50.4458V22.8461C50.4458 24.9134 50.8694 25.5668 52.7358 25.5668C53.4241 25.5668 54.033 25.5668 54.6022 25.4201V26.3403C52.9079 26.9405 51.4783 27.1939 50.2737 27.1939C47.5734 27.1939 46.9513 25.9669 46.9513 23.6197V14.8574H44.4892V13.6037H47.0439V10.803L50.459 9.77605V13.6037" fill="#CDCDCD"/>
<path d="M69.4142 20.4452C69.4142 24.633 66.608 27.4338 62.1867 27.4338C57.9114 27.4338 55.1847 25.6066 55.1847 20.4452C55.1847 16.1241 57.9909 13.2301 62.4118 13.2301C66.7806 13.2301 69.4142 15.8441 69.4142 20.4452ZM65.5759 20.3653C65.5759 16.1241 64.3178 14.2703 62.2798 14.2703C60.2943 14.2703 59.0362 16.0442 59.0362 20.3653C59.0362 24.633 60.2943 26.4068 62.2798 26.4068C64.3974 26.4068 65.5759 24.7131 65.5759 20.3653Z" fill="#CDCDCD"/>
<path d="M85.3784 26.1803V27.0339H79.5012V26.1803L80.6788 26.007V18.365C80.6788 16.2445 79.8979 15.2975 78.2965 15.2975C77.5554 15.2975 76.3768 15.8177 75.5164 16.4178V26.007L76.7212 26.1803V27.0339H70.8178V26.1803L72.0215 26.007V14.7241L70.8178 14.5507V13.6038H75.5164V15.4709C76.9724 14.2973 78.3886 13.3503 80.3616 13.3503C82.9951 13.3503 84.1737 14.8974 84.1737 17.9383V26.0203L85.3784 26.1803Z" fill="#CDCDCD"/>
<path d="M33.8335 10.056C33.8335 11.0963 32.9863 11.9498 31.9407 11.9498C30.8949 11.9498 30.0478 11.1096 30.0478 10.056C30.0478 9.01573 30.8949 8.16214 31.9407 8.16214C32.9863 8.16214 33.8335 9.01573 33.8335 10.056Z" fill="#CDCDCD"/>
<path d="M95.544 1.20035H95.8215C96.0077 1.20035 96.0736 1.14698 96.0736 1.01358C96.0736 0.880273 96.0077 0.82691 95.8215 0.82691H95.544V1.20035ZM96.3113 1.00029C96.3113 1.18696 96.2327 1.29368 96.0736 1.34704L96.3647 1.77384H96.0998L95.835 1.38701H95.544V1.77384H95.319V0.626852H95.8215C96.1658 0.626852 96.3113 0.74687 96.3113 1.00029ZM94.8553 1.21364C94.8553 1.73377 95.2792 2.17385 95.8088 2.17385C96.3249 2.17385 96.7614 1.74716 96.7614 1.21364C96.7614 0.693508 96.3385 0.253419 95.8088 0.253419C95.2792 0.253419 94.8553 0.680216 94.8553 1.21364ZM97 1.21364C97 1.88046 96.4568 2.42727 95.7953 2.42727C95.1337 2.42727 94.5905 1.88046 94.5905 1.21364C94.5905 0.546812 95.1337 0 95.7953 0C96.4704 0 97 0.533521 97 1.21364Z" fill="#CDCDCD"/>
<path d="M3.40186 49.8393H1.98547C1.82668 49.8393 1.74723 49.7592 1.74723 49.5991V41.8372C1.74723 41.6772 1.82668 41.5971 1.98547 41.5971H7.09494C7.25383 41.5971 7.33317 41.6772 7.33317 41.8372V43.0908C7.33317 43.2509 7.25383 43.3309 7.09494 43.3309H3.64009V45.3181H6.24774C6.40663 45.3181 6.48607 45.3981 6.48607 45.5581V46.7185C6.48607 46.8785 6.40663 46.9585 6.24774 46.9585H3.64009V49.6392C3.64009 49.7726 3.56074 49.8393 3.40186 49.8393Z" fill="#CDCDCD"/>
<path d="M14.0973 47.8528C14.4546 47.6395 14.7326 47.346 14.9445 46.9726C15.1562 46.5991 15.2622 46.1857 15.2622 45.7322C15.2622 45.2789 15.1562 44.8654 14.9445 44.4919C14.7326 44.1185 14.4414 43.8251 14.0841 43.6117C13.7266 43.3983 13.3428 43.2917 12.9324 43.2917C12.5221 43.2917 12.125 43.3983 11.7808 43.6117C11.4234 43.8251 11.1455 44.1185 10.9336 44.4919C10.7219 44.8654 10.616 45.2789 10.616 45.7322C10.616 46.1857 10.7219 46.5991 10.9336 46.9726C11.1455 47.346 11.4367 47.6395 11.794 47.8528C12.1515 48.0662 12.5353 48.1729 12.9457 48.1729C13.356 48.1729 13.7398 48.0662 14.0973 47.8528ZM10.788 49.4265C10.1395 49.0398 9.62325 48.5329 9.25261 47.8795C8.88198 47.226 8.69661 46.5058 8.69661 45.7189C8.69661 44.9321 8.88198 44.2252 9.25261 43.5717C9.62325 42.9182 10.1395 42.4114 10.788 42.0247C11.4367 41.6513 12.1515 41.4645 12.9457 41.4645C13.7266 41.4645 14.4414 41.6513 15.0901 42.0247C15.7386 42.3981 16.2549 42.9182 16.6255 43.5717C16.9961 44.2252 17.1815 44.9454 17.1815 45.7189C17.1815 46.5058 16.9961 47.2127 16.6255 47.8795C16.2549 48.5329 15.7386 49.0532 15.0901 49.4265C14.4414 49.8133 13.7266 50 12.9457 50C12.1515 49.9867 11.4367 49.7999 10.788 49.4265Z" fill="#CDCDCD"/>
<path d="M22.966 45.3715C23.1381 45.2648 23.2705 45.1314 23.3631 44.958C23.4558 44.7846 23.5087 44.598 23.5087 44.3845C23.5087 44.1579 23.4558 43.9578 23.3631 43.7845C23.2705 43.6244 23.1381 43.491 22.966 43.411C22.8072 43.331 22.6218 43.2909 22.4101 43.2909H20.9805V45.5182H22.3836C22.5954 45.5182 22.7939 45.4781 22.966 45.3715ZM19.1008 49.6126V41.8506C19.1008 41.6905 19.1803 41.6105 19.3391 41.6105H22.5689C23.1249 41.6105 23.6278 41.7305 24.0514 41.9573C24.4882 42.1973 24.8192 42.5175 25.0574 42.9309C25.2957 43.3443 25.4149 43.8244 25.4149 44.3712C25.4149 44.9048 25.3089 45.3581 25.0839 45.7316C24.8589 46.105 24.5545 46.4118 24.1441 46.6518L25.5737 49.5592C25.6001 49.6126 25.6134 49.6526 25.6134 49.6792C25.6134 49.7326 25.6001 49.7593 25.5605 49.786C25.5207 49.8127 25.4678 49.8259 25.4149 49.8259H23.7867C23.6543 49.8259 23.5617 49.7726 23.5087 49.6526L22.3438 47.132H20.9805V49.5859C20.9805 49.746 20.9011 49.8259 20.7422 49.8259H19.3259C19.167 49.8393 19.1008 49.7726 19.1008 49.6126Z" fill="#CDCDCD"/>
<path d="M35.1043 49.8393H33.6879C33.529 49.8393 33.4497 49.7593 33.4497 49.5992V43.3709H31.4111C31.2524 43.3709 31.1729 43.291 31.1729 43.1309V41.8239C31.1729 41.6638 31.2524 41.5838 31.4111 41.5838H37.381C37.5399 41.5838 37.6192 41.6638 37.6192 41.8239V43.1309C37.6192 43.291 37.5399 43.3709 37.381 43.3709H35.3293V49.5992C35.3426 49.7725 35.2631 49.8393 35.1043 49.8393Z" fill="#CDCDCD"/>
<path d="M41.458 49.8393H40.0416C39.8828 49.8393 39.8034 49.7592 39.8034 49.5991V41.8372C39.8034 41.6772 39.8828 41.5971 40.0416 41.5971H41.458C41.6168 41.5971 41.6963 41.6772 41.6963 41.8372V44.6379H45.0187V41.8372C45.0187 41.6772 45.0981 41.5971 45.257 41.5971H46.6866C46.8454 41.5971 46.9248 41.6772 46.9248 41.8372V49.5991C46.9248 49.7592 46.8454 49.8393 46.6866 49.8393H45.257C45.0981 49.8393 45.0187 49.7592 45.0187 49.5991V46.4517H41.6963V49.5991C41.6831 49.7725 41.6168 49.8393 41.458 49.8393Z" fill="#CDCDCD"/>
<path d="M55.4891 49.8393H49.9693C49.8105 49.8393 49.731 49.7592 49.731 49.5991V41.8372C49.731 41.6772 49.8105 41.5971 49.9693 41.5971H55.4097C55.5685 41.5971 55.6479 41.6772 55.6479 41.8372V43.1042C55.6479 43.2643 55.5685 43.3442 55.4097 43.3442H51.6239V44.8246H54.536C54.6949 44.8246 54.7743 44.9047 54.7743 45.0647V46.225C54.7743 46.385 54.6949 46.4651 54.536 46.4651H51.6239V48.1322H55.4891C55.6479 48.1322 55.7274 48.2121 55.7274 48.3722V49.6392C55.7141 49.7726 55.6347 49.8393 55.4891 49.8393Z" fill="#CDCDCD"/>
<path d="M63.0868 49.6266C62.5446 49.3865 62.0674 49.0398 61.6571 48.5863C61.6047 48.5329 61.5911 48.4797 61.5911 48.4263C61.5911 48.373 61.6173 48.3063 61.6842 48.2529L62.5844 47.3861C62.6368 47.3327 62.6901 47.306 62.7425 47.306C62.8094 47.306 62.8618 47.3327 62.9151 47.3993C63.18 47.6661 63.471 47.8795 63.8017 48.0128C64.1325 48.1462 64.4768 48.2263 64.8212 48.2263C65.1917 48.2263 65.4827 48.1595 65.6816 48.0128C65.8804 47.8795 65.9862 47.6795 65.9862 47.4394C65.9862 47.2793 65.9464 47.1326 65.8533 47.0259C65.7611 46.9059 65.6021 46.7992 65.377 46.7058C65.152 46.5991 64.8348 46.4925 64.4235 46.3725C63.7494 46.1724 63.1664 45.8789 62.6639 45.4788C62.1741 45.0788 61.9219 44.532 61.9219 43.8118C61.9219 43.385 62.0286 42.9982 62.2526 42.6381C62.4651 42.278 62.7958 41.998 63.2323 41.7846C63.6698 41.5712 64.1985 41.4645 64.8212 41.4645C65.3508 41.4645 65.8533 41.5578 66.3431 41.7446C66.8194 41.9312 67.2569 42.1847 67.641 42.5181C67.6934 42.5715 67.7331 42.6248 67.7331 42.6781C67.7331 42.7315 67.707 42.7848 67.6672 42.8382L66.8466 43.7717C66.7932 43.8385 66.7408 43.8651 66.6739 43.8651C66.6215 43.8651 66.5682 43.8385 66.5158 43.7984C66.2907 43.625 66.0386 43.4783 65.7476 43.3583C65.4566 43.2383 65.1782 43.185 64.9007 43.185C64.5826 43.185 64.3313 43.2383 64.1597 43.3449C63.9744 43.4517 63.8949 43.6118 63.8949 43.8118C63.8949 43.9718 63.9472 44.1052 64.053 44.2252C64.1597 44.3319 64.2916 44.4253 64.4633 44.5053C64.6359 44.5854 64.9007 44.6787 65.2451 44.7853C65.2577 44.7853 65.3111 44.7987 65.3906 44.8387C65.9464 45.0254 66.4091 45.2255 66.7806 45.4389C67.1511 45.6523 67.4286 45.919 67.641 46.2391C67.8525 46.5591 67.9446 46.9459 67.9446 47.3993C67.9446 47.9195 67.8127 48.373 67.5615 48.7597C67.3092 49.1465 66.9523 49.4532 66.5022 49.6666C66.0386 49.88 65.5225 49.9867 64.9133 49.9867C64.2256 49.9867 63.63 49.8667 63.0868 49.6266Z" fill="#CDCDCD"/>
<path d="M73.2923 49.8393H71.8761C71.7179 49.8393 71.6384 49.7593 71.6384 49.5992V43.3709H69.5995C69.4404 43.3709 69.3618 43.291 69.3618 43.1309V41.8239C69.3618 41.6638 69.4404 41.5838 69.5995 41.5838H75.5698C75.7279 41.5838 75.8075 41.6638 75.8075 41.8239V43.1309C75.8075 43.291 75.7279 43.3709 75.5698 43.3709H73.5173V49.5992C73.5309 49.7725 73.4513 49.8393 73.2923 49.8393Z" fill="#CDCDCD"/>
<path d="M81.2618 46.8386L80.3344 44.1979L80.2423 43.8644L80.1628 44.1979L79.2364 46.8386H81.2618ZM84.1465 49.6792C84.1465 49.7326 84.1339 49.7726 84.0942 49.7993C84.0544 49.8259 84.0146 49.8393 83.9487 49.8393H82.4927C82.3598 49.8393 82.2677 49.7727 82.2279 49.6393L81.7904 48.4256H78.6806L78.2567 49.6393C78.2169 49.7727 78.1238 49.8393 77.9919 49.8393H76.5359C76.47 49.8393 76.4302 49.8259 76.3904 49.7993C76.3506 49.7726 76.3371 49.7326 76.3371 49.6792C76.3371 49.6526 76.3371 49.6126 76.3506 49.5859L79.3547 41.7973C79.4081 41.6772 79.4876 41.6105 79.6196 41.6105H80.8776C81.0096 41.6105 81.1027 41.6772 81.1551 41.7973L84.1339 49.5859C84.1465 49.6126 84.1465 49.6393 84.1465 49.6792Z" fill="#CDCDCD"/>
<path d="M88.7667 49.8393H87.3369C87.1778 49.8393 87.0992 49.7592 87.0992 49.5991V46.6251L84.4114 41.8772C84.3852 41.8239 84.3716 41.7838 84.3716 41.7438C84.3716 41.6905 84.3852 41.6638 84.4249 41.6371C84.4647 41.6104 84.5045 41.5971 84.5704 41.5971H86.2515C86.3844 41.5971 86.4765 41.6505 86.5298 41.7705L88.0654 44.8513L89.5611 41.7705C89.6135 41.6505 89.7066 41.5971 89.8385 41.5971H91.5195C91.5865 41.5971 91.6262 41.6104 91.666 41.6371C91.7048 41.6638 91.7184 41.7038 91.7184 41.7438C91.7184 41.7838 91.7048 41.8239 91.6786 41.8772L89.0053 46.6118V49.5991C89.0053 49.7725 88.9257 49.8393 88.7667 49.8393Z" fill="#CDCDCD"/>
<path d="M92.637 41.6184V41.5036H93.4333V41.6184H93.0987V42.5732H92.9706V41.6184H92.637Z" fill="#CDCDCD"/>
<path d="M93.9464 41.5036H94.0997L94.4605 42.3914H94.4732L94.834 41.5036H94.9873V42.5732H94.867V41.7605H94.8563L94.5246 42.5732H94.4082L94.0764 41.7605H94.0667V42.5732H93.9464V41.5036Z" fill="#CDCDCD"/>
</svg>
