<svg width="113" height="20" viewBox="0 0 113 20" fill="none" xmlns="http://www.w3.org/2000/svg">
<path fill-rule="evenodd" clip-rule="evenodd" d="M52.9275 0.27883L48.9656 19.7211H53.4653L57.4273 0.27883H52.9275Z" fill="#CDCDCD"/>
<path fill-rule="evenodd" clip-rule="evenodd" d="M8.46174 0.27883H3.96198L0 19.7211H4.49976L8.46174 0.27883Z" fill="#CDCDCD"/>
<path fill-rule="evenodd" clip-rule="evenodd" d="M51.4688 0.27883H46.9691L38.5939 13.7729L35.9485 0.27883H31.4487L35.2562 19.7211H39.3974L51.4688 0.27883Z" fill="#CDCDCD"/>
<path fill-rule="evenodd" clip-rule="evenodd" d="M74.2515 0.27883H59.5659L58.7871 4.36335H63.8987L60.765 19.7211H65.2647L68.3925 4.36335H73.4794L74.2515 0.27883Z" fill="#CDCDCD"/>
<path fill-rule="evenodd" clip-rule="evenodd" d="M25.8549 0.27883L23.2342 13.1435L16.3486 0.27883H12.4608L8.50496 19.7211H12.8379L15.4647 6.82618L22.3318 19.7211H26.232L30.1878 0.27883H25.8549Z" fill="#CDCDCD"/>
<path fill-rule="evenodd" clip-rule="evenodd" d="M84.9508 0.27883H76.6999L72.7373 19.7211H77.262L80.3526 4.36335H84.2398C85.0223 4.32767 85.7851 4.60507 86.3539 5.13183C86.7899 5.59213 87.0017 6.21404 86.9349 6.83825C86.7437 8.79275 85.174 9.69435 83.14 9.69435H79.8582L84.0854 19.7211H88.5856L85.7729 13.0649C89.0254 12.6553 91.4643 9.95137 91.4784 6.74145C91.6639 2.97157 88.8323 0.27883 84.9329 0.27883" fill="#CDCDCD"/>
<path d="M92.3316 10.003C92.6734 4.34547 97.4891 -0.0546165 103.278 0.000512385C109.267 0.000512385 113.309 4.44807 112.981 9.99692C112.64 15.6545 107.824 20.0545 102.035 19.9995C96.0455 19.9995 92.0039 15.5518 92.3372 10.003M108.798 10.003C108.945 8.42519 108.396 6.86102 107.289 5.70488C106.183 4.54874 104.623 3.91079 103.005 3.95191C99.5363 3.93882 96.6746 6.60944 96.522 10.003C96.3751 11.5808 96.9241 13.145 98.0306 14.3011C99.137 15.4574 100.695 16.0952 102.313 16.0541C105.785 16.0704 108.651 13.3989 108.803 10.003" fill="#CDCDCD"/>
</svg>
