<svg width="109" height="23" viewBox="0 0 109 23" fill="none" xmlns="http://www.w3.org/2000/svg">
<path d="M39.566 22.2091H38.9633V21.8988C38.8587 22.0197 38.727 22.1158 38.5782 22.1798C38.4294 22.2438 38.2676 22.2741 38.1049 22.2683C37.8644 22.2757 37.6285 22.2027 37.4373 22.0614C37.3471 21.9928 37.2752 21.9044 37.2274 21.8036C37.1796 21.7027 37.1574 21.5922 37.1626 21.4814C37.1569 21.3633 37.1807 21.2457 37.2319 21.1383C37.2829 21.031 37.36 20.937 37.4563 20.8645C37.6811 20.7177 37.9484 20.6439 38.2193 20.6539C38.4675 20.6519 38.7145 20.6868 38.9518 20.7573V20.6871C38.957 20.6121 38.9445 20.5369 38.9155 20.4672C38.8864 20.3974 38.8414 20.335 38.7839 20.2845C38.6451 20.1829 38.4731 20.133 38.2994 20.1441C38.0368 20.1475 37.7774 20.2015 37.5364 20.3029L37.3877 19.8522C37.7043 19.7141 38.0475 19.6423 38.3948 19.6417C38.5515 19.6302 38.709 19.6487 38.8582 19.6962C39.0075 19.7438 39.1456 19.8193 39.2646 19.9187C39.3668 20.024 39.4457 20.1485 39.4962 20.2845C39.5467 20.4204 39.5678 20.5651 39.5584 20.7093L39.566 22.2091ZM38.9785 21.293V21.1489C38.7844 21.0799 38.5788 21.046 38.3719 21.0492C38.2158 21.0398 38.0604 21.0759 37.9256 21.1526C37.8749 21.1844 37.8335 21.2282 37.8054 21.28C37.7773 21.3318 37.7635 21.3896 37.7653 21.4481C37.7636 21.5019 37.7761 21.5551 37.8014 21.6029C37.8267 21.6507 37.8643 21.6915 37.9103 21.7215C38.0227 21.7945 38.1567 21.8296 38.2918 21.8213C38.4721 21.8286 38.6496 21.7765 38.7954 21.6735C38.8548 21.6285 38.9024 21.5707 38.9342 21.5045C38.966 21.4384 38.9812 21.3659 38.9785 21.293Z" fill="#CDCDCD"/>
<path d="M41.2865 22.9741V19.6789H41.8931V20.1C41.9897 19.9547 42.1224 19.8353 42.279 19.7527C42.4357 19.6701 42.6113 19.6269 42.7897 19.6272C42.9526 19.6275 43.1136 19.6604 43.2627 19.724C43.4117 19.7876 43.5455 19.8804 43.6557 19.9966C43.8922 20.2643 44.022 20.6048 44.022 20.9571C44.022 21.3093 43.8922 21.6499 43.6557 21.9176C43.5454 22.0336 43.4116 22.1262 43.2625 22.1898C43.1134 22.2534 42.9525 22.2865 42.7897 22.287C42.6139 22.2888 42.4405 22.249 42.2842 22.1711C42.128 22.0932 41.9937 21.9795 41.8931 21.84V23L41.2865 22.9741ZM42.6486 21.7587C42.7496 21.7604 42.8498 21.7412 42.9427 21.7024C43.0354 21.6635 43.1185 21.6059 43.1865 21.5334C43.3364 21.3703 43.4146 21.1568 43.4039 20.9386C43.4129 20.7233 43.3334 20.5134 43.1827 20.355C43.1152 20.2829 43.0326 20.2256 42.9406 20.1867C42.8485 20.1479 42.7489 20.1284 42.6486 20.1296C42.5461 20.1285 42.4445 20.1483 42.3505 20.1877C42.2565 20.2272 42.1721 20.2855 42.103 20.3586C42.0267 20.437 41.9671 20.5294 41.9279 20.6302C41.8886 20.731 41.8703 20.8383 41.874 20.946C41.8705 21.0525 41.8888 21.1587 41.9282 21.2584C41.9675 21.3579 42.0269 21.449 42.103 21.526C42.1724 21.6002 42.2572 21.6592 42.3519 21.6993C42.4466 21.7394 42.549 21.7597 42.6524 21.7587H42.6486Z" fill="#CDCDCD"/>
<path d="M47.8675 22.2093H47.2646V21.899C47.1601 22.0199 47.0285 22.116 46.8797 22.18C46.7309 22.244 46.5689 22.2742 46.4062 22.2684C46.1658 22.2759 45.9299 22.2029 45.7386 22.0616C45.6485 21.9929 45.5767 21.9045 45.5289 21.8037C45.4811 21.7029 45.4589 21.5924 45.4639 21.4816C45.4584 21.3634 45.4821 21.2458 45.5333 21.1384C45.5844 21.0311 45.6613 20.9372 45.7577 20.8646C45.9825 20.7178 46.2497 20.644 46.5207 20.6541C46.7689 20.652 47.0159 20.687 47.2532 20.7575V20.6873C47.2584 20.6123 47.246 20.5371 47.2169 20.4673C47.1879 20.3976 47.1429 20.3351 47.0853 20.2846C46.9465 20.1831 46.7745 20.1332 46.6008 20.1443C46.3381 20.1477 46.0788 20.2017 45.8378 20.3031L45.6738 19.8376C45.9904 19.6995 46.3337 19.6277 46.6809 19.6271C46.8376 19.6156 46.9951 19.6341 47.1444 19.6816C47.2937 19.7292 47.4318 19.8047 47.5507 19.9041C47.653 20.0094 47.7318 20.1339 47.7823 20.2699C47.8329 20.4058 47.854 20.5504 47.8446 20.6947L47.8675 22.2093ZM47.2799 21.2932V21.1491C47.0858 21.08 46.8801 21.0462 46.6733 21.0493C46.5172 21.04 46.3618 21.0761 46.2269 21.1528C46.1763 21.1845 46.1348 21.2284 46.1068 21.2801C46.0787 21.3319 46.0649 21.3898 46.0667 21.4483C46.0651 21.5021 46.0774 21.5553 46.1028 21.6031C46.1282 21.6509 46.1656 21.6917 46.2117 21.7217C46.324 21.7947 46.4582 21.8298 46.5932 21.8214C46.7735 21.8287 46.9511 21.7767 47.0968 21.6737C47.1562 21.6287 47.2038 21.5708 47.2356 21.5047C47.2674 21.4386 47.2826 21.3661 47.2799 21.2932Z" fill="#CDCDCD"/>
<path d="M49.5957 22.2096V19.6791H50.2022V20.248C50.2629 20.0608 50.3863 19.8987 50.5528 19.7869C50.7193 19.6752 50.9195 19.6204 51.1217 19.6311V20.2443H51.0873C50.9655 20.2388 50.8438 20.2587 50.7306 20.3026C50.6174 20.3466 50.5153 20.4136 50.4311 20.4992C50.2559 20.7066 50.1686 20.9707 50.187 21.2381V22.1986L49.5957 22.2096Z" fill="#CDCDCD"/>
<path d="M53.5481 22.2505C53.4445 22.2646 53.3388 22.2553 53.2396 22.2232C53.1403 22.191 53.0501 22.137 52.9762 22.0654C52.9022 21.9937 52.8464 21.9064 52.8133 21.8103C52.7801 21.7142 52.7704 21.612 52.785 21.5116V20.1817H52.4493V19.6793H52.785V18.9847H53.4108V19.6793H54.1203V20.178H53.4108V21.4266C53.4045 21.4695 53.4085 21.5131 53.4226 21.5541C53.4366 21.5952 53.4602 21.6326 53.4916 21.6633C53.5229 21.694 53.5613 21.7174 53.6035 21.7314C53.6457 21.7455 53.6907 21.7499 53.735 21.7443C53.8673 21.7456 53.998 21.7165 54.1165 21.6594V22.1322C53.9413 22.22 53.745 22.2608 53.5481 22.2505Z" fill="#CDCDCD"/>
<path d="M55.6998 22.2092V18.7107H56.3064V20.0702C56.3928 19.9328 56.5144 19.8194 56.6595 19.741C56.8047 19.6627 56.9682 19.6221 57.1343 19.6232C57.2621 19.6165 57.3899 19.6363 57.5091 19.6816C57.6281 19.7269 57.7359 19.7964 57.8248 19.8855C58.0002 20.0816 58.0904 20.3358 58.0766 20.5948V22.2055H57.47V20.7721C57.4811 20.6068 57.428 20.4434 57.3212 20.3141C57.2676 20.2593 57.2022 20.2168 57.1297 20.1893C57.0572 20.1618 56.9793 20.1502 56.9016 20.1552C56.8217 20.1522 56.7421 20.1654 56.6679 20.1941C56.5936 20.2228 56.5263 20.2661 56.4705 20.3214C56.3558 20.4473 56.2969 20.6119 56.3064 20.7795V22.2055L55.6998 22.2092Z" fill="#CDCDCD"/>
<path d="M61.0829 22.2653C60.8986 22.2723 60.7147 22.2432 60.5423 22.1797C60.3699 22.1163 60.2125 22.0197 60.0796 21.8959C59.9519 21.7736 59.8507 21.628 59.7815 21.4676C59.7124 21.3072 59.6769 21.135 59.6769 20.9612C59.6769 20.7874 59.7124 20.6153 59.7815 20.4549C59.8507 20.2944 59.9519 20.1488 60.0796 20.0266C60.3522 19.7799 60.7116 19.6427 61.0848 19.6427C61.458 19.6427 61.8174 19.7799 62.0901 20.0266C62.2181 20.1486 62.3198 20.2941 62.3892 20.4545C62.4586 20.615 62.4944 20.7872 62.4944 20.9612C62.4944 21.1352 62.4586 21.3074 62.3892 21.4679C62.3198 21.6283 62.2181 21.7739 62.0901 21.8959C61.9561 22.0193 61.7979 22.1155 61.625 22.179C61.4521 22.2424 61.2678 22.2718 61.0829 22.2653ZM61.0829 21.7629C61.1914 21.7657 61.2992 21.746 61.3992 21.7053C61.4992 21.6644 61.589 21.6035 61.6628 21.5264C61.8108 21.3678 61.8901 21.1601 61.8841 20.9464C61.8894 20.7325 61.8071 20.5254 61.6552 20.3701C61.5814 20.293 61.4916 20.2321 61.3916 20.1913C61.2915 20.1505 61.1837 20.1309 61.0753 20.1337C60.9673 20.1299 60.8596 20.1492 60.7602 20.1901C60.6606 20.2309 60.5716 20.2924 60.4992 20.3701C60.3508 20.5285 60.2715 20.7364 60.2779 20.9501C60.2729 21.1639 60.3552 21.3709 60.5068 21.5264C60.5814 21.6045 60.6725 21.6659 60.7739 21.7067C60.8754 21.7476 60.9846 21.7667 61.0944 21.7629H61.0829Z" fill="#CDCDCD"/>
<path d="M65.0047 22.2505C64.9012 22.2646 64.7958 22.2553 64.6959 22.2232C64.5969 22.191 64.507 22.137 64.4325 22.0654C64.3589 21.9937 64.3035 21.9064 64.2699 21.8103C64.2363 21.7142 64.2272 21.612 64.2417 21.5116V20.1817H63.9057V19.6793H64.2417V18.9847H64.8558V19.6793H65.5652V20.178H64.8558V21.4266C64.8494 21.4695 64.854 21.5131 64.8676 21.5541C64.8821 21.5952 64.9057 21.6326 64.9366 21.6633C64.9684 21.694 65.0066 21.7174 65.0483 21.7314C65.091 21.7455 65.1355 21.7499 65.18 21.7443C65.3127 21.7456 65.4435 21.7165 65.5615 21.6594V22.1322C65.3899 22.2181 65.1982 22.2589 65.0047 22.2505Z" fill="#CDCDCD"/>
<path d="M68.3884 22.2648C68.2085 22.2705 68.0287 22.2401 67.8607 22.1756C67.6926 22.111 67.54 22.0137 67.4128 21.8896C67.2848 21.7655 67.1858 21.6174 67.1195 21.4544C67.0541 21.2914 67.0241 21.1171 67.0304 20.9422C67.0259 20.5942 67.1631 20.2584 67.4119 20.0076C67.53 19.8852 67.6744 19.7889 67.8343 19.7251C67.9942 19.6614 68.1668 19.6317 68.3393 19.6382C68.5156 19.6291 68.6918 19.6598 68.8544 19.7277C69.0161 19.7956 69.1596 19.8991 69.274 20.0298C69.5002 20.305 69.6183 20.6495 69.6056 21.0014C69.6101 21.0554 69.6101 21.1098 69.6056 21.1639H67.6599C67.6817 21.3469 67.7725 21.5155 67.9161 21.6368C68.0578 21.751 68.2385 21.8114 68.4229 21.8067C68.5574 21.8045 68.69 21.7765 68.8126 21.7245C68.9361 21.6726 69.0469 21.5975 69.1405 21.5038L69.4948 21.8067C69.3603 21.9611 69.1895 22.0829 68.9979 22.1625C68.8062 22.242 68.5973 22.277 68.3884 22.2648ZM67.6254 20.7649H68.9843C68.9715 20.5872 68.8989 20.4185 68.7781 20.2847C68.719 20.2223 68.6473 20.1732 68.5664 20.1407C68.4865 20.1082 68.3993 20.093 68.3121 20.0963C68.2267 20.0942 68.1413 20.1096 68.0614 20.1414C67.9824 20.1732 67.9106 20.2207 67.8507 20.281C67.7235 20.4142 67.6463 20.5843 67.6299 20.7649H67.6254Z" fill="#CDCDCD"/>
<path d="M71.2386 22.2092V18.7107H71.8454V22.2055L71.2386 22.2092Z" fill="#CDCDCD"/>
<path d="M105.173 0.336171C105.006 0.336171 104.949 0.465471 104.883 0.524578C105.001 0.464592 105.132 0.432924 105.265 0.43222C105.254 0.406361 105.23 0.369419 105.173 0.336171ZM67.6871 16.8902H67.8088L67.6298 16.8606L67.5227 16.9013L67.6871 16.8902ZM10.7546 6.54622H9.80472V10.6469H10.7546C11.3678 10.6776 11.9705 10.4851 12.4447 10.1075C12.6588 9.91508 12.8263 9.67909 12.9351 9.41662C13.0439 9.15416 13.0914 8.87155 13.0742 8.5892C13.089 8.30871 13.0403 8.02848 12.9316 7.76813C12.8227 7.50777 12.6566 7.27363 12.4447 7.08188C11.9734 6.69865 11.3692 6.50321 10.7546 6.53514V6.54622ZM33.0498 0.3177H33.1147C33.1918 0.306794 33.2702 0.306794 33.3474 0.3177C33.2485 0.307673 33.1487 0.307673 33.0498 0.3177ZM108.588 16.5281H108.469C108.456 16.5507 108.447 16.5758 108.443 16.602L108.588 16.5281ZM39.6003 0.136685C39.6501 0.16448 39.7042 0.184446 39.7605 0.195792C39.7605 0.195792 39.7223 0.166239 39.6003 0.136685ZM27.0869 0.328783L27.2052 0.354642H27.4074L27.0869 0.328783ZM66.0384 0.402667C66.2065 0.402667 66.2755 0.384196 66.2828 0.369419C66.1456 0.369419 66.0003 0.38789 66.0539 0.402667H66.0384ZM88.2535 0.509802C88.2826 0.51288 88.3107 0.519037 88.338 0.528273H88.2953L88.2535 0.509802ZM97.7338 0.369419H97.9136C97.9599 0.348133 98.0044 0.323418 98.0471 0.295535L97.7338 0.369419ZM55.4328 0.0554129H55.4633C55.6426 0.0443302 55.5396 0.0443302 55.4328 0.0554129ZM108.844 1.92099L108.802 2.98123C108.859 2.79651 108.935 2.5527 108.951 3.03294C109.111 1.69934 108.828 3.32487 108.851 1.92099H108.844ZM88.0437 0.491327L87.456 0.443303C87.4142 0.491328 87.7467 0.480245 88.0437 0.491327ZM87.1435 6.53514H86.1934V10.6469H87.1435C87.7567 10.6776 88.3598 10.4851 88.8339 10.1075C89.0474 9.91508 89.2154 9.67909 89.3235 9.41662C89.4325 9.15416 89.4807 8.87155 89.4634 8.5892C89.4779 8.30871 89.4289 8.02848 89.3208 7.76813C89.2118 7.50777 89.0456 7.27363 88.8339 7.08188C88.3625 6.69865 87.7585 6.50321 87.1435 6.53514ZM106.307 0.406361C106.932 0.380502 106.307 0.332477 106.333 0.302924C105.936 0.347254 105.841 0.369419 106.307 0.406361ZM0.240345 8.42288C0.37387 7.7727 0.412019 9.47951 0.556988 8.50054C0.499763 8.5929 0.324275 7.61385 0.240345 8.42288ZM108.87 3.98983L108.71 3.84576C108.71 3.69429 108.71 3.39137 108.794 3.45048C108.684 2.88518 108.725 3.54653 108.618 3.21774C108.764 2.45665 108.55 1.27819 108.805 0.923551C108.684 0.709287 108.71 1.73628 108.626 0.923551C108.688 0.822576 108.725 0.708585 108.733 0.591074C108.478 0.584125 108.223 0.595296 107.97 0.624322C107.688 0.657657 107.404 0.657657 107.123 0.624322C107.348 0.495024 108.046 0.565212 107.31 0.446997C106.867 0.664955 105.875 0.398972 105.257 0.446997C105.227 0.620625 103.907 0.520884 102.865 0.576297C102.93 0.51719 100.905 0.480245 99.9356 0.417444L99.9546 0.369419C99.7675 0.546741 98.7684 0.513496 98.0471 0.546744C98.0735 0.439612 98.207 0.398973 98.6003 0.354642H97.9172C97.6502 0.428526 97.3741 0.464588 97.097 0.461774L97.2841 0.336171C96.2841 0.408912 95.2804 0.431165 94.2776 0.402667C94.2322 0.487634 94.6591 0.613239 94.5673 0.712982H93.946C93.9687 0.672346 94.0332 0.635404 94.2013 0.620627C94.006 0.650445 93.8071 0.659153 93.6099 0.646487L94.1059 0.535661C93.5718 0.487636 93.827 0.628016 93.4001 0.616933C93.4001 0.520884 93.0831 0.550435 93.1449 0.472856C93.322 0.487018 93.5009 0.487018 93.679 0.472856C93.2521 0.471625 92.8279 0.424568 92.4119 0.332477C92.4536 0.38789 92.4119 0.45808 92.0612 0.472856C91.1493 0.472856 91.7479 0.358337 91.2183 0.310312C90.9967 0.376808 90.4171 0.310311 90.4017 0.450691C90.2546 0.456145 90.1083 0.420258 89.9821 0.347254C89.5125 0.410055 87.7803 0.347257 88.3107 0.51719H88.4334H88.3571C86.8311 0.65757 85.1479 0.435914 83.6147 0.498716V0.461774C82.6991 0.517187 81.5773 0.495024 80.9442 0.594768C80.6735 0.594768 80.3065 0.509799 80.421 0.450691C79.8269 0.509535 79.2274 0.509535 78.6325 0.450691C79.3337 0.369419 78.3881 0.376807 79.3528 0.391584C78.6588 0.306705 77.9567 0.306705 77.2627 0.391584C77.5942 0.269675 76.5796 0.240122 76.1445 0.27337L76.7822 0.358337C76.2971 0.358337 75.8702 0.358337 75.4388 0.358337L75.6713 0.199486C73.8138 0.00738754 72.3177 0.528271 70.9026 0.199486C70.4102 0.310313 71.9135 0.277064 71.4712 0.410055C70.6164 0.38789 69.7235 0.15885 69.4565 0.15885C68.2893 0.0997429 68.3547 0.417444 67.1448 0.369419C67.301 0.424832 67.45 0.576297 66.5344 0.63171C65.6606 0.598462 65.4662 0.369419 66.0003 0.336171C66.2065 0.336171 66.3055 0.336171 66.2946 0.369419C66.5689 0.347254 66.935 0.325089 66.5952 0.262288L66.4853 0.3177C66.0611 0.258593 64.883 0.265982 65.161 0.173627C64.5124 0.22904 64.883 0.265982 65.3635 0.295535C64.2645 0.214263 63.6468 0.295536 62.5173 0.236428C62.6966 0.265982 62.8606 0.336171 62.6852 0.332477C61.0294 0.262287 61.9565 0.439609 60.8311 0.465468C60.194 0.380501 61.06 0.258593 59.9307 0.332477C59.2402 0.27337 59.7858 0.181016 60.0604 0.136685C59.2212 0.180136 58.3797 0.149263 57.5463 0.0443303L58.0918 0C57.7675 0.0258594 57.5005 0.0258593 57.2296 0.0258593L57.5386 0.140379C57.2258 0.121908 56.9549 0.118214 56.9588 0.0738838C56.6307 0.147768 57.2105 0.262287 56.5773 0.365725C56.1538 0.306618 55.284 0.428527 55.139 0.277064C56.4743 0.328783 54.9902 0.125603 56.1233 0.0997432C55.8553 0.11883 55.5863 0.11883 55.3183 0.0997432C55.2687 0.0997432 55.3641 0.0701897 55.4518 0.0591071C54.1738 -0.0738844 54.8643 0.22904 53.5443 0.225346C53.7122 0.140379 53.2391 0.0628012 53.0216 0.0812722C53.5558 0.0812722 53.2773 0.221651 52.7889 0.288147C52.332 0.264398 51.8738 0.278032 51.4193 0.328783L51.8847 0.369419C51.4941 0.452451 51.094 0.485962 50.6944 0.469162C50.6449 0.402667 51.2324 0.424832 51.0225 0.395278C50.3664 0.543047 49.5385 0.240122 48.6191 0.339866C48.1956 0.280758 48.5771 0.181016 48.2033 0.140379C47.1769 0.251205 47.0892 0.0221647 46.0095 0.11452C46.3224 0.22904 46.391 0.199486 45.628 0.314006L47.402 0.232734L46.2575 0.398973C46.7916 0.398973 47.402 0.328783 47.7073 0.347254C47.1655 0.439609 47.2189 0.413752 47.4783 0.506108C46.7458 0.336174 46.0248 0.605851 45.1893 0.506108L45.216 0.221651C43.9418 0.0960484 42.9537 0.365725 41.2979 0.295535L41.8282 0.34356C41.6069 0.454386 40.8058 0.343559 40.2717 0.406361C40.3213 0.310312 39.9856 0.277065 39.7567 0.217957C39.7834 0.288147 38.5473 0.217956 38.3947 0.398973L37.6622 0.254899C36.3269 0.20318 36.1362 0.524575 34.8543 0.491327C35.2358 0.38789 34.6559 0.321395 35.5181 0.247511C35.0985 0.247511 34.717 0.22904 34.6979 0.295535C34.4461 0.236428 33.5076 0.421138 33.1147 0.332477C32.8886 0.431429 32.6414 0.47699 32.3937 0.465468C32.3593 0.465468 32.3708 0.439609 32.3937 0.428526C32.2945 0.469162 31.6879 0.49133 32.0732 0.58738C30.7531 0.291843 28.384 0.609543 27.2319 0.354642C26.2972 0.38789 25.1679 0.417444 24.3209 0.424832C24.3744 0.395278 24.3209 0.376807 24.485 0.38789C23.3138 0.299229 23.764 0.65757 22.4325 0.56152C21.7496 0.410058 23.1421 0.480245 22.7148 0.421138C22.5317 0.110824 21.1049 0.461775 20.2084 0.280759H20.4258C19.7315 0.155155 18.7433 0.369419 17.6217 0.369419C17.6217 0.369419 17.6751 0.34356 17.6217 0.321395C16.5299 0.475584 15.4288 0.560729 14.3256 0.576297C14.6613 0.454388 14.8139 0.513493 14.6117 0.38789C14.1272 0.38789 14.7529 0.58738 13.7876 0.620627C13.4747 0.554132 12.7766 0.495022 12.685 0.362031H13.593C13.139 0.17732 12.4256 0.369419 11.9487 0.321395L12.0098 0.247511C10.6173 0.27337 10.5982 0.45808 9.09894 0.446997L9.25535 0.50241C8.43513 0.68712 8.56866 0.398975 7.75216 0.535661L7.50037 0.347254C6.95864 0.391584 5.59287 0.528272 4.63912 0.565215C5.18848 0.424835 6.32153 0.354643 7.02349 0.269676C6.32226 0.251205 5.62057 0.287003 4.92525 0.376807C5.15723 0.340921 5.39249 0.328519 5.6272 0.339866C4.78 0.506281 3.91627 0.580607 3.05209 0.56152C3.09787 0.443306 2.82319 0.391584 2.39582 0.369419L1.63282 0.347254L0.431094 0.328783C0.431094 0.698204 0.412019 1.06763 0.385314 1.41119C0.376322 1.5981 0.337718 1.78245 0.270865 1.95793C0.41965 3.67213 0.20601 5.36038 0.232715 7.35525C0.545545 6.64596 0.232714 7.93894 0.564618 7.81703C0.591596 8.0429 0.591596 8.27098 0.564618 8.49677V8.40071V8.50054L0.381499 9.91173C0.286125 10.2442 0.309015 9.46843 0.23653 9.51276C0.19838 10.5287 0.0839298 9.93759 0 10.6136C0.11445 10.4769 0.164044 10.9831 0.122079 11.5483L0.270865 10.7134C0.44254 12.1541 -7.30901e-07 11.962 0.167859 13.3954L0.0686696 12.9299C0.0991895 13.2993 0.0991893 13.9791 0.122079 14.6552C0.122079 14.995 0.152599 15.3312 0.183119 15.6305L0.240345 16.288C0.256877 16.4535 0.284944 16.6176 0.324275 16.7794C0.313284 16.854 0.298024 16.928 0.278495 17.001C0.35098 17.0269 0.370053 17.0527 0.198379 17.0749C0.183119 17.0032 0.175398 16.9302 0.175489 16.8569V17.097H1.48785L2.33859 17.0749L3.86468 17.0047C4.75384 16.946 5.64601 16.946 6.53517 17.0047L6.38639 17.0749C6.73809 16.9998 7.09889 16.9724 7.4584 16.9936C7.43551 17.0232 7.31343 17.0638 7.48129 17.0675C7.95744 17.0006 8.43886 16.9759 8.91964 16.9936L8.51143 17.0749C10.4189 17.1672 11.4108 16.8791 12.9979 16.8311C12.9979 17.0416 14.482 17.1118 15.2221 17.1451L15.1954 17.1746C17.3966 17.2005 18.9341 17.001 20.9714 16.916C22.238 17.1451 25.2557 17.0121 27.2891 17.1414C26.9801 17.1044 27.3387 16.9788 27.7011 16.9567C28.178 17.001 29.0211 16.8089 28.9448 17.0047H28.7731C29.1317 17.1931 30.1122 17.1451 30.8791 17.1488L31.005 16.8976C33.0079 17.267 36.2506 16.7609 37.3456 17.0934C37.8301 17.0306 38.4291 17.0306 38.9059 16.9678L38.8792 17.1044C40.2183 17.1377 40.8859 17.1562 42.5417 17.1229L42.206 17.219C43.1407 17.219 43.3848 16.8274 44.247 16.82L44.5064 17.0232C46.1354 17.0232 47.7836 17.1968 49.3935 17.0232C49.3668 17.0527 49.321 17.1118 49.054 17.1192C49.817 17.1192 52.0183 17.2559 51.7245 16.9788C51.7245 17.1599 53.4032 16.9788 54.2844 16.916L54.1471 17.049C54.7326 16.8785 55.3401 16.7889 55.9516 16.783C56.1958 16.783 56.1652 16.8902 55.841 16.8569C56.6612 16.9271 56.4781 16.7313 57.47 16.8015L57.0885 16.8865C57.5068 16.921 57.928 16.8758 58.3283 16.7535C58.8587 16.7018 59.9269 16.7867 60.049 16.9086C60.3899 16.7808 60.7575 16.734 61.121 16.772C61.1897 16.8163 61.0066 16.8458 60.915 16.8606C62.3227 16.953 63.0094 16.7055 63.9674 16.8348C63.9865 16.8791 64.051 16.9013 64.1309 16.916C63.1048 16.916 62.2617 16.916 62.1968 16.916C62.1968 17.0379 63.0934 17.0601 62.38 17.2264C63.3196 17.0665 64.2717 16.9874 65.2264 16.9899C65.2673 16.9997 65.3072 17.0146 65.3445 17.0343H65.2527C65.4389 17.0452 65.6251 17.039 65.8095 17.0158C66.092 17.0342 66.2673 17.0527 66.538 17.0527C66.6416 17.1562 67.5762 17.1081 68.0259 17.1118C67.9877 16.9788 68.579 16.9973 68.0259 16.8865C68.0985 16.8865 67.9423 16.8865 67.6444 16.9086C67.5762 16.9086 67.4963 16.9086 67.4536 16.9086H67.4845H66.3627C66.7642 16.8169 67.1793 16.7993 67.5871 16.8569C67.8206 16.772 68.0722 16.6833 68.2166 16.639C68.8352 16.8274 70.0215 16.9271 70.1895 17.0453C71.5666 16.9714 73.4323 16.9973 74.2979 16.7424C74.5041 16.7168 74.7121 16.7556 74.8938 16.8532C74.6867 16.8625 74.4805 16.8823 74.2752 16.9123C75.0573 16.8458 76.5951 16.8865 76.7822 16.7092C77.7659 16.7904 76.229 16.8717 77.5833 16.8422L77.3998 16.8976C80.0703 17.1783 81.7335 16.4469 84.6865 16.8089C84.5684 16.8077 84.4503 16.7865 84.3395 16.7461C87.7085 16.905 91.2828 16.5946 94.6055 16.8495C95.1523 16.8875 95.7009 16.8376 96.2314 16.7018L96.4367 16.8458L97.4213 16.6796C98.8174 16.5577 99.8438 17.049 101.618 16.8052L101.389 16.7092C102.026 16.7276 103.404 16.6501 103.296 16.7646C103.439 16.7001 103.6 16.682 103.754 16.7129L103.773 16.7867L105.334 16.6574C106.543 16.7129 105.143 16.9567 106.91 16.9714C107.566 16.9419 108.779 16.7498 108.535 16.7018C108.29 16.6537 107.855 16.6537 107.836 16.5799L108.436 16.5392L108.462 16.4986H108.554V16.3582C108.573 16.3344 108.583 16.3052 108.583 16.2751C108.583 16.245 108.573 16.2158 108.554 16.192V10.0447L108.596 10.1112L108.554 9.91912V9.09901C108.584 9.12487 108.611 9.18767 108.626 9.35021C108.733 8.74436 108.55 8.81455 108.668 8.29358C108.668 8.23448 108.698 8.26403 108.706 8.31575L108.641 7.72468C108.687 7.8392 108.798 7.62493 108.764 7.99066C108.889 6.93042 108.599 6.28024 108.764 5.87757V5.96623C108.706 4.85797 108.646 5.33083 108.538 5.17567V4.48485L108.87 3.98983ZM14.1806 11.4929C13.3234 12.2465 12.1573 12.6233 10.6822 12.6233H7.47366V4.5809H10.7203C12.1954 4.5809 13.3552 4.95032 14.1997 5.68916C14.6185 6.05155 14.9496 6.49908 15.1692 6.99982C15.3889 7.50047 15.4916 8.04194 15.4701 8.58551C15.4864 9.13173 15.3795 9.67486 15.1568 10.177C14.9341 10.6792 14.6009 11.1282 14.1806 11.4929ZM26.8656 8.60398C26.8733 9.1575 26.7612 9.70644 26.5365 10.2154C26.3117 10.7245 25.9794 11.1823 25.5609 11.5593C25.1314 11.9614 24.6233 12.2763 24.0664 12.4856C23.5096 12.695 22.9152 12.7945 22.3181 12.7784C21.4621 12.7937 20.6188 12.576 19.8841 12.1504L18.976 13.0186L17.7018 11.8032L18.564 10.9794C18.0535 10.2871 17.7861 9.45444 17.801 8.60398C17.7934 8.05038 17.9055 7.50144 18.1302 6.99243C18.3549 6.48342 18.6873 6.0256 19.1058 5.64853C19.5353 5.24648 20.0433 4.93159 20.6002 4.72225C21.157 4.51291 21.7515 4.41335 22.3486 4.42944C23.2015 4.41554 24.0416 4.63166 24.7749 5.05376L25.7021 4.16715L26.9801 5.38994L26.095 6.22113C26.6089 6.91353 26.8792 7.74763 26.8656 8.60029V8.60398ZM35.728 12.2982C35.0524 12.6367 34.2982 12.8008 33.5381 12.7747C32.9682 12.7872 32.4014 12.6884 31.8718 12.484C31.3422 12.2795 30.8605 11.9739 30.4555 11.5852C30.0437 11.1978 29.7193 10.7318 29.5033 10.2168C29.2872 9.7016 29.1841 9.14862 29.2004 8.5929C29.188 8.03842 29.2944 7.48754 29.5131 6.97501C29.7318 6.46249 30.0579 5.99948 30.4708 5.61528C30.8895 5.22229 31.3857 4.91496 31.9298 4.71187C32.4738 4.50878 33.0546 4.41396 33.6373 4.43314C34.3263 4.40912 35.0106 4.55188 35.6281 4.84865C36.2456 5.14541 36.777 5.5867 37.1739 6.13247L35.48 7.3885C35.2676 7.10466 34.9898 6.87272 34.6686 6.71114C34.3474 6.54956 33.9917 6.46275 33.6297 6.45756C33.3568 6.45087 33.0859 6.50313 32.8364 6.61043C32.5869 6.71783 32.3653 6.87756 32.1876 7.07819C31.8063 7.50047 31.6046 8.04704 31.623 8.60768C31.6036 9.16955 31.8054 9.71752 32.1876 10.1408C32.3647 10.3365 32.5838 10.4925 32.8296 10.5978C33.0754 10.7031 33.3419 10.7552 33.6106 10.7503C33.9758 10.7606 34.3369 10.675 34.6559 10.5028C34.9818 10.3049 35.2707 10.0551 35.5105 9.76396L37.2655 10.9609C36.8579 11.5111 36.3337 11.9709 35.728 12.3093V12.2982ZM45.4831 12.6159L43.3658 9.62728L42.5112 10.5361V12.6159H40.1801V4.5809H42.5112V7.84289L45.3991 4.5809H48.1651L44.9795 8.03868L48.2757 12.6233L45.4831 12.6159ZM57.5272 12.6159H51.1217V4.5809H53.4528V10.669H57.531L57.5272 12.6159ZM67.2293 17.0084H67.2629C67.2302 17.0393 67.1893 17.062 67.1448 17.0749C66.8432 17.0934 66.7633 17.0749 66.7024 17.0416L67.2293 17.0084ZM66.9958 12.6159L66.3818 11.1862H63.1391L62.5364 12.6233H60.0833L63.6659 4.5218H65.9131L69.4946 12.6233L66.9958 12.6159ZM80.3492 12.6159H78.3036L74.7103 8.20122V12.6233H72.4022V4.5809H74.5768L78.0411 8.83302V4.5809H80.3492V12.6159ZM90.558 11.4855C89.7005 12.2391 88.5305 12.6159 87.0481 12.6159H83.8508V4.5809H87.0981C88.5732 4.5809 89.7323 4.95032 90.577 5.68916C90.9958 6.05155 91.3273 6.49908 91.5462 6.99982C91.766 7.50047 91.8687 8.04194 91.8478 8.58551C91.865 9.13085 91.7606 9.67355 91.5398 10.1756C91.3191 10.6777 90.9876 11.1272 90.5698 11.4929L90.558 11.4855ZM100.6 12.0544C99.8792 12.5526 99.0063 12.8 98.1234 12.7563C96.6819 12.8065 95.274 12.3306 94.1786 11.4227L95.4756 9.94498C96.2423 10.5617 97.206 10.9023 98.2034 10.9092C98.8619 10.9116 99.1916 10.7232 99.1916 10.344C99.188 10.2547 99.1589 10.168 99.1081 10.0937C99.0563 10.0194 98.9854 9.9602 98.9019 9.92282C98.5385 9.75614 98.1534 9.6381 97.7574 9.57187C97.3277 9.47925 96.9035 9.36587 96.4866 9.232C96.1469 9.11757 95.8199 8.96769 95.5138 8.785C95.2141 8.61507 94.9715 8.36658 94.8117 8.06823C94.6518 7.74218 94.5728 7.38393 94.5828 7.02277C94.5746 6.66989 94.65 6.31982 94.8035 5.99965C94.957 5.6794 95.1841 5.39759 95.4684 5.17567C96.1424 4.65945 96.9862 4.39584 97.8446 4.43314C99.0917 4.39144 100.316 4.7686 101.309 5.50076L100.142 7.07449C99.4596 6.57938 98.6357 6.30179 97.7837 6.28024C97.5648 6.26599 97.3459 6.31762 97.1579 6.42801C97.0907 6.47031 97.0353 6.52837 96.9971 6.5968C96.959 6.66523 96.9399 6.74192 96.9408 6.81959C96.9417 6.91168 96.9708 7.00157 97.0225 7.07871C97.0743 7.15585 97.1479 7.21716 97.2342 7.25551C97.5993 7.41551 97.9845 7.5309 98.3787 7.59907C99.228 7.73663 100.038 8.0422 100.759 8.49677C101.016 8.68816 101.219 8.93743 101.352 9.22285C101.485 9.50827 101.543 9.82087 101.522 10.1334C101.541 10.502 101.468 10.8696 101.309 11.2051C101.151 11.5407 100.911 11.8345 100.61 12.0618L100.6 12.0544ZM108.611 8.05346C108.606 8.07879 108.598 8.10359 108.588 8.12734V7.79856C108.603 7.88353 108.615 7.9648 108.618 8.05715L108.611 8.05346ZM80.143 0.402667L80.2075 0.280759C79.7343 0.29923 80.2002 0.328783 80.143 0.402667ZM31.5811 17.1377L32.3021 17.097H31.9664L31.5811 17.1377ZM22.3219 6.42431C22.0355 6.4164 21.7507 6.46882 21.4872 6.57789C21.2237 6.68695 20.9879 6.85012 20.7959 7.05603C20.4008 7.47664 20.1878 8.02812 20.2008 8.59659C20.202 8.83751 20.2419 9.07676 20.319 9.30588L23.1688 6.57947C22.8995 6.47612 22.6116 6.42581 22.3219 6.4317V6.42431ZM21.4979 10.6173C21.7663 10.7248 22.0543 10.7788 22.3448 10.7762C22.6343 10.7858 22.9224 10.7342 23.1892 10.6252C23.456 10.5161 23.6951 10.352 23.8899 10.1445C24.285 9.72386 24.498 9.17236 24.485 8.60398C24.4863 8.35286 24.445 8.10324 24.3629 7.86506L21.4979 10.6173ZM9.2668 0.369419C8.919 0.275833 8.55385 0.259385 8.19851 0.321395C8.62588 0.321395 9.04935 0.369419 9.2668 0.369419ZM72.394 0.147768L71.5893 0.192098L72.1842 0.166239L72.394 0.147768ZM28.2314 0.206875L28.384 0.369419C28.7121 0.332477 28.7808 0.162544 28.2314 0.206875ZM63.8185 9.44257H65.7069L64.7686 7.15576L63.8185 9.44257Z" fill="#CDCDCD"/>
</svg>
