<svg width="129" height="13" viewBox="0 0 129 13" fill="none" xmlns="http://www.w3.org/2000/svg">
<path fill-rule="evenodd" clip-rule="evenodd" d="M13.4801 0H14.0631C14.2942 0.0197358 14.5216 0.0592038 14.7509 0.0986753C14.1588 1.01861 13.5685 1.93854 12.9709 2.85492C13.3519 2.15729 13.7562 1.47408 14.1426 0.780114C13.2869 0.699397 12.3932 0.884112 11.682 1.37728C11.2993 1.63906 11.0411 2.03356 10.7848 2.4102C10.0699 3.50409 9.44344 4.65187 8.74662 5.75651C8.24836 6.54916 7.73215 7.33637 7.09661 8.02857C6.78067 8.35676 6.43591 8.6886 5.9972 8.84272C5.61268 8.95393 5.2102 8.95215 4.81481 8.99695C5.19751 8.92521 5.60913 8.94317 5.96119 8.75668C6.5045 8.45 6.8944 7.9443 7.26269 7.45468C8.57516 5.61836 9.45978 3.5256 10.6331 1.60502C9.24671 0.654599 7.46307 0.301246 5.82026 0.679663C4.45737 0.98091 3.22617 1.77898 2.35779 2.86035C1.91736 2.80646 1.46963 2.86567 1.05984 3.02888C1.61765 2.20397 2.35242 1.49559 3.21897 0.993436C4.39599 0.301243 5.79865 -6.33606e-06 7.16164 0.136259C8.43616 0.254674 9.66554 0.769356 10.6566 1.57276C11.2271 0.586413 12.3788 0.0932459 13.4801 0Z" fill="#CDCDCD"/>
<path fill-rule="evenodd" clip-rule="evenodd" d="M0.488903 4.05414C0.0050453 5.21622 -0.128469 6.52177 0.127811 7.75559C0.373341 9.01624 1.01963 10.1909 1.92951 11.1C3.62285 12.8718 6.40839 13.469 8.70105 12.6171C9.81303 12.2011 10.8475 11.5287 11.5803 10.5908C10.4503 11.0982 9.17222 11.2435 7.94822 11.0552C5.73673 10.7163 3.62823 9.40897 2.54506 7.43639C2.09915 6.60072 1.74719 5.60717 2.05228 4.66573C2.21836 4.21203 2.44218 3.68294 2.94947 3.52161C2.50539 3.35663 2.02701 3.23998 1.55036 3.31349C1.1081 3.37636 0.68208 3.64534 0.488903 4.05414Z" fill="#CDCDCD"/>
<path fill-rule="evenodd" clip-rule="evenodd" d="M12.8668 4.35949C12.502 4.40251 12.1248 4.49043 11.8305 4.71817C11.325 5.09481 10.9134 5.57535 10.5126 6.05599C9.85194 6.87735 9.15513 7.66812 8.46197 8.46253C8.13151 8.8302 7.76149 9.19608 7.27946 9.35741C6.65306 9.56374 5.97603 9.55299 5.33339 9.42737C5.75038 9.69458 6.16738 9.96722 6.6206 10.1733C7.43287 10.2757 8.25245 10.0245 8.93131 9.5888C9.9747 8.94684 10.7384 7.94973 11.7998 7.33282C12.1464 7.10863 12.5256 6.92037 12.9407 6.8666C13.5726 6.07928 14.1719 5.26877 14.7677 4.45639C14.1413 4.35417 13.5004 4.29142 12.8668 4.35949Z" fill="#CDCDCD"/>
<path fill-rule="evenodd" clip-rule="evenodd" d="M12.9504 6.86859C13.5661 6.77535 14.1978 6.90618 14.761 7.15731C14.0588 8.08622 13.3512 9.0169 12.537 9.85445C11.8618 10.5627 10.8455 10.8139 9.89408 10.8497C8.7749 10.8766 7.6411 10.6542 6.62834 10.1754C7.44072 10.2777 8.26029 10.0265 8.93915 9.5908C9.98255 8.94883 10.7461 7.95173 11.8077 7.33482C12.1561 7.11063 12.5351 6.92059 12.9504 6.86859Z" fill="#CDCDCD"/>
<path fill-rule="evenodd" clip-rule="evenodd" d="M20.0612 1.35201C22.968 1.34824 25.8769 1.35012 28.7837 1.35012C28.6659 2.25531 28.5481 3.16226 28.4303 4.06933C27.4461 4.06933 26.4598 4.06933 25.4756 4.06933C25.1302 6.58298 24.7848 9.09663 24.4394 11.6103C23.2435 11.6103 22.0457 11.6103 20.8478 11.6103C21.1932 9.09663 21.5386 6.58298 21.884 4.06933C20.6701 4.06745 19.4563 4.07121 18.2424 4.06744C18.8413 3.16038 19.4582 2.26096 20.0612 1.35201ZM29.8718 1.35955C29.5643 4.02221 29.2589 6.68665 28.9534 9.34931C28.8735 10.1055 28.7418 10.8579 28.6361 11.6103C29.8478 11.6103 31.0577 11.6103 32.2696 11.6103C32.3614 10.9672 32.4492 10.3223 32.541 9.67927C33.7071 9.6775 34.873 9.68305 36.0388 9.67562C37.095 9.66043 38.1491 8.90991 38.2848 7.89164C38.4946 6.28695 38.7061 4.68214 38.9118 3.07556C39.0056 2.45133 38.6183 1.80837 38.0094 1.5538C37.6739 1.39536 37.2926 1.35766 36.9193 1.3652C34.5715 1.36332 32.2216 1.36143 29.8718 1.35955ZM33.3077 4.07122C33.9386 4.07122 34.5695 4.07122 35.2003 4.07122C35.0726 4.92728 34.9488 5.78346 34.821 6.63764C34.813 6.8055 34.6713 6.96383 34.4856 6.9564C33.9545 6.96771 33.4255 6.9564 32.8945 6.95829C33.0342 5.99656 33.164 5.03295 33.3077 4.07122ZM41.613 1.91015C41.7348 1.54814 42.1381 1.33693 42.5294 1.35012C44.2543 1.35201 45.9813 1.34824 47.7061 1.35201C48.0376 1.33316 48.3948 1.54249 48.4011 1.88188C48.7842 5.1253 49.1635 8.36873 49.5447 11.6103C48.317 11.6103 47.0893 11.6103 45.8614 11.6103C45.7955 11.0163 45.7317 10.4222 45.6658 9.8264C44.4998 9.83583 43.332 9.8528 42.164 9.86411C41.9524 10.4393 41.7607 11.0239 41.5391 11.5971C41.1338 11.5575 40.7245 11.5895 40.3193 11.5801C39.5047 11.5877 38.6921 11.565 37.8797 11.5914C39.1095 8.35931 40.3712 5.13661 41.613 1.91015ZM44.3162 4.437C43.9429 5.37799 43.5695 6.32087 43.1982 7.26187C43.9208 7.26187 44.6436 7.26187 45.3663 7.26187C45.2585 6.32087 45.1447 5.37988 45.0349 4.437C44.7953 4.437 44.5557 4.437 44.3162 4.437ZM51.8749 1.35012C53.0847 1.35012 54.2925 1.35012 55.5023 1.35012C55.3226 2.63616 55.1467 3.92408 54.9695 5.21012C55.6521 5.21201 56.3348 5.21013 57.0175 5.21201C57.1991 3.92409 57.3731 2.63616 57.5528 1.34824C58.8283 1.35012 60.1063 1.34635 61.3817 1.35012C60.9165 4.76895 60.4575 8.18956 59.9922 11.6084C58.7167 11.6084 57.4427 11.6084 56.1671 11.6084C56.3329 10.3922 56.5024 9.1759 56.6682 7.9596C55.9855 7.9596 55.3009 7.9596 54.6177 7.9596C54.45 9.1759 54.2824 10.3922 54.1167 11.6084C52.9088 11.6084 51.699 11.6084 50.4892 11.6084C50.9507 8.19144 51.4135 4.77084 51.8749 1.35012ZM72.8836 1.35012C74.0914 1.35201 75.2994 1.35012 76.5067 1.35012C76.3314 2.63805 76.1519 3.92409 75.9767 5.21201C76.6593 5.21201 77.343 5.21201 78.0256 5.21201C78.2062 3.92409 78.3793 2.63616 78.561 1.34824C79.837 1.35012 81.113 1.34824 82.388 1.35012C81.9257 4.77084 81.4646 8.18956 81.0012 11.6103C79.7252 11.6103 78.4503 11.6103 77.1742 11.6103C77.343 10.394 77.5097 9.17768 77.6773 7.96326C76.9926 7.96326 76.3099 7.96326 75.6241 7.96326C75.4564 9.17956 75.2887 10.3959 75.1214 11.6122C73.9137 11.6122 72.7039 11.6122 71.4941 11.6122C71.9593 8.19144 72.4202 4.76895 72.8836 1.35012ZM109.063 1.35012C112.649 1.35012 116.233 1.34824 119.818 1.35012C119.235 2.25719 118.652 3.16415 118.072 4.06933C117.207 4.06933 116.343 4.06933 115.48 4.06933C115.13 6.58298 114.787 9.09663 114.442 11.6103C113.244 11.6122 112.046 11.6103 110.85 11.6103C111.194 9.09663 111.541 6.58298 111.885 4.06933C110.824 4.06933 109.768 4.06933 108.708 4.06933C108.825 3.16415 108.944 2.25719 109.063 1.35012ZM120.394 1.35012C119.928 4.7633 119.46 8.17459 119.014 11.5895C119.559 11.565 120.105 11.5877 120.653 11.5801C122.521 11.5914 124.393 11.5594 126.263 11.5971C127.025 11.5405 127.768 11.1332 128.141 10.494C128.378 10.1092 128.385 9.653 128.451 9.22302C128.637 7.89164 128.802 6.55659 129 5.2272V4.91032C128.946 4.37856 128.581 3.89581 128.069 3.6714C127.581 3.43379 127.016 3.48102 126.487 3.47914C125.564 3.47914 124.644 3.47914 123.721 3.47914C123.823 2.77009 123.927 2.06105 124.029 1.35201C122.818 1.35012 121.605 1.35012 120.394 1.35012ZM122.984 8.90049C123.112 8.00107 123.24 7.10154 123.368 6.20201C123.995 6.20201 124.622 6.20201 125.249 6.20201C125.125 6.9941 125.038 7.79174 124.875 8.57618C124.838 8.69693 124.814 8.9118 124.633 8.89484C124.084 8.90803 123.536 8.89672 122.984 8.90049ZM62.2084 3.62428C61.9471 5.46481 61.7054 7.30711 61.448 9.1494C61.3658 9.61896 61.4021 10.1187 61.6533 10.5392C62.0306 11.2106 62.8216 11.599 63.6081 11.6517H68.0101C69.2199 11.5123 70.3819 10.7033 70.6654 9.5511C70.7852 8.94195 70.8272 8.3235 70.9171 7.71069C69.7112 7.71069 68.5072 7.71069 67.3032 7.71069C67.2496 8.04442 67.1954 8.37816 67.1457 8.712C66.4586 8.71577 65.7741 8.71011 65.0894 8.71566C65.303 7.17327 65.5484 5.63444 65.76 4.09195C66.4567 4.09949 67.1534 4.10138 67.8506 4.10703C67.7984 4.44077 67.7486 4.77649 67.6965 5.11211C68.8986 5.11211 70.0987 5.11211 71.3022 5.11211C71.3761 4.48045 71.4761 3.84869 71.5419 3.21515C71.5878 2.75502 71.4143 2.2685 71.0389 1.96492C70.4939 1.51987 69.7431 1.39159 69.0425 1.39347C67.7149 1.39913 66.3852 1.38593 65.0576 1.39913C63.7337 1.43871 62.4201 2.35521 62.2084 3.62428ZM83.6027 1.39347C83.1416 4.81231 82.6782 8.23113 82.2171 11.6499H91.0847C91.203 10.7542 91.3213 9.85657 91.4374 8.96092C89.6883 8.95903 87.9393 8.96092 86.1903 8.96092C86.2515 8.53472 86.315 8.11039 86.3795 7.6843C88.1242 7.68042 89.8679 7.66723 91.6104 7.66723C91.7158 6.89221 91.8222 6.11908 91.9275 5.34407C90.1828 5.34595 88.4359 5.36103 86.6912 5.36103C86.7525 4.93482 86.817 4.51062 86.8804 4.08441C88.6273 4.08441 90.372 4.08441 92.12 4.08441C92.2371 3.18677 92.3543 2.29112 92.4704 1.39347C89.5163 1.39347 86.559 1.39347 83.6027 1.39347ZM93.5089 2.54191C93.9077 1.82156 94.7709 1.38405 95.6234 1.39913C98.8731 1.40101 102.122 1.39724 105.369 1.40101C105.955 1.40855 106.587 1.34824 107.115 1.64051C107.682 1.91958 108.01 2.5438 107.917 3.13776C107.714 4.72371 107.506 6.30768 107.3 7.89164C107.185 8.91745 106.135 9.68881 105.075 9.71143C103.899 9.71897 102.723 9.71143 101.549 9.71331C101.458 10.3582 101.365 11.0031 101.277 11.648H97.6379C97.7454 11.0031 97.8315 10.3544 97.9293 9.70766C96.8167 9.70766 95.7051 9.70766 94.5936 9.70766C94.2496 9.70766 93.9002 9.66619 93.5906 9.51906C93.0896 9.29653 92.708 8.82697 92.6607 8.30087C92.6306 7.93876 92.7177 7.58052 92.7607 7.2204C92.9219 6.01164 93.0853 4.80288 93.2476 3.59412C93.2906 3.23966 93.3208 2.86434 93.5089 2.54191ZM96.3996 6.99033C97.0252 6.99033 97.6498 6.99033 98.2744 6.99033C98.4367 6.03049 98.5721 5.06687 98.6775 4.10137C98.0465 4.10137 97.4154 4.10137 96.7876 4.10137C96.6576 5.06499 96.5275 6.02672 96.3996 6.99033ZM101.902 6.99588C102.445 6.99222 102.988 7.00353 103.531 6.99222C103.705 7.00353 103.822 6.85075 103.825 6.69796C103.952 5.83435 104.078 4.97263 104.206 4.1108C103.573 4.1108 102.942 4.1108 102.311 4.1108C102.173 5.07064 102.038 6.03426 101.902 6.99588Z" fill="#CDCDCD"/>
</svg>
