<svg width="128" height="23" viewBox="0 0 128 23" fill="none" xmlns="http://www.w3.org/2000/svg">
<path fill-rule="evenodd" clip-rule="evenodd" d="M19.1504 9.4073V8.85894H18.3912V7.53115H18.1465V3.32617H17.8975V7.53115H17.6535V8.85894H16.7821V9.4073H16.6682V22.445H19.3774V9.4073H19.1504ZM18.0461 16.114H17.8451V7.87035H18.0461V16.114Z" fill="#F3F3F3"/>
<path d="M4.62542 12.2788V10.4018H4.30841V6.19727H4.03182V10.4018H3.71534V12.2788H3.07642V22.4449H5.26413V12.2788H4.62542Z" fill="#F3F3F3"/>
<path fill-rule="evenodd" clip-rule="evenodd" d="M2.37353 9.82781L1.32298 7.79785L0.272425 9.82781H0V22.4447H2.6786V9.82781H2.37353ZM0.505276 14.71H0.223786V14.0467H0.505276V14.71ZM0.505276 13.6537H0.223786V12.9901H0.505276V13.6537ZM0.505276 12.597H0.223786V11.9331H0.505276V12.597ZM1.06975 13.6537H0.787729V12.9901H1.06975V13.6537ZM1.06975 12.597H0.787729V11.9331H1.06975V12.597ZM1.63444 12.597H1.3521V11.9331H1.63444V12.597Z" fill="#F3F3F3"/>
<path fill-rule="evenodd" clip-rule="evenodd" d="M24.4357 13.4867V13.0244H23.2267V13.4867H23.1682V22.4434H26.0791V13.4867H24.4357ZM23.5069 19.145H23.361V18.2216H23.5069V19.145ZM23.5069 17.8952H23.361V16.9708H23.5069V17.8952ZM23.7988 19.145H23.6531V18.2216H23.7988V19.145ZM23.7988 17.8952H23.6531V16.9708H23.7988V17.8952ZM24.0909 17.8952H23.9449V16.9708H24.0909V17.8952ZM24.3829 17.8952H24.2366V16.9708H24.3829V17.8952ZM24.3829 16.6453H24.2366V15.7211H24.3829V16.6453ZM24.675 16.6453H24.5288V15.7211H24.675V16.6453ZM24.9669 16.6453H24.8206V15.7211H24.9669V16.6453ZM25.2744 16.6453H25.128V15.7211H25.2744V16.6453Z" fill="#F3F3F3"/>
<path fill-rule="evenodd" clip-rule="evenodd" d="M9.5799 0V22.4435H12.1737V3.05652L9.5799 0ZM9.94437 18.1071H9.78715V4.73586H9.94437V18.1071ZM9.94437 4.40872H9.78715V3.48414H9.94437V4.40872ZM9.94437 3.15838H9.78715V2.23465H9.94437V3.15838ZM9.94437 1.90857H9.78715V0.984739H9.94437V1.90857ZM10.2576 4.40872H10.1009V3.48414H10.2576V4.40872ZM10.2576 3.15838H10.1009V2.23465H10.2576V3.15838ZM10.2576 1.90857H10.1009V0.984739H10.2576V1.90857ZM10.5714 3.15838H10.4145V2.23465H10.5714V3.15838Z" fill="#F3F3F3"/>
<path fill-rule="evenodd" clip-rule="evenodd" d="M8.58037 6.99848V6.14291H7.88885V4.66463L7.42133 3.72949L6.95393 4.66463V6.14291H6.2623V6.99848H5.66284V22.4399H9.17962V6.99848H8.58037ZM7.28011 5.77481V5.11156H7.56235V5.77481H7.28011Z" fill="#F3F3F3"/>
<path fill-rule="evenodd" clip-rule="evenodd" d="M15.7849 1.66016L13.2219 4.22281H12.5758V5.59879H16.005V5.82279H12.5758V22.444H16.2692V1.66016H15.7849Z" fill="#F3F3F3"/>
<path fill-rule="evenodd" clip-rule="evenodd" d="M22.4771 12.3197H20.1129L21.2894 11.8926L22.4771 12.3197Z" fill="#F3F3F3"/>
<path fill-rule="evenodd" clip-rule="evenodd" d="M19.7736 12.3818V22.4431H22.767V12.3818H19.7736ZM20.5268 13.0011H20.2211V12.7524H20.5268V13.0011ZM20.8998 13.0011H20.5941V12.7524H20.8998V13.0011ZM21.2729 13.0011H20.9669V12.7524H21.2729V13.0011Z" fill="#F3F3F3"/>
<path d="M4.66094 19.8984L3.70521 21.4753L3.70777 19.8984H3.32068V22.1398H3.6762L4.64835 20.5514L4.64825 22.1398H5.03534V19.8984H4.66094Z" fill="#CDCDCD"/>
<path d="M11.3586 19.8984L10.403 21.4753L10.4055 19.8984H10.0184V22.1398H10.3739L11.3461 20.5514L11.3459 22.1398H11.733V19.8984H11.3586Z" fill="#CDCDCD"/>
<path d="M6.6109 19.9854V20.3228H7.22935V22.133H7.60897V20.3228H8.2303V19.9854H6.6109Z" fill="#CDCDCD"/>
<path d="M15.3872 19.9854H14.9588L14.5827 21.0071C14.5153 21.1984 14.4613 21.3618 14.4177 21.5075C14.3728 21.3481 14.3215 21.183 14.2622 21.0071L13.9019 19.9854H13.4733L13.3234 22.133H13.6888L13.7464 21.2074C13.7569 21.03 13.7661 20.8446 13.7733 20.6714C13.8125 20.8051 13.8586 20.9509 13.913 21.114L14.258 22.1212H14.5376L14.9105 21.097C14.97 20.9339 15.0226 20.7787 15.0694 20.6347C15.0761 20.8177 15.0864 21.0128 15.0953 21.1825L15.1525 21.1831L15.0955 21.1862L15.1467 22.133H15.5211L15.3872 19.9854Z" fill="#CDCDCD"/>
<path d="M18.0345 19.8936C17.4467 19.8936 17.0362 20.3563 17.0362 21.0186C17.0362 21.6615 17.4356 22.1106 18.0073 22.1106C18.5058 22.1106 19.0088 21.7617 19.0088 20.9823C19.0088 20.3312 18.6173 19.8936 18.0345 19.8936ZM18.6171 20.9945C18.6171 21.3864 18.4332 21.782 18.0224 21.782C17.614 21.782 17.428 21.3831 17.428 21.0125C17.428 20.619 17.6127 20.222 18.0256 20.222C18.4319 20.222 18.6171 20.6224 18.6171 20.9945Z" fill="#CDCDCD"/>
<path d="M20.7594 19.9619V20.876C20.7594 21.0984 20.7594 21.5609 20.5981 21.7164C20.5474 21.7643 20.4841 21.7965 20.4156 21.8092L20.3586 21.8176L20.4087 22.1336H20.4574C20.5802 22.1298 20.6998 22.093 20.8034 22.0272C21.1073 21.82 21.1328 21.3135 21.1328 20.8548V20.2963H21.6884V22.1096H22.0683V19.9619H20.7594Z" fill="#CDCDCD"/>
<path d="M24.1427 19.9189V20.8332C24.1427 21.0555 24.1427 21.5179 23.9813 21.6735C23.9308 21.7213 23.8676 21.7534 23.7991 21.7659L23.7421 21.7743L23.7919 22.0906H23.8408C23.9635 22.087 24.0829 22.0502 24.1865 21.9842C24.4907 21.7771 24.5162 21.2703 24.5162 20.8116V20.2536H25.0717V22.0666H25.4514V19.9189H24.1427Z" fill="#CDCDCD"/>
<path d="M2.00374 21.7177C1.8751 21.7719 1.73665 21.7986 1.59713 21.7963C1.1455 21.7963 0.87596 21.5121 0.87596 21.036C0.87596 20.5465 1.15116 20.2543 1.61228 20.2543C1.74379 20.2508 1.87446 20.2776 1.99403 20.3327L2.05419 20.3629L2.15446 20.039L2.11233 20.017C1.95254 19.9453 1.77825 19.9119 1.60332 19.9196C1.45366 19.9113 1.3039 19.9349 1.16396 19.9885C1.02401 20.0423 0.89708 20.125 0.791374 20.2313C0.685668 20.3376 0.603643 20.4651 0.550736 20.6054C0.49783 20.7455 0.475111 20.8954 0.484284 21.045C0.484284 21.7064 0.899747 22.1338 1.54284 22.1338C1.73579 22.141 1.92801 22.1058 2.10603 22.0308L2.14592 22.0103L2.06731 21.6869L2.00374 21.7177Z" fill="#CDCDCD"/>
<path d="M39.7321 11.1808C39.2111 11.1765 38.6937 11.2696 38.2069 11.4552C37.7552 11.6275 37.3472 11.8979 37.0126 12.2468C36.6636 12.6148 36.3973 13.0531 36.2319 13.5325C36.0344 14.0922 35.9389 14.6827 35.9495 15.276C35.9391 15.8575 36.0255 16.4368 36.2053 16.9899C36.356 17.4509 36.6078 17.8725 36.9421 18.2238C37.268 18.5594 37.6672 18.8151 38.1085 18.9708C38.6107 19.1473 39.1403 19.2334 39.6727 19.225C40.1021 19.2239 40.531 19.1907 40.9556 19.126C41.3695 19.0638 41.7773 18.9666 42.1749 18.8358V20.5773C41.7664 20.6929 41.3505 20.7805 40.93 20.8393C40.4704 20.9031 40.0069 20.9348 39.543 20.9343C38.7024 20.9501 37.8659 20.8141 37.0736 20.5329C36.4039 20.292 35.7958 19.9059 35.2929 19.4025C34.8102 18.9054 34.4436 18.3075 34.2195 17.6519C33.9726 16.9274 33.8513 16.166 33.8608 15.4006C33.8531 14.6027 33.9825 13.8093 34.2435 13.0553C34.4834 12.3624 34.8603 11.7249 35.3518 11.1808C35.8555 10.6379 36.4726 10.2129 37.1593 9.93576C37.9397 9.62099 38.7746 9.46376 39.616 9.47304C40.0614 9.4707 40.5063 9.50249 40.9467 9.56809C41.3309 9.62313 41.7094 9.71294 42.0773 9.83657V11.5531C41.675 11.4238 41.2629 11.3276 40.8449 11.2657C40.4765 11.2101 40.1046 11.1817 39.7321 11.1808ZM51.7813 9.67859H53.9007V20.7273H51.8796V15.6392C51.8796 15.0086 51.9106 13.9854 51.9764 12.5762H51.9439C51.5634 13.2214 50.9032 14.2153 49.9633 15.5578L46.3623 20.7273H44.2424V9.67859H46.2652V14.7658C46.2652 15.575 46.2311 16.5934 46.1628 17.8212H46.1966C46.5506 17.2379 47.2009 16.2635 48.1474 14.8982L51.7813 9.67859ZM61.0604 20.7273H59.0388V11.3728H55.4708V9.67859H64.6189V11.3728H61.0604V20.7273ZM73.7284 9.67859H75.8482V20.7273H73.8248V15.6392C73.8248 15.0086 73.8582 13.9854 73.9261 12.5762H73.8922C73.5108 13.2214 72.8493 14.2153 71.9081 15.5578L68.3105 20.7273H66.1886V9.67859H68.2113V14.7658C68.2113 15.575 68.1779 16.5934 68.111 17.8212H68.1458C68.4975 17.2379 69.1466 16.2635 70.0934 14.8982L73.7284 9.67859ZM87.6518 17.7621C87.8961 16.8938 88.1969 15.9608 88.5542 14.963L90.4614 9.67859H93.2998V20.7273H91.2817V15.13C91.2817 14.31 91.3104 13.3566 91.3808 12.2716H91.303C91.2091 12.5839 91.1014 12.9358 90.9734 13.3287C90.8486 13.7206 90.7153 14.1042 90.5755 14.4843L88.2907 20.7273H86.9851L84.7004 14.4843C84.5628 14.1042 84.4284 13.7206 84.3014 13.3287C84.1756 12.9358 84.0646 12.5839 83.9718 12.2716H83.8961C83.9644 13.2897 83.9974 14.2392 83.9964 15.1205V20.7273H81.974V9.67859H84.7985L86.7025 14.9386C87.0257 15.8143 87.3233 16.7563 87.6049 17.7621H87.6518ZM104.126 15.2031C104.138 14.6066 104.055 14.012 103.88 13.4418C103.739 12.9792 103.507 12.5501 103.194 12.1812C102.911 11.8529 102.556 11.5955 102.155 11.4295C101.305 11.0978 100.361 11.0978 99.5109 11.4295C99.1099 11.5957 98.7547 11.8531 98.472 12.1812C98.1605 12.5506 97.9269 12.9795 97.7861 13.4418C97.6112 14.0121 97.528 14.6067 97.5397 15.2031C97.5291 15.8004 97.6123 16.3957 97.7861 16.967C97.9269 17.4275 98.1605 17.8543 98.472 18.2215C98.7557 18.5482 99.1109 18.8046 99.5109 18.9708C100.36 19.3098 101.306 19.3098 102.155 18.9708C102.555 18.8048 102.91 18.5483 103.194 18.2215C103.507 17.8548 103.739 17.4278 103.88 16.967C104.055 16.3958 104.138 15.8005 104.126 15.2031ZM106.216 15.2031C106.226 15.9897 106.105 16.7725 105.859 17.5197C105.638 18.1896 105.282 18.8068 104.811 19.3329C104.34 19.8457 103.762 20.2487 103.117 20.5134C101.646 21.0746 100.021 21.0746 98.5499 20.5134C97.9056 20.2484 97.3285 19.8455 96.8571 19.3329C96.3856 18.8077 96.0283 18.1902 95.8075 17.5197C95.5622 16.7724 95.4416 15.9897 95.4512 15.2031C95.4416 14.4164 95.5622 13.6335 95.8075 12.886C96.0283 12.2159 96.3856 11.5988 96.8571 11.074C97.3275 10.5608 97.9056 10.1575 98.5499 9.89288C100.021 9.3331 101.646 9.3331 103.117 9.89288C103.762 10.1573 104.34 10.5606 104.811 11.074C105.282 11.5998 105.638 12.2165 105.859 12.886C106.105 13.6333 106.226 14.4164 106.216 15.2031ZM112.434 11.3728C112.251 12.6777 112.064 13.8183 111.872 14.7946C111.712 15.6443 111.509 16.4851 111.261 17.3135C111.088 17.9117 110.859 18.4922 110.578 19.0474C110.374 19.4472 110.109 19.8126 109.792 20.1304C109.535 20.3809 109.226 20.5704 108.886 20.6848C108.535 20.7932 108.17 20.8463 107.803 20.8421C107.519 20.8446 107.236 20.8115 106.959 20.7435V18.9348C107.151 18.9849 107.348 19.0107 107.546 19.0115C107.742 19.0135 107.938 18.9777 108.12 18.9063C108.311 18.821 108.477 18.6893 108.605 18.5231C108.81 18.257 108.979 17.965 109.108 17.6549C109.334 17.13 109.516 16.5871 109.653 16.0319C109.838 15.3407 110.027 14.4785 110.213 13.4439C110.404 12.4103 110.586 11.1551 110.773 9.67859H116.661V20.7273H114.639V11.3728H112.434ZM123.704 11.3728C123.524 12.6777 123.337 13.8183 123.145 14.7946C122.983 15.644 122.778 16.4847 122.531 17.3135C122.359 17.912 122.131 18.4926 121.848 19.0474C121.644 19.4469 121.38 19.8122 121.063 20.1304C120.807 20.3815 120.497 20.571 120.157 20.6848C119.806 20.7933 119.441 20.8463 119.075 20.8421C118.791 20.8448 118.508 20.8116 118.233 20.7435V18.9348C118.424 18.9852 118.62 19.011 118.817 19.0115C119.014 19.0135 119.209 18.9777 119.392 18.9063C119.582 18.8201 119.749 18.6886 119.876 18.5231C120.083 18.2575 120.252 17.9655 120.382 17.6549C120.606 17.1294 120.789 16.5867 120.925 16.0319C121.111 15.3407 121.297 14.4781 121.484 13.4439C121.672 12.4103 121.859 11.1552 122.043 9.67859H127.93V20.7273H125.911V11.3728H123.704Z" fill="#CDCDCD"/>
<path d="M34.4377 3.14464H33.5453V2.51562H36.0872V3.14464H35.1841V5.82408H34.4377V3.14464Z" fill="#CDCDCD"/>
<path d="M39.3487 4.13338C39.3487 5.22265 38.6951 5.87523 37.7249 5.87523C36.7488 5.87523 36.1685 5.13518 36.1685 4.18799C36.1685 3.19696 36.8071 2.45605 37.7773 2.45605C38.7932 2.45605 39.3487 3.21615 39.3487 4.13338ZM36.9596 4.17391C36.9596 4.82521 37.2633 5.28185 37.7633 5.28185C38.2687 5.28185 38.5598 4.80153 38.5598 4.15844C38.5598 3.55994 38.2795 3.04922 37.7633 3.04922C37.2541 3.04922 36.9596 3.53039 36.9596 4.17391Z" fill="#CDCDCD"/>
<path d="M39.8363 2.55923C40.1712 2.50857 40.5097 2.48574 40.8485 2.49096C41.3089 2.49096 41.6374 2.57886 41.8588 2.75603C41.9722 2.84808 42.063 2.96499 42.1241 3.09768C42.1852 3.23038 42.2152 3.37533 42.2115 3.52136C42.2188 3.66632 42.1955 3.81128 42.1431 3.94674C42.0906 4.0821 42.0102 4.20498 41.9071 4.30717C41.6051 4.55314 41.2222 4.67709 40.8334 4.6549C40.7479 4.65661 40.6623 4.64999 40.5779 4.63527V5.82332H39.8363V2.55923ZM40.5779 4.06088C40.6601 4.07688 40.7438 4.08327 40.8273 4.08007C41.2258 4.08007 41.4698 3.87944 41.4698 3.54621C41.4698 3.24189 41.2599 3.05971 40.8823 3.05971C40.7803 3.05662 40.6782 3.06483 40.5779 3.08403V4.06088Z" fill="#CDCDCD"/>
<path d="M44.6883 2.51562V3.12949H43.4366V5.82408H42.691V2.51562H44.6883Z" fill="#CDCDCD"/>
<path d="M47.9503 4.13338C47.9503 5.22265 47.2971 5.87523 46.3254 5.87523C45.3501 5.87523 44.7708 5.13518 44.7708 4.18799C44.7708 3.19696 45.4086 2.45605 46.38 2.45605C47.3952 2.45605 47.9503 3.21615 47.9503 4.13338ZM45.5612 4.17391C45.5612 4.82521 45.8651 5.28185 46.3646 5.28185C46.87 5.28185 47.1602 4.80153 47.1602 4.15844C47.1602 3.55994 46.8811 3.04922 46.3646 3.04922C45.8538 3.04922 45.5612 3.53039 45.5612 4.17391Z" fill="#CDCDCD"/>
<path d="M48.4388 2.55856C48.7589 2.51174 49.0823 2.48891 49.4058 2.49029C49.8596 2.49029 50.1396 2.53478 50.3862 2.67654C50.506 2.73776 50.6063 2.83131 50.6755 2.94672C50.7446 3.06213 50.7799 3.19472 50.7774 3.32922C50.7774 3.61818 50.6061 3.88815 50.2324 4.03066V4.04133C50.4188 4.07909 50.5862 4.18031 50.7063 4.32773C50.8263 4.47524 50.8915 4.65978 50.8907 4.84996C50.8919 4.98639 50.8615 5.12132 50.8019 5.24399C50.7422 5.36676 50.6547 5.47385 50.5465 5.55705C50.3071 5.74809 49.9037 5.8555 49.2461 5.8555C48.9762 5.85859 48.7064 5.84227 48.4388 5.80665V2.55856ZM49.178 3.82543H49.4238C49.8205 3.82543 50.0276 3.66287 50.0276 3.41808C50.0276 3.1673 49.8359 3.03472 49.4962 3.03472C49.3898 3.03227 49.2833 3.03909 49.178 3.05509V3.82543ZM49.178 5.29177C49.2744 5.30084 49.371 5.30414 49.4676 5.30147C49.8056 5.30147 50.1062 5.16932 50.1062 4.82052C50.1062 4.49242 49.8055 4.36026 49.4345 4.36026H49.178V5.29177Z" fill="#CDCDCD"/>
<path d="M54.4097 4.13338C54.4097 5.22265 53.7566 5.87523 52.7849 5.87523C51.8073 5.87523 51.2294 5.13518 51.2294 4.18799C51.2294 3.19696 51.8671 2.45605 52.8393 2.45605C53.8551 2.45605 54.4097 3.21615 54.4097 4.13338ZM52.019 4.17391C52.019 4.82521 52.3229 5.28185 52.825 5.28185C53.3293 5.28185 53.619 4.80153 53.619 4.15844C53.619 3.55994 53.3395 3.04922 52.825 3.04922C52.3131 3.04922 52.019 3.53039 52.019 4.17391Z" fill="#CDCDCD"/>
<path d="M56.0062 4.28711V4.78311H54.7219V4.28711H56.0062Z" fill="#CDCDCD"/>
<path d="M56.4755 2.55923C56.8096 2.50867 57.1474 2.48574 57.4853 2.49096C57.9479 2.49096 58.2767 2.57886 58.4964 2.75603C58.6103 2.84776 58.7015 2.96445 58.7629 3.09725C58.8242 3.22995 58.8541 3.37512 58.8502 3.52136C58.8575 3.66631 58.8342 3.81127 58.7818 3.94674C58.7293 4.0821 58.6489 4.20498 58.5457 4.30717C58.2438 4.55303 57.8607 4.67708 57.472 4.6549C57.3868 4.6566 57.3017 4.64999 57.2178 4.63527V5.82331H56.4755V2.55923ZM57.2178 4.06087C57.2998 4.07687 57.3834 4.08338 57.467 4.08007C57.8643 4.08007 58.1091 3.87943 58.1091 3.54621C58.1091 3.24189 57.8986 3.05971 57.5202 3.05971C57.4188 3.05651 57.3174 3.06472 57.2178 3.08402V4.06087Z" fill="#CDCDCD"/>
<path d="M59.7963 4.97459L59.5602 5.82408H58.7917L59.7963 2.51562H60.7787L61.808 5.82408H60.9965L60.7444 4.97459H59.7963ZM60.6359 4.41545L60.4299 3.71306C60.3716 3.51733 60.3121 3.27189 60.2621 3.07552H60.2534C60.2038 3.27189 60.1543 3.52213 60.1011 3.71306L59.9053 4.41545H60.6359Z" fill="#CDCDCD"/>
<path d="M62.1456 2.7209C62.4596 2.54234 62.8156 2.45104 63.1767 2.45627C63.8983 2.45627 64.3251 2.81914 64.3251 3.3049C64.3251 3.72175 64.0454 3.99204 63.6627 4.08495V4.0954C64.0757 4.15321 64.4315 4.43791 64.4315 4.88004C64.4315 5.62062 63.6906 5.87544 63.0743 5.87544C62.7296 5.88238 62.3887 5.80344 62.082 5.64579L62.2396 5.06617C62.4891 5.1898 62.7622 5.25838 63.0405 5.26734C63.4166 5.26734 63.6491 5.10616 63.6491 4.83107C63.6491 4.46873 63.2655 4.39407 62.951 4.39407H62.6363V3.83919H62.951C63.2901 3.83919 63.544 3.68772 63.544 3.42287C63.544 3.20666 63.3633 3.05925 63.0439 3.05925C62.7907 3.07141 62.5432 3.13861 62.3185 3.25605L62.1456 2.7209Z" fill="#CDCDCD"/>
<path d="M64.9317 2.55855C65.2521 2.51193 65.5754 2.4891 65.8993 2.49028C66.3558 2.49028 66.6359 2.53476 66.8784 2.67652C66.999 2.73711 67.1001 2.83044 67.17 2.94595C67.2399 3.06137 67.2758 3.19428 67.2735 3.32921C67.2735 3.61817 67.0999 3.88814 66.7284 4.03064V4.04131C66.9144 4.07928 67.0817 4.18061 67.2013 4.32813C67.321 4.47554 67.386 4.65997 67.3849 4.84995C67.3863 4.98626 67.3561 5.12108 67.2966 5.24375C67.2372 5.36642 67.15 5.47362 67.0421 5.55703C66.8026 5.74807 66.397 5.85548 65.7408 5.85548C65.4703 5.85847 65.1999 5.84215 64.9317 5.80663V2.55855ZM65.6746 3.82542H65.9184C66.3154 3.82542 66.522 3.66286 66.522 3.41806C66.522 3.16729 66.3312 3.0347 65.9898 3.0347C65.8843 3.03214 65.7788 3.03897 65.6746 3.05508V3.82542ZM65.6746 5.29176C65.7702 5.30082 65.8662 5.30412 65.9622 5.30146C66.3001 5.30146 66.6009 5.1693 66.6009 4.8205C66.6009 4.4924 66.3001 4.36024 65.927 4.36024H65.6746V5.29176Z" fill="#CDCDCD"/>
<path d="M70.4035 2.51562V5.82408H69.6587V3.12949H68.9095V3.91423C68.9095 4.76361 68.8004 5.42142 68.2996 5.71625C68.0978 5.82419 67.8719 5.87934 67.643 5.87667L67.5501 5.27327C67.6926 5.26057 67.826 5.19806 67.9268 5.09662C68.1291 4.89108 68.1764 4.46367 68.1764 3.96405V2.51562H70.4035Z" fill="#CDCDCD"/>
<path d="M73.024 4.42474H71.8078V5.20969H73.1657V5.82408H71.0605V2.51562H73.0971V3.12949H71.8078V3.81642H73.024V4.42474Z" fill="#CDCDCD"/>
<path d="M74.4147 2.51562V3.89535H74.4844L75.3914 2.51562H76.2991L75.1482 3.98837C75.5748 4.09172 75.7636 4.38623 75.9012 4.78303C76.009 5.13705 76.1359 5.48467 76.2831 5.82408H75.4799C75.3775 5.58824 75.2922 5.34505 75.226 5.09662C75.1108 4.7234 74.9604 4.43914 74.5577 4.43914H74.4147V5.82408H73.679V2.51562H74.4147Z" fill="#CDCDCD"/>
<path d="M77.4716 4.97459L77.2337 5.82408H76.4647L77.4716 2.51562H78.4529L79.4812 5.82408H78.6726L78.4177 4.97459H77.4716ZM78.3089 4.41545L78.1041 3.71306C78.0444 3.51733 77.9847 3.27189 77.9377 3.07552H77.926C77.878 3.27189 77.8279 3.52213 77.7745 3.71306L77.5772 4.41545H78.3089Z" fill="#CDCDCD"/>
<path d="M80.2428 3.14464H79.3479V2.51562H81.8898V3.14464H80.9884V5.82408H80.2428V3.14464Z" fill="#CDCDCD"/>
<path d="M84.2526 4.42474H83.0387V5.20969H84.3966V5.82408H82.291V2.51562H84.3305V3.12949H83.0387V3.81642H84.2526V4.42474Z" fill="#CDCDCD"/>
<path d="M87.4814 2.51562V5.82408H86.7379V3.12949H85.9838V3.91423C85.9838 4.76361 85.876 5.42142 85.3768 5.71625C85.1742 5.82366 84.948 5.8788 84.7187 5.87667L84.6216 5.27326C84.7656 5.26068 84.9 5.19817 85.0024 5.09662C85.2051 4.89108 85.252 4.46367 85.252 3.96404V2.51562H87.4814Z" fill="#CDCDCD"/>
<path d="M88.8792 2.51562V3.66932C89.0126 3.65098 89.1459 3.64116 89.2814 3.63999C89.9918 3.63999 90.5955 3.97812 90.5955 4.71433C90.6019 4.84617 90.5816 4.9779 90.5358 5.10185C90.491 5.22569 90.4206 5.33939 90.331 5.43603C90.011 5.75998 89.4584 5.85694 88.9486 5.85694C88.6766 5.86003 88.4056 5.84371 88.1368 5.80808V2.51562H88.8792ZM88.8792 5.27891C88.9699 5.29385 89.0616 5.30057 89.1544 5.29918C89.5171 5.29918 89.8115 5.1218 89.8115 4.74911C89.8115 4.37066 89.5224 4.21449 89.1619 4.21449C89.067 4.21524 88.9731 4.22154 88.8792 4.23337V5.27891Z" fill="#CDCDCD"/>
<path d="M91.8385 2.51562V3.78666H93.0715V2.51562H93.8161V5.82408H93.0715V4.43914H91.8385V5.82408H91.0929V2.51562H91.8385Z" fill="#CDCDCD"/>
<path d="M95.2132 2.51562V3.66932C95.3348 3.6513 95.4575 3.64148 95.5802 3.63999C96.2639 3.63999 96.8921 3.97812 96.8921 4.7234C96.9017 4.98654 96.8068 5.24286 96.6276 5.43603C96.3076 5.75998 95.754 5.85694 95.273 5.85694C95.0052 5.85992 94.7386 5.8436 94.473 5.80808V2.51562H95.2132ZM95.2132 5.27891C95.2954 5.29449 95.3796 5.30121 95.4628 5.29918C95.7924 5.29918 96.106 5.1074 96.106 4.74431C96.106 4.36596 95.7594 4.2145 95.4746 4.2145C95.3871 4.21492 95.2996 4.22122 95.2132 4.23338V5.27891ZM97.9417 2.51562V5.82408H97.1961V2.51562H97.9417Z" fill="#CDCDCD"/>
<path d="M99.3324 2.51387V3.49563C99.3324 4.02533 99.3175 4.55056 99.2929 4.99205H99.3079C99.4839 4.60442 99.7036 4.16826 99.902 3.81467L100.612 2.51387H101.378V5.82233H100.69V4.84527C100.684 4.3801 100.702 3.91504 100.744 3.45179H100.733C100.571 3.85595 100.382 4.24912 100.169 4.62885L99.4956 5.82233H98.6444V2.51387H99.3324ZM99.7889 1.75879C99.7996 1.95036 99.8529 2.05788 100.012 2.05788C100.158 2.05788 100.22 1.95036 100.236 1.75879H100.743C100.713 2.17575 100.432 2.3623 99.9948 2.3623C99.5692 2.3623 99.3239 2.17073 99.2823 1.75879H99.7889Z" fill="#CDCDCD"/>
<path d="M103.762 2.51562V3.89535H103.83L104.738 2.51562H105.646L104.493 3.98837C104.918 4.09172 105.109 4.38623 105.248 4.78303C105.353 5.13812 105.481 5.48585 105.633 5.82408H104.827C104.724 5.58824 104.637 5.34515 104.57 5.09662C104.46 4.7234 104.305 4.43914 103.904 4.43914H103.762V5.82408H103.022V2.51562H103.762Z" fill="#CDCDCD"/>
<path d="M108.929 4.13338C108.929 5.22265 108.278 5.87523 107.306 5.87523C106.33 5.87523 105.751 5.13518 105.751 4.18799C105.751 3.19696 106.389 2.45605 107.359 2.45605C108.375 2.45605 108.929 3.21615 108.929 4.13338ZM106.541 4.17391C106.541 4.82521 106.846 5.28185 107.347 5.28185C107.852 5.28185 108.14 4.80153 108.14 4.15844C108.14 3.55994 107.861 3.04922 107.347 3.04922C106.834 3.04922 106.541 3.53039 106.541 4.17391Z" fill="#CDCDCD"/>
<path d="M112.193 4.55721C112.178 4.15988 112.161 3.67925 112.161 3.1984H112.153C112.046 3.61962 111.907 4.09172 111.783 4.47903L111.379 5.76915H110.794L110.44 4.49386C110.333 4.10143 110.228 3.62997 110.141 3.1984H110.132C110.115 3.64533 110.098 4.15444 110.078 4.56756L110.011 5.82408H109.32L109.53 2.51562H110.529L110.853 3.61962C110.963 4.00298 111.061 4.41545 111.132 4.80297H111.154C111.241 4.42057 111.351 3.98314 111.467 3.61514L111.816 2.51562H112.797L112.973 5.82408H112.246L112.193 4.55721Z" fill="#CDCDCD"/>
<path d="M116.215 2.51562V5.82408H115.471V3.12949H114.294V5.82408H113.549V2.51562H116.215Z" fill="#CDCDCD"/>
<path d="M119.377 2.51562V5.82408H118.632V3.12949H117.881V3.91423C117.881 4.76361 117.775 5.42142 117.272 5.71625C117.07 5.82377 116.844 5.87891 116.615 5.87667L116.519 5.27326C116.663 5.26153 116.798 5.19881 116.899 5.09662C117.103 4.89108 117.151 4.46367 117.151 3.96404V2.51562H119.377Z" fill="#CDCDCD"/>
<path d="M121.996 4.42474H120.777V5.20969H122.136V5.82408H120.031V2.51562H122.07V3.12949H120.777V3.81642H121.996V4.42474Z" fill="#CDCDCD"/>
<path d="M123.386 2.51562V3.89535H123.456L124.364 2.51562H125.271L124.12 3.98837C124.545 4.09172 124.737 4.38623 124.874 4.78303C124.979 5.13758 125.107 5.48521 125.257 5.82408H124.453C124.349 5.58888 124.264 5.34558 124.198 5.09662C124.086 4.7234 123.931 4.43914 123.528 4.43914H123.386V5.82408H122.65V2.51562H123.386Z" fill="#CDCDCD"/>
<path d="M127.954 5.7343C127.684 5.83702 127.397 5.88524 127.109 5.87617C125.968 5.87617 125.379 5.16055 125.379 4.21826C125.379 3.08995 126.184 2.46649 127.186 2.46649C127.465 2.45486 127.743 2.50499 128 2.61337L127.84 3.20259C127.643 3.11907 127.429 3.07715 127.215 3.0796C126.626 3.0796 126.164 3.43832 126.164 4.17485C126.164 4.83639 126.557 5.25356 127.219 5.25356C127.434 5.25537 127.647 5.21869 127.848 5.1453L127.954 5.7343Z" fill="#CDCDCD"/>
</svg>
