<svg width="103" height="50" viewBox="0 0 103 50" fill="none" xmlns="http://www.w3.org/2000/svg">
<path fill-rule="evenodd" clip-rule="evenodd" d="M32.0963 32.6471H38.5156V34.7978H35.4608V50H32.0963V32.6471Z" fill="#CDCDCD"/>
<path fill-rule="evenodd" clip-rule="evenodd" d="M38.5156 50H41.9001L42.2219 45.3864H43.8513L44.174 50H47.5609L45.7569 32.6471H40.3164L38.5156 50ZM42.3473 43.4822L42.9398 34.7937H43.135L43.7285 43.4822H42.3473Z" fill="#CDCDCD"/>
<path fill-rule="evenodd" clip-rule="evenodd" d="M52.4213 43.9257V47.1949C52.4213 47.6385 52.7641 47.7654 52.9545 47.7654C53.2747 47.7654 53.493 47.4917 53.493 47.1949V43.1538C53.493 42.617 53.3928 42.0182 52.1262 42.0182H50.7438V40.1067H52.1767C53.151 40.1067 53.493 39.8845 53.493 38.8159V35.3642C53.493 35.0674 53.2747 34.7937 52.9545 34.7937C52.7641 34.7937 52.4213 34.9219 52.4213 35.3642V38.194H49.0198V35.7448C49.0198 34.5294 49.1662 32.6471 51.5435 32.6471H54.3695C56.754 32.6471 56.8981 34.5294 56.8981 35.7448V38.5191C56.8981 40.4035 55.6111 40.9224 54.5855 40.8774V41.0517C56.875 41.0011 56.8981 42.7836 56.8981 43.4056V46.9003C56.8981 48.1148 56.754 50 54.3695 50H51.5435C49.1662 50 49.0198 48.1148 49.0198 46.9003V43.9257H52.4213Z" fill="#CDCDCD"/>
<path fill-rule="evenodd" clip-rule="evenodd" d="M59.2323 32.6471H67.1105V50H63.7021V34.7978H62.6326V50H59.2323V32.6471Z" fill="#CDCDCD"/>
<path fill-rule="evenodd" clip-rule="evenodd" d="M69.4452 50H72.851V44.0976H74.7943C77.1822 44.0976 77.323 42.2153 77.323 41.0011V35.7448C77.323 34.5294 77.1822 32.6471 74.7943 32.6471H69.4452V50ZM72.851 42.1901V34.7937H73.2905C73.6527 34.7937 73.9222 35.1197 73.9222 35.665V41.3234C73.9222 41.8662 73.6527 42.1901 73.2905 42.1901H72.851Z" fill="#CDCDCD"/>
<path fill-rule="evenodd" clip-rule="evenodd" d="M79.6576 46.9003C79.6576 48.1148 79.801 50 82.1906 50H85.0093C87.3903 50 87.5354 48.1148 87.5354 46.9003V35.7448C87.5354 34.5294 87.3903 32.6471 85.0093 32.6471H82.1906C79.801 32.6471 79.6576 34.5294 79.6576 35.7448V46.9003ZM84.1321 47.1949C84.1321 47.4917 83.9107 47.7654 83.6 47.7654C83.4043 47.7654 83.0635 47.6385 83.0635 47.1949V35.3642C83.0635 34.9219 83.4043 34.7946 83.6 34.7946C83.9107 34.7946 84.1321 35.0683 84.1321 35.3642V47.1949Z" fill="#CDCDCD"/>
<path fill-rule="evenodd" clip-rule="evenodd" d="M98.5255 32.6471H103V50H99.5598V39.1159H99.4388L97.6697 50H94.9136L93.1438 39.1159H93.0176V50H89.5782V32.6471H94.051L96.2913 44.8444L98.5255 32.6471Z" fill="#CDCDCD"/>
<path fill-rule="evenodd" clip-rule="evenodd" d="M27.1138 16.8272C27.0728 18.5909 26.8596 20.4455 26.5874 21.5596C26.6849 19.6442 26.4513 16.9415 26.0078 14.8305C25.5634 12.7247 24.3071 9.19462 23.3006 7.56372C22.3707 9.11978 21.2257 12.1677 20.6299 14.8088C20.0283 17.4599 20.0132 20.656 20.0132 21.6167C19.8528 20.8089 19.4507 17.9232 19.5673 15.0221C19.6611 12.6322 20.2249 10.1714 20.5316 9.04693C21.7136 5.26922 23.0507 2.85394 23.3006 2.46997C23.5496 2.85394 25.2328 5.82303 26.1057 8.9483C26.9761 12.0731 27.1487 15.0615 27.1138 16.8272ZM23.318 30.3215C22.7977 29.3459 21.9866 27.4828 21.9057 24.6116C21.885 21.8293 23.0141 19.4482 23.3416 18.9527C23.63 19.4482 24.5947 21.5157 24.7124 24.3588C24.7892 27.1379 23.8594 29.325 23.318 30.3215ZM27.4201 8.98853C26.3571 4.36769 23.6868 0.610916 23.318 0C22.7379 0.85966 20.6124 4.17527 19.5262 7.85841C18.3475 11.9588 18.1737 15.5989 18.5815 19.1882C18.986 22.769 20.5117 26.446 20.5117 26.446C21.3281 28.3832 22.5454 30.456 23.3416 31.4706C24.4976 29.9758 27.1695 25.5143 28.0006 19.6804C28.4624 16.4473 28.4871 13.6042 27.4201 8.98853Z" fill="#CDCDCD"/>
<path fill-rule="evenodd" clip-rule="evenodd" d="M17.2083 32.796V38.1716C17.2119 38.1676 17.2188 38.1612 17.2276 38.1531C19.1109 36.2621 22.1793 36.2621 24.063 38.1531C25.9524 40.0443 25.9524 43.1025 24.063 44.9947C24.0603 45.0028 24.0478 45.0052 24.0389 45.0145C24.0321 45.0269 24.02 45.0374 24.0124 45.0394C22.1287 46.914 19.6703 47.8491 17.2083 47.8491C14.7318 47.8491 12.2593 46.9096 10.3756 45.021C7.04898 41.6972 6.65612 36.55 9.18932 32.796C9.53154 32.2872 9.92439 31.8046 10.3756 31.3561C12.2593 29.4683 14.7318 28.5247 17.2083 28.5247V15.5883C7.70251 15.5883 0 23.2889 0 32.796C0 42.2985 7.70251 50 17.2083 50C22.1588 50 26.622 47.905 29.762 44.5516V32.796H17.2083Z" fill="#CDCDCD"/>
</svg>
