<svg width="125" height="36" viewBox="0 0 125 36" fill="none" xmlns="http://www.w3.org/2000/svg">
<path fill-rule="evenodd" clip-rule="evenodd" d="M21.1031 31.7965C20.8809 31.5835 20.5216 31.5835 20.3005 31.7965C20.0778 32.0095 20.0778 32.3548 20.3005 32.5679L23.7104 35.8404C23.8214 35.9478 23.9664 36 24.1126 36C24.2575 36 24.4031 35.9478 24.5142 35.8404C24.7364 35.628 24.7364 35.2822 24.5142 35.0703L21.1031 31.7965ZM21.1031 25.2511C20.8809 25.0379 20.5216 25.0379 20.3005 25.2511C20.0778 25.4641 20.0778 25.8093 20.3005 26.0223L30.5324 35.8404C30.6434 35.9478 30.7884 36 30.9346 36C31.0803 36 31.2252 35.9478 31.3358 35.8404C31.5584 35.628 31.5584 35.2822 31.3358 35.0703L21.1031 25.2511ZM20.7016 4.36369C20.8477 4.36369 20.9921 4.31089 21.1031 4.204L24.5142 0.931633C24.7364 0.717842 24.7364 0.37328 24.5142 0.159689C24.2921 -0.0527923 23.9325 -0.0527923 23.7104 0.159689L20.3005 3.43265C20.0778 3.64635 20.0778 3.99111 20.3005 4.204C20.4103 4.31089 20.5566 4.36369 20.7016 4.36369ZM20.7016 10.9091C20.8477 10.9091 20.9921 10.8557 21.1031 10.7495L31.3358 0.931633C31.5584 0.717842 31.5584 0.37328 31.3358 0.159689C31.1142 -0.0527923 30.7539 -0.0527923 30.5324 0.159689L20.3005 9.97879C20.0778 10.1911 20.0778 10.5365 20.3005 10.7495C20.4103 10.8557 20.5566 10.9091 20.7016 10.9091ZM39.2948 15.4324C39.0734 15.2194 38.7123 15.2194 38.4914 15.4324L35.8152 18.0009L38.4914 20.5675C38.6032 20.6743 38.7477 20.7284 38.8926 20.7284C39.0387 20.7284 39.1843 20.6743 39.2948 20.5675C39.5175 20.3545 39.5175 20.0091 39.2948 19.7968L37.4234 18.0009L39.2948 16.2038C39.5175 15.9908 39.5175 15.6456 39.2948 15.4324ZM38.4914 7.79634L27.8567 18.0009L38.4914 28.2042C38.6032 28.3103 38.7477 28.3639 38.8926 28.3639C39.0387 28.3639 39.1843 28.3103 39.2948 28.2042C39.5175 27.9912 39.5175 27.6457 39.2948 27.4334L29.4645 18.0009L39.2948 8.56778C39.5175 8.3553 39.5175 8.00933 39.2948 7.79634C39.0734 7.58335 38.7123 7.58335 38.4914 7.79634ZM38.4914 0.159689L19.8977 18.0009L38.4914 35.8404C38.6032 35.9478 38.7477 36 38.8926 36C39.0387 36 39.1843 35.9478 39.2948 35.8404C39.5175 35.628 39.5175 35.2822 39.2948 35.0703L21.5053 18.0009L39.2948 0.931633C39.5175 0.717842 39.5175 0.37328 39.2948 0.159689C39.0734 -0.0527923 38.7123 -0.0527923 38.4914 0.159689ZM16.4861 0C16.1717 0 15.9182 0.243916 15.9182 0.545561V35.4548C15.9182 35.7573 16.1717 36 16.4861 36C16.8004 36 17.0552 35.7573 17.0552 35.4548V0.545561C17.0552 0.243916 16.8004 0 16.4861 0ZM11.1806 0C10.8656 0 10.6122 0.243916 10.6122 0.545561V35.4548C10.6122 35.7573 10.8656 36 11.1806 36C11.4951 36 11.7498 35.7573 11.7498 35.4548V0.545561C11.7498 0.243916 11.4951 0 11.1806 0ZM5.87448 0C5.56021 0 5.30604 0.243916 5.30604 0.545561V35.4548C5.30604 35.7573 5.56021 36 5.87448 36C6.18906 36 6.44375 35.7573 6.44375 35.4548V0.545561C6.44375 0.243916 6.18906 0 5.87448 0ZM0.568646 0C0.254896 0 0 0.243916 0 0.545561V35.4548C0 35.7573 0.254896 36 0.568646 36C0.882917 36 1.1376 35.7573 1.1376 35.4548V0.545561C1.1376 0.243916 0.882917 0 0.568646 0Z" fill="#CDCDCD"/>
<path d="M51.4077 11.537V1.12235H52.6803V11.537H51.4077ZM54.4911 5.9509L59.7447 11.537H58.1294L52.8272 5.9509L57.6727 1.12235H59.304L54.4911 5.9509ZM75.1615 11.537H73.6771L70.3327 7.16604H68.0323V11.537H66.7599V1.12235H70.5447C71.578 1.12235 72.41 1.40385 73.0406 1.96674C73.6719 2.52943 73.9875 3.25271 73.9875 4.13629C73.9875 4.84114 73.7865 5.44866 73.3833 5.95886C72.9812 6.46916 72.4265 6.8242 71.7194 7.02409L75.1615 11.537ZM68.0323 2.22698V6.06142H70.4958C71.1811 6.06142 71.7141 5.89055 72.0947 5.54861C72.4753 5.20666 72.6655 4.7412 72.6655 4.15211C72.6655 3.5735 72.4727 3.10794 72.0865 2.75571C71.7004 2.40319 71.1702 2.22698 70.4958 2.22698H68.0323ZM89.4042 11.537L88.4906 9.42244H83.2052L82.2917 11.537H80.9531L85.6198 0.948963H86.0927L90.7583 11.537H89.4042ZM88.001 8.31802L85.8479 3.18954L83.6948 8.31802H88.001ZM103.892 1.12235H105.295L100.629 11.7106H100.156L95.4896 1.12235H96.8927L100.401 9.29621L103.892 1.12235ZM114.921 11.537V2.22698H111.135V1.12235H119.995V2.22698H116.194V11.537H114.921Z" fill="#CDCDCD"/>
<path d="M51.4043 23.626H52.6772V27.9189H58.715V23.626H59.9879V34.0428H58.715V29.0239H52.6772V34.0428H51.4043V23.626ZM71.0352 34.2164C70.0128 34.2164 69.0743 33.9796 68.2203 33.5063C67.3664 33.0326 66.6919 32.3831 66.197 31.5571C65.7019 30.7311 65.4546 29.8234 65.4546 28.8343C65.4546 27.8348 65.7019 26.9246 66.197 26.104C66.6919 25.2831 67.3664 24.6362 68.2203 24.1625C69.0743 23.6893 70.0128 23.4524 71.0352 23.4524C72.047 23.4524 72.9823 23.6893 73.8417 24.1625C74.701 24.6362 75.3812 25.2831 75.8823 26.104C76.3823 26.9246 76.6323 27.8348 76.6323 28.8343C76.6323 29.834 76.3823 30.7442 75.8823 31.5648C75.3812 32.3857 74.701 33.0326 73.8417 33.5063C72.9823 33.9796 72.047 34.2164 71.0352 34.2164ZM71.0517 33.0801C71.8459 33.0801 72.5693 32.8934 73.2219 32.5198C73.875 32.1462 74.3854 31.636 74.7562 30.9888C75.126 30.3417 75.3104 29.6182 75.3104 28.8186C75.3104 28.0294 75.126 27.3113 74.7562 26.6643C74.3854 26.0172 73.875 25.5095 73.2219 25.1411C72.5693 24.7729 71.8459 24.5887 71.0517 24.5887C70.2466 24.5887 69.5176 24.7729 68.865 25.1411C68.2123 25.5095 67.701 26.0144 67.3309 26.6563C66.9613 27.2981 66.7764 28.0188 66.7764 28.8186C66.7764 29.6182 66.9613 30.3417 67.3309 30.9888C67.701 31.636 68.2123 32.1462 68.865 32.5198C69.5176 32.8934 70.2466 33.0801 71.0517 33.0801ZM84.4167 24.7308H80.6302V23.626H89.4917V24.7308H85.6896V34.0428H84.4167V24.7308ZM94.4844 23.626H101.387V24.7308H95.7573V27.9189H100.066V29.0239H95.7573V32.938H101.583V34.0428H94.4844V23.626ZM106.92 23.626H108.192V32.938H113.3V34.0428H106.92V23.626ZM121.524 34.2164C120.686 34.2164 119.922 34.0165 119.231 33.6168C118.541 33.2168 117.983 32.6698 117.559 31.9753L118.505 31.2966C119.31 32.4856 120.311 33.0801 121.507 33.0801C122.15 33.0801 122.672 32.9224 123.074 32.6066C123.477 32.2909 123.678 31.8701 123.678 31.3438C123.678 31.0389 123.607 30.7809 123.466 30.5706C123.325 30.3601 123.131 30.1813 122.886 30.0341C122.642 29.8866 122.307 29.7129 121.883 29.5131L120.676 28.9607C119.936 28.6239 119.346 28.2478 118.905 27.8323C118.465 27.4166 118.244 26.8614 118.244 26.167C118.244 25.6305 118.391 25.157 118.684 24.7467C118.978 24.3362 119.373 24.0178 119.868 23.7917C120.362 23.5654 120.904 23.4524 121.492 23.4524C122.209 23.4524 122.865 23.6155 123.458 23.9415C124.051 24.2679 124.521 24.694 124.87 25.2199L123.94 25.8987C123.646 25.4779 123.283 25.1545 122.854 24.9281C122.424 24.7018 121.965 24.5887 121.475 24.5887C120.943 24.5887 120.491 24.7202 120.121 24.9833C119.751 25.2464 119.566 25.6199 119.566 26.104C119.566 26.3987 119.636 26.6484 119.778 26.8537C119.92 27.0587 120.102 27.227 120.325 27.3586C120.548 27.49 120.872 27.6558 121.296 27.856L122.486 28.4083C123.335 28.8081 123.967 29.2238 124.38 29.6552C124.794 30.0865 125 30.6389 125 31.3123C125 31.8805 124.85 32.3857 124.551 32.8276C124.252 33.2695 123.839 33.6114 123.311 33.8534C122.783 34.0954 122.187 34.2164 121.524 34.2164Z" fill="#CDCDCD"/>
</svg>
