<svg width="101" height="50" viewBox="0 0 101 50" fill="none" xmlns="http://www.w3.org/2000/svg">
<path d="M93.3583 34.6788C92.094 34.0151 91.8974 32.1398 91.9255 27.5788L91.9536 20.5889L89.5374 20.5861L90.0993 19.2926H91.9536V15.9827L96.3925 14.3277V19.1825L98.4434 19.1853L97.9096 20.62L96.3925 20.6172V32.7131C96.4768 33.6875 96.8139 34.2608 97.2634 34.6788H93.3583Z" fill="#CDCDCD"/>
<path d="M27.617 45.7665C27.4765 45.374 27.1956 45.1226 26.7741 45.1226C26.1841 45.1226 25.9594 45.4276 25.9594 45.8484C25.9594 46.851 28.207 46.6675 28.207 48.3676C28.207 49.3165 27.3922 50 26.2403 50C25.847 50 25.3975 49.904 25.0604 49.6809C25.1447 49.3674 25.2289 49.0567 25.2851 48.7376H25.4256C25.5099 49.2488 25.9313 49.5538 26.437 49.5538C26.8865 49.5538 27.3079 49.2939 27.3079 48.7828C27.3079 47.5938 25.0885 48.0259 25.0885 46.2354C25.0885 45.3825 25.6784 44.6764 26.8022 44.6764C27.336 44.6764 27.8136 44.8769 27.9541 45.0322C27.8698 45.2695 27.8136 45.5152 27.7293 45.7665H27.617Z" fill="#CDCDCD"/>
<path d="M49.615 4.79039C49.9522 5.7252 50.7388 6.69107 50.1769 7.77556C49.9241 8.877 48.8846 9.76944 47.7889 9.94737C46.637 10.0519 45.5694 9.85699 44.6985 9.15942C44.1085 5.97938 45.4008 3.03657 47.9013 1.28276L49.615 4.79039Z" fill="#CDCDCD"/>
<path d="M54.0258 14.4803C53.464 16.4036 47.8169 15.1412 46.047 11.9837C48.3788 12.2436 50.9916 10.1706 51.0478 7.80674L54.0258 14.4803Z" fill="#CDCDCD"/>
<path d="M56.3577 14.2316C56.6106 14.1158 57.1162 13.856 57.2567 13.2997L51.1883 0.0316153C50.7669 -0.0192201 50.486 -0.0559389 49.9522 0.31403L56.3577 14.2316Z" fill="#CDCDCD"/>
<path d="M59.0829 11.351C61.6676 7.41123 59.5043 0.946671 53.9135 0.0401104L59.0829 11.351Z" fill="#CDCDCD"/>
<path d="M0 41.197H97.6005V40.4458H0V41.197Z" fill="#CDCDCD"/>
<path d="M31.5783 47.2577C31.5783 46.9696 31.3254 46.7381 31.0445 46.7381C30.7636 46.7381 30.5388 46.9696 30.5388 47.2577C30.5388 47.5458 30.7636 47.7774 31.0445 47.7774C31.3254 47.7774 31.5783 47.5458 31.5783 47.2577Z" fill="#CDCDCD"/>
<path d="M58.521 19.832C59.3358 19.1429 60.7686 19.1288 61.6957 19.5694C62.089 19.7671 62.4542 20.0297 62.7071 20.3743L60.909 23.1759C60.6843 22.9951 60.5157 22.9132 60.2348 22.7664C59.3358 22.3794 58.4086 22.6054 57.8748 23.094V31.27C57.8467 32.6849 58.0996 33.9756 58.83 34.6449H54.7563C53.8854 33.9897 53.6887 32.9419 53.6045 32.024L53.5764 21.1509C53.6045 20.2698 53.3797 19.8829 53.0426 19.3886L57.2568 19.4056C57.5939 19.6513 57.622 20.0777 57.7906 20.4053L58.521 19.832Z" fill="#CDCDCD"/>
<path d="M63.6623 22.5206C63.6342 21.487 63.859 20.25 63.1847 19.3576H67.0899C67.3708 19.5553 67.5113 19.8829 67.5956 20.1935C67.8203 20.4703 67.7922 20.8657 67.8765 21.1933L67.9327 32.7781C68.0732 33.4672 68.3541 34.162 68.8598 34.7042L64.6737 34.7127C63.2971 33.3797 63.7466 31.1881 63.6342 28.9259L63.6623 22.5206Z" fill="#CDCDCD"/>
<path d="M69.8712 22.6336C70.2926 21.4559 71.6131 20.8657 72.5683 20.2246C74.0292 19.6852 75.6587 18.3408 77.2882 19.4395C78.6648 20.3404 79.8729 21.3571 80.7438 22.7494C80.9405 23.2888 81.0528 23.896 81.1933 24.4693C81.1933 25.2403 81.3619 25.8137 81.3338 26.5847C81.39 27.4206 81.39 28.1747 81.3338 28.9937C81.2776 30.386 80.6314 31.6315 79.5357 32.5974C77.9063 34.0575 75.8554 35.7124 73.6359 34.5799C71.6412 33.6451 69.3093 31.7953 69.4498 29.2535C69.3655 27.4517 69.2812 25.8956 69.5341 24.1417C69.6184 23.6334 69.5903 23.077 69.8712 22.6336ZM73.9449 30.8266C74.1416 31.5496 74.5068 32.4336 75.3778 32.5324C75.8835 32.5494 76.2487 32.1229 76.5577 31.7614C77.4567 29.9596 77.3163 27.9939 77.3163 25.9436C77.0353 24.4213 77.4006 22.3399 75.7711 21.4051C75.1811 21.1933 74.7597 21.5858 74.3944 21.9473C73.7483 22.9132 73.6921 24.0203 73.6359 25.2488C73.4392 27.2145 73.664 28.844 73.9449 30.8266Z" fill="#CDCDCD"/>
<path d="M84.2275 34.6788C82.9633 34.0151 82.7666 32.1398 82.7947 27.5788L82.8228 20.5889L80.4348 20.5861L80.9686 19.2926H82.8228V15.9827L87.2898 14.3277V19.1825L89.3127 19.1853L88.7789 20.62L87.2898 20.6172V32.7131C87.3741 33.6875 87.7113 34.2608 88.1608 34.6788H84.2275Z" fill="#CDCDCD"/>
<path d="M43.5466 21.1509C43.5185 20.2698 43.3499 19.8829 43.0128 19.3886L47.227 19.4056C47.5641 19.6513 47.5922 20.0777 47.7608 20.4053L48.4912 19.832C49.306 19.1429 50.7388 19.1288 51.6659 19.5694C52.0592 19.7671 52.4245 20.0297 52.6773 20.3743L50.8793 23.1759C50.6545 22.9951 50.486 22.9132 50.205 22.7664C49.306 22.3794 48.3789 22.6054 47.8451 23.094V31.27C47.817 32.6849 48.0698 33.9756 48.8003 34.6449H44.7266C43.8837 33.9897 43.6309 33.0153 43.5747 32.024L43.5466 21.1509Z" fill="#CDCDCD"/>
<path d="M11.6031 25.4522L10.086 28.6265C9.01836 30.499 7.55744 32.795 5.30987 33.3655C4.43895 33.6705 3.6523 33.3938 2.80946 33.3345L0.0842849 37.8108C0.309041 38.0311 0.589995 38.2147 0.870936 38.322C5.64701 40.1577 7.58554 38.1836 12.2773 27.4771L16.7444 37.0144H22.6723L19.8629 30.5781L21.4643 27.2512L25.847 36.8675L31.5221 36.9042L21.5766 14.9659L16.9972 17.2507L20.5933 25.438L19.02 28.6548L12.4459 14.3983L7.64173 16.8666L11.6031 25.4522Z" fill="#CDCDCD"/>
<path d="M29.8364 29.3213C29.9488 27.7313 30.8198 26.2401 32.2807 25.438C33.7416 24.5343 35.4273 24.1756 36.9444 23.3877C37.1972 23.1759 37.5063 22.9132 37.5344 22.5687C37.5624 22.1422 37.3377 21.8146 36.9725 21.6677C34.6687 21.1763 32.7864 22.6167 31.1288 24.0429C31.3254 22.9951 31.494 21.8485 31.9997 20.8657C32.2245 20.603 32.3931 20.2415 32.7021 20.0467C34.3316 19.2418 36.3544 19.013 38.1524 19.1429C39.6414 19.2418 41.0181 20.3065 41.5238 21.6677C41.7766 22.306 41.7485 23.029 41.8047 23.6842L41.8328 32.5663C41.8328 33.3345 42.1981 34.0575 42.6476 34.6788H38.4334C37.9277 34.2213 37.6748 33.6451 37.5344 32.925C36.3544 33.9756 33.8821 35.5317 32.4211 34.498C30.904 33.8118 29.4993 31.4987 29.8364 29.3213ZM37.3096 26.2316C37.2815 25.616 36.8601 25.551 36.5511 25.551C35.5396 25.6979 34.6687 26.5479 34.163 27.4206C33.7416 28.1973 33.6292 28.8525 33.6011 29.5331C33.6011 30.2674 33.5449 30.8125 33.854 31.3688C34.0225 31.7303 34.3597 31.8941 34.7249 31.9902C35.3711 32.1229 35.9611 31.9421 36.4668 31.5976C37.6748 30.9254 37.4501 29.5811 37.4782 28.3865L37.3096 26.2316Z" fill="#CDCDCD"/>
<path d="M70.0117 47.2577C70.0117 46.9696 69.7588 46.7381 69.4779 46.7381C69.1969 46.7381 68.9722 46.9696 68.9722 47.2577C68.9722 47.5458 69.1969 47.7774 69.4779 47.7774C69.7588 47.7774 70.0117 47.5458 70.0117 47.2577Z" fill="#CDCDCD"/>
<path d="M34.6406 44.8091H36.2139C36.551 44.8091 37.1129 44.795 37.422 44.9588C37.8434 45.1819 38.0401 45.5152 38.0401 46.0207C38.0401 46.7494 37.5905 47.2097 36.8882 47.3566C37.3096 48.0683 37.7591 48.7517 38.2086 49.4436L38.4896 49.904C38.2648 49.887 38.0401 49.8673 37.8153 49.8673C37.5905 49.8673 37.3939 49.887 37.1691 49.904L36.2701 48.345C36.1577 48.1445 35.9611 47.8028 35.7925 47.5204H35.7363V49.904C35.5677 49.887 35.3711 49.8673 35.2025 49.8673C35.0058 49.8673 34.8373 49.887 34.6406 49.904V44.8091ZM35.7363 47.2012C36.523 47.2747 36.9163 46.9047 36.9163 46.1393C36.9163 46.0348 36.8882 45.9247 36.8601 45.7665C36.7477 45.1509 36.1858 45.2102 35.7363 45.2102V47.2012Z" fill="#CDCDCD"/>
<path d="M42.4228 44.8091C42.3947 44.9136 42.3666 45.0266 42.3666 45.1283C42.3666 45.2328 42.3947 45.3457 42.4228 45.4474C41.9452 45.3881 41.4676 45.3288 40.709 45.3457V46.9414H41.4676C41.8047 46.9414 42.1138 46.9103 42.3947 46.8736C42.3666 46.9781 42.3385 47.0883 42.3385 47.1928C42.3385 47.2973 42.3666 47.4102 42.3947 47.5119C42.1138 47.4752 41.8047 47.4469 41.4676 47.4469H40.709V49.3307C41.4676 49.325 41.9452 49.2883 42.4228 49.229C42.3947 49.3307 42.3666 49.4436 42.3666 49.5481C42.3666 49.6498 42.3947 49.7628 42.4228 49.8673H39.5853V44.8091H42.4228Z" fill="#CDCDCD"/>
<path d="M46.0189 45.7665C45.8503 45.374 45.5694 45.1226 45.148 45.1226C44.5861 45.1226 44.3332 45.4276 44.3332 45.8484C44.3332 46.851 46.5808 46.6675 46.5808 48.3676C46.5808 49.3165 45.7942 50 44.6423 50C44.2209 50 43.7994 49.904 43.4623 49.6809C43.5466 49.3674 43.6309 49.0567 43.659 48.7376H43.7994C43.9118 49.2488 44.3051 49.5538 44.8108 49.5538C45.2885 49.5538 45.6818 49.2939 45.6818 48.7828C45.6818 47.5938 43.4904 48.0259 43.4904 46.2354C43.4904 45.3825 44.0523 44.6764 45.2042 44.6764C45.7099 44.6764 46.1875 44.8769 46.3561 45.0322C46.2718 45.2695 46.1875 45.5152 46.1313 45.7665H46.0189Z" fill="#CDCDCD"/>
<path d="M50.2331 50C48.6036 50 47.5079 49.0341 47.5079 47.3481C47.5079 45.871 48.5755 44.6764 50.4298 44.6764C52.5369 44.6764 53.1549 46.1676 53.1549 47.3199C53.1549 48.7687 52.0592 50 50.2331 50ZM48.7441 47.5656C48.7441 48.5286 49.1655 49.5538 50.2893 49.5538C51.4131 49.5538 51.9188 48.41 51.9188 47.1786C51.9188 46.2212 51.4693 45.1226 50.3736 45.1226C49.3622 45.1226 48.7441 45.9021 48.7441 47.5656Z" fill="#CDCDCD"/>
<path d="M54.3911 44.8091H55.9644C56.3015 44.8091 56.8353 44.795 57.1444 44.9588C57.5658 45.1819 57.7906 45.5152 57.7906 46.0207C57.7906 46.7494 57.3129 47.2097 56.6387 47.3566C57.0601 48.0683 57.5096 48.7517 57.9591 49.4436L58.2401 49.904C58.0153 49.887 57.7905 49.8673 57.5658 49.8673C57.341 49.8673 57.1163 49.887 56.8915 49.904L56.0206 48.345C55.9082 48.1445 55.7115 47.8028 55.543 47.5204H55.4868V49.904C55.2901 49.887 55.1216 49.8673 54.9249 49.8673C54.7563 49.8673 54.5597 49.887 54.3911 49.904V44.8091ZM55.4868 47.2012C56.2734 47.2747 56.6387 46.9047 56.6387 46.1393C56.6387 46.0348 56.6387 45.9247 56.6106 45.7665C56.4982 45.1509 55.9363 45.2102 55.4868 45.2102V47.2012Z" fill="#CDCDCD"/>
<path d="M61.3867 49.904C61.2181 49.887 61.0214 49.8673 60.8248 49.8673C60.6562 49.8673 60.4595 49.887 60.291 49.904V45.3373C59.7572 45.3373 59.3077 45.3881 58.9143 45.4418C58.9143 45.3373 58.9424 45.2328 58.9424 45.1226C58.9424 45.0181 58.9143 44.9136 58.9143 44.8091H62.7071C62.7071 44.9136 62.679 45.0181 62.679 45.1226C62.679 45.2328 62.7071 45.3373 62.7071 45.4418C62.2857 45.3881 61.8362 45.3373 61.3867 45.3373V49.904Z" fill="#CDCDCD"/>
<path d="M66.1627 45.7665C66.0223 45.374 65.7413 45.1226 65.3199 45.1226C64.7299 45.1226 64.5051 45.4276 64.5051 45.8484C64.5051 46.851 66.7527 46.6675 66.7527 48.3676C66.7527 49.3165 65.938 50 64.7861 50C64.3928 50 63.9433 49.904 63.6061 49.6809C63.6904 49.3674 63.7747 49.0567 63.8309 48.7376H63.9713C64.0556 49.2488 64.4771 49.5538 64.9827 49.5538C65.4323 49.5538 65.8256 49.2939 65.8256 48.7828C65.8256 47.5938 63.6342 48.0259 63.6342 46.2354C63.6342 45.3825 64.2242 44.6764 65.348 44.6764C65.8818 44.6764 66.3594 44.8769 66.4999 45.0322C66.4156 45.2695 66.3594 45.5152 66.2751 45.7665H66.1627Z" fill="#CDCDCD"/>
<path d="M75.2373 45.7665C75.0687 45.374 74.7878 45.1226 74.3663 45.1226C73.8045 45.1226 73.5516 45.4276 73.5516 45.8484C73.5516 46.851 75.7992 46.6675 75.7992 48.3676C75.7992 49.3165 75.0125 50 73.8606 50C73.4392 50 73.0178 49.904 72.6807 49.6809C72.7649 49.3674 72.8211 49.0567 72.8773 48.7376H73.0178C73.1302 49.2488 73.5235 49.5538 74.0292 49.5538C74.5068 49.5538 74.9001 49.2939 74.9001 48.7828C74.9001 47.5938 72.7088 48.0259 72.7088 46.2354C72.7088 45.3825 73.2987 44.6764 74.3944 44.6764C74.9282 44.6764 75.4058 44.8769 75.5744 45.0322C75.4901 45.2695 75.4058 45.5152 75.3497 45.7665H75.2373Z" fill="#CDCDCD"/>
<path d="M77.1196 44.8091C77.3163 44.8261 77.4848 44.8487 77.6815 44.8487C77.8782 44.8487 78.0467 44.8261 78.2434 44.8091V46.9188C78.2434 47.3283 78.2153 47.9355 78.2996 48.3224C78.3558 48.6868 78.412 48.9155 78.6648 49.1753C78.9177 49.3985 79.1986 49.4945 79.5357 49.4945C80.21 49.4945 80.5753 49.2431 80.8281 48.5964C80.9686 48.2688 80.9686 47.4243 80.9686 47.06V44.8091C81.0529 44.8261 81.1652 44.8317 81.2495 44.8317C81.3619 44.8317 81.4743 44.8261 81.5586 44.8091V47.4526C81.5305 48.2998 81.5586 49.0708 80.7719 49.6074C80.3786 49.8955 79.8729 50 79.3672 50C78.4962 50 77.5129 49.7176 77.2601 48.7517C77.1758 48.4636 77.1196 48.136 77.1196 47.8395V44.8091Z" fill="#CDCDCD"/>
<path d="M83.3004 44.8091C83.4971 44.8261 83.6937 44.8487 83.8623 44.8487C84.059 44.8487 84.2275 44.8261 84.4242 44.8091V49.904C84.2275 49.887 84.059 49.8673 83.8623 49.8673C83.6937 49.8673 83.4971 49.887 83.3004 49.904V44.8091Z" fill="#CDCDCD"/>
<path d="M88.1608 49.904C87.9641 49.887 87.7674 49.8673 87.5989 49.8673C87.4022 49.8673 87.2337 49.887 87.037 49.904V45.3373C86.5313 45.3373 86.0537 45.3881 85.6604 45.4418C85.6885 45.3373 85.7166 45.2328 85.7166 45.1226C85.7166 45.0181 85.6885 44.9136 85.6604 44.8091H89.4812C89.4531 44.9136 89.425 45.0181 89.425 45.1226C89.425 45.2328 89.4531 45.3373 89.4812 45.4418C89.0317 45.3881 88.6103 45.3373 88.1608 45.3373V49.904Z" fill="#CDCDCD"/>
<path d="M93.4426 44.8091C93.4145 44.9136 93.4145 45.0266 93.4145 45.1283C93.4145 45.2328 93.4145 45.3457 93.4426 45.4474C92.993 45.3881 92.4874 45.3288 91.7288 45.3457V46.9414H92.4874C92.8245 46.9414 93.1335 46.9103 93.4145 46.8736C93.3864 46.9781 93.3864 47.0883 93.3864 47.1928C93.3864 47.2973 93.3864 47.4102 93.4145 47.5119C93.1335 47.4752 92.8245 47.4469 92.4874 47.4469H91.7288V49.3307C92.4874 49.325 92.993 49.2883 93.4426 49.229C93.4145 49.3307 93.4145 49.4436 93.4145 49.5481C93.4145 49.6498 93.4145 49.7628 93.4426 49.8673H90.6331V44.8091H93.4426Z" fill="#CDCDCD"/>
<path d="M97.0387 45.7665C96.8982 45.374 96.6172 45.1226 96.1958 45.1226C95.6058 45.1226 95.3811 45.4276 95.3811 45.8484C95.3811 46.851 97.6287 46.6675 97.6287 48.3676C97.6287 49.3165 96.8139 50 95.662 50C95.2687 50 94.8192 49.904 94.4821 49.6809C94.5663 49.3674 94.6506 49.0567 94.6787 48.7376H94.8192C94.9316 49.2488 95.3249 49.5538 95.8587 49.5538C96.3082 49.5538 96.7015 49.2939 96.7015 48.7828C96.7015 47.5938 94.5102 48.0259 94.5102 46.2354C94.5102 45.3825 95.1001 44.6764 96.2239 44.6764C96.7577 44.6764 97.2353 44.8769 97.3758 45.0322C97.2915 45.2695 97.2353 45.5152 97.151 45.7665H97.0387Z" fill="#CDCDCD"/>
<path d="M0.140484 44.8091C0.33714 44.8261 0.50571 44.8487 0.702367 44.8487C0.870936 44.8487 1.06761 44.8261 1.26426 44.8091V46.8228C1.62949 46.8369 2.02281 46.8595 2.38804 46.8595C2.75328 46.8595 3.1466 46.8369 3.51183 46.8228V44.8091C3.70849 44.8261 3.87706 44.8487 4.07371 44.8487C4.24228 44.8487 4.43895 44.8261 4.63561 44.8091V49.904C4.43895 49.887 4.24228 49.8673 4.07371 49.8673C3.87706 49.8673 3.70849 49.887 3.51183 49.904V47.4159C3.1466 47.4017 2.75328 47.3792 2.38804 47.3792C2.02281 47.3792 1.62949 47.4017 1.26426 47.4159V49.904C1.06761 49.887 0.870936 49.8673 0.702367 49.8673C0.50571 49.8673 0.33714 49.887 0.140484 49.904V44.8091Z" fill="#CDCDCD"/>
<path d="M8.68123 50C7.05175 50 5.92796 49.0341 5.92796 47.3481C5.92796 45.871 7.02365 44.6764 8.84979 44.6764C10.9569 44.6764 11.575 46.1676 11.575 47.3199C11.575 48.7687 10.4793 50 8.68123 50ZM7.16412 47.5656C7.16412 48.5286 7.61363 49.5538 8.70932 49.5538C9.83311 49.5538 10.3669 48.41 10.3669 47.1786C10.3669 46.2212 9.9174 45.1226 8.7936 45.1226C7.7822 45.1226 7.16412 45.9021 7.16412 47.5656Z" fill="#CDCDCD"/>
<path d="M14.3282 49.904C14.1597 49.887 13.963 49.8673 13.7944 49.8673C13.5978 49.8673 13.4292 49.887 13.2325 49.904V45.3373C12.6987 45.3373 12.2492 45.3881 11.8559 45.4418C11.884 45.3373 11.884 45.2328 11.884 45.1226C11.884 45.0181 11.884 44.9136 11.8559 44.8091H15.6487C15.6487 44.9136 15.6206 45.0181 15.6206 45.1226C15.6206 45.2328 15.6487 45.3373 15.6487 45.4418C15.2273 45.3881 14.7777 45.3373 14.3282 45.3373V49.904Z" fill="#CDCDCD"/>
<path d="M19.5819 44.8091C19.5819 44.9136 19.5538 45.0266 19.5538 45.1283C19.5538 45.2328 19.5819 45.3457 19.5819 45.4474C19.1324 45.3881 18.6267 45.3288 17.8682 45.3457V46.9414H18.6548C18.9919 46.9414 19.2729 46.9103 19.5538 46.8736C19.5257 46.9781 19.5257 47.0883 19.5257 47.1928C19.5257 47.2973 19.5257 47.4102 19.5538 47.5119C19.2729 47.4752 18.9919 47.4469 18.6548 47.4469H17.8682V49.3307C18.6267 49.325 19.1324 49.2883 19.5819 49.229C19.5819 49.3307 19.5538 49.4436 19.5538 49.5481C19.5538 49.6498 19.5819 49.7628 19.5819 49.8673H16.7725V44.8091H19.5819Z" fill="#CDCDCD"/>
<path d="M22.1104 49.3307C22.7566 49.3307 23.2904 49.2798 23.7961 49.229C23.768 49.3307 23.7399 49.4436 23.7399 49.5481C23.7399 49.6498 23.768 49.7628 23.7961 49.8673H20.9867V44.8091C21.1833 44.8261 21.3519 44.8487 21.5485 44.8487C21.7452 44.8487 21.9138 44.8261 22.1104 44.8091V49.3307Z" fill="#CDCDCD"/>
<path d="M97.7972 33.3486C97.7972 32.4392 98.5277 31.7699 99.3986 31.7699C100.27 31.7699 101 32.4392 101 33.3486C101 34.2636 100.27 34.933 99.3986 34.933C98.5277 34.933 97.7972 34.2636 97.7972 33.3486ZM99.3986 34.6703C100.129 34.6703 100.691 34.1111 100.691 33.3486C100.691 32.6002 100.129 32.0325 99.3986 32.0325C98.6963 32.0325 98.1063 32.6002 98.1063 33.3486C98.1063 34.1111 98.6963 34.6703 99.3986 34.6703ZM99.0615 34.2636H98.8086V32.4392H99.4829C99.9043 32.4392 100.129 32.6002 100.129 32.9588C100.129 33.2865 99.9324 33.4277 99.6515 33.4616L100.185 34.2636H99.8762L99.3986 33.4729H99.0615V34.2636ZM99.3986 33.2384C99.6234 33.2384 99.8481 33.2215 99.8481 32.9419C99.8481 32.716 99.6515 32.6736 99.4548 32.6736H99.0615V33.2384H99.3986Z" fill="#CDCDCD"/>
</svg>
