<svg width="108" height="35" viewBox="0 0 108 35" fill="none" xmlns="http://www.w3.org/2000/svg">
<path d="M36.8402 0.0191644C39.0501 0.0191644 41.26 0.018536 43.4706 0.0191644C43.4713 10.0042 43.4691 19.9885 43.4713 29.9735C43.4903 30.9266 43.5412 31.9427 44.0795 32.7734C44.5748 33.5384 45.4469 33.9741 46.3176 34.2185C46.5286 34.289 46.7678 34.2937 46.9527 34.4271C46.9159 34.4395 46.8433 34.4634 46.8066 34.4757C44.996 34.4805 43.1855 34.4805 41.375 34.4757C40.1712 34.4476 38.8418 34.2376 37.9832 33.3393C37.1259 32.5202 36.9219 31.3022 36.8684 30.1862C36.8105 28.4052 36.8521 26.6228 36.8394 24.8417C36.8394 16.5674 36.8388 8.29363 36.8402 0.0191644Z" fill="#CDCDCD"/>
<path d="M50.1617 0.0191648C52.3709 0.0191648 54.5794 0.0191648 56.7879 0.0191648C56.7907 10.0747 56.7851 20.1295 56.7907 30.1849C56.8197 31.164 56.9191 32.2252 57.5775 33.0176C58.2188 33.7997 59.2377 34.1397 60.2044 34.3676C60.2108 34.3949 60.222 34.4504 60.2284 34.4778C58.9308 34.4791 57.6332 34.4778 56.3356 34.4784C55.1044 34.4662 53.8343 34.5613 52.6497 34.1685C51.6067 33.8353 50.7685 32.98 50.4658 31.9584C50.1123 30.8069 50.1702 29.5903 50.1617 28.4032C50.1617 18.9416 50.1617 9.48002 50.1617 0.0191648Z" fill="#CDCDCD"/>
<path d="M13.4265 4.93879C14.1674 3.14883 15.3076 1.55054 16.4733 0C22.1632 11.4917 27.8487 22.9847 33.5351 34.4778C30.7707 34.4791 28.0068 34.4784 25.243 34.4784C23.2144 30.382 21.1887 26.2848 19.1609 22.1883C17.9345 22.8362 16.9184 23.7907 16.0018 24.7993C14.3741 26.5968 12.9756 28.5982 11.1347 30.2068C9.47021 31.6396 7.57081 32.8253 5.51049 33.6492C4.2376 34.161 2.90466 34.514 1.56481 34.8165C1.1287 34.9027 0.689143 35.0142 0.24105 34.9985C0.139422 34.9943 -0.0150215 34.9635 0.00117855 34.8322C0.103455 34.7098 0.260813 34.6509 0.401969 34.5824C1.61341 34.0473 2.86513 33.5322 3.87839 32.6741C4.39344 32.2355 4.89586 31.7224 5.09976 31.0724C5.21619 30.8158 5.03842 30.5722 4.93755 30.3436C4.54939 29.5882 4.16491 28.8198 3.97861 27.9899C3.59337 26.4161 3.90377 24.7542 4.57197 23.2933C5.32343 21.6867 6.3219 20.1992 7.04301 18.5789C7.66887 17.0908 8.00043 15.5027 8.19808 13.9125C9.84205 15.5061 11.326 17.294 12.3385 19.3343C13.0568 20.7904 13.4949 22.427 13.2727 24.0481C14.5117 23.5451 15.6498 22.839 16.7681 22.124C17.6212 21.5711 18.4609 20.995 19.2363 20.3423C19.7944 19.8872 20.3433 19.3939 21.0257 19.1215C21.5337 18.917 22.1088 18.8848 22.6429 19.0026C23.0804 19.1004 23.4325 19.3959 23.8601 19.5191C24.2297 19.6327 24.6439 19.632 25.0031 19.4815C25.0313 19.3713 24.9071 19.3754 24.8338 19.3481C24.2297 19.2071 23.7521 18.8055 23.2412 18.4886C22.4538 17.9885 21.4075 17.905 20.5452 18.271C19.5976 18.6529 18.8799 19.387 18.053 19.9509C16.8577 17.5307 15.6589 15.1119 14.4623 12.6918C13.8752 11.4882 13.1964 10.2991 12.9516 8.97302C12.6744 7.61958 12.8966 6.20875 13.4265 4.93879Z" fill="#CDCDCD"/>
<path d="M71.1257 9.41236C71.7197 9.12697 72.4249 9.07293 73.0621 9.24259C73.6605 9.40273 74.1789 9.80165 74.4867 10.3224C74.234 10.4975 73.9791 10.67 73.7264 10.8451C73.5212 10.5468 73.2522 10.271 72.8958 10.1479C72.3191 9.93989 71.6052 10.0658 71.1873 10.5194C70.7963 10.9183 70.7088 11.5204 70.8373 12.0411C70.9605 12.5249 71.3622 12.932 71.859 13.064C72.3072 13.1825 72.8159 13.1366 73.2026 12.8752C73.4175 12.7357 73.5806 12.5372 73.7253 12.3333C73.978 12.5071 74.2329 12.6802 74.4867 12.8547C74.1692 13.4083 73.6054 13.8167 72.9704 13.9597C72.2781 14.1116 71.5156 14.0254 70.9129 13.6511C70.3935 13.3275 69.9798 12.8252 69.8286 12.2402C69.6936 11.7154 69.7195 11.1462 69.9301 10.6433C70.1602 10.1116 70.6008 9.67576 71.1257 9.41236Z" fill="#CDCDCD"/>
<path d="M78.4373 9.18992C79.4525 8.98873 80.5919 9.42462 81.0952 10.3237C80.8425 10.4982 80.5887 10.6706 80.336 10.8445C80.134 10.5523 79.8716 10.2806 79.5249 10.1547C79.0011 9.96178 78.3563 10.035 77.9286 10.3983C77.2072 10.9826 77.204 12.2101 77.934 12.7876C78.5032 13.2557 79.4363 13.2406 79.9839 12.7445C80.121 12.6255 80.228 12.4784 80.3371 12.334C80.5909 12.5078 80.8436 12.6815 81.0974 12.8554C80.7658 13.4356 80.1621 13.8516 79.4925 13.9782C78.8585 14.0952 78.1749 14.0199 77.6111 13.7038C77.0312 13.3734 76.5689 12.8225 76.4242 12.1786C76.287 11.5752 76.3529 10.9136 76.6791 10.3757C77.0517 9.76059 77.7062 9.30554 78.4373 9.18992Z" fill="#CDCDCD"/>
<path d="M84.8763 9.2228C85.5556 9.06748 86.3041 9.14614 86.9056 9.49918C87.4575 9.82354 87.9003 10.3456 88.0569 10.9593C88.1941 11.5246 88.1541 12.1424 87.8863 12.6666C87.6573 13.1072 87.2825 13.4691 86.8451 13.7141C86.2814 14.0241 85.601 14.0938 84.9713 13.9768C84.2704 13.8421 83.6494 13.3945 83.2876 12.8013C82.9755 12.2902 82.9096 11.6662 83.0144 11.0887C83.1861 10.1841 83.9626 9.43624 84.8763 9.2228ZM85.0869 10.1117C84.6592 10.2279 84.2974 10.5434 84.1279 10.9402C83.9875 11.2727 83.9745 11.647 84.0469 11.996C84.1559 12.4962 84.5609 12.9245 85.0696 13.0634C85.5794 13.1995 86.1734 13.1201 86.5741 12.7678C87.289 12.1801 87.2782 10.9614 86.5481 10.3894C86.1529 10.0582 85.5805 9.98021 85.0869 10.1117Z" fill="#CDCDCD"/>
<path d="M65.676 9.23306C65.8142 9.2317 65.9536 9.2317 66.094 9.23097C66.8046 10.8007 67.512 12.3709 68.2194 13.9412C67.8587 13.942 67.498 13.942 67.1373 13.9412C67.0476 13.7394 66.958 13.5369 66.8683 13.3357C66.2106 13.3364 65.5551 13.3357 64.8984 13.3357C64.8066 13.5375 64.7174 13.7394 64.6292 13.9412C64.2679 13.942 63.9073 13.9426 63.5468 13.9406C64.2552 12.3709 64.9697 10.8034 65.676 9.23306ZM65.257 12.527C65.6739 12.5276 66.0918 12.5276 66.5087 12.5276C66.3003 12.011 66.0907 11.4951 65.8834 10.9785C65.6749 11.4944 65.4665 12.011 65.257 12.527Z" fill="#CDCDCD"/>
<path d="M90.4394 9.23233C91.0658 9.23233 91.6933 9.22825 92.3197 9.23369C92.7862 9.23851 93.2679 9.38356 93.6006 9.712C94.0174 10.0952 94.1114 10.7192 93.9505 11.2372C93.8306 11.6128 93.5314 11.9098 93.1804 12.0959C93.6384 12.7103 94.0952 13.3254 94.551 13.942C94.1719 13.942 93.7928 13.942 93.4148 13.9412C92.9936 13.3891 92.5767 12.8341 92.1566 12.282C91.9212 12.2827 91.6857 12.2827 91.4514 12.2833C91.4514 12.8362 91.4514 13.3891 91.4514 13.942C91.1133 13.942 90.7764 13.942 90.4394 13.942C90.4383 12.3723 90.4394 10.802 90.4394 9.23233ZM91.4514 10.0938C91.4514 10.5358 91.4514 10.9785 91.4514 11.4206C91.8218 11.4028 92.203 11.4644 92.5681 11.3809C93.1059 11.2221 93.1459 10.388 92.6372 10.169C92.2614 10.0247 91.8434 10.1204 91.4514 10.0938Z" fill="#CDCDCD"/>
<path d="M63.556 19.5075C63.8897 19.5075 64.2234 19.504 64.5579 19.5102C64.5529 20.7822 64.5565 22.0548 64.5557 23.3269C65.2613 23.3269 65.9665 23.3269 66.6718 23.3269C66.6729 23.6231 66.6729 23.9194 66.6729 24.2156C65.6328 24.2143 64.5946 24.2156 63.556 24.215C63.556 22.6453 63.5566 21.0764 63.556 19.5075Z" fill="#CDCDCD"/>
<path d="M68.7184 19.5068C69.0553 19.5068 69.3923 19.5068 69.7282 19.5068C69.7282 21.0764 69.7293 22.6453 69.7282 24.2143C69.3912 24.2156 69.0543 24.2143 68.7184 24.215C68.7184 22.646 68.7184 21.0764 68.7184 19.5068Z" fill="#CDCDCD"/>
<path d="M71.7154 19.5068C72.0956 19.5068 72.4757 19.5068 72.8569 19.5068C73.2576 20.449 73.6605 21.3912 74.059 22.334C74.4564 21.3912 74.855 20.449 75.2535 19.5068C75.6315 19.5068 76.0084 19.5068 76.3864 19.5068C75.6812 21.0771 74.9705 22.6453 74.2631 24.215C74.1238 24.215 73.9866 24.215 73.8495 24.215C73.1367 22.646 72.4271 21.0757 71.7154 19.5068Z" fill="#CDCDCD"/>
<path d="M78.3985 19.5068C79.4882 19.5068 80.5768 19.5068 81.6665 19.5068C81.6654 19.7989 81.6665 20.0911 81.6665 20.3833C80.9116 20.3833 80.1567 20.3833 79.4028 20.384C79.4018 20.6973 79.4018 21.0114 79.4039 21.3255C79.958 21.3255 80.512 21.3255 81.0671 21.3255C81.066 21.6012 81.066 21.8763 81.0671 22.152C80.512 22.1534 79.958 22.152 79.4028 22.1528C79.4018 22.5441 79.4018 22.9355 79.4028 23.3269C80.188 23.3269 80.9732 23.3262 81.7583 23.3275C81.7583 23.6231 81.7583 23.9187 81.7583 24.215C80.6384 24.215 79.5184 24.215 78.3995 24.215C78.3984 22.6453 78.3985 21.0764 78.3985 19.5068Z" fill="#CDCDCD"/>
<path d="M99.655 30.1062C100.099 29.6991 100.767 29.6101 101.347 29.7319C101.834 29.8326 102.25 30.161 102.49 30.5797C102.262 30.7521 102.032 30.9219 101.804 31.0943C101.544 30.6961 101.007 30.4031 100.53 30.6242C100.238 30.7296 100.189 31.1654 100.455 31.3255C101.009 31.6752 101.701 31.799 102.193 32.2465C102.808 32.761 102.694 33.8277 102.022 34.2499C101.045 34.8903 99.5611 34.5284 99.0038 33.5192C99.236 33.3495 99.4682 33.1811 99.7004 33.0114C99.9477 33.3351 100.288 33.6341 100.719 33.684C100.986 33.7162 101.311 33.6916 101.487 33.4644C101.65 33.2523 101.572 32.9266 101.337 32.7966C100.771 32.475 100.091 32.3238 99.6162 31.8606C99.1183 31.4062 99.1507 30.5448 99.655 30.1062Z" fill="#CDCDCD"/>
<path d="M105.152 30.0289C105.877 29.4966 107.034 29.5704 107.644 30.2383C107.738 30.3402 107.814 30.4552 107.898 30.5673C107.678 30.7555 107.439 30.9177 107.211 31.0943C106.952 30.6967 106.42 30.4079 105.946 30.62C105.664 30.7179 105.589 31.1264 105.833 31.303C106.22 31.5732 106.696 31.6888 107.11 31.916C107.469 32.1055 107.833 32.371 107.947 32.7713C108.072 33.2194 107.98 33.745 107.634 34.081C107.269 34.4443 106.728 34.5866 106.218 34.5605C105.477 34.5634 104.774 34.1397 104.411 33.5198C104.641 33.3495 104.875 33.1825 105.106 33.0122C105.336 33.3043 105.63 33.5814 106.013 33.6642C106.291 33.7183 106.626 33.721 106.846 33.5192C107.053 33.3221 107.009 32.9512 106.758 32.8062C106.182 32.4729 105.483 32.3232 105.004 31.8408C104.491 31.3529 104.578 30.4374 105.152 30.0289Z" fill="#CDCDCD"/>
<path d="M63.556 29.771C63.889 29.7696 64.222 29.7703 64.5557 29.7703C64.5551 31.047 64.5565 32.3238 64.5551 33.6006C65.2602 33.6033 65.9665 33.6013 66.6729 33.6019C66.6729 33.8941 66.6718 34.1863 66.6729 34.4784C65.6339 34.4784 64.5946 34.4792 63.556 34.4784C63.556 32.9088 63.5566 31.3398 63.556 29.771Z" fill="#CDCDCD"/>
<path d="M68.7184 29.7702C69.0553 29.7702 69.3923 29.7696 69.7282 29.7702C69.7282 31.3398 69.7293 32.9088 69.7282 34.4784C69.3912 34.4784 69.0543 34.4778 68.7184 34.4784C68.7184 32.9095 68.7184 31.3398 68.7184 29.7702Z" fill="#CDCDCD"/>
<path d="M72.2467 29.7702C72.3796 29.7696 72.5124 29.7702 72.6474 29.7702C73.3052 30.5879 73.9618 31.4062 74.6195 32.2239C75.2772 31.4062 75.9317 30.5865 76.5894 29.7696C76.7244 29.7696 76.8594 29.7702 76.9966 29.7702C76.9955 31.3398 76.9966 32.9088 76.9955 34.4784C76.6607 34.4784 76.3259 34.4784 75.9922 34.4784C75.9933 33.6375 75.989 32.7966 75.9944 31.9564C75.6185 32.4709 75.1865 32.9464 74.7934 33.4493C74.68 33.4507 74.5677 33.4528 74.4564 33.4562C74.0493 32.9684 73.6518 32.4723 73.2468 31.9831C73.2468 32.8151 73.2468 33.6464 73.2468 34.4784C72.9131 34.4784 72.5794 34.4784 72.2467 34.4784C72.2467 32.9088 72.2467 31.3398 72.2467 29.7702Z" fill="#CDCDCD"/>
<path d="M79.5378 29.7702C79.8705 29.7702 80.2042 29.7702 80.5379 29.7702C80.5379 31.3398 80.5379 32.9095 80.5379 34.4791C80.2042 34.4778 79.8705 34.4784 79.5378 34.4784C79.5368 32.9088 79.5378 31.3398 79.5378 29.7702Z" fill="#CDCDCD"/>
<path d="M82.5359 29.771C83.9043 29.7696 85.2727 29.7703 86.641 29.7703C86.6399 30.0644 86.6399 30.3594 86.641 30.6543C86.1226 30.6556 85.6053 30.6502 85.088 30.657C85.0945 31.9283 85.0783 33.1997 85.0955 34.4702C84.7564 34.4867 84.4173 34.4751 84.0793 34.4784C84.0782 33.2037 84.0793 31.9291 84.0793 30.6543C83.5641 30.6536 83.05 30.655 82.5359 30.6537C82.5359 30.3594 82.5359 30.0652 82.5359 29.771Z" fill="#CDCDCD"/>
<path d="M88.6574 29.7702C88.9922 29.7702 89.3259 29.7702 89.6618 29.7702C89.6618 31.0478 89.6618 32.3245 89.6618 33.6013C90.366 33.6027 91.0723 33.6013 91.7786 33.6019C91.7775 33.8941 91.7786 34.1863 91.7775 34.4784C90.7375 34.4784 89.6974 34.4784 88.6585 34.4784C88.6563 32.9088 88.6574 31.3398 88.6574 29.7702Z" fill="#CDCDCD"/>
<path d="M93.8155 29.7703C94.9084 29.7703 96.0025 29.7696 97.0954 29.771C97.0944 30.0652 97.0944 30.3594 97.0954 30.6537C96.3384 30.655 95.5824 30.6536 94.8253 30.6543C94.8253 30.9656 94.8253 31.2769 94.8253 31.5883C95.3815 31.5896 95.9388 31.5883 96.495 31.589C96.496 31.8681 96.496 32.1466 96.495 32.4258C95.9388 32.4258 95.3826 32.4258 94.8264 32.4258C94.8242 32.8178 94.8253 33.2092 94.8253 33.6013C95.6115 33.6033 96.3978 33.6013 97.184 33.6019C97.1829 33.8941 97.184 34.1863 97.184 34.4784C96.0608 34.4784 94.9387 34.4792 93.8155 34.4784C93.8155 32.9088 93.8166 31.3398 93.8155 29.7703Z" fill="#CDCDCD"/>
</svg>
