<svg width="116" height="33" viewBox="0 0 116 33" fill="none" xmlns="http://www.w3.org/2000/svg">
<path d="M36.9366 32.9064H37.7324C37.761 32.9062 37.7884 32.8946 37.8086 32.8742C37.8289 32.8539 37.8403 32.8263 37.8405 32.7975V30.2511H41.0835V32.7975C41.0839 32.8124 41.0873 32.8271 41.0935 32.8408C41.0996 32.8544 41.1084 32.8666 41.1193 32.8768C41.1303 32.8869 41.1431 32.8948 41.1571 32.8998C41.171 32.9049 41.1859 32.9072 41.2007 32.9064H41.9867C42.0011 32.9071 42.0155 32.9047 42.029 32.8995C42.0425 32.8943 42.0548 32.8863 42.065 32.8761C42.0753 32.8658 42.0833 32.8535 42.0886 32.84C42.0938 32.8265 42.0963 32.812 42.0957 32.7975V26.8318C42.0964 26.8168 42.0941 26.8018 42.0889 26.7877C42.0838 26.7735 42.0759 26.7606 42.0658 26.7495C42.0556 26.7385 42.0434 26.7296 42.0299 26.7233C42.0163 26.717 42.0016 26.7135 41.9867 26.713H41.1983C41.1673 26.7136 41.1377 26.7264 41.1158 26.7485C41.094 26.7707 41.0815 26.8006 41.0811 26.8318V29.3418H37.8381V26.8318C37.838 26.802 37.8269 26.7733 37.8069 26.7513C37.7868 26.7293 37.7594 26.7157 37.7299 26.713H36.9366C36.9072 26.7158 36.8798 26.7296 36.8598 26.7515C36.8399 26.7734 36.8287 26.802 36.8284 26.8318V32.7975C36.8286 32.8263 36.8401 32.8539 36.8603 32.8742C36.8806 32.8946 36.908 32.9062 36.9366 32.9064Z" fill="#CDCDCD"/>
<path d="M49.5069 26.6329C48.8859 26.6506 48.2837 26.8521 47.7757 27.2122C47.2676 27.5722 46.8762 28.075 46.6502 28.6577C46.4242 29.2404 46.3737 29.8772 46.505 30.4886C46.6363 31.1 46.9435 31.6589 47.3883 32.0956C47.8332 32.5323 48.3959 32.8274 49.0063 32.9441C49.6167 33.0608 50.2478 32.9939 50.8206 32.7517C51.3935 32.5095 51.8828 32.1029 52.2275 31.5824C52.5723 31.062 52.7571 30.4509 52.7589 29.8254C52.7584 29.3994 52.6733 28.9778 52.5087 28.5853C52.344 28.1929 52.1032 27.8375 51.8002 27.5401C51.4973 27.2427 51.1383 27.0093 50.7445 26.8535C50.3507 26.6977 49.9299 26.6227 49.5069 26.6329ZM49.5069 32.0532C49.0662 32.0614 48.6331 31.9373 48.2628 31.6966C47.8925 31.4559 47.6018 31.1097 47.4277 30.702C47.2537 30.2943 47.2042 29.8437 47.2856 29.4075C47.367 28.9714 47.5755 28.5696 47.8847 28.2533C48.1938 27.937 48.5895 27.7206 49.0214 27.6317C49.4532 27.5427 49.9015 27.5853 50.3092 27.754C50.7169 27.9227 51.0654 28.2097 51.3104 28.5787C51.5553 28.9476 51.6855 29.3816 51.6845 29.8254C51.6899 30.1164 51.6376 30.4057 51.5305 30.6761C51.4235 30.9466 51.2639 31.1928 51.061 31.4003C50.8582 31.6078 50.6162 31.7725 50.3494 31.8846C50.0825 31.9967 49.7961 32.054 49.5069 32.0532Z" fill="#CDCDCD"/>
<path d="M61.4077 27.5059V26.8335C61.4086 26.8184 61.4065 26.8034 61.4015 26.7892C61.3965 26.7751 61.3887 26.7621 61.3786 26.751C61.3685 26.7399 61.3563 26.731 61.3428 26.7247C61.3292 26.7185 61.3145 26.7151 61.2995 26.7146H56.3748C56.36 26.7153 56.3454 26.7189 56.3319 26.7252C56.3184 26.7315 56.3063 26.7404 56.2963 26.7515C56.2862 26.7625 56.2784 26.7754 56.2733 26.7895C56.2683 26.8036 56.266 26.8185 56.2666 26.8335V27.5059C56.2661 27.5204 56.2685 27.5348 56.2737 27.5483C56.2789 27.5618 56.2869 27.574 56.297 27.5842C56.3072 27.5945 56.3194 27.6025 56.3328 27.6077C56.3461 27.613 56.3605 27.6154 56.3748 27.6149H58.3352V32.7991C58.3347 32.8135 58.3372 32.8279 58.3425 32.8413C58.3478 32.8547 58.3557 32.8669 58.3659 32.8771C58.376 32.8873 58.3881 32.8954 58.4015 32.9007C58.4148 32.906 58.4291 32.9085 58.4434 32.908H59.2302C59.245 32.9088 59.2599 32.9066 59.2738 32.9015C59.2878 32.8964 59.3006 32.8886 59.3115 32.8784C59.3225 32.8683 59.3313 32.856 59.3374 32.8424C59.3436 32.8288 59.3469 32.8141 59.3474 32.7991V27.614H61.2987C61.3131 27.6148 61.3275 27.6126 61.341 27.6075C61.3545 27.6024 61.3668 27.5945 61.377 27.5843C61.3873 27.5741 61.3953 27.5619 61.4006 27.5484C61.4059 27.5349 61.4083 27.5204 61.4077 27.5059Z" fill="#CDCDCD"/>
<path d="M70.2581 32.1151C70.2582 32.1007 70.2555 32.0865 70.2501 32.0733C70.2447 32.06 70.2367 32.0479 70.2267 32.0378C70.2166 32.0277 70.2046 32.0197 70.1915 32.0142C70.1783 32.0088 70.1642 32.0061 70.1499 32.0062H66.7512V30.2495H69.6787C69.7073 30.2493 69.7347 30.2377 69.7549 30.2173C69.7752 30.1969 69.7866 30.1694 69.7868 30.1406V29.459C69.7875 29.4445 69.7852 29.43 69.78 29.4164C69.7748 29.4028 69.7669 29.3905 69.7568 29.3801C69.7466 29.3698 69.7344 29.3617 69.7209 29.3564C69.7075 29.3511 69.6931 29.3487 69.6787 29.3493H66.7512V27.6149H70.1499C70.1643 27.6154 70.1786 27.613 70.192 27.6077C70.2054 27.6025 70.2176 27.5945 70.2277 27.5842C70.2379 27.574 70.2458 27.5618 70.251 27.5483C70.2563 27.5348 70.2587 27.5204 70.2581 27.5059V26.8335C70.259 26.8184 70.2569 26.8034 70.2519 26.7892C70.2469 26.7751 70.2391 26.7621 70.229 26.751C70.2189 26.7399 70.2067 26.731 70.1931 26.7247C70.1795 26.7185 70.1649 26.7151 70.1499 26.7146H65.8489C65.8194 26.7173 65.7919 26.731 65.7719 26.7529C65.7519 26.7749 65.7408 26.8036 65.7407 26.8335V32.7991C65.7409 32.8279 65.7524 32.8555 65.7726 32.8759C65.7929 32.8963 65.8202 32.9078 65.8489 32.908H70.1499C70.1643 32.9086 70.1786 32.9062 70.192 32.9009C70.2054 32.8957 70.2176 32.8876 70.2277 32.8774C70.2379 32.8672 70.2458 32.8549 70.251 32.8415C70.2563 32.828 70.2587 32.8136 70.2581 32.7991V32.1151Z" fill="#CDCDCD"/>
<path d="M79.3568 32.7991V32.1176C79.3566 32.0887 79.3451 32.0612 79.3249 32.0408C79.3046 32.0204 79.2772 32.0089 79.2486 32.0086H76.3662V26.8335C76.3662 26.8036 76.355 26.7749 76.335 26.7529C76.315 26.731 76.2876 26.7173 76.2581 26.7146H75.4631C75.4335 26.7171 75.406 26.7307 75.3859 26.7527C75.3659 26.7748 75.3548 26.8036 75.3549 26.8335V32.7991C75.3549 32.828 75.3663 32.8557 75.3866 32.8761C75.4069 32.8965 75.4344 32.908 75.4631 32.908H79.2495C79.2637 32.9084 79.2779 32.9058 79.2911 32.9004C79.3044 32.8951 79.3164 32.887 79.3264 32.8768C79.3365 32.8666 79.3443 32.8545 79.3495 32.8411C79.3548 32.8278 79.3573 32.8135 79.3568 32.7991Z" fill="#CDCDCD"/>
<path d="M16.2125 13.3146V0.350237H13.4817L8.13164 10.2996L2.74469 0.351888L0 0.350237V13.3146H2.15707L2.14888 3.15236L7.84151 13.6125H8.37013L14.0636 3.15236L14.0546 13.3146H16.2125Z" fill="#CDCDCD"/>
<path d="M24.6981 11.5703V7.36215H30.8448V5.61371H24.6981V2.09785H32.6864V0.351888H22.5435V13.3187H32.8388V11.5728L24.6981 11.5703Z" fill="#CDCDCD"/>
<path d="M116 11.5711H107.86V7.36298H114.007V5.61701H107.86V2.09785H115.847V0.350237H105.705V13.3187H116V11.5711Z" fill="#CDCDCD"/>
<path d="M64.2729 9.9844C63.8393 10.4445 63.3173 10.8109 62.7387 11.0616C62.1601 11.3122 61.5369 11.4418 60.9069 11.4424C60.3058 11.4379 59.7116 11.3123 59.1594 11.0731C58.6071 10.8339 58.108 10.4859 57.6913 10.0496C57.2747 9.61325 56.9489 9.09742 56.7332 8.53244C56.5176 7.96747 56.4163 7.36477 56.4355 6.75981C56.4169 6.15471 56.5187 5.55198 56.735 4.9871C56.9513 4.42223 57.2776 3.90664 57.6948 3.47068C58.112 3.03472 58.6117 2.6872 59.1643 2.4486C59.7169 2.21 60.3114 2.08513 60.9127 2.08135C61.575 2.08022 62.2299 2.22225 62.8331 2.49783C63.4362 2.77342 63.9736 3.17614 64.4089 3.67879L66.0882 2.44688C65.2106 1.38153 64.0297 0.612756 62.7046 0.244244C61.3795 -0.124269 59.9741 -0.0747918 58.6778 0.386002C57.3815 0.846796 56.2568 1.69674 55.4553 2.8212C54.6538 3.94566 54.2141 5.29054 54.1955 6.67445C54.1769 8.05836 54.5803 9.41473 55.3513 10.5606C56.1222 11.7065 57.2237 12.5868 58.5071 13.0827C59.7905 13.5787 61.1941 13.6664 62.5286 13.3342C63.8631 13.0019 65.0643 12.2656 65.9702 11.2246L64.2729 9.98275V9.9844Z" fill="#CDCDCD"/>
<path d="M83.5947 0.390668H81.4311V7.33162C81.4417 7.85537 81.3485 8.376 81.1568 8.86301C80.965 9.35002 80.6787 9.79361 80.3146 10.1678C79.9505 10.542 79.5158 10.8393 79.0361 11.0422C78.5564 11.2452 78.0413 11.3497 77.521 11.3497C77.0007 11.3497 76.4856 11.2452 76.0059 11.0422C75.5262 10.8393 75.0916 10.542 74.7274 10.1678C74.3633 9.79361 74.0769 9.35002 73.8852 8.86301C73.6935 8.376 73.6002 7.85537 73.6109 7.33162V0.390668H71.4472V7.48674C71.4658 9.09613 72.1139 10.6333 73.2508 11.7647C74.3878 12.8962 75.922 13.5307 77.5206 13.5307C79.1192 13.5307 80.6534 12.8962 81.7903 11.7647C82.9273 10.6333 83.5754 9.09613 83.5939 7.48674L83.5947 0.390668Z" fill="#CDCDCD"/>
<path d="M49.7897 13.322L47.1089 8.1584L47.2859 8.05856C47.8813 7.69203 48.3665 7.16957 48.6898 6.54699C49.0132 5.9244 49.1625 5.22508 49.1217 4.52372C49.1595 3.98811 49.0899 3.45031 48.9172 2.9423C48.7444 2.43428 48.472 1.96641 48.1161 1.56647C47.3212 0.763625 46.0222 0.355188 44.2527 0.355188H39.1404V13.3212H41.2983V8.81602H45.1141L47.3941 13.3196H49.7897V13.322ZM44.2986 6.87368C43.8569 6.87368 43.3971 6.87368 42.9366 6.86873C42.476 6.86378 42.049 6.86212 41.6384 6.86212H41.2942V2.21997H41.6384C42.0481 2.21997 42.4579 2.21997 42.8841 2.21997C43.3308 2.21997 43.7856 2.21337 44.2552 2.21337C45.4698 2.21337 47.0835 2.45266 47.0835 4.52372C47.0835 6.08486 46.1476 6.8778 44.297 6.8778L44.2986 6.87368Z" fill="#CDCDCD"/>
<path d="M97.5001 8.15757L97.6771 8.05773C98.2725 7.69121 98.7577 7.16875 99.0811 6.54616C99.4044 5.92358 99.5537 5.22425 99.513 4.52289C99.5507 3.98728 99.4811 3.44949 99.3084 2.94147C99.1357 2.43346 98.8632 1.96558 98.5074 1.56565C97.7124 0.7628 96.4134 0.354363 94.644 0.354363H89.5316V13.3204H91.6895V8.81602H95.5053L97.7853 13.3196H100.181L97.5001 8.1551V8.15757ZM94.6923 6.87285C94.2506 6.87285 93.7908 6.87285 93.3303 6.8679C92.8697 6.86295 92.4435 6.8613 92.032 6.8613H91.6878V2.21997H92.032C92.4377 2.21997 92.8516 2.21997 93.2778 2.21997C93.7247 2.21612 94.1823 2.21392 94.6505 2.21337C95.8635 2.21337 97.4772 2.45266 97.4772 4.52372C97.4772 6.08486 96.5413 6.8778 94.6907 6.8778L94.6923 6.87285Z" fill="#CDCDCD"/>
</svg>
