<svg width="129" height="23" viewBox="0 0 129 23" fill="none" xmlns="http://www.w3.org/2000/svg">
<path d="M0 1.14465C1.45878 0.630812 2.97925 0.306996 4.52285 0.181692C11.4106 -0.424455 17.3683 0.493201 20.4104 2.82718C22.4709 4.41337 22.3676 7.75571 20.2325 9.05862C17.8276 10.5145 14.9405 10.6448 9.98138 11.1376C8.83338 11.2566 7.11155 11.4096 7.11155 11.5512C7.11155 11.6929 14.7395 15.4543 16.0711 16.1228C17.7013 16.9329 27.2177 22.2013 27.5506 22.5865C27.7343 22.7961 26.3682 22.5865 26.0583 22.4166C24.3995 21.6008 22.5514 20.6037 22.4078 21.006C22.2643 21.4082 23.2344 22.139 22.5514 22.139C22.2701 22.139 16.8116 19.5105 16.186 19.1649C15.6809 18.8816 14.3894 18.2811 14.2 18.6833C14.0106 19.0856 14.5329 19.975 14.0738 19.856C13.6146 19.737 5.60774 16.1285 3.38647 14.6386C1.02168 13.0411 0.396031 10.8204 1.91705 9.47782C4.35074 7.33079 7.51898 7.68771 11.8869 7.12687C13.4711 6.91732 16.1285 6.52645 16.1056 5.12148C16.0482 2.48734 13.3563 1.76215 7.49608 1.15601C5.83445 0.958979 4.15391 0.976166 2.4968 1.20704C1.88265 1.27505 2.22697 0.940727 1.3087 1.09935C0.878705 1.19187 0.435483 1.20725 0 1.14465Z" fill="#CDCDCD"/>
<path d="M36.9006 16.899C36.5596 16.6114 36.1714 16.3834 35.7527 16.2248C35.5556 16.151 35.3519 16.096 35.1442 16.0605C34.9324 16.0196 34.7172 15.9987 34.5014 15.9982C34.1186 15.9847 33.737 16.0491 33.3806 16.1875C33.024 16.3259 32.7003 16.5352 32.4294 16.8026C32.1607 17.0812 31.9516 17.4105 31.8145 17.7706C31.6775 18.1307 31.6152 18.5143 31.6316 18.8986C31.6164 19.2794 31.6792 19.6593 31.8163 20.0156C31.9534 20.3718 32.162 20.6971 32.4294 20.972C32.68 21.2343 32.9839 21.4414 33.3211 21.5801C33.6584 21.7186 34.0214 21.7856 34.3866 21.7765C34.6101 21.7761 34.8329 21.7552 35.0524 21.7141C35.2717 21.6751 35.4868 21.6164 35.6953 21.5385C36.1329 21.3646 36.5368 21.1173 36.8892 20.8077V22.2183C36.5544 22.4666 36.18 22.6581 35.7814 22.7847C35.5786 22.8446 35.3713 22.8882 35.1614 22.9151C34.9374 22.9492 34.7109 22.9662 34.4842 22.966C33.9236 22.9718 33.3667 22.8737 32.8426 22.6771C32.3456 22.4907 31.8937 22.2032 31.5167 21.8331C31.1333 21.4655 30.8338 21.0212 30.6386 20.5301C30.2327 19.5126 30.2327 18.381 30.6386 17.3635C30.8351 16.8713 31.1344 16.4254 31.5167 16.0548C31.8974 15.6837 32.3504 15.3927 32.8483 15.1995C33.3519 14.9876 33.8911 14.8703 34.4383 14.8539C34.6629 14.8541 34.8873 14.8692 35.1098 14.8992C35.3258 14.934 35.5389 14.9851 35.7469 15.0521C36.177 15.1846 36.5821 15.3854 36.9466 15.647L36.9006 16.899Z" fill="#CDCDCD"/>
<path d="M46.2104 18.8873C46.2161 19.4162 46.1115 19.9405 45.9031 20.4277C45.6948 20.915 45.3871 21.3548 44.9993 21.7198C44.5994 22.0944 44.1323 22.3922 43.6218 22.5979C42.8637 22.9058 42.0308 22.9879 41.2259 22.8338C40.4212 22.6798 39.6796 22.2964 39.0931 21.731C38.7099 21.363 38.4057 20.9225 38.1986 20.4359C37.9915 19.9492 37.8858 19.4265 37.8878 18.8986C37.8861 18.3666 37.9894 17.8394 38.1921 17.3465C38.3979 16.8569 38.7048 16.4151 39.0931 16.0492C39.4787 15.6745 39.9351 15.3781 40.4362 15.1767C40.9458 14.9766 41.4893 14.8748 42.0377 14.8765C42.5785 14.8754 43.1144 14.9774 43.6161 15.1767C44.1184 15.376 44.5751 15.6727 44.9592 16.0492C45.3654 16.4099 45.6918 16.8496 45.9177 17.3407C46.1214 17.8311 46.221 18.3575 46.2104 18.8873ZM44.8903 18.8873C44.8973 18.4994 44.825 18.1141 44.6779 17.7543C44.3972 17.0611 43.8505 16.5053 43.1568 16.2078C42.8108 16.0602 42.4376 15.985 42.0606 15.9868C41.6861 15.986 41.3154 16.0592 40.9701 16.2021C40.6239 16.3456 40.3114 16.5577 40.0517 16.8252C39.7883 17.093 39.5798 17.4085 39.4375 17.7543C39.2889 18.1136 39.2165 18.4993 39.2251 18.8873C39.2213 19.2639 39.2934 19.6375 39.4375 19.9863C39.5055 20.1582 39.5901 20.3232 39.6901 20.4792C40.0036 20.9451 40.4458 21.3127 40.9643 21.5385C41.3093 21.6825 41.6802 21.7566 42.0549 21.7566C42.4295 21.7566 42.8004 21.6825 43.1454 21.5385C43.4864 21.392 43.7947 21.1802 44.0523 20.9154C44.3168 20.6473 44.5272 20.332 44.6722 19.9863C44.8165 19.6374 44.8906 19.2641 44.8903 18.8873Z" fill="#CDCDCD"/>
<path d="M47.4387 22.6998V14.7406L52.3634 19.4255L52.8053 19.839C52.9373 19.9862 53.0866 20.1562 53.2415 20.3489V15.0351H54.3895V23L49.3615 18.2302L49.1664 18.0375L48.9712 17.8222C48.845 17.675 48.7244 17.5221 48.6154 17.3691V22.6998H47.4387Z" fill="#CDCDCD"/>
<path d="M55.4973 21.1646L56.5017 20.7057C56.5794 21.0193 56.7663 21.2961 57.0297 21.4875C57.3173 21.6785 57.6592 21.7738 58.0055 21.7594C58.3312 21.7764 58.6506 21.6665 58.8952 21.4535C59.0075 21.3473 59.0953 21.2185 59.1528 21.0758C59.2103 20.9331 59.2359 20.7798 59.2281 20.6264C59.2281 20.177 58.8454 19.7748 58.0801 19.4198L57.8391 19.3065C57.196 19.0428 56.6111 18.658 56.1172 18.1735C55.8287 17.8303 55.6758 17.3957 55.6867 16.9499C55.6763 16.666 55.7284 16.3833 55.8394 16.1212C55.9504 15.8591 56.1176 15.6239 56.3296 15.4317C56.7971 15.0354 57.4016 14.8326 58.017 14.8652C58.5136 14.8489 59.0061 14.9601 59.4462 15.1881C59.8294 15.3918 60.1221 15.729 60.267 16.1341L59.2797 16.6326C59.1541 16.4196 58.979 16.239 58.7689 16.1059C58.544 15.9796 58.2864 15.9215 58.0282 15.9386C57.77 15.9557 57.5226 16.0474 57.3167 16.2021C57.2185 16.2897 57.1409 16.3975 57.0893 16.5178C57.0377 16.6383 57.0135 16.7683 57.0183 16.8988C57.0183 17.3635 57.4603 17.794 58.3384 18.1905L58.4934 18.2641C59.0846 18.4941 59.6218 18.841 60.0719 19.2839C60.3646 19.6357 60.5176 20.0808 60.5023 20.5358C60.5169 20.8558 60.4625 21.1754 60.3428 21.4732C60.2231 21.771 60.0407 22.0404 59.8077 22.2636C59.303 22.7048 58.6448 22.9362 57.9711 22.9094C57.3963 22.9333 56.8289 22.7744 56.3525 22.4562C55.9139 22.1463 55.6088 21.6855 55.4973 21.1646Z" fill="#CDCDCD"/>
<path d="M64.1929 16.0945V22.6998H62.9302V16.0945H60.8409V15.0351H66.219V16.0945H64.1929Z" fill="#CDCDCD"/>
<path d="M68.1706 19.2725V22.6715H66.9882V15.0351H68.7502C69.1543 15.0261 69.5583 15.0583 69.9556 15.1314C70.2187 15.1889 70.4656 15.3031 70.6788 15.4657C70.9285 15.654 71.1259 15.9014 71.2528 16.1851C71.3184 16.3321 71.3666 16.4861 71.3962 16.644C71.4307 16.8098 71.4481 16.9788 71.4479 17.1482C71.4781 17.6644 71.3214 18.1743 71.006 18.5871C70.6584 18.9581 70.1796 19.1832 69.6686 19.2159L72.3204 22.6998H70.8912L68.3026 19.2725H68.1706ZM68.2509 18.3038H68.4805C68.9375 18.3458 69.3975 18.2656 69.8121 18.0716C69.9301 17.9724 70.0216 17.8461 70.0787 17.7039C70.1357 17.5616 70.1565 17.4078 70.1392 17.2558C70.1547 17.0904 70.1306 16.9237 70.0688 16.7692C70.007 16.6147 69.9092 16.4767 69.7834 16.3664C69.3847 16.1547 68.9314 16.064 68.4805 16.1059H68.2509V18.3038Z" fill="#CDCDCD"/>
<path d="M72.8198 15.0351H74.0709V19.6917C74.0305 20.252 74.2023 20.8072 74.5531 21.2496C74.9562 21.5804 75.4639 21.7615 75.9885 21.7615C76.512 21.7615 77.0195 21.5804 77.4226 21.2496C77.7806 20.8104 77.9547 20.2533 77.9106 19.6917V15.0351H79.2082V19.805C79.2415 20.2262 79.1877 20.6497 79.0512 21.0499C78.9136 21.4501 78.6954 21.8187 78.4105 22.1333C77.7182 22.6388 76.8808 22.9116 76.0197 22.9116C75.1588 22.9116 74.3209 22.6388 73.629 22.1333C73.344 21.8171 73.1264 21.4476 72.9894 21.0465C72.8523 20.6454 72.7985 20.2214 72.8311 19.7994L72.8198 15.0351Z" fill="#CDCDCD"/>
<path d="M86.9449 16.899C86.6041 16.6114 86.2161 16.3834 85.7968 16.2248C85.6001 16.151 85.3969 16.096 85.1884 16.0605C84.9766 16.0196 84.7616 15.9987 84.5455 15.9982C84.1628 15.9847 83.7812 16.0491 83.4254 16.1875C83.0685 16.3259 82.7449 16.5352 82.474 16.8026C82.2053 17.0812 81.9956 17.4105 81.8591 17.7706C81.7215 18.1307 81.6602 18.5143 81.6764 18.8986C81.6613 19.2794 81.7237 19.6594 81.8613 20.0156C81.9978 20.3718 82.2063 20.6971 82.474 20.972C82.7245 21.2335 83.0266 21.4403 83.363 21.5789C83.6995 21.7175 84.0607 21.7847 84.4251 21.7765C84.6487 21.7767 84.8723 21.7559 85.0916 21.7141C85.3131 21.6733 85.5292 21.6126 85.7399 21.5329C86.1774 21.3589 86.5816 21.1116 86.9342 20.802V22.2126C86.5988 22.461 86.2247 22.6525 85.8259 22.7791C85.6227 22.8383 85.4163 22.8819 85.2056 22.9094C84.982 22.9435 84.7551 22.9605 84.5283 22.9604C83.9682 22.9662 83.4114 22.8681 82.8868 22.6715C82.3902 22.4851 81.9387 22.1975 81.5613 21.8274C81.1776 21.4599 80.8787 21.0156 80.6831 20.5245C80.2778 19.5069 80.2778 18.3753 80.6831 17.3577C80.8798 16.8656 81.1786 16.4198 81.5613 16.0492C81.9419 15.6781 82.3945 15.387 82.8933 15.1937C83.4071 14.9985 83.9543 14.9005 84.5058 14.9048C84.7304 14.905 84.9551 14.9202 85.1776 14.9501C85.3937 14.985 85.6066 15.0362 85.814 15.1031C86.244 15.2355 86.6493 15.4365 87.0137 15.6979L86.9449 16.899Z" fill="#CDCDCD"/>
<path d="M90.802 16.0945V22.6998H89.54V16.0945H87.4792V15.0351H92.851V16.0945H90.802Z" fill="#CDCDCD"/>
<path d="M93.6207 22.6998V15.0351H94.8827V22.6998H93.6207Z" fill="#CDCDCD"/>
<path d="M104.463 18.8873C104.469 19.4162 104.364 19.9405 104.156 20.4277C103.947 20.915 103.64 21.3548 103.252 21.7198C102.858 22.092 102.399 22.3897 101.897 22.5979C100.878 23.0096 99.7364 23.0096 98.7173 22.5979C98.2152 22.3978 97.7584 22.1012 97.3746 21.7254C96.9887 21.3586 96.6834 20.9184 96.4748 20.4316C96.2663 19.9448 96.1609 19.4214 96.1631 18.893C96.1598 18.3603 96.2652 17.8323 96.4726 17.3408C96.6748 16.8505 96.98 16.4082 97.3681 16.0435C97.7541 15.6688 98.2099 15.3724 98.7119 15.1711C99.2214 14.971 99.7643 14.8691 100.313 14.8709C100.853 14.8697 101.39 14.9717 101.892 15.1711C102.649 15.4644 103.298 15.9757 103.757 16.6384C104.216 17.3012 104.461 18.0847 104.463 18.8873ZM103.143 18.8873C103.148 18.5 103.079 18.1153 102.936 17.7543C102.793 17.4109 102.584 17.0976 102.322 16.8309C102.062 16.5665 101.752 16.3549 101.409 16.2078C101.063 16.0602 100.69 15.985 100.313 15.9868C99.9385 15.9849 99.5665 16.0583 99.2214 16.2024C98.8764 16.3465 98.5635 16.5585 98.3045 16.8252C98.0422 17.0945 97.8347 17.4096 97.6896 17.7543C97.6229 17.9277 97.5692 18.1056 97.5294 18.2868C97.495 18.4737 97.4778 18.6633 97.4778 18.8533C97.4735 19.23 97.5455 19.6035 97.6896 19.9523C97.7584 20.1242 97.8422 20.2893 97.9422 20.4451C98.0497 20.6011 98.1701 20.7471 98.3045 20.8814C98.5625 21.1515 98.8731 21.3669 99.2193 21.5141C99.5644 21.6612 99.9363 21.7371 100.313 21.7371C100.689 21.7371 101.062 21.6612 101.407 21.5141C101.752 21.3669 102.064 21.1515 102.322 20.8814C102.586 20.6133 102.797 20.2981 102.942 19.9523C103.071 19.6121 103.131 19.2503 103.119 18.8873H103.143Z" fill="#CDCDCD"/>
<path d="M105.668 22.6998V14.7406L110.598 19.4255L111.006 19.8447C111.138 19.992 111.287 20.1619 111.442 20.3545V15.0351H112.59V23L107.562 18.2302L107.361 18.0375L107.166 17.8222C107.04 17.675 106.92 17.5221 106.81 17.3691V22.6998H105.668Z" fill="#CDCDCD"/>
<path fill-rule="evenodd" clip-rule="evenodd" d="M35.8158 6.37345L38.8291 10.2483H35.7297L33.3764 6.61133V10.2483H30.8567V0.793459H34.5818C35.4345 0.746351 36.2771 0.994834 36.9638 1.49594C37.2854 1.76565 37.5386 2.10602 37.703 2.48957C37.8675 2.87322 37.9387 3.28956 37.9108 3.70526C37.9287 4.32329 37.7412 4.93007 37.377 5.43309C37.1929 5.68401 36.96 5.89642 36.692 6.0578C36.424 6.21928 36.1261 6.32655 35.8158 6.37345ZM33.3535 2.67429V5.03087H33.5945C34.7425 5.03087 35.3164 4.63999 35.3164 3.85825C35.3164 3.0764 34.7425 2.67429 33.5945 2.67429H33.3535Z" fill="#CDCDCD"/>
<path fill-rule="evenodd" clip-rule="evenodd" d="M45.1486 2.87248H42.1812V4.44169H44.9936V6.52645H42.1812V8.16919H45.1486V10.2482H39.6901V0.79346H45.1486V2.87248Z" fill="#CDCDCD"/>
<path fill-rule="evenodd" clip-rule="evenodd" d="M46.2449 10.2482V0.79346H48.7359L53.2989 6.57737H53.3219V0.79346H55.8129V10.2482H53.3219L48.7589 4.45867H48.7359V10.2482H46.2449Z" fill="#CDCDCD"/>
<path fill-rule="evenodd" clip-rule="evenodd" d="M63.1827 8.60546H59.7389L59.119 10.2482H56.4501L60.135 0.79346H62.8556L66.4659 10.2482H63.8083L63.1827 8.60546ZM62.5169 6.72464L61.4953 3.71661L60.4679 6.72464H62.5169Z" fill="#CDCDCD"/>
<path d="M69.6055 0.79346H67.1144V10.2539H69.6055V0.79346Z" fill="#CDCDCD"/>
<path fill-rule="evenodd" clip-rule="evenodd" d="M77.0496 1.32035L76.0573 3.2294C75.6005 2.83057 75.0135 2.60734 74.4039 2.60055C74.1557 2.59662 73.9119 2.66569 73.7036 2.79885C73.5978 2.8537 73.5084 2.93476 73.444 3.03418C73.3796 3.13349 73.3425 3.24765 73.3363 3.36531C73.3363 3.75056 73.7036 4.05645 74.4383 4.27173L75.0754 4.45867C75.694 4.61792 76.267 4.91436 76.7518 5.32539C76.9797 5.54587 77.1592 5.8108 77.2775 6.10342C77.3957 6.39615 77.4516 6.7099 77.4398 7.02491C77.4892 7.50713 77.4247 7.99391 77.2527 8.4477C77.0807 8.90148 76.8045 9.31018 76.4475 9.64206C75.68 10.2517 74.7163 10.5676 73.7323 10.5315C72.5229 10.5287 71.3447 10.1524 70.3632 9.45522L71.4249 7.47243C72.0193 8.05163 72.8067 8.39793 73.6405 8.44685C73.937 8.45332 74.2288 8.37248 74.4785 8.2146C74.5972 8.13587 74.6934 8.02829 74.7577 7.90234C74.822 7.7763 74.8524 7.63604 74.8458 7.49514C74.834 7.32962 74.7733 7.17111 74.6713 7.03923C74.5693 6.90745 74.4305 6.80793 74.2719 6.75297C73.9669 6.60931 73.6475 6.49727 73.3191 6.41875C72.6417 6.27329 72.0014 5.99382 71.4364 5.59733C71.1851 5.36073 70.9907 5.0714 70.8676 4.75087C70.7444 4.43024 70.6955 4.08658 70.7247 3.74494C70.71 3.32393 70.7852 2.90463 70.9454 2.51429C71.1056 2.12384 71.3472 1.77117 71.6546 1.47897C71.9687 1.17298 72.3419 0.932558 72.7521 0.772029C73.1624 0.611394 73.6011 0.533939 74.0422 0.54423C75.0967 0.536167 76.1347 0.803965 77.0496 1.32035Z" fill="#CDCDCD"/>
<path fill-rule="evenodd" clip-rule="evenodd" d="M84.4316 1.32035L83.4437 3.2294C82.9879 2.83057 82.4009 2.60734 81.7914 2.60055C81.5431 2.59663 81.299 2.66569 81.0905 2.79885C80.9851 2.85455 80.897 2.93593 80.8325 3.03503C80.768 3.13413 80.7304 3.24786 80.7228 3.36532C80.7228 3.75056 81.0905 4.05645 81.8312 4.27173L82.4622 4.45867C83.0814 4.61931 83.6565 4.91553 84.1446 5.3254C84.3714 5.5463 84.5498 5.81155 84.667 6.10417C84.7842 6.39679 84.839 6.71032 84.8272 7.02491C84.8755 7.5066 84.8111 7.99275 84.6401 8.44632C84.4692 8.8999 84.1951 9.30891 83.8403 9.64206C83.0706 10.2516 82.1053 10.5674 81.1195 10.5315C79.9101 10.528 78.7319 10.1517 77.7505 9.45522L78.8179 7.47243C79.4124 8.05163 80.1993 8.39794 81.0335 8.44685C81.328 8.45247 81.6172 8.37163 81.8656 8.2146C81.9849 8.13619 82.0816 8.02882 82.1472 7.90288C82.2128 7.77694 82.2439 7.63646 82.2386 7.49514C82.2257 7.32984 82.1655 7.17175 82.0634 7.03997C81.9612 6.9082 81.8226 6.80846 81.6645 6.75297C81.3592 6.61027 81.04 6.49833 80.7121 6.41876C80.0359 6.27361 79.3974 5.99414 78.8351 5.59733C78.5836 5.36073 78.389 5.0714 78.2665 4.75087C78.1428 4.43024 78.0945 4.08658 78.1235 3.74494C78.1074 3.32436 78.1815 2.90516 78.3406 2.51482C78.4997 2.12437 78.7405 1.77138 79.0469 1.47897C79.3651 1.18539 79.7392 0.956641 80.1466 0.80598C80.5541 0.655319 80.9883 0.585613 81.4237 0.600891C82.4729 0.573093 83.5114 0.821473 84.4316 1.32035Z" fill="#CDCDCD"/>
<path fill-rule="evenodd" clip-rule="evenodd" d="M91.4395 8.60546H87.9952L87.3352 10.2482H84.6896L88.3919 0.79346H91.1127L94.7054 10.2482H92.0652L91.4395 8.60546ZM90.7676 6.72464L89.7518 3.71661L88.7187 6.72464H90.7676Z" fill="#CDCDCD"/>
<path fill-rule="evenodd" clip-rule="evenodd" d="M95.6868 10.2482V0.79346H98.1776L102.741 6.57737H102.764V0.79346H105.254V10.2482H102.764L98.2002 4.45867H98.1776V10.2482H95.6868Z" fill="#CDCDCD"/>
<path fill-rule="evenodd" clip-rule="evenodd" d="M113.296 1.02009V3.97719C113.046 3.6382 112.715 3.36563 112.333 3.18378C111.951 3.00192 111.528 2.91641 111.103 2.93487C110.759 2.92415 110.418 2.98579 110.1 3.11566C109.782 3.24563 109.496 3.44075 109.261 3.68828C108.789 4.19724 108.535 4.86768 108.556 5.55765C108.543 5.89802 108.599 6.23743 108.72 6.55637C108.842 6.87519 109.025 7.16728 109.261 7.41577C109.509 7.65439 109.805 7.8407 110.128 7.96336C110.452 8.08611 110.797 8.14266 111.144 8.12961C111.556 8.13651 111.966 8.04961 112.339 7.87571C112.712 7.70192 113.039 7.4457 113.296 7.12687V10.0726C112.586 10.3183 111.844 10.467 111.092 10.5145C109.76 10.5235 108.474 10.029 107.499 9.13225C106.995 8.68027 106.596 8.12547 106.33 7.50628C106.065 6.88719 105.939 6.21834 105.961 5.54641C105.949 4.90546 106.067 4.26865 106.31 3.67396C106.553 3.07938 106.914 2.5389 107.373 2.08512C107.839 1.59388 108.404 1.20417 109.032 0.940833C109.66 0.677494 110.336 0.546247 111.017 0.555584C111.801 0.561101 112.575 0.718978 113.296 1.02009Z" fill="#CDCDCD"/>
<path fill-rule="evenodd" clip-rule="evenodd" d="M119.84 2.87248H116.884V4.44169H119.69V6.52645H116.884V8.16919H119.84V10.2482H114.393V0.79346H119.84V2.87248Z" fill="#CDCDCD"/>
<path d="M125.55 23L122.107 15.0692H123.404L125.126 19.1536C125.229 19.3858 125.31 19.6067 125.378 19.8106C125.447 20.0146 125.499 20.2072 125.539 20.3772C125.589 20.1856 125.648 19.9966 125.717 19.8106L125.832 19.4934C125.872 19.3914 125.918 19.2895 125.97 19.1762L127.692 15.0918H129L125.55 23Z" fill="#CDCDCD"/>
<path d="M117.119 22.7055V15.0408H119.076C119.489 15.0311 119.902 15.0614 120.31 15.1314C120.556 15.1806 120.789 15.281 120.993 15.426C121.243 15.6002 121.441 15.8368 121.567 16.1115C121.705 16.404 121.774 16.7236 121.768 17.0462C121.78 17.4088 121.679 17.7663 121.481 18.0716C121.279 18.3509 120.985 18.5515 120.648 18.638C121.064 18.7059 121.436 18.9342 121.681 19.2725C121.953 19.6419 122.091 20.091 122.072 20.5471C122.075 20.849 122.02 21.1488 121.911 21.4309C121.807 21.699 121.647 21.9424 121.441 22.1446C121.223 22.3605 120.953 22.5151 120.655 22.5922C120.132 22.7031 119.598 22.7489 119.065 22.7282L117.119 22.7055ZM118.353 18.2755H118.812C119.252 18.3117 119.693 18.2273 120.086 18.0319C120.215 17.9402 120.318 17.8165 120.384 17.6734C120.449 17.5301 120.475 17.3725 120.459 17.2161C120.477 17.0524 120.455 16.8869 120.396 16.7332C120.336 16.5795 120.24 16.4421 120.115 16.3324C119.715 16.1226 119.263 16.0339 118.812 16.0775H118.33L118.353 18.2755ZM118.353 21.6745H118.812C119.142 21.6809 119.472 21.6638 119.799 21.6235C119.985 21.6002 120.164 21.5364 120.322 21.4365C120.476 21.3347 120.601 21.1939 120.683 21.0287C120.77 20.8523 120.813 20.6582 120.81 20.4621C120.815 20.241 120.761 20.0222 120.655 19.8277C120.554 19.6476 120.402 19.5001 120.218 19.4028C120.088 19.3393 119.949 19.2953 119.804 19.2725C119.602 19.2393 119.397 19.2241 119.191 19.2272H118.353V21.6745Z" fill="#CDCDCD"/>
</svg>
