<svg width="300" height="46" viewBox="0 0 300 46" fill="none" xmlns="http://www.w3.org/2000/svg">
<mask id="mask0_1087_563" style="mask-type:luminance" maskUnits="userSpaceOnUse" x="0" y="0" width="300" height="46">
<path d="M300 0H0V45.5927H300V0Z" fill="white"/>
</mask>
<g mask="url(#mask0_1087_563)">
<path d="M113.927 22.8494C113.927 21.4102 112.868 20.2323 111.408 20.2323C109.944 20.2323 108.905 21.3903 108.905 22.8494C108.905 24.2847 109.964 25.4633 111.425 25.4633C112.888 25.4633 113.927 24.3046 113.927 22.8494ZM108.153 22.8494C108.153 21.1025 109.48 19.5732 111.425 19.5732C113.372 19.5732 114.679 21.0853 114.679 22.8494C114.679 24.5925 113.352 26.1243 111.408 26.1243C109.46 26.1243 108.153 24.6123 108.153 22.8494Z" fill="#CDCDCD"/>
<path d="M116.223 19.6836H116.945V25.3539H120.547V26.0163H116.223V19.6836Z" fill="#CDCDCD"/>
<path d="M121.904 19.6836H126.525V20.3347H122.626V22.4953H126.114V23.1477H122.626V25.3639H126.572V26.0163H121.904V19.6836Z" fill="#CDCDCD"/>
<path d="M127.765 22.8494C127.765 21.1124 129.051 19.5732 130.969 19.5732C132.049 19.5732 132.717 19.8809 133.355 20.4143L132.891 20.9562C132.396 20.5327 131.848 20.2323 130.943 20.2323C129.526 20.2323 128.513 21.4201 128.513 22.8494C128.513 24.3575 129.489 25.4791 131.043 25.4791C131.775 25.4791 132.449 25.2019 132.891 24.8472V23.273H130.943V22.6304H133.582V25.1556C132.991 25.681 132.095 26.1243 131.016 26.1243C129.004 26.1243 127.765 24.6752 127.765 22.8494Z" fill="#CDCDCD"/>
<path d="M137.996 19.6836H138.718V23.4653L142.39 19.6836H143.323L140.583 22.4496L143.443 26.0163H142.538L140.082 22.9485L138.718 24.315V26.0163H137.996V19.6836Z" fill="#CDCDCD"/>
<path d="M144.589 19.6836H145.311V25.3539H148.91V26.0163H144.589V19.6836Z" fill="#CDCDCD"/>
<path d="M155.392 22.8494C155.392 21.4102 154.333 20.2323 152.87 20.2323C151.41 20.2323 150.367 21.3903 150.367 22.8494C150.367 24.2847 151.426 25.4633 152.889 25.4633C154.35 25.4633 155.392 24.3046 155.392 22.8494ZM149.618 22.8494C149.618 21.1025 150.942 19.5732 152.889 19.5732C154.834 19.5732 156.141 21.0853 156.141 22.8494C156.141 24.5925 154.818 26.1243 152.87 26.1243C150.925 26.1243 149.618 24.6123 149.618 22.8494Z" fill="#CDCDCD"/>
<path d="M159.907 25.3539C161.524 25.3539 162.557 24.2694 162.557 22.85C162.557 21.4464 161.524 20.342 159.907 20.342H158.41V25.3539H159.907ZM157.688 19.6836H159.907C161.918 19.6836 163.305 21.0501 163.305 22.85C163.305 24.63 161.918 26.0163 159.907 26.0163H157.688V19.6836Z" fill="#CDCDCD"/>
<path d="M166.079 20.342H163.931V19.6836H168.956V20.342H166.811V26.0163H166.079V20.342Z" fill="#CDCDCD"/>
<path d="M177.246 23.6997L175.793 20.4705L174.329 23.6997H177.246ZM175.465 19.6367H176.14L179.054 26.0165H178.279L177.527 24.3423H174.048L173.29 26.0165H172.548L175.465 19.6367Z" fill="#CDCDCD"/>
<path d="M183.024 22.9128C183.983 22.9128 184.668 22.4225 184.668 21.5927C184.668 20.8111 184.063 20.342 183.031 20.342H181.059V22.9128H183.024ZM180.338 19.6836H183.088C183.873 19.6836 184.504 19.9185 184.905 20.3149C185.216 20.6226 185.4 21.0659 185.4 21.5821C185.4 22.6309 184.668 23.2463 183.662 23.4283L185.627 26.0163H184.742L182.887 23.554H181.059V26.0163H180.338V19.6836Z" fill="#CDCDCD"/>
<path d="M186.679 22.8494C186.679 21.0555 188.033 19.5732 189.914 19.5732C191.077 19.5732 191.752 19.9968 192.39 20.5963L191.916 21.1025C191.378 20.5963 190.773 20.2323 189.907 20.2323C188.491 20.2323 187.431 21.3731 187.431 22.8494C187.431 24.3145 188.497 25.4633 189.907 25.4633C190.783 25.4633 191.357 25.1284 191.973 24.5494L192.447 25.0457C191.779 25.718 191.047 26.1243 189.887 26.1243C188.043 26.1243 186.679 24.6851 186.679 22.8494Z" fill="#CDCDCD"/>
<path d="M193.73 19.6836H194.452V22.4953H198.141V19.6836H198.863V26.0163H198.141V23.1636H194.452V26.0163H193.73V19.6836Z" fill="#CDCDCD"/>
<path d="M200.757 19.6836H201.479V26.0163H200.757V19.6836Z" fill="#CDCDCD"/>
<path d="M205.068 20.342H202.919V19.6836H207.945V20.342H205.8V26.0163H205.068V20.342Z" fill="#CDCDCD"/>
<path d="M209.322 19.6836H213.943V20.3347H210.044V22.4953H213.532V23.1477H210.044V25.3639H213.99V26.0163H209.322V19.6836Z" fill="#CDCDCD"/>
<path d="M215.183 22.8494C215.183 21.0555 216.533 19.5732 218.417 19.5732C219.577 19.5732 220.252 19.9968 220.893 20.5963L220.416 21.1025C219.878 20.5963 219.276 20.2323 218.407 20.2323C216.991 20.2323 215.932 21.3731 215.932 22.8494C215.932 24.3145 217.001 25.4633 218.407 25.4633C219.283 25.4633 219.861 25.1284 220.473 24.5494L220.947 25.0457C220.279 25.718 219.55 26.1243 218.387 26.1243C216.543 26.1243 215.183 24.6851 215.183 22.8494Z" fill="#CDCDCD"/>
<path d="M223.917 20.342H221.772V19.6836H226.798V20.342H224.649V26.0163H223.917V20.342Z" fill="#CDCDCD"/>
<path d="M228.071 23.3654V19.6836H228.793V23.3191C228.793 24.6856 229.524 25.4539 230.748 25.4539C231.927 25.4539 232.676 24.7484 232.676 23.3654V19.6836H233.397V23.3092C233.397 25.1561 232.328 26.1149 230.731 26.1149C229.15 26.1149 228.071 25.1561 228.071 23.3654Z" fill="#CDCDCD"/>
<path d="M237.815 22.9128C238.774 22.9128 239.459 22.4225 239.459 21.5927C239.459 20.8111 238.854 20.342 237.821 20.342H235.85V22.9128H237.815ZM235.128 19.6836H237.878C238.664 19.6836 239.295 19.9185 239.696 20.3149C240.007 20.6226 240.191 21.0659 240.191 21.5821C240.191 22.6309 239.459 23.2463 238.453 23.4283L240.418 26.0163H239.533L237.678 23.554H235.85V26.0163H235.128V19.6836Z" fill="#CDCDCD"/>
<path d="M241.755 19.6836H246.379V20.3347H242.476V22.4953H245.968V23.1477H242.476V25.3639H246.426V26.0163H241.755V19.6836Z" fill="#CDCDCD"/>
<path d="M253.644 21.0396C253.644 20.5327 253.26 20.1622 252.738 20.1622C252.164 20.1622 251.769 20.5592 251.769 21.0926C251.769 21.4632 251.927 21.7437 252.411 22.2599C253.223 21.9886 253.644 21.5988 253.644 21.0396ZM253.835 24.6752L252.127 22.9282C251.278 23.2359 250.904 23.752 250.904 24.3046C250.904 24.9829 251.452 25.499 252.237 25.499C252.838 25.499 253.37 25.1814 253.835 24.6752ZM254.275 25.1185C253.691 25.7439 253.013 26.1045 252.18 26.1045C251.031 26.1045 250.172 25.3905 250.172 24.3145C250.172 23.4708 250.737 22.8654 251.716 22.4848C251.278 21.9793 251.078 21.5922 251.078 21.0754C251.078 20.2416 251.753 19.5732 252.765 19.5732C253.66 19.5732 254.319 20.2151 254.319 21.0198C254.319 21.8264 253.744 22.3432 252.812 22.6675L254.275 24.1431C254.556 23.7355 254.813 23.2558 255.04 22.7297L255.635 23.001C255.351 23.6005 255.061 24.1431 254.713 24.5925L255.826 25.724L255.278 26.1416L254.275 25.1185Z" fill="#CDCDCD"/>
<path d="M262.034 25.3539C263.651 25.3539 264.681 24.2694 264.681 22.85C264.681 21.4464 263.651 20.342 262.034 20.342H260.534V25.3539H262.034ZM259.812 19.6836H262.034C264.043 19.6836 265.432 21.0501 265.432 22.85C265.432 24.63 264.043 26.0163 262.034 26.0163H259.812V19.6836Z" fill="#CDCDCD"/>
<path d="M266.98 19.6836H271.602V20.3347H267.703V22.4953H271.191V23.1477H267.703V25.3639H271.648V26.0163H266.98V19.6836Z" fill="#CDCDCD"/>
<path d="M272.702 25.0941L273.148 24.568C273.817 25.1662 274.455 25.4646 275.343 25.4646C276.202 25.4646 276.767 25.0114 276.767 24.3688C276.767 23.7805 276.447 23.4463 275.103 23.1645C273.632 22.8508 272.958 22.3803 272.958 21.3216C272.958 20.3257 273.843 19.5918 275.059 19.5918C275.992 19.5918 276.657 19.8565 277.305 20.3727L276.888 20.9219C276.292 20.4415 275.697 20.2337 275.04 20.2337C274.207 20.2337 273.68 20.6863 273.68 21.2759C273.68 21.8708 274.007 22.2083 275.413 22.5061C276.84 22.8137 277.499 23.3299 277.499 24.3159C277.499 25.4018 276.583 26.1059 275.314 26.1059C274.301 26.1059 273.469 25.7723 272.702 25.0941Z" fill="#CDCDCD"/>
<path d="M279.056 19.6836H279.778V26.0163H279.056V19.6836Z" fill="#CDCDCD"/>
<path d="M281.392 22.8494C281.392 21.1124 282.681 19.5732 284.6 19.5732C285.675 19.5732 286.344 19.8809 286.982 20.4143L286.518 20.9562C286.024 20.5327 285.475 20.2323 284.573 20.2323C283.156 20.2323 282.14 21.4201 282.14 22.8494C282.14 24.3575 283.119 25.4791 284.674 25.4791C285.401 25.4791 286.08 25.2019 286.518 24.8472V23.273H284.573V22.6304H287.213V25.1556C286.617 25.681 285.723 26.1243 284.643 26.1243C282.635 26.1243 281.392 24.6752 281.392 22.8494Z" fill="#CDCDCD"/>
<path d="M288.86 19.6836H289.534L293.565 24.7584V19.6836H294.27V26.0163H293.695L289.565 20.8211V26.0163H288.86V19.6836Z" fill="#CDCDCD"/>
<path d="M65.1502 22.8704C65.0458 23.6145 63.435 24.4224 62.7224 24.0753C60.4204 22.8795 65.5906 19.7775 65.1502 22.8704ZM66.9967 21.0407C66.8513 21.4101 67.9683 21.4161 68.3873 22.1475C69.2198 25.8975 67.6514 31.1329 67.1403 34.4476C64.744 30.6517 68.2127 22.0762 65.0376 21.0958C61.8634 20.1154 59.4352 24.036 62.1611 24.7892C63.7341 25.225 64.4458 23.777 65.2929 24.0753C65.452 28.6312 64.7389 33.4127 67.1645 36.6806C68.3203 36.3576 68.2332 34.9008 68.1862 34.1377C67.9364 29.9595 69.6023 26.0129 69.6735 21.9472C73.9227 21.4034 83.0225 22.4025 90.3429 22.3535C91.4795 22.3463 91.9345 21.6705 92.0057 20.9409C74.6271 20.9106 75.2234 21.5248 66.9967 21.0407Z" fill="#CDCDCD"/>
<path d="M34.3142 23.0051C32.6129 22.9854 30.9158 22.9323 29.2193 22.8267C27.4633 22.7178 25.1222 22.7744 23.2639 22.1604C23.211 21.4091 23.1601 20.666 23.1137 19.9406C23.6188 19.7444 24.1099 19.6371 24.7703 19.458C26.0535 19.112 27.3593 18.8358 28.6766 18.6021C32.3007 19.1434 35.4422 20.2037 35.5538 21.5635C35.594 22.0401 35.1084 22.5312 34.3142 23.0051ZM24.1055 25.8663L23.5355 25.9321C23.4704 25.0144 23.4004 24.066 23.3315 23.115C23.5396 23.1548 23.7444 23.1924 23.9263 23.2288C26.1351 23.6583 28.4513 23.6618 30.696 23.7549C31.3628 23.7817 32.0341 23.7867 32.7106 23.7822C29.9462 24.9129 25.9122 25.7956 24.1055 25.8663ZM23.012 18.2106H23.7861C24.5218 18.2172 25.2877 18.252 26.0552 18.3098C25.1747 18.5171 24.3505 18.7417 23.6325 18.9851C23.4874 19.0351 23.2895 19.1095 23.068 19.2026C23.0486 18.8651 23.028 18.5334 23.012 18.2106ZM2.12293 22.733C2.01481 22.5838 1.94389 22.4446 1.91737 22.3203C1.6037 20.8487 5.2943 19.7201 5.38754 19.7115C4.00451 20.2472 3.60805 20.8461 3.70951 21.4673C3.8107 22.0986 6.73448 26.0828 22.3492 22.8868C22.4112 22.905 22.4731 22.9201 22.5346 22.9365C22.6706 23.8894 22.7632 24.8218 22.7615 25.9888C9.06573 26.8355 3.42608 24.2861 2.12293 22.733ZM21.8817 18.2379C21.9358 18.7645 21.9918 19.2527 22.0512 19.6989C20.9548 20.316 19.9433 21.2224 20.8769 22.1361C21.0469 22.3046 21.2559 22.4406 21.4868 22.559C10.8444 24.4293 7.11605 22.4396 6.54067 21.1415C5.9466 19.8121 10.2364 18.6497 21.8817 18.2379ZM22.3612 21.785C22.1643 21.6818 21.9758 21.5721 21.8003 21.4472C21.3043 21.09 21.7513 20.6873 22.1527 20.4318C22.2223 20.916 22.2926 21.3621 22.3612 21.785ZM57.6469 19.3356C57.6469 19.3356 56.5836 19.7798 57.1052 20.224C57.4285 20.4966 58.6048 20.1632 59.5928 20.5932C60.6482 21.0525 60.563 23.1377 58.8355 23.5525C57.7271 23.8186 56.1427 23.1808 56.2572 22.5874C56.4779 21.4244 56.4993 20.8684 55.3362 22.131C55.2459 22.2266 55.1803 22.3212 55.1219 22.4122C54.5452 22.903 53.8745 23.2536 53.0525 23.289C52.0978 23.328 51.7645 22.5792 52.2117 21.8396C52.4707 21.4102 52.1374 21.2074 51.8078 21.5736C51.19 22.2595 47.2923 24.4914 46.6285 22.7351C46.6075 22.6891 46.5696 22.6648 46.5163 22.6622C43.453 22.8348 40.3774 22.9678 37.3018 23.0051C37.4492 22.8362 37.552 22.6637 37.6059 22.4943C37.6663 22.3951 37.6963 22.3 37.6977 22.2079C37.7007 21.1041 36.3479 20.2598 34.4774 19.6174C33.2074 19.1449 31.6167 18.7312 29.8121 18.4109C32.3665 18.0129 34.9562 17.7695 37.5127 17.555C37.881 17.5256 38.3116 16.609 37.6318 16.6247C37.1079 16.6363 31.7768 17.1139 27.2719 18.0427C26.1436 17.9111 24.9597 17.816 23.7424 17.7644C23.4946 17.7441 23.2396 17.7279 22.9864 17.7118C22.9052 16.0718 22.8735 14.6857 22.9376 13.8287C22.8444 12.9485 21.1514 13.8703 21.1879 14.714C21.2014 15.0084 21.6583 15.3286 21.6753 15.6013C21.7167 16.3571 21.7682 17.0318 21.8243 17.6481C19.0993 17.5327 16.1732 17.6187 13.3772 17.8747C4.8392 18.4762 -0.978567 20.3827 0.256973 23.1175C0.32854 23.2823 0.437067 23.4357 0.561053 23.5849C3.28745 26.8983 17.6642 26.9671 22.753 26.5745C22.7462 26.8517 22.7352 27.1401 22.7166 27.4457L22.5771 28.5505C22.6431 28.8469 23.798 29.0199 23.7294 28.7292C23.685 28.0355 23.6328 27.2807 23.5778 26.5017C30.6458 25.7995 34.6831 24.7696 36.494 23.6583C38.1287 23.5738 39.7624 23.4665 41.3723 23.4089C42.4125 23.3714 43.8588 23.3077 44.9008 23.2551C45.6396 23.2167 46.0955 23.3618 46.5304 23.9087C47.0242 24.5244 47.8221 24.157 48.3605 24.0372C49.4739 23.7884 50.419 23.4382 51.242 22.8125C51.1289 23.4231 51.2785 24.0209 52.0804 24.1798C53.1665 24.3923 54.1713 23.9168 55.0011 23.251C55.2592 23.9056 56.3707 24.2977 57.444 24.2001C59.5586 24.0058 60.3386 23.1802 60.6076 21.8918C60.6993 21.4502 60.9341 19.9579 57.6469 19.3356Z" fill="#CDCDCD"/>
</g>
</svg>
