<svg width="131" height="14" viewBox="0 0 131 14" fill="none" xmlns="http://www.w3.org/2000/svg">
<path d="M59.476 4.17212H56.3546L56.331 4.56947C56.0024 10.6947 54.9582 11.3201 53.7607 11.3201C53.5024 11.3201 53.2799 11.2845 53.1036 11.1998V9.68376C53.2209 9.73217 53.3501 9.74425 53.4558 9.74425C54.0191 9.74425 54.688 9.38312 54.9223 4.53325L55.0048 2.78797H60.9421V11.2119H59.476V4.17212Z" fill="#CDCDCD"/>
<path d="M66.8923 2.65548C69.5328 2.66756 71.2934 4.29197 71.2934 7.01173C71.2934 9.55127 69.5681 11.3438 66.8923 11.3438C64.2523 11.3438 62.4918 9.71898 62.4918 6.98759C62.4918 4.44861 64.2165 2.65548 66.8923 2.65548ZM66.9037 9.96026C68.6523 9.96026 69.7435 8.76909 69.7435 6.99966C69.7435 5.35121 68.7576 4.0517 66.8803 4.03963C65.1198 4.0517 64.0404 5.24287 64.0404 6.99966C64.0404 8.64823 65.0264 9.94819 66.9037 9.96026Z" fill="#CDCDCD"/>
<path d="M78.4035 4.17212H74.2973V11.2114H72.8307V2.78741H78.4035V4.17212Z" fill="#CDCDCD"/>
<path d="M81.1621 9.08181L85.6445 2.78741H87.2405V11.2114H85.7744V4.82182L81.268 11.2114H79.696V2.78741H81.1621V9.08181Z" fill="#CDCDCD"/>
<path d="M96.1595 10.2846C95.7479 10.7903 94.6693 11.3438 93.2491 11.3438C90.5734 11.3318 88.7896 9.70691 88.7896 6.98759C88.7896 4.44861 90.5494 2.65548 93.272 2.65548C94.5634 2.65548 95.5132 3.06446 95.9946 3.41351V5.50729C95.5023 4.76133 94.5045 4.03963 93.272 4.03963C91.4762 4.03963 90.3736 5.2308 90.3736 6.99966C90.3736 8.63604 91.3474 9.9246 93.2371 9.96026C94.6682 9.96026 95.678 9.28641 96.1584 8.43166L96.1595 10.2846Z" fill="#CDCDCD"/>
<path d="M103.763 4.17212H100.993V11.2114H99.5273V4.17212H96.8046V2.78741H103.763V4.17212Z" fill="#CDCDCD"/>
<path d="M106.463 9.08181L110.945 2.78741H112.541V11.2114H111.074V4.82182L106.567 11.2114H104.995V2.78741H106.463V9.08181Z" fill="#CDCDCD"/>
<path d="M116.144 11.2114H114.676V2.78741H116.144V6.32571H117.375L120.016 2.78741H121.799L118.666 6.79517L122.305 11.2114H120.426L117.446 7.56528H116.144V11.2114Z" fill="#CDCDCD"/>
<path d="M127.62 2.78797L131 11.2119H129.439L128.653 9.21429H124.887L124.112 11.2119H122.621L125.954 2.78797H127.62ZM125.414 7.83015H128.113L126.763 4.3765L125.414 7.83015Z" fill="#CDCDCD"/>
<path d="M39.759 4.19023L41.6148 2.78741H35.4038V11.2114H41.6148V9.8091H37.1765V7.65216H40.9624V6.2499H37.1765V4.19023H39.759Z" fill="#CDCDCD"/>
<path d="M30.7159 6.07124H28.559V4.19023H32.0024L33.8582 2.78741H26.7863V11.2114H30.4871C32.5631 11.2114 33.7536 10.2467 33.7536 8.56516C33.7541 6.9574 32.6751 6.07124 30.7159 6.07124ZM30.4072 9.8091H28.559V7.47405H30.4072C31.5324 7.47405 32.056 7.86481 32.056 8.64152C32.0566 9.43534 31.5018 9.8091 30.4072 9.8091Z" fill="#CDCDCD"/>
<path d="M46.6467 2.78797H43.265V11.2119H45.0376V8.82578H46.6467C48.8047 8.82578 50.1453 7.662 50.1453 5.80246C50.1453 3.94292 48.8047 2.78797 46.6467 2.78797ZM46.6087 7.42296H45.0376V4.19023H46.6087C47.7445 4.19023 48.37 4.76413 48.37 5.80637C48.37 6.84906 47.7445 7.42296 46.6087 7.42296Z" fill="#CDCDCD"/>
<path d="M23.744 9.38748C23.2894 9.64474 22.7604 9.78048 22.2136 9.78048C20.6157 9.78048 19.4558 8.61077 19.4558 6.9991C19.4558 5.38743 20.6157 4.21774 22.2136 4.21774C22.8182 4.21774 23.3601 4.39192 23.826 4.73494L25.0974 3.77409L25.0132 3.69817C24.2708 3.02924 23.2792 2.67583 22.145 2.67583C20.9148 2.67583 19.7983 3.10125 19.0012 3.8736C18.1994 4.65087 17.7583 5.74365 17.7583 6.95181C17.7583 8.16557 18.1983 9.27478 18.997 10.0756C19.7982 10.8788 20.9122 11.3214 22.1338 11.3214C23.4116 11.3214 24.527 10.8645 25.2833 10.0334C24.6996 9.59254 24.1363 9.16656 24.1363 9.16656L23.744 9.38748Z" fill="#CDCDCD"/>
<path d="M12.2271 2.71977C12.5493 3.14686 12.8248 3.61354 13.0451 4.11107L6.82576 8.81191L4.22715 7.14143V5.13185L6.82576 6.80233L12.2271 2.71977Z" fill="#CDCDCD"/>
<path d="M1.57691 6.99966C1.57691 6.90955 1.5791 6.81988 1.58335 6.73088L0.00862443 6.65005C0.00316609 6.76599 0 6.88261 0 6.99966C0 8.93233 0.763838 10.6826 1.99939 11.949L3.11583 10.8041C2.16554 9.82945 1.57691 8.48388 1.57691 6.99966Z" fill="#CDCDCD"/>
<path d="M6.82576 1.61659C6.91364 1.61659 7.00108 1.61983 7.08786 1.6243L7.16668 0.00872197C7.05359 0.00324353 6.93995 0 6.82576 0C4.9411 0 3.2345 0.783303 1.9995 2.05028L3.11595 3.19527C4.06635 2.22011 5.37853 1.61659 6.82576 1.61659Z" fill="#CDCDCD"/>
<path d="M6.82576 12.3827C6.73788 12.3827 6.65043 12.3805 6.56365 12.3761L6.48483 13.9912C6.59792 13.9966 6.71157 14 6.82576 14C8.7103 14 10.4169 13.2167 11.6519 11.9496L10.5355 10.8046C9.58505 11.7787 8.27298 12.3827 6.82576 12.3827Z" fill="#CDCDCD"/>
<path d="M9.78493 2.55597L11.1127 1.55286C9.94094 0.581494 8.44994 0 6.82576 0V1.61659C7.92299 1.61603 8.94184 1.96396 9.78493 2.55597Z" fill="#CDCDCD"/>
<path d="M13.6513 6.99966C13.6513 6.57145 13.6137 6.15263 13.5419 5.74532L12.0726 6.85566C12.0737 6.90351 12.0748 6.95125 12.0748 6.9991C12.0748 8.57947 11.4069 10.0032 10.3456 10.9888L11.4054 12.1899C12.7845 10.9096 13.6513 9.05833 13.6513 6.99966Z" fill="#CDCDCD"/>
<path d="M6.82576 12.3827C5.28465 12.3827 3.89627 11.6978 2.93527 10.6094L1.76402 11.6961C3.013 13.1111 4.81829 14 6.82576 14V12.3827Z" fill="#CDCDCD"/>
<path d="M3.30557 3.01002L2.24589 1.809C0.866129 3.08973 0 4.94111 0 6.99966H1.57691C1.57746 5.41874 2.24425 3.99569 3.30557 3.01002Z" fill="#CDCDCD"/>
</svg>
