<svg width="45" height="45" viewBox="0 0 45 45" fill="none" xmlns="http://www.w3.org/2000/svg">
<circle cx="22.5" cy="22.5" r="22" stroke="#CDCDCD"/>
<path d="M20.6396 21.876C21.0754 21.6589 21.4048 21.4171 21.6306 21.1558C22.0323 20.6852 22.2305 20.0612 22.2305 19.2877C22.2305 18.535 22.0323 17.8915 21.6358 17.352C20.9743 16.4732 19.8546 16.0234 18.2716 16H12V28.6789H17.8477C18.5066 28.6789 19.117 28.623 19.6814 28.5086C20.2458 28.3929 20.7341 28.181 21.1476 27.8716C21.5151 27.6025 21.8222 27.2684 22.0664 26.8745C22.4523 26.2791 22.6452 25.6044 22.6452 24.853C22.6452 24.125 22.4759 23.5049 22.1399 22.9953C21.7999 22.4857 21.3011 22.1126 20.6396 21.876ZM14.5871 18.2022H17.4119C18.0327 18.2022 18.5447 18.2685 18.9463 18.3998C19.411 18.5909 19.6433 18.9796 19.6433 19.5724C19.6433 20.1041 19.4661 20.4759 19.1156 20.6852C18.7625 20.8945 18.3044 20.9998 17.7427 20.9998H14.5871V18.2022ZM19.0539 26.2557C18.7415 26.4052 18.3018 26.4793 17.7387 26.4793H14.5871V23.098H17.782C18.3386 23.1019 18.7717 23.1747 19.0815 23.3112C19.6328 23.5582 19.9071 24.0106 19.9071 24.6723C19.9071 25.4523 19.6236 25.9775 19.0539 26.2557Z" fill="black"/>
<path d="M30.9816 16.5915H25.4201V18.1697H30.9816V16.5915Z" fill="black"/>
<path d="M32.9138 22.8198C32.7982 22.0853 32.5436 21.4392 32.1472 20.8815C31.7127 20.2497 31.1614 19.7869 30.4907 19.4944C29.8226 19.2006 29.0704 19.0537 28.233 19.055C26.8272 19.055 25.6852 19.4905 24.8019 20.355C23.9211 21.2221 23.4801 22.4688 23.4801 24.0938C23.4801 25.8267 23.967 27.0786 24.9462 27.8469C25.9215 28.6165 27.0477 29 28.3262 29C29.8738 29 31.0774 28.5437 31.9372 27.6337C32.4872 27.0591 32.7983 26.4936 32.8665 25.9385H30.3043C30.156 26.2128 29.984 26.4273 29.7871 26.5833C29.4301 26.8693 28.9654 27.0123 28.3958 27.0123C27.8537 27.0123 27.3942 26.894 27.011 26.6587C26.3783 26.2817 26.0475 25.6213 26.0055 24.6814H32.9978C33.0083 23.8715 32.982 23.2488 32.9138 22.8198ZM26.0685 23.0629C26.1604 22.4532 26.3835 21.9696 26.7379 21.6121C27.0923 21.2559 27.5938 21.0765 28.2356 21.0752C28.8276 21.0752 29.3225 21.2429 29.7254 21.5796C30.1232 21.9189 30.3476 22.4116 30.3936 23.0629H26.0685Z" fill="black"/>
</svg>
