<svg width="226" height="21" viewBox="0 0 226 21" fill="none" xmlns="http://www.w3.org/2000/svg">
<path d="M40.2454 20.9172C40.2454 20.9628 40.2839 20.9998 40.3312 20.9998H55.5776C55.6249 20.9998 55.6634 20.9628 55.6634 20.9172V18.5363C55.6634 18.4906 55.6249 18.4536 55.5776 18.4536H43.0417V11.6551H54.7339C54.7812 11.6551 54.8197 11.6181 54.8197 11.5724V9.19159C54.8197 9.14591 54.7812 9.1089 54.7339 9.1089H43.0417V2.54843H55.4645C55.5119 2.54843 55.5503 2.5114 55.5503 2.46574V0.0849075C55.5503 0.0392405 55.5119 0.00222058 55.4645 0.00222058H40.3312C40.2839 0.00222058 40.2454 0.0392405 40.2454 0.0849075V20.9172Z" fill="white"/>
<path d="M74.9617 20.9172C74.9617 20.9628 75 20.9998 75.0475 20.9998H90.9395C90.9869 20.9998 91.0253 20.9628 91.0253 20.9172V17.4948C91.0253 17.4491 90.9869 17.4121 90.9395 17.4121H78.9315V0.0849075C78.9315 0.0392405 78.8931 0.00222058 78.8457 0.00222058H75.0475C75 0.00222058 74.9617 0.0392405 74.9617 0.0849075V20.9172Z" fill="white"/>
<path d="M103.173 4.54897C103.173 4.59463 103.211 4.63166 103.259 4.63166H110.441V20.9172C110.441 20.9628 110.479 20.9998 110.526 20.9998H115.467C115.515 20.9998 115.553 20.9628 115.553 20.9172V4.63166H122.735C122.782 4.63166 122.821 4.59463 122.821 4.54897V0.0849075C122.821 0.0392405 122.782 0.00222058 122.735 0.00222058H103.259C103.211 0.00222058 103.173 0.0392405 103.173 0.0849075V4.54897Z" fill="white"/>
<path d="M139.975 3.50735C139.975 3.55301 140.013 3.59004 140.06 3.59004H151.606L139.821 18.3669C139.81 18.3813 139.803 18.399 139.803 18.4172V20.9172C139.803 20.9628 139.842 20.9998 139.889 20.9998H157.244C157.291 20.9998 157.329 20.9628 157.329 20.9172V17.4948C157.329 17.4491 157.291 17.4121 157.244 17.4121H145.324L157.139 2.66506C157.15 2.65059 157.156 2.63283 157.156 2.61454V0.0849075C157.156 0.0392405 157.118 0.00222058 157.071 0.00222058H140.06C140.013 0.00222058 139.975 0.0392405 139.975 0.0849075V3.50735Z" fill="white"/>
<path d="M176.328 20.9172C176.328 20.9628 176.367 20.9998 176.414 20.9998H191.66C191.708 20.9998 191.746 20.9628 191.746 20.9172V18.5363C191.746 18.4906 191.708 18.4536 191.66 18.4536H179.125V11.6551H190.817C190.864 11.6551 190.903 11.6181 190.903 11.5724V9.19159C190.903 9.14591 190.864 9.1089 190.817 9.1089H179.125V2.54843H191.548C191.595 2.54843 191.634 2.5114 191.634 2.46574V0.0849075C191.634 0.0392405 191.595 0.00222058 191.548 0.00222058H176.414C176.367 0.00222058 176.328 0.0392405 176.328 0.0849075V20.9172Z" fill="white"/>
<path fill-rule="evenodd" clip-rule="evenodd" d="M212.797 20.9998C212.845 20.9998 212.882 20.9628 212.882 20.9172V12.2503H217.05L223.746 20.9664C223.761 20.9874 223.787 20.9998 223.814 20.9998H225.915C225.947 20.9998 225.977 20.9821 225.99 20.954C226.006 20.9261 226.002 20.8925 225.983 20.8674L218.972 11.8932C221.841 11.257 224.034 9.18083 224.034 6.20236C224.034 4.5934 223.518 3.04016 222.298 1.88926C221.076 0.738236 219.161 0 216.383 0C216.125 0 215.597 0.000385981 214.579 0.000835959L214.133 0.00110883C212.867 0.00166316 211.702 0.00221748 211.099 0.00221748C211.051 0.00221748 211.014 0.0392374 211.014 0.0849044V20.9172C211.014 20.9628 211.051 20.9998 211.099 20.9998H212.797ZM216.29 1.65561C218.413 1.65561 219.856 2.17708 220.767 2.99939C221.678 3.82116 222.071 4.95426 222.071 6.20236C222.071 7.56518 221.572 8.64493 220.649 9.38556C219.724 10.1279 218.363 10.5374 216.63 10.5374H212.882V1.71275C213.948 1.68382 215.66 1.65561 216.29 1.65561Z" fill="white"/>
<path d="M1.86999 20.9173V2.98706L10.165 13.9281C10.1811 13.9494 10.2068 13.962 10.2342 13.962C10.2616 13.962 10.2874 13.9494 10.3035 13.9281L18.5985 2.98706V20.9173C18.5985 20.963 18.6369 21 18.6843 21H20.3827C20.4301 21 20.4685 20.963 20.4685 20.9173V0.0850686C20.4685 0.039402 20.4301 0.00238207 20.3827 0.00238207H18.6534C18.6261 0.00238207 18.6004 0.014912 18.5843 0.0361255L10.2342 10.9942L1.88421 0.0361255C1.86805 0.014912 1.84238 0.00238207 1.81506 0.00238207H0.0857963C0.0384124 0.00238207 0 0.039402 0 0.0850686V20.9173C0 20.963 0.0384124 21 0.0857963 21H1.78419C1.83157 21 1.86999 20.963 1.86999 20.9173Z" fill="white"/>
</svg>
