<svg width="45" height="45" viewBox="0 0 45 45" fill="none" xmlns="http://www.w3.org/2000/svg">
<circle cx="22.5" cy="22.5" r="22" stroke="#CDCDCD"/>
<path fill-rule="evenodd" clip-rule="evenodd" d="M21.8122 13.0061C20.3758 13.1459 19.2926 13.4559 18.1178 14.0633C16.3243 14.9905 14.8761 16.466 13.9807 18.2785C13.6367 18.9748 13.4746 19.4016 13.2948 20.0845C13.0681 20.9452 13.0021 21.4685 13 22.4207C12.999 22.8947 13.0186 23.4093 13.0453 23.6095C13.2481 25.1316 13.7262 26.4434 14.5257 27.6715L14.7921 28.0809L14.2002 29.8259C13.8746 30.7857 13.6134 31.5761 13.6196 31.5824C13.626 31.5887 14.4403 31.3354 15.4293 31.0194C16.4183 30.7035 17.2407 30.445 17.2569 30.445C17.273 30.445 17.4257 30.5316 17.5961 30.6374C17.7666 30.7432 18.1236 30.9337 18.3896 31.0608C20.7949 32.2103 23.5445 32.3087 26.0073 31.3334C28.7978 30.2283 30.9412 27.8108 31.7062 24.9054C31.9406 24.0156 32 23.5277 32 22.495C32 21.4622 31.9406 20.9744 31.7062 20.0845C30.8087 16.6761 28.073 14.0268 24.621 13.2228C24.041 13.0878 23.4375 13.0193 22.7051 13.0056C22.2959 12.9979 21.8941 12.9982 21.8122 13.0061ZM19.5433 17.4144C19.6049 17.4464 19.6912 17.5368 19.7352 17.6154C19.8461 17.814 20.7505 19.9892 20.7768 20.1208C20.8105 20.2891 20.6457 20.5753 20.2759 20.9904C19.89 21.4236 19.8071 21.5627 19.8414 21.719C19.9038 22.0024 20.7642 23.1419 21.2943 23.6429C22.1169 24.4205 23.3602 25.1588 23.9142 25.1987C24.199 25.2193 24.3029 25.1388 24.7386 24.5596C24.9363 24.2969 25.1471 24.0329 25.2071 23.9729C25.3506 23.8297 25.5636 23.7993 25.8025 23.8881C26.1089 24.002 27.9822 24.9129 28.1137 25.012L28.2396 25.1069L28.2188 25.5005C28.1655 26.5111 27.8105 27.0358 26.8717 27.492C25.9792 27.9258 25.2806 27.9139 23.9128 27.4418C22.0778 26.8085 21.1037 26.2035 19.7839 24.8772C19.1235 24.2136 18.6542 23.6526 18.1174 22.885C17.2329 21.6202 16.8937 20.6435 16.9946 19.6523C17.0756 18.8575 17.3537 18.2708 17.9154 17.7099C18.1871 17.4385 18.5427 17.3268 19.0779 17.3446C19.3049 17.3522 19.4714 17.3771 19.5433 17.4144Z" fill="black"/>
</svg>
