<svg width="45" height="45" viewBox="0 0 45 45" fill="none" xmlns="http://www.w3.org/2000/svg">
<circle cx="22.5" cy="22.5" r="22" stroke="#CDCDCD"/>
<path fill-rule="evenodd" clip-rule="evenodd" d="M30.6529 14.0923C29.3216 14.5921 12.9143 21.0248 12.6726 21.1417C11.8696 21.5301 11.7757 22.0431 12.4442 22.3901C12.5088 22.4236 13.6193 22.7861 14.9121 23.1955L17.2627 23.94L22.6002 20.5327C25.5357 18.6586 27.9967 17.1042 28.0689 17.0786C28.2502 17.0141 28.4062 17.0201 28.479 17.0944C28.53 17.1464 28.5321 17.1725 28.4916 17.249C28.4648 17.2996 26.5154 19.1062 24.1596 21.2637C21.8038 23.4213 19.87 25.2034 19.8622 25.2241C19.8545 25.2447 19.7748 26.3219 19.6852 27.6178L19.5222 29.974L19.6993 29.9496C19.7967 29.9362 19.9509 29.8849 20.042 29.8356C20.1332 29.7863 20.7465 29.2193 21.405 28.5757C22.0635 27.932 22.6251 27.3965 22.653 27.3855C22.6808 27.3746 23.7295 28.1327 24.9833 29.0701C26.2371 30.0075 27.3612 30.8209 27.4813 30.8775C27.7963 31.026 28.1511 31.0407 28.3815 30.9149C28.5874 30.8025 28.7885 30.5233 28.8731 30.2326C28.9059 30.12 29.6227 26.7401 30.4661 22.7215C31.8702 16.0309 31.9995 15.3831 32 15.0359C32.0005 14.7078 31.9871 14.6297 31.9009 14.457C31.8402 14.3353 31.7366 14.211 31.6354 14.1383C31.4039 13.9722 31.0207 13.9543 30.6529 14.0923Z" fill="black"/>
</svg>
