<svg width="45" height="45" viewBox="0 0 45 45" fill="none" xmlns="http://www.w3.org/2000/svg">
<circle cx="22.5" cy="22.5" r="22" stroke="#CDCDCD"/>
<path d="M32.5879 18.1907C32.3575 17.334 31.6819 16.6588 30.8252 16.4281C29.2602 16 22.9998 16 22.9998 16C22.9998 16 16.7396 16 15.1746 16.4119C14.3344 16.6423 13.6423 17.3342 13.4119 18.1907C13 19.7553 13 23 13 23C13 23 13 26.2611 13.4119 27.8093C13.6426 28.6658 14.3179 29.3411 15.1747 29.5718C16.7561 30 23 30 23 30C23 30 29.2602 30 30.8252 29.5881C31.682 29.3576 32.3575 28.6823 32.5882 27.8258C32.9999 26.2611 32.9999 23.0165 32.9999 23.0165C32.9999 23.0165 33.0164 19.7553 32.5879 18.1907ZM21.0066 25.9976V20.0024L26.2124 23L21.0066 25.9976Z" fill="black"/>
</svg>
