<svg width="11" height="11" viewBox="0 0 11 11" fill="none" xmlns="http://www.w3.org/2000/svg">
<path fill-rule="evenodd" clip-rule="evenodd" d="M5.11195 0.00539922C5.07049 0.0102637 4.94452 0.0242113 4.83201 0.0364155C4.12155 0.113472 3.3348 0.379941 2.69995 0.758572C1.89197 1.24043 1.23526 1.89685 0.753185 2.70448C0.377489 3.33387 0.127958 4.06528 0.0261471 4.83561C-0.00871571 5.09935 -0.00871571 5.90637 0.0261471 6.17011C0.127958 6.94043 0.377489 7.67185 0.753185 8.30123C1.23526 9.10886 1.89197 9.76528 2.69995 10.2471C3.32961 10.6227 4.06134 10.8721 4.83201 10.9739C5.09586 11.0087 5.90324 11.0087 6.16709 10.9739C7.50794 10.7968 8.64451 10.2081 9.57209 9.21035C10.0853 8.65834 10.4867 7.97174 10.7331 7.22479C10.9273 6.636 11 6.16716 11 5.50286C11 5.01142 10.9792 4.79431 10.891 4.36208C10.5884 2.88012 9.63585 1.55576 8.29915 0.758572C7.67591 0.386872 6.9327 0.132176 6.18862 0.0352747C5.99978 0.0106942 5.24545 -0.0102488 5.11195 0.00539922ZM5.93332 0.875749C6.64201 0.946004 7.42655 1.21183 7.96312 1.56351C8.92044 2.19094 9.57717 3.02982 9.91193 4.05293C10.1682 4.83632 10.216 5.58349 10.0616 6.39611C9.96563 6.90111 9.70245 7.56625 9.44062 7.96535C8.81292 8.92225 7.97367 9.57869 6.95012 9.91331C5.97777 10.2312 5.02133 10.2312 4.04898 9.91331C2.65258 9.4568 1.54388 8.34859 1.08717 6.95279C0.769163 5.98087 0.769163 5.02485 1.08717 4.05293C1.54388 2.65713 2.65258 1.54892 4.04898 1.09241C4.67964 0.886253 5.30911 0.813867 5.93332 0.875749ZM5.14455 2.31959C4.51682 2.38562 3.89284 2.65958 3.39992 3.08555C2.63091 3.75013 2.21689 4.76863 2.30899 5.76924C2.34854 6.19916 2.43554 6.51809 2.615 6.89117C3.31165 8.3394 4.96853 9.04429 6.50086 8.54435C6.73112 8.46921 6.95096 8.36781 7.1645 8.23825C7.3394 8.13214 7.64683 7.89679 7.72707 7.8076L7.76891 7.76106L7.47971 7.47139C7.32067 7.31209 7.17512 7.18174 7.1563 7.18174C7.13748 7.18174 7.09859 7.2068 7.06986 7.2374C6.97402 7.33964 6.73381 7.50411 6.53921 7.60075C5.38598 8.17355 3.97566 7.6986 3.40179 6.5442C2.82766 5.38925 3.30181 3.98015 4.45776 3.40602C5.1116 3.08126 5.8867 3.08088 6.53921 3.40497C6.73381 3.50161 6.97402 3.66607 7.06986 3.76831C7.09859 3.79892 7.13748 3.82398 7.1563 3.82398C7.17512 3.82398 7.32067 3.69363 7.47971 3.53433L7.76891 3.24465L7.72707 3.19812C7.70405 3.17253 7.60769 3.08921 7.51294 3.01297C6.84159 2.47273 6.00815 2.22871 5.14455 2.31959Z" fill="white"/>
</svg>
