<svg width="45" height="45" viewBox="0 0 45 45" fill="none" xmlns="http://www.w3.org/2000/svg">
<circle cx="22.5" cy="22.5" r="22" stroke="white"/>
<path fill-rule="evenodd" clip-rule="evenodd" d="M30.5182 13.1032C29.0538 13.6618 11.0057 20.8512 10.7399 20.9819C9.85657 21.416 9.7533 21.9894 10.4887 22.3772C10.5596 22.4146 11.7813 22.8197 13.2033 23.2774L15.789 24.1094L21.6602 20.3012C24.8893 18.2067 27.5964 16.4694 27.6758 16.4407C27.8752 16.3686 28.0468 16.3754 28.1269 16.4585C28.183 16.5166 28.1853 16.5458 28.1408 16.6312C28.1113 16.6877 25.9669 18.7069 23.3756 21.1183C20.7842 23.5297 18.657 25.5215 18.6485 25.5446C18.6399 25.5677 18.5523 26.7716 18.4537 28.2199L18.2744 30.8533L18.4692 30.826C18.5763 30.811 18.746 30.7537 18.8462 30.6986C18.9465 30.6435 19.6211 30.0099 20.3455 29.2905C21.0698 28.5711 21.6876 27.9725 21.7183 27.9603C21.7489 27.9481 22.9024 28.7953 24.2817 29.843C25.6608 30.8907 26.8974 31.7998 27.0294 31.863C27.3759 32.0291 27.7662 32.0455 28.0197 31.9049C28.2461 31.7793 28.4674 31.4672 28.5604 31.1423C28.5965 31.0165 29.385 27.2389 30.3127 22.7476C31.8573 15.2698 31.9995 14.5458 32 14.1577C32.0005 13.791 31.9858 13.7038 31.891 13.5108C31.8242 13.3747 31.7103 13.2358 31.5989 13.1546C31.3443 12.9689 30.9228 12.9489 30.5182 13.1032Z" fill="white"/>
</svg>
