<svg width="45" height="45" viewBox="0 0 45 45" fill="none" xmlns="http://www.w3.org/2000/svg">
<circle cx="22.5" cy="22.5" r="22" stroke="white"/>
<path fill-rule="evenodd" clip-rule="evenodd" d="M21.2036 11.0071C19.5404 11.169 18.2862 11.5279 16.9259 12.2312C14.8492 13.3048 13.1723 15.0133 12.1355 17.1119C11.7372 17.9182 11.5495 18.4124 11.3413 19.2031C11.0788 20.1997 11.0024 20.8056 11 21.9081C10.9989 22.4571 11.0215 23.0529 11.0524 23.2846C11.2873 25.0471 11.8408 26.566 12.7666 27.9881L13.0751 28.4621L12.3897 30.4826C12.0127 31.594 11.7102 32.5092 11.7175 32.5165C11.7248 32.5237 12.6677 32.2304 13.8128 31.8646C14.958 31.4988 15.9103 31.1995 15.929 31.1995C15.9477 31.1995 16.1245 31.2997 16.3219 31.4222C16.5192 31.5447 16.9326 31.7653 17.2406 31.9125C20.0257 33.2436 23.2094 33.3575 26.0611 32.2282C29.2922 30.9486 31.774 28.1494 32.6598 24.7852C32.9312 23.7548 33 23.19 33 21.9942C33 20.7983 32.9312 20.2335 32.6598 19.2031C31.6206 15.2566 28.453 12.1889 24.4559 11.258C23.7843 11.1016 23.0855 11.0224 22.2375 11.0065C21.7636 10.9976 21.2984 10.9979 21.2036 11.0071ZM18.5765 16.1115C18.6478 16.1484 18.7477 16.2532 18.7986 16.3442C18.927 16.5741 19.9743 19.0927 20.0047 19.2451C20.0438 19.44 19.8529 19.7714 19.4247 20.2521C18.9779 20.7537 18.8819 20.9148 18.9216 21.0956C18.9939 21.4239 19.9901 22.7432 20.6039 23.3234C21.5564 24.2237 22.996 25.0787 23.6375 25.1249C23.9673 25.1486 24.0876 25.0554 24.5921 24.3848C24.8209 24.0806 25.0651 23.7749 25.1345 23.7055C25.3007 23.5396 25.5473 23.5045 25.8239 23.6072C26.1787 23.7391 28.3478 24.7939 28.5001 24.9087L28.6459 25.0185L28.6218 25.4743C28.56 26.6444 28.1491 27.252 27.062 27.7802C26.0285 28.2825 25.2196 28.2688 23.6359 27.7221C21.5111 26.9888 20.3833 26.2882 18.855 24.7526C18.0904 23.9842 17.5469 23.3346 16.9254 22.4458C15.9012 20.9813 15.5084 19.8504 15.6254 18.7026C15.7191 17.7824 16.0411 17.103 16.6915 16.4536C17.0062 16.1393 17.4179 16.01 18.0375 16.0306C18.3004 16.0394 18.4932 16.0683 18.5765 16.1115Z" fill="white"/>
</svg>
