<svg width="327" height="58" viewBox="0 0 327 58" fill="none" xmlns="http://www.w3.org/2000/svg">
<path d="M270.262 52.06C269.646 51.92 269.202 51.668 268.932 51.304C268.661 50.9307 268.526 50.4547 268.526 49.876C268.526 49.148 268.745 48.5833 269.184 48.182C269.632 47.7807 270.346 47.58 271.326 47.58H274.546V55H273.314V52.172H271.424L269.618 55H268.246L270.262 52.06ZM269.758 49.876C269.758 50.268 269.87 50.5667 270.094 50.772C270.327 50.9773 270.714 51.08 271.256 51.08H273.314V48.672H271.256C270.714 48.672 270.327 48.7747 270.094 48.98C269.87 49.1853 269.758 49.484 269.758 49.876Z" fill="white"/>
<path d="M260.261 47.58H261.493V50.674H265.329V47.58H266.561V55H265.329V51.766H261.493V55H260.261V47.58Z" fill="white"/>
<path d="M250.184 47.58H251.5L254.146 52.2L256.792 47.58H258.024V55H256.792V49.61L254.594 53.39H253.614L251.416 49.61V55H250.184V47.58Z" fill="white"/>
<path d="M244.382 55.14C243.972 55.14 243.608 55.084 243.29 54.972C242.982 54.8507 242.721 54.6873 242.506 54.482C242.292 54.2767 242.128 54.034 242.016 53.754C241.904 53.474 241.848 53.166 241.848 52.83C241.848 52.0927 242.063 51.5607 242.492 51.234C242.931 50.9073 243.556 50.744 244.368 50.744H246.776V50.24C246.776 49.6053 246.632 49.1667 246.342 48.924C246.062 48.6813 245.638 48.56 245.068 48.56C244.536 48.56 244.149 48.6627 243.906 48.868C243.664 49.064 243.528 49.288 243.5 49.54H242.268C242.287 49.2413 242.366 48.966 242.506 48.714C242.656 48.4527 242.852 48.2287 243.094 48.042C243.346 47.8553 243.645 47.7107 243.99 47.608C244.336 47.496 244.718 47.44 245.138 47.44C246.016 47.44 246.711 47.65 247.224 48.07C247.747 48.4807 248.008 49.1573 248.008 50.1V53.11C248.008 53.502 248.008 53.8473 248.008 54.146C248.018 54.4353 248.041 54.72 248.078 55H247C246.972 54.7853 246.954 54.5847 246.944 54.398C246.935 54.202 246.93 53.9827 246.93 53.74C246.734 54.132 246.417 54.4633 245.978 54.734C245.54 55.0047 245.008 55.14 244.382 55.14ZM244.648 54.02C244.938 54.02 245.208 53.9827 245.46 53.908C245.722 53.824 245.95 53.7073 246.146 53.558C246.342 53.3993 246.496 53.208 246.608 52.984C246.72 52.76 246.776 52.4987 246.776 52.2V51.696H244.578C244.121 51.696 243.762 51.7893 243.5 51.976C243.239 52.1533 243.108 52.438 243.108 52.83C243.108 53.1753 243.23 53.46 243.472 53.684C243.724 53.908 244.116 54.02 244.648 54.02Z" fill="white"/>
<path d="M234.352 47.58H235.584V50.688H236.564L239.336 47.58H240.792L237.572 51.136L240.932 55H239.364L236.564 51.752H235.584V55H234.352V47.58Z" fill="white"/>
<path d="M226.017 55.14C225.084 55.14 224.351 54.944 223.819 54.552C223.287 54.16 222.993 53.6093 222.937 52.9H224.169C224.234 53.264 224.426 53.544 224.743 53.74C225.07 53.9267 225.494 54.02 226.017 54.02C226.661 54.02 227.128 53.9127 227.417 53.698C227.716 53.474 227.865 53.208 227.865 52.9C227.865 52.536 227.744 52.2513 227.501 52.046C227.258 51.8313 226.838 51.724 226.241 51.724H224.967V50.716H226.157C226.67 50.716 227.034 50.618 227.249 50.422C227.473 50.226 227.585 49.9507 227.585 49.596C227.585 49.316 227.454 49.0733 227.193 48.868C226.932 48.6627 226.54 48.56 226.017 48.56C225.448 48.56 225.032 48.6533 224.771 48.84C224.519 49.0173 224.365 49.274 224.309 49.61H223.077C223.105 49.302 223.189 49.0173 223.329 48.756C223.478 48.4853 223.679 48.252 223.931 48.056C224.183 47.86 224.482 47.7107 224.827 47.608C225.182 47.496 225.578 47.44 226.017 47.44C226.493 47.44 226.904 47.496 227.249 47.608C227.604 47.7107 227.898 47.86 228.131 48.056C228.364 48.2427 228.537 48.4667 228.649 48.728C228.761 48.9893 228.817 49.2787 228.817 49.596C228.817 49.9507 228.728 50.2633 228.551 50.534C228.374 50.7953 228.089 51.0007 227.697 51.15C228.22 51.29 228.584 51.514 228.789 51.822C228.994 52.13 229.097 52.4893 229.097 52.9C229.097 53.208 229.032 53.4973 228.901 53.768C228.77 54.0387 228.574 54.2767 228.313 54.482C228.061 54.678 227.739 54.8367 227.347 54.958C226.964 55.0793 226.521 55.14 226.017 55.14Z" fill="white"/>
<path d="M214.952 47.58H216.184V53.18L220.02 47.58H221.252V55H220.02V49.4L216.184 55H214.952V47.58Z" fill="white"/>
<path d="M202.907 47.58H204.139V53.18L207.975 47.58H209.207V55H207.975V49.4L204.139 55H202.907V47.58ZM206.057 46.67C205.329 46.67 204.797 46.516 204.461 46.208C204.125 45.8907 203.957 45.438 203.957 44.85H205.161C205.161 45.4847 205.46 45.802 206.057 45.802C206.673 45.802 206.981 45.4847 206.981 44.85H208.157C208.157 45.438 207.989 45.8907 207.653 46.208C207.317 46.516 206.785 46.67 206.057 46.67Z" fill="white"/>
<path d="M194.362 47.58H195.594V53.18L199.43 47.58H200.662V55H199.43V49.4L195.594 55H194.362V47.58Z" fill="white"/>
<path d="M185.823 55.14C185.683 55.14 185.543 55.126 185.403 55.098V53.866C185.449 53.8753 185.519 53.88 185.613 53.88C185.818 53.88 185.995 53.8147 186.145 53.684C186.303 53.5533 186.429 53.3247 186.523 52.998C186.616 52.6713 186.686 52.228 186.733 51.668C186.779 51.108 186.803 50.3987 186.803 49.54V47.58H192.123V55H190.891V48.672H188.035V49.82C188.035 50.856 187.988 51.7147 187.895 52.396C187.801 53.0773 187.661 53.6233 187.475 54.034C187.297 54.4353 187.069 54.72 186.789 54.888C186.509 55.056 186.187 55.14 185.823 55.14Z" fill="white"/>
<path d="M181.268 55.14C180.792 55.14 180.34 55.0653 179.91 54.916C179.481 54.7667 179.103 54.538 178.776 54.23C178.45 53.9127 178.188 53.516 177.992 53.04C177.796 52.564 177.698 52.004 177.698 51.36V51.08C177.698 50.464 177.792 49.932 177.978 49.484C178.165 49.0267 178.412 48.6487 178.72 48.35C179.038 48.042 179.402 47.8133 179.812 47.664C180.232 47.5147 180.671 47.44 181.128 47.44C182.22 47.44 183.065 47.7387 183.662 48.336C184.26 48.9333 184.558 49.778 184.558 50.87V51.654H178.93C178.93 52.0927 179 52.4613 179.14 52.76C179.28 53.0587 179.462 53.3013 179.686 53.488C179.91 53.6747 180.158 53.81 180.428 53.894C180.708 53.978 180.988 54.02 181.268 54.02C181.828 54.02 182.258 53.9267 182.556 53.74C182.864 53.5533 183.084 53.2967 183.214 52.97H184.418C184.344 53.3247 184.208 53.6373 184.012 53.908C183.826 54.1787 183.592 54.4073 183.312 54.594C183.042 54.7713 182.729 54.9067 182.374 55C182.029 55.0933 181.66 55.14 181.268 55.14ZM181.198 48.56C180.909 48.56 180.629 48.602 180.358 48.686C180.088 48.7607 179.845 48.8867 179.63 49.064C179.425 49.232 179.257 49.4467 179.126 49.708C178.996 49.9693 178.93 50.282 178.93 50.646H183.396C183.387 50.2633 183.322 49.9413 183.2 49.68C183.088 49.4093 182.934 49.1947 182.738 49.036C182.542 48.868 182.309 48.7467 182.038 48.672C181.777 48.5973 181.497 48.56 181.198 48.56Z" fill="white"/>
<path d="M168.872 53.908H169.782C169.884 53.768 169.978 53.5533 170.062 53.264C170.146 52.9747 170.22 52.634 170.286 52.242C170.351 51.85 170.398 51.4253 170.426 50.968C170.463 50.5013 170.482 50.0253 170.482 49.54V47.58H175.662V53.908H176.712V56.75H175.536V55H170.048V56.75H168.872V53.908ZM174.43 53.908V48.672H171.686V49.82C171.686 50.212 171.672 50.604 171.644 50.996C171.616 51.3787 171.574 51.7473 171.518 52.102C171.462 52.4473 171.392 52.7787 171.308 53.096C171.233 53.404 171.144 53.6747 171.042 53.908H174.43Z" fill="white"/>
<path d="M164.876 55.14C163.943 55.14 163.21 54.944 162.678 54.552C162.146 54.16 161.852 53.6093 161.796 52.9H163.028C163.094 53.264 163.285 53.544 163.602 53.74C163.929 53.9267 164.354 54.02 164.876 54.02C165.52 54.02 165.987 53.9127 166.276 53.698C166.575 53.474 166.724 53.208 166.724 52.9C166.724 52.536 166.603 52.2513 166.36 52.046C166.118 51.8313 165.698 51.724 165.1 51.724H163.826V50.716H165.016C165.53 50.716 165.894 50.618 166.108 50.422C166.332 50.226 166.444 49.9507 166.444 49.596C166.444 49.316 166.314 49.0733 166.052 48.868C165.791 48.6627 165.399 48.56 164.876 48.56C164.307 48.56 163.892 48.6533 163.63 48.84C163.378 49.0173 163.224 49.274 163.168 49.61H161.936C161.964 49.302 162.048 49.0173 162.188 48.756C162.338 48.4853 162.538 48.252 162.79 48.056C163.042 47.86 163.341 47.7107 163.686 47.608C164.041 47.496 164.438 47.44 164.876 47.44C165.352 47.44 165.763 47.496 166.108 47.608C166.463 47.7107 166.757 47.86 166.99 48.056C167.224 48.2427 167.396 48.4667 167.508 48.728C167.62 48.9893 167.676 49.2787 167.676 49.596C167.676 49.9507 167.588 50.2633 167.41 50.534C167.233 50.7953 166.948 51.0007 166.556 51.15C167.079 51.29 167.443 51.514 167.648 51.822C167.854 52.13 167.956 52.4893 167.956 52.9C167.956 53.208 167.891 53.4973 167.76 53.768C167.63 54.0387 167.434 54.2767 167.172 54.482C166.92 54.678 166.598 54.8367 166.206 54.958C165.824 55.0793 165.38 55.14 164.876 55.14Z" fill="white"/>
<path d="M153.811 47.58H155.043V53.18L158.879 47.58H160.111V55H158.879V49.4L155.043 55H153.811V47.58Z" fill="white"/>
<path d="M144.997 55.14C144.521 55.14 144.068 55.0653 143.639 54.916C143.21 54.7573 142.832 54.524 142.505 54.216C142.178 53.8987 141.917 53.502 141.721 53.026C141.525 52.55 141.427 51.9947 141.427 51.36V51.08C141.427 50.4827 141.525 49.9553 141.721 49.498C141.917 49.0407 142.178 48.6627 142.505 48.364C142.832 48.056 143.21 47.8273 143.639 47.678C144.068 47.5193 144.521 47.44 144.997 47.44C145.473 47.44 145.926 47.5193 146.355 47.678C146.784 47.8273 147.162 48.056 147.489 48.364C147.816 48.6627 148.077 49.0407 148.273 49.498C148.469 49.9553 148.567 50.4827 148.567 51.08V51.36C148.567 51.9947 148.469 52.55 148.273 53.026C148.077 53.502 147.816 53.8987 147.489 54.216C147.162 54.524 146.784 54.7573 146.355 54.916C145.926 55.0653 145.473 55.14 144.997 55.14ZM144.997 54.02C145.277 54.02 145.557 53.9733 145.837 53.88C146.117 53.7773 146.364 53.6233 146.579 53.418C146.794 53.2033 146.966 52.928 147.097 52.592C147.237 52.256 147.307 51.8453 147.307 51.36V51.08C147.307 50.632 147.237 50.2493 147.097 49.932C146.966 49.6147 146.794 49.3533 146.579 49.148C146.364 48.9427 146.117 48.7933 145.837 48.7C145.557 48.6067 145.277 48.56 144.997 48.56C144.717 48.56 144.437 48.6067 144.157 48.7C143.877 48.7933 143.63 48.9427 143.415 49.148C143.2 49.3533 143.023 49.6147 142.883 49.932C142.752 50.2493 142.687 50.632 142.687 51.08V51.36C142.687 51.8453 142.752 52.256 142.883 52.592C143.023 52.928 143.2 53.2033 143.415 53.418C143.63 53.6233 143.877 53.7773 144.157 53.88C144.437 53.9733 144.717 54.02 144.997 54.02Z" fill="white"/>
<path d="M134.001 47.58H137.221C138.136 47.58 138.808 47.7713 139.237 48.154C139.666 48.5273 139.881 49.0127 139.881 49.61C139.881 49.7687 139.853 49.932 139.797 50.1C139.741 50.2587 139.662 50.408 139.559 50.548C139.466 50.688 139.349 50.8093 139.209 50.912C139.078 51.0147 138.929 51.094 138.761 51.15C139.218 51.262 139.564 51.4767 139.797 51.794C140.04 52.102 140.161 52.466 140.161 52.886C140.161 53.53 139.946 54.0433 139.517 54.426C139.088 54.8087 138.416 55 137.501 55H134.001V47.58ZM137.501 53.908C138.024 53.908 138.392 53.8147 138.607 53.628C138.822 53.4413 138.929 53.1753 138.929 52.83C138.929 52.4753 138.822 52.2047 138.607 52.018C138.392 51.822 138.024 51.724 137.501 51.724H135.233V53.908H137.501ZM137.221 50.716C137.753 50.716 138.122 50.6227 138.327 50.436C138.542 50.2493 138.649 49.9927 138.649 49.666C138.649 49.358 138.542 49.1153 138.327 48.938C138.122 48.7607 137.753 48.672 137.221 48.672H135.233V50.716H137.221Z" fill="white"/>
<path d="M128.832 48.672H126.298V47.58H132.598V48.672H130.064V55H128.832V48.672Z" fill="white"/>
<path d="M122.379 55.14C121.903 55.14 121.459 55.0653 121.049 54.916C120.638 54.7573 120.283 54.524 119.985 54.216C119.686 53.8987 119.448 53.502 119.271 53.026C119.103 52.55 119.019 51.9947 119.019 51.36V51.08C119.019 50.4827 119.112 49.9553 119.299 49.498C119.485 49.0407 119.733 48.6627 120.041 48.364C120.349 48.056 120.703 47.8273 121.105 47.678C121.515 47.5193 121.94 47.44 122.379 47.44C122.817 47.44 123.209 47.5007 123.555 47.622C123.909 47.7433 124.213 47.9113 124.465 48.126C124.726 48.3407 124.936 48.5927 125.095 48.882C125.263 49.1713 125.384 49.484 125.459 49.82H124.199C124.124 49.6427 124.035 49.4793 123.933 49.33C123.839 49.1713 123.718 49.036 123.569 48.924C123.429 48.812 123.261 48.7233 123.065 48.658C122.869 48.5927 122.64 48.56 122.379 48.56C122.108 48.56 121.847 48.6113 121.595 48.714C121.343 48.8073 121.119 48.9567 120.923 49.162C120.727 49.358 120.568 49.6147 120.447 49.932C120.335 50.2493 120.279 50.632 120.279 51.08V51.36C120.279 51.836 120.335 52.2467 120.447 52.592C120.568 52.928 120.727 53.2033 120.923 53.418C121.119 53.6233 121.343 53.7773 121.595 53.88C121.847 53.9733 122.108 54.02 122.379 54.02C122.836 54.02 123.219 53.908 123.527 53.684C123.844 53.46 124.068 53.152 124.199 52.76H125.459C125.281 53.4973 124.917 54.0807 124.367 54.51C123.816 54.93 123.153 55.14 122.379 55.14Z" fill="white"/>
<path d="M110.192 53.908H111.102C111.205 53.768 111.298 53.5533 111.382 53.264C111.466 52.9747 111.541 52.634 111.606 52.242C111.671 51.85 111.718 51.4253 111.746 50.968C111.783 50.5013 111.802 50.0253 111.802 49.54V47.58H116.982V53.908H118.032V56.75H116.856V55H111.368V56.75H110.192V53.908ZM115.75 53.908V48.672H113.006V49.82C113.006 50.212 112.992 50.604 112.964 50.996C112.936 51.3787 112.894 51.7473 112.838 52.102C112.782 52.4473 112.712 52.7787 112.628 53.096C112.553 53.404 112.465 53.6747 112.362 53.908H115.75Z" fill="white"/>
<path d="M105.854 55.14C105.378 55.14 104.926 55.0653 104.496 54.916C104.067 54.7573 103.689 54.524 103.362 54.216C103.036 53.8987 102.774 53.502 102.578 53.026C102.382 52.55 102.284 51.9947 102.284 51.36V51.08C102.284 50.4827 102.382 49.9553 102.578 49.498C102.774 49.0407 103.036 48.6627 103.362 48.364C103.689 48.056 104.067 47.8273 104.496 47.678C104.926 47.5193 105.378 47.44 105.854 47.44C106.33 47.44 106.783 47.5193 107.212 47.678C107.642 47.8273 108.02 48.056 108.346 48.364C108.673 48.6627 108.934 49.0407 109.13 49.498C109.326 49.9553 109.424 50.4827 109.424 51.08V51.36C109.424 51.9947 109.326 52.55 109.13 53.026C108.934 53.502 108.673 53.8987 108.346 54.216C108.02 54.524 107.642 54.7573 107.212 54.916C106.783 55.0653 106.33 55.14 105.854 55.14ZM105.854 54.02C106.134 54.02 106.414 53.9733 106.694 53.88C106.974 53.7773 107.222 53.6233 107.436 53.418C107.651 53.2033 107.824 52.928 107.954 52.592C108.094 52.256 108.164 51.8453 108.164 51.36V51.08C108.164 50.632 108.094 50.2493 107.954 49.932C107.824 49.6147 107.651 49.3533 107.436 49.148C107.222 48.9427 106.974 48.7933 106.694 48.7C106.414 48.6067 106.134 48.56 105.854 48.56C105.574 48.56 105.294 48.6067 105.014 48.7C104.734 48.7933 104.487 48.9427 104.272 49.148C104.058 49.3533 103.88 49.6147 103.74 49.932C103.61 50.2493 103.544 50.632 103.544 51.08V51.36C103.544 51.8453 103.61 52.256 103.74 52.592C103.88 52.928 104.058 53.2033 104.272 53.418C104.487 53.6233 104.734 53.7773 105.014 53.88C105.294 53.9733 105.574 54.02 105.854 54.02Z" fill="white"/>
<path d="M94.8583 47.58H98.0783C98.9929 47.58 99.6649 47.7713 100.094 48.154C100.524 48.5273 100.738 49.0127 100.738 49.61C100.738 49.7687 100.71 49.932 100.654 50.1C100.598 50.2587 100.519 50.408 100.416 50.548C100.323 50.688 100.206 50.8093 100.066 50.912C99.9356 51.0147 99.7863 51.094 99.6183 51.15C100.076 51.262 100.421 51.4767 100.654 51.794C100.897 52.102 101.018 52.466 101.018 52.886C101.018 53.53 100.804 54.0433 100.374 54.426C99.9449 54.8087 99.2729 55 98.3583 55H94.8583V47.58ZM98.3583 53.908C98.8809 53.908 99.2496 53.8147 99.4643 53.628C99.6789 53.4413 99.7863 53.1753 99.7863 52.83C99.7863 52.4753 99.6789 52.2047 99.4643 52.018C99.2496 51.822 98.8809 51.724 98.3583 51.724H96.0903V53.908H98.3583ZM98.0783 50.716C98.6103 50.716 98.979 50.6227 99.1843 50.436C99.3989 50.2493 99.5063 49.9927 99.5063 49.666C99.5063 49.358 99.3989 49.1153 99.1843 48.938C98.979 48.7607 98.6103 48.672 98.0783 48.672H96.0903V50.716H98.0783Z" fill="white"/>
<path d="M90.0228 55.14C89.0895 55.14 88.3568 54.944 87.8248 54.552C87.2928 54.16 86.9988 53.6093 86.9428 52.9H88.1748C88.2401 53.264 88.4315 53.544 88.7488 53.74C89.0755 53.9267 89.5001 54.02 90.0228 54.02C90.6668 54.02 91.1335 53.9127 91.4228 53.698C91.7215 53.474 91.8708 53.208 91.8708 52.9C91.8708 52.536 91.7495 52.2513 91.5068 52.046C91.2641 51.8313 90.8441 51.724 90.2468 51.724H88.9728V50.716H90.1628C90.6761 50.716 91.0401 50.618 91.2548 50.422C91.4788 50.226 91.5908 49.9507 91.5908 49.596C91.5908 49.316 91.4601 49.0733 91.1988 48.868C90.9375 48.6627 90.5455 48.56 90.0228 48.56C89.4535 48.56 89.0381 48.6533 88.7768 48.84C88.5248 49.0173 88.3708 49.274 88.3148 49.61H87.0828C87.1108 49.302 87.1948 49.0173 87.3348 48.756C87.4841 48.4853 87.6848 48.252 87.9368 48.056C88.1888 47.86 88.4875 47.7107 88.8328 47.608C89.1875 47.496 89.5841 47.44 90.0228 47.44C90.4988 47.44 90.9095 47.496 91.2548 47.608C91.6095 47.7107 91.9035 47.86 92.1368 48.056C92.3701 48.2427 92.5428 48.4667 92.6548 48.728C92.7668 48.9893 92.8228 49.2787 92.8228 49.596C92.8228 49.9507 92.7341 50.2633 92.5568 50.534C92.3795 50.7953 92.0948 51.0007 91.7028 51.15C92.2255 51.29 92.5895 51.514 92.7948 51.822C93.0001 52.13 93.1028 52.4893 93.1028 52.9C93.1028 53.208 93.0375 53.4973 92.9068 53.768C92.7761 54.0387 92.5801 54.2767 92.3188 54.482C92.0668 54.678 91.7448 54.8367 91.3528 54.958C90.9701 55.0793 90.5268 55.14 90.0228 55.14Z" fill="white"/>
<path d="M78.9579 47.58H80.1899V53.18L84.0259 47.58H85.2579V55H84.0259V49.4L80.1899 55H78.9579V47.58Z" fill="white"/>
<path d="M73.6434 55.14C73.1674 55.14 72.7147 55.0653 72.2854 54.916C71.856 54.7573 71.478 54.524 71.1514 54.216C70.8247 53.8987 70.5634 53.502 70.3674 53.026C70.1714 52.55 70.0734 51.9947 70.0734 51.36V51.08C70.0734 50.4827 70.1714 49.9553 70.3674 49.498C70.5634 49.0407 70.8247 48.6627 71.1514 48.364C71.478 48.056 71.856 47.8273 72.2854 47.678C72.7147 47.5193 73.1674 47.44 73.6434 47.44C74.1194 47.44 74.572 47.5193 75.0014 47.678C75.4307 47.8273 75.8087 48.056 76.1354 48.364C76.462 48.6627 76.7234 49.0407 76.9194 49.498C77.1154 49.9553 77.2134 50.4827 77.2134 51.08V51.36C77.2134 51.9947 77.1154 52.55 76.9194 53.026C76.7234 53.502 76.462 53.8987 76.1354 54.216C75.8087 54.524 75.4307 54.7573 75.0014 54.916C74.572 55.0653 74.1194 55.14 73.6434 55.14ZM73.6434 54.02C73.9234 54.02 74.2034 53.9733 74.4834 53.88C74.7634 53.7773 75.0107 53.6233 75.2254 53.418C75.44 53.2033 75.6127 52.928 75.7434 52.592C75.8834 52.256 75.9534 51.8453 75.9534 51.36V51.08C75.9534 50.632 75.8834 50.2493 75.7434 49.932C75.6127 49.6147 75.44 49.3533 75.2254 49.148C75.0107 48.9427 74.7634 48.7933 74.4834 48.7C74.2034 48.6067 73.9234 48.56 73.6434 48.56C73.3634 48.56 73.0834 48.6067 72.8034 48.7C72.5234 48.7933 72.276 48.9427 72.0614 49.148C71.8467 49.3533 71.6694 49.6147 71.5294 49.932C71.3987 50.2493 71.3334 50.632 71.3334 51.08V51.36C71.3334 51.8453 71.3987 52.256 71.5294 52.592C71.6694 52.928 71.8467 53.2033 72.0614 53.418C72.276 53.6233 72.5234 53.7773 72.8034 53.88C73.0834 53.9733 73.3634 54.02 73.6434 54.02Z" fill="white"/>
<path d="M61.9501 47.58H63.0981V48.98C63.3501 48.4853 63.7001 48.1073 64.1481 47.846C64.6054 47.5753 65.1327 47.44 65.7301 47.44C66.6634 47.44 67.4101 47.748 67.9701 48.364C68.5301 48.9707 68.8101 49.876 68.8101 51.08V51.36C68.8101 51.9947 68.7354 52.55 68.5861 53.026C68.4367 53.4927 68.2267 53.8847 67.9561 54.202C67.6854 54.51 67.3587 54.7433 66.9761 54.902C66.6027 55.0607 66.1874 55.14 65.7301 55.14C65.0954 55.14 64.5634 55 64.1341 54.72C63.7141 54.44 63.3967 54.09 63.1821 53.67V57.8H61.9501V47.58ZM65.4501 54.048C65.7487 54.048 66.0287 53.992 66.2901 53.88C66.5514 53.7587 66.7754 53.586 66.9621 53.362C67.1581 53.138 67.3074 52.858 67.4101 52.522C67.5221 52.186 67.5781 51.7987 67.5781 51.36V51.08C67.5781 50.6787 67.5221 50.3193 67.4101 50.002C67.3074 49.6847 67.1581 49.4187 66.9621 49.204C66.7754 48.98 66.5514 48.812 66.2901 48.7C66.0287 48.588 65.7487 48.532 65.4501 48.532C65.1141 48.532 64.8061 48.588 64.5261 48.7C64.2461 48.8027 64.0081 48.952 63.8121 49.148C63.6161 49.3347 63.4621 49.5587 63.3501 49.82C63.2381 50.0813 63.1821 50.3613 63.1821 50.66V51.78C63.1821 52.116 63.2381 52.424 63.3501 52.704C63.4621 52.984 63.6161 53.222 63.8121 53.418C64.0081 53.614 64.2461 53.768 64.5261 53.88C64.8061 53.992 65.1141 54.048 65.4501 54.048Z" fill="white"/>
<path d="M51.7301 45.2H59.4301V55H58.1141V46.348H53.0461V55H51.7301V45.2Z" fill="white"/>
<path d="M58.2312 30.8777C58.2312 30.9451 58.2868 30.9998 58.3554 30.9998H80.4153C80.4839 30.9998 80.5395 30.9451 80.5395 30.8777V27.3631C80.5395 27.2957 80.4839 27.241 80.4153 27.241H62.2772V17.2052H79.1946C79.2631 17.2052 79.3187 17.1505 79.3187 17.0831V13.5685C79.3187 13.5011 79.2631 13.4465 79.1946 13.4465H62.2772V3.76196H80.2517C80.3203 3.76196 80.3759 3.7073 80.3759 3.6399V0.12534C80.3759 0.0579265 80.3203 0.00327799 80.2517 0.00327799H58.3554C58.2868 0.00327799 58.2312 0.0579265 58.2312 0.12534V30.8777Z" fill="white"/>
<path d="M108.462 30.8777C108.462 30.9451 108.518 30.9998 108.586 30.9998H131.581C131.649 30.9998 131.705 30.9451 131.705 30.8777V25.8256C131.705 25.7582 131.649 25.7036 131.581 25.7036H114.206V0.12534C114.206 0.0579265 114.151 0.00327799 114.082 0.00327799H108.586C108.518 0.00327799 108.462 0.0579265 108.462 0.12534V30.8777Z" fill="white"/>
<path d="M149.281 6.71515C149.281 6.78255 149.337 6.83721 149.405 6.83721H159.797V30.8777C159.797 30.9451 159.852 30.9998 159.921 30.9998H167.07C167.138 30.9998 167.194 30.9451 167.194 30.8777V6.83721H177.585C177.654 6.83721 177.709 6.78255 177.709 6.71515V0.12534C177.709 0.0579265 177.654 0.00327799 177.585 0.00327799H149.405C149.337 0.00327799 149.281 0.0579265 149.281 0.12534V6.71515Z" fill="white"/>
<path d="M202.53 5.17752C202.53 5.24493 202.585 5.29958 202.654 5.29958H219.359L202.308 27.1131C202.291 27.1343 202.282 27.1605 202.282 27.1873V30.8777C202.282 30.9451 202.338 30.9998 202.406 30.9998H227.516C227.585 30.9998 227.64 30.9451 227.64 30.8777V25.8256C227.64 25.7582 227.585 25.7036 227.516 25.7036H210.27L227.364 3.93414C227.381 3.91278 227.39 3.88656 227.39 3.85956V0.12534C227.39 0.0579265 227.334 0.00327799 227.266 0.00327799H202.654C202.585 0.00327799 202.53 0.0579265 202.53 0.12534V5.17752Z" fill="white"/>
<path d="M255.129 30.8777C255.129 30.9451 255.187 30.9998 255.254 30.9998H277.313C277.383 30.9998 277.437 30.9451 277.437 30.8777V27.3631C277.437 27.2957 277.383 27.241 277.313 27.241H259.176V17.2052H276.094C276.161 17.2052 276.218 17.1505 276.218 17.0831V13.5685C276.218 13.5011 276.161 13.4465 276.094 13.4465H259.176V3.76196H277.152C277.219 3.76196 277.276 3.7073 277.276 3.6399V0.12534C277.276 0.0579265 277.219 0.00327799 277.152 0.00327799H255.254C255.187 0.00327799 255.129 0.0579265 255.129 0.12534V30.8777Z" fill="white"/>
<path fill-rule="evenodd" clip-rule="evenodd" d="M307.896 30.9998C307.965 30.9998 308.02 30.9451 308.02 30.8777V18.0838H314.051L323.738 30.9504C323.761 30.9814 323.798 30.9998 323.838 30.9998H326.877C326.924 30.9998 326.966 30.9736 326.986 30.9321C327.008 30.8909 327.003 30.8413 326.976 30.8042L316.831 17.5566C320.983 16.6175 324.156 13.5527 324.156 9.15586C324.156 6.78074 323.408 4.48785 321.643 2.78891C319.875 1.08978 317.104 0 313.085 0C312.712 0 311.948 0.000569781 310.475 0.00123404L309.83 0.00163684C307.998 0.00245514 306.312 0.00327343 305.44 0.00327343C305.371 0.00327343 305.316 0.0579219 305.316 0.125335V30.8777C305.316 30.9451 305.371 30.9998 305.44 30.9998H307.896ZM312.951 2.444C316.022 2.444 318.11 3.21378 319.428 4.42768C320.747 5.64076 321.315 7.31343 321.315 9.15586C321.315 11.1676 320.593 12.7616 319.257 13.8549C317.919 14.9507 315.95 15.5552 313.442 15.5552H308.02V2.52834C309.562 2.48564 312.04 2.444 312.951 2.444Z" fill="white"/>
<path d="M2.70569 30.8779V4.40947L14.7077 20.5606C14.7311 20.592 14.7683 20.6106 14.8079 20.6106C14.8476 20.6106 14.8848 20.592 14.9082 20.5606L26.9102 4.40947V30.8779C26.9102 30.9453 26.9658 31 27.0344 31H29.4918C29.5604 31 29.616 30.9453 29.616 30.8779V0.125577C29.616 0.0581649 29.5604 0.00351639 29.4918 0.00351639H26.9897C26.9502 0.00351639 26.913 0.022013 26.8896 0.0533281L14.8079 16.2295L2.72627 0.0533281C2.70288 0.022013 2.66574 0.00351639 2.62621 0.00351639H0.124139C0.055579 0.00351639 0 0.0581649 0 0.125577V30.8779C0 30.9453 0.055579 31 0.124139 31H2.58155C2.6501 31 2.70569 30.9453 2.70569 30.8779Z" fill="white"/>
</svg>
