<svg width="49" height="18" viewBox="0 0 49 18" fill="none" xmlns="http://www.w3.org/2000/svg">
<path d="M0.000135423 15.2878C-0.00244463 15.1074 0.0318658 14.9284 0.10096 14.7617C0.170055 14.5951 0.272476 14.4443 0.401936 14.3187C0.531395 14.193 0.68516 14.0952 0.853792 14.0311C1.02242 13.9671 1.20237 13.9382 1.38257 13.9462C1.56167 13.94 1.74007 13.9717 1.90609 14.0392C2.0721 14.1067 2.222 14.2085 2.34596 14.3379L2.16973 14.5161C2.06824 14.4122 1.94613 14.3306 1.81124 14.2766C1.67635 14.2226 1.53167 14.1975 1.38648 14.2028C1.23924 14.1965 1.09225 14.2202 0.954365 14.2722C0.816482 14.3243 0.690556 14.4037 0.58416 14.5057C0.477765 14.6077 0.393101 14.7302 0.335263 14.8658C0.277426 15.0013 0.247609 15.1472 0.247609 15.2946C0.247609 15.442 0.277426 15.5879 0.335263 15.7235C0.393101 15.8591 0.477765 15.9815 0.58416 16.0836C0.690556 16.1856 0.816482 16.265 0.954365 16.317C1.09225 16.3691 1.23924 16.3927 1.38648 16.3865C1.53185 16.3919 1.67673 16.3666 1.81168 16.3123C1.94663 16.2579 2.06863 16.1758 2.16973 16.0712L2.34596 16.2474C2.22133 16.3771 2.07076 16.479 1.90408 16.5465C1.7374 16.614 1.55836 16.6455 1.37865 16.6391C1.19951 16.6458 1.02089 16.6159 0.853648 16.5514C0.686408 16.4868 0.534046 16.3889 0.40583 16.2636C0.277614 16.1383 0.176224 15.9882 0.107826 15.8224C0.0394291 15.6567 0.00545423 15.4788 0.00796807 15.2995" fill="white"/>
<path d="M2.78648 15.6148C2.78648 15.4153 2.84562 15.2203 2.95643 15.0544C3.06724 14.8886 3.22473 14.7593 3.409 14.683C3.59327 14.6066 3.79603 14.5867 3.99165 14.6256C4.18726 14.6645 4.36695 14.7605 4.50798 14.9016C4.64901 15.0427 4.74505 15.2224 4.78396 15.418C4.82287 15.6137 4.80291 15.8165 4.72658 16.0008C4.65025 16.1851 4.521 16.3426 4.35517 16.4534C4.18933 16.5643 3.99436 16.6234 3.79491 16.6234C3.66138 16.6275 3.52843 16.6042 3.40424 16.5549C3.28005 16.5057 3.16725 16.4315 3.07279 16.3371C2.97832 16.2426 2.90419 16.1298 2.85495 16.0055C2.80571 15.8813 2.78241 15.7484 2.78648 15.6148ZM4.5292 15.6148C4.52382 15.4704 4.47606 15.3307 4.39187 15.2132C4.30769 15.0958 4.1908 15.0056 4.05577 14.9542C3.92074 14.9027 3.77355 14.892 3.63253 14.9236C3.49151 14.9552 3.36291 15.0276 3.26275 15.1318C3.16259 15.236 3.09529 15.3674 3.06926 15.5096C3.04322 15.6517 3.0596 15.7984 3.11633 15.9313C3.17307 16.0643 3.26767 16.1776 3.38833 16.2571C3.509 16.3366 3.6504 16.3789 3.79491 16.3786C3.89513 16.3808 3.99469 16.362 4.08724 16.3235C4.17979 16.285 4.26328 16.2276 4.33239 16.1549C4.4015 16.0823 4.4547 15.9961 4.48859 15.9017C4.52248 15.8074 4.53631 15.707 4.5292 15.607" fill="white"/>
<path d="M8.80377 15.4562V16.6058H8.53355V15.4836C8.53355 15.0645 8.32403 14.851 7.96569 14.851C7.55841 14.851 7.30189 15.1134 7.30189 15.5658V16.6058H7.03559V15.4836C7.03559 15.0645 6.82411 14.851 6.46381 14.851C6.06044 14.851 5.80001 15.1134 5.80001 15.5658V16.6058H5.53371V14.616H5.79218V14.9783C5.86878 14.8561 5.9768 14.7567 6.10494 14.6906C6.23308 14.6244 6.37664 14.5939 6.5206 14.6023C6.6665 14.5907 6.81239 14.6246 6.93826 14.6993C7.06412 14.774 7.16378 14.8858 7.22357 15.0194C7.30384 14.8852 7.4192 14.7754 7.55721 14.7019C7.69522 14.6284 7.85067 14.594 8.00681 14.6023C8.48851 14.6023 8.80573 14.8804 8.80573 15.4483" fill="white"/>
<path d="M12.9863 15.4562V16.6058H12.7181V15.4836C12.7181 15.0645 12.5085 14.851 12.1502 14.851C11.7429 14.851 11.4864 15.1134 11.4864 15.5658V16.6058H11.2201V15.4836C11.2201 15.0645 11.0086 14.851 10.6483 14.851C10.245 14.851 9.98453 15.1134 9.98453 15.5658V16.6058H9.71823V14.616H9.97278V14.9783C10.0494 14.8561 10.1574 14.7567 10.2855 14.6906C10.4137 14.6244 10.5572 14.5939 10.7012 14.6023C10.8471 14.5907 10.993 14.6246 11.1189 14.6993C11.2447 14.774 11.3444 14.8858 11.4042 15.0194C11.4844 14.8852 11.5998 14.7754 11.7378 14.7019C11.8758 14.6284 12.0313 14.594 12.1874 14.6023C12.6691 14.6023 12.9863 14.8804 12.9863 15.4483" fill="white"/>
<path d="M15.6847 14.616V16.598H15.4281V16.2356C15.3552 16.3575 15.2506 16.4571 15.1254 16.5241C15.0002 16.591 14.8591 16.6226 14.7173 16.6156C14.2122 16.6156 13.8812 16.3336 13.8812 15.7656V14.616H14.1495V15.7382C14.1495 16.1612 14.3668 16.3747 14.7369 16.3747C15.152 16.3747 15.4125 16.1083 15.4125 15.6559V14.616H15.6847Z" fill="white"/>
<path d="M18.4456 15.4562V16.6058H18.1773V15.4836C18.1773 15.0645 17.958 14.851 17.5899 14.851C17.4952 14.8439 17.4 14.8576 17.3112 14.8913C17.2224 14.9251 17.1421 14.9779 17.076 15.0461C17.0098 15.1143 16.9595 15.1962 16.9285 15.286C16.8975 15.3758 16.8867 15.4713 16.8967 15.5658V16.6058H16.6304V14.616H16.8869V14.9822C16.967 14.8575 17.0789 14.7566 17.2111 14.6898C17.3433 14.623 17.491 14.5927 17.6388 14.6023C18.1205 14.6023 18.4534 14.8804 18.4534 15.4483" fill="white"/>
<path d="M19.3032 13.9992C19.3032 13.9473 19.3239 13.8974 19.3606 13.8607C19.3973 13.824 19.4471 13.8033 19.4991 13.8033C19.549 13.8033 19.5971 13.8223 19.6335 13.8565C19.6699 13.8907 19.6919 13.9376 19.6949 13.9874C19.6949 14.0394 19.6742 14.0892 19.6375 14.1259C19.6008 14.1627 19.551 14.1833 19.4991 14.1833C19.4471 14.1833 19.3973 14.1627 19.3606 14.1259C19.3239 14.0892 19.3032 14.0394 19.3032 13.9874V13.9992ZM19.3639 14.6122H19.6302V16.5942H19.3639V14.6122Z" fill="white"/>
<path d="M20.3606 15.6149C20.357 15.4806 20.381 15.3471 20.4312 15.2225C20.4814 15.0979 20.5567 14.985 20.6524 14.8908C20.7481 14.7966 20.8621 14.723 20.9874 14.6747C21.1127 14.6265 21.2466 14.6045 21.3808 14.6102C21.5344 14.5997 21.688 14.6305 21.8257 14.6994C21.9634 14.7682 22.0802 14.8727 22.164 15.0019L21.9682 15.137C21.9047 15.0436 21.8186 14.9677 21.718 14.9163C21.6174 14.865 21.5054 14.8398 21.3925 14.8432C21.1879 14.8432 20.9917 14.9245 20.847 15.0692C20.7023 15.214 20.621 15.4102 20.621 15.6149C20.621 15.8195 20.7023 16.0158 20.847 16.1605C20.9917 16.3052 21.1879 16.3865 21.3925 16.3865C21.5051 16.3905 21.6169 16.3661 21.7175 16.3154C21.8182 16.2647 21.9044 16.1895 21.9682 16.0967L22.164 16.2318C22.0795 16.3603 21.9626 16.4642 21.825 16.5329C21.6875 16.6017 21.5343 16.6329 21.3808 16.6235C21.2463 16.6292 21.112 16.6071 20.9865 16.5586C20.8609 16.5101 20.7467 16.4362 20.6509 16.3416C20.5552 16.2469 20.48 16.1335 20.43 16.0085C20.3801 15.8835 20.3564 15.7495 20.3606 15.6149Z" fill="white"/>
<path d="M24.363 15.378V16.6059H24.1065V16.2965C24.0326 16.4071 23.9304 16.4957 23.8105 16.5533C23.6906 16.6108 23.5575 16.6351 23.425 16.6235C22.9766 16.6235 22.7025 16.3905 22.7025 16.0478C22.7025 15.7422 22.8983 15.4876 23.4662 15.4876H24.0947V15.3662C24.0947 15.0274 23.8989 14.8433 23.5347 14.8433C23.294 14.8401 23.0601 14.9227 22.8748 15.0764L22.7554 14.8805C22.9849 14.7016 23.2692 14.6076 23.5601 14.6142C24.0732 14.6142 24.363 14.8688 24.363 15.3819V15.378ZM24.0947 16.0145V15.6913H23.474C23.0824 15.6913 22.9668 15.8402 22.9668 16.0438C22.9668 16.2475 23.1509 16.4179 23.4662 16.4179C23.6002 16.4264 23.7335 16.3919 23.8466 16.3193C23.9597 16.2467 24.0466 16.1399 24.0947 16.0145Z" fill="white"/>
<path d="M26.3211 16.4844C26.2023 16.5789 26.0538 16.6282 25.9021 16.6234C25.8236 16.6333 25.7439 16.6253 25.669 16.6C25.594 16.5748 25.5257 16.5329 25.4692 16.4775C25.4127 16.4222 25.3695 16.3547 25.3427 16.2803C25.316 16.2058 25.3064 16.1263 25.3147 16.0476V14.851H24.9602V14.616H25.3147V14.1832H25.5829V14.616H26.1841V14.8432H25.5829V16.0183C25.5759 16.0658 25.5798 16.1142 25.5942 16.16C25.6086 16.2058 25.6333 16.2478 25.6663 16.2826C25.6993 16.3175 25.7398 16.3445 25.7847 16.3614C25.8296 16.3784 25.8778 16.3849 25.9256 16.3806C26.0326 16.3833 26.1369 16.3471 26.2193 16.2787L26.3211 16.4844Z" fill="white"/>
<path d="M26.9399 13.9992C26.9399 13.9473 26.9605 13.8974 26.9972 13.8607C27.034 13.824 27.0838 13.8033 27.1357 13.8033C27.1857 13.8033 27.2338 13.8223 27.2702 13.8565C27.3066 13.8907 27.3285 13.9376 27.3315 13.9874C27.3315 14.0394 27.3109 14.0892 27.2742 14.1259C27.2374 14.1627 27.1876 14.1833 27.1357 14.1833C27.0838 14.1833 27.034 14.1627 26.9972 14.1259C26.9605 14.0892 26.9399 14.0394 26.9399 13.9874V13.9992ZM27.0006 14.6122H27.2669V16.5942H27.0006V14.6122Z" fill="white"/>
<path d="M27.9953 15.6148C27.9953 15.4154 28.0544 15.2205 28.1651 15.0546C28.2759 14.8888 28.4332 14.7595 28.6174 14.6832C28.8015 14.6068 29.0042 14.5867 29.1998 14.6254C29.3953 14.6642 29.575 14.76 29.7161 14.9009C29.8572 15.0418 29.9534 15.2213 29.9926 15.4168C30.0317 15.6124 30.012 15.8151 29.936 15.9994C29.86 16.1838 29.731 16.3414 29.5654 16.4525C29.3998 16.5635 29.2051 16.623 29.0057 16.6234C28.872 16.6278 28.7388 16.6046 28.6144 16.5555C28.49 16.5064 28.377 16.4323 28.2823 16.3378C28.1876 16.2433 28.1133 16.1304 28.064 16.006C28.0146 15.8817 27.9912 15.7485 27.9953 15.6148ZM29.74 15.6148C29.7331 15.4708 29.6841 15.3319 29.599 15.2155C29.5139 15.0991 29.3966 15.0102 29.2615 14.9599C29.1264 14.9096 28.9795 14.9001 28.839 14.9325C28.6985 14.965 28.5707 15.0379 28.4713 15.1424C28.3719 15.2468 28.3053 15.3781 28.2799 15.5201C28.2545 15.662 28.2712 15.8083 28.3281 15.9407C28.385 16.0732 28.4796 16.1861 28.6 16.2653C28.7205 16.3445 28.8615 16.3867 29.0057 16.3864C29.1058 16.3883 29.2053 16.3693 29.2977 16.3307C29.3901 16.2921 29.4735 16.2347 29.5425 16.1621C29.6116 16.0896 29.6648 16.0034 29.6988 15.9092C29.7328 15.815 29.7468 15.7147 29.74 15.6148Z" fill="white"/>
<path d="M32.5655 15.4563V16.6059H32.2992V15.4837C32.2992 15.0646 32.0799 14.8511 31.7118 14.8511C31.6171 14.844 31.5219 14.8578 31.4331 14.8915C31.3443 14.9252 31.264 14.978 31.1979 15.0462C31.1317 15.1144 31.0814 15.1963 31.0504 15.2862C31.0194 15.376 31.0086 15.4715 31.0186 15.566V16.6059H30.7523V14.6161H31.0069V14.9823C31.0874 14.8577 31.1997 14.7567 31.3322 14.69C31.4647 14.6232 31.6126 14.5929 31.7607 14.6024C32.2424 14.6024 32.5734 14.8805 32.5734 15.4485" fill="white"/>
<path d="M36.1431 15.378V16.6059H35.8865V16.2965C35.8125 16.4069 35.7103 16.4955 35.5904 16.553C35.4706 16.6105 35.3376 16.6349 35.2051 16.6235C34.7567 16.6235 34.4826 16.3905 34.4826 16.0478C34.4826 15.7422 34.6784 15.4876 35.2462 15.4876H35.8748V15.3662C35.8748 15.0274 35.679 14.8433 35.3148 14.8433C35.0741 14.8401 34.8402 14.9227 34.6549 15.0764L34.5354 14.8805C34.765 14.7016 35.0493 14.6076 35.3402 14.6142C35.8533 14.6142 36.1431 14.8688 36.1431 15.3819V15.378ZM35.8748 16.0145V15.6913H35.2619C34.8703 15.6913 34.7528 15.8402 34.7528 16.0438C34.7528 16.2475 34.9369 16.4179 35.2541 16.4179C35.3881 16.4261 35.5212 16.3914 35.6342 16.3189C35.7472 16.2464 35.8342 16.1397 35.8826 16.0145" fill="white"/>
<path d="M38.9059 14.616V16.3571C38.9059 17.0386 38.5711 17.3481 37.9151 17.3481C37.5809 17.361 37.2533 17.2525 36.9929 17.0425L37.128 16.8467C37.3483 17.0277 37.6262 17.1236 37.9112 17.117C38.4105 17.117 38.6416 16.8878 38.6416 16.3982V16.1456C38.5566 16.2712 38.4409 16.3731 38.3056 16.4416C38.1703 16.5101 38.0197 16.543 37.8681 16.5372C37.6137 16.5372 37.3696 16.4361 37.1897 16.2562C37.0098 16.0762 36.9087 15.8321 36.9087 15.5776C36.9087 15.3231 37.0098 15.079 37.1897 14.899C37.3696 14.7191 37.6137 14.618 37.8681 14.618C38.0213 14.6105 38.1739 14.6426 38.3111 14.7112C38.4483 14.7798 38.5655 14.8826 38.6514 15.0096V14.616H38.9059ZM38.6455 15.558C38.6506 15.4083 38.6108 15.2605 38.5314 15.1335C38.4519 15.0065 38.3363 14.9062 38.1994 14.8453C38.0626 14.7845 37.9106 14.7659 37.7631 14.792C37.6156 14.8181 37.4793 14.8876 37.3716 14.9917C37.2639 15.0958 37.1897 15.2297 37.1585 15.3762C37.1274 15.5228 37.1407 15.6753 37.1968 15.8142C37.2529 15.9531 37.3492 16.0721 37.4733 16.1559C37.5975 16.2397 37.7438 16.2845 37.8936 16.2846C37.9918 16.2909 38.0903 16.2767 38.1827 16.2427C38.275 16.2088 38.3593 16.1559 38.4301 16.0875C38.5009 16.0191 38.5566 15.9367 38.5937 15.8455C38.6308 15.7543 38.6484 15.6564 38.6455 15.558Z" fill="white"/>
<path d="M39.9105 15.6972C39.9162 15.794 39.9411 15.8888 39.9836 15.976C40.0262 16.0632 40.0856 16.1411 40.1584 16.2052C40.2312 16.2693 40.3161 16.3183 40.4079 16.3494C40.4998 16.3806 40.597 16.3932 40.6937 16.3865C40.8076 16.3902 40.921 16.369 41.0258 16.3243C41.1306 16.2797 41.2245 16.2127 41.3008 16.128L41.4515 16.3004C41.3092 16.449 41.1263 16.5524 40.9255 16.5977C40.7248 16.643 40.5152 16.6282 40.3228 16.5551C40.1305 16.482 39.9639 16.3538 39.8439 16.1866C39.7239 16.0194 39.6558 15.8206 39.6481 15.6149C39.6408 15.4842 39.6606 15.3534 39.7061 15.2307C39.7516 15.108 39.822 14.9959 39.9128 14.9017C40.0036 14.8074 40.1128 14.7328 40.2337 14.6827C40.3546 14.6325 40.4846 14.6079 40.6154 14.6102C40.746 14.6075 40.8758 14.632 40.9964 14.6821C41.1171 14.7322 41.226 14.8069 41.3162 14.9014C41.4065 14.9959 41.4761 15.1081 41.5206 15.2309C41.5651 15.3538 41.5836 15.4845 41.5749 15.6149C41.5749 15.6384 41.5749 15.6678 41.5749 15.6972H39.9105ZM39.9183 15.5013H41.3243C41.311 15.3239 41.2312 15.1581 41.1008 15.0371C40.9705 14.916 40.7992 14.8488 40.6213 14.8488C40.4434 14.8488 40.2721 14.916 40.1418 15.0371C40.0114 15.1581 39.9316 15.3239 39.9183 15.5013Z" fill="white"/>
<path d="M44.1282 15.4563V16.6059H43.8599V15.4837C43.8599 15.0646 43.6426 14.8511 43.2725 14.8511C43.1779 14.8443 43.083 14.8583 42.9945 14.8922C42.9059 14.926 42.8258 14.9789 42.7599 15.047C42.694 15.1152 42.6439 15.197 42.613 15.2867C42.5821 15.3763 42.5713 15.4717 42.5813 15.566V16.6059H42.313V14.6161H42.5695V14.9823C42.6501 14.8577 42.7624 14.7567 42.8949 14.69C43.0274 14.6232 43.1753 14.5929 43.3234 14.6024C43.8051 14.6024 44.136 14.8805 44.136 15.4485" fill="white"/>
<path d="M44.8508 15.6149C44.8472 15.4806 44.8713 15.3471 44.9215 15.2225C44.9717 15.0979 45.0469 14.985 45.1426 14.8908C45.2383 14.7966 45.3523 14.723 45.4776 14.6747C45.603 14.6265 45.7369 14.6045 45.871 14.6102C46.0246 14.5997 46.1782 14.6305 46.316 14.6994C46.4537 14.7682 46.5705 14.8727 46.6543 15.0019L46.4585 15.137C46.3949 15.0436 46.3089 14.9677 46.2083 14.9163C46.1076 14.865 45.9957 14.8398 45.8828 14.8432C45.6782 14.8432 45.4819 14.9245 45.3372 15.0692C45.1926 15.214 45.1113 15.4102 45.1113 15.6149C45.1113 15.8195 45.1926 16.0158 45.3372 16.1605C45.4819 16.3052 45.6782 16.3865 45.8828 16.3865C45.9953 16.3905 46.1071 16.3661 46.2078 16.3154C46.3084 16.2647 46.3946 16.1895 46.4585 16.0967L46.6543 16.2318C46.5697 16.3603 46.4528 16.4642 46.3153 16.5329C46.1777 16.6017 46.0245 16.6329 45.871 16.6235C45.7365 16.6292 45.6023 16.6071 45.4767 16.5586C45.3511 16.5101 45.2369 16.4362 45.1411 16.3416C45.0454 16.2469 44.9702 16.1335 44.9203 16.0085C44.8703 15.8835 44.8467 15.7495 44.8508 15.6149Z" fill="white"/>
<path d="M48.9922 14.616L48.0014 16.8349C47.835 17.2266 47.6255 17.3461 47.3435 17.3461C47.1648 17.3524 46.9909 17.2876 46.8598 17.1659L46.9852 16.9701C47.0317 17.0185 47.0877 17.0569 47.1497 17.0828C47.2117 17.1087 47.2783 17.1217 47.3455 17.1209C47.5236 17.1209 47.6431 17.0386 47.7567 16.7899L47.8428 16.594L46.9577 14.616H47.2378L47.9818 16.3003L48.7279 14.616H48.9922Z" fill="white"/>
<path d="M5.85681 2.56364C6.39866 2.79544 6.86084 3.18077 7.18637 3.67213C7.4918 4.18655 7.65299 4.77379 7.65299 5.37208C7.65299 5.97037 7.4918 6.5576 7.18637 7.07203C6.86366 7.5659 6.40063 7.95195 5.85681 8.18052C5.21313 8.45298 4.51918 8.58645 3.82037 8.57222H2.0424V11.0046H8.30756e-05V2.17194H3.82037C4.51936 2.15555 5.21376 2.28912 5.85681 2.56364ZM5.10685 6.50407C5.26815 6.36559 5.39535 6.19177 5.47855 5.99612C5.56176 5.80047 5.59873 5.58826 5.58659 5.376C5.59936 5.16193 5.56274 4.9478 5.47956 4.75016C5.39637 4.55251 5.26885 4.37665 5.10685 4.23617C4.78833 3.97504 4.32165 3.84447 3.7068 3.84447H2.0424V6.90948H3.7068C4.32165 6.90948 4.78833 6.77891 5.10685 6.51778" fill="white"/>
<path d="M14.0594 4.86475C14.622 5.36351 14.9033 6.11817 14.9033 7.12874V11.0006H13.0627V10.1546C12.6933 10.7852 12.004 11.1005 10.9949 11.1005C10.5294 11.1117 10.0671 11.0215 9.63991 10.8361C9.2829 10.6819 8.9782 10.4274 8.76268 10.1037C8.55974 9.78802 8.45481 9.41933 8.46113 9.04412C8.4498 8.75701 8.50881 8.47149 8.63304 8.21241C8.75727 7.95332 8.94294 7.72854 9.17388 7.55764C9.64775 7.19598 10.3807 7.01515 11.3728 7.01515H12.9393C12.9506 6.83137 12.9214 6.64735 12.8537 6.47611C12.786 6.30487 12.6816 6.15059 12.5477 6.02417C12.2866 5.79307 11.895 5.67752 11.3728 5.67752C11.011 5.67767 10.6515 5.73518 10.3076 5.8479C9.98626 5.94714 9.68521 6.103 9.41865 6.30814L8.71372 4.93722C9.1186 4.66014 9.56846 4.45538 10.0433 4.33205C10.5625 4.18906 11.0987 4.11725 11.6372 4.11858C12.6894 4.11858 13.4968 4.36861 14.0594 4.86867V4.86475ZM12.3813 9.54745C12.6419 9.39108 12.8389 9.14759 12.9374 8.86002V8.16673H11.5882C10.7815 8.16673 10.3781 8.43112 10.3781 8.95991C10.3742 9.07644 10.3991 9.19214 10.4507 9.2967C10.5023 9.40126 10.5789 9.49144 10.6738 9.5592C10.9137 9.7187 11.1988 9.79633 11.4864 9.78051C11.8004 9.78612 12.1099 9.70551 12.3813 9.54745Z" fill="white"/>
<path d="M35.3246 8.16294H30.1923C30.2749 8.56661 30.5099 8.92292 30.8483 9.15785C31.2277 9.41263 31.6781 9.54083 32.1348 9.52408C32.455 9.52927 32.7735 9.47618 33.0747 9.3674C33.3595 9.25364 33.6185 9.08381 33.8364 8.86799L34.884 10.0039C34.2443 10.7351 33.311 11.1006 32.0839 11.1006C31.3816 11.115 30.6861 10.9612 30.0553 10.6522C29.4882 10.3791 29.0122 9.94788 28.6846 9.41049C28.3606 8.86533 28.1945 8.24084 28.2048 7.60674C28.1962 6.97609 28.3601 6.35509 28.6787 5.81082C28.9884 5.28288 29.4376 4.85055 29.9769 4.56132C30.5451 4.25943 31.1802 4.10584 31.8234 4.11479C32.4509 4.1058 33.0706 4.2532 33.6269 4.5437C34.159 4.82281 34.599 5.24996 34.8938 5.77361C35.2096 6.34123 35.3684 6.98278 35.3539 7.6322C35.3539 7.65766 35.3422 7.82804 35.3167 8.16294H35.3246ZM30.7151 5.98121C30.4065 6.24354 30.2085 6.61297 30.161 7.01528H33.5015C33.4495 6.61561 33.2514 6.24935 32.9454 5.98709C32.6365 5.72509 32.2421 5.5857 31.8371 5.59539C31.4298 5.58176 31.0312 5.71602 30.7151 5.97338" fill="white"/>
<path d="M39.5032 4.36742C39.9424 4.19124 40.4125 4.10532 40.8856 4.11477V5.93027C40.6663 5.91264 40.5194 5.90481 40.4431 5.90481C40.202 5.89114 39.9605 5.92604 39.7332 6.00746C39.5058 6.08887 39.2971 6.21514 39.1194 6.37876C38.8009 6.69473 38.641 7.16737 38.6397 7.79669V10.9988H36.6815V4.21465H38.5594V5.10968C38.8006 4.77782 39.1304 4.52059 39.511 4.36742" fill="white"/>
<path d="M48.2168 4.87071C48.7389 5.37599 49 6.12412 49 7.11511V10.9987H47.0243V7.41867C47.0243 6.88075 46.9068 6.47926 46.6718 6.21422C46.5406 6.07847 46.3813 5.97307 46.2051 5.90541C46.0289 5.83774 45.84 5.80945 45.6516 5.82252C45.4327 5.81192 45.2139 5.8474 45.0095 5.92668C44.8051 6.00596 44.6196 6.12727 44.465 6.28276C44.1713 6.59089 44.0244 7.04787 44.0244 7.65369V11.0066H42.0565V4.21462H43.9363V5.01955C44.2073 4.72634 44.5424 4.49978 44.9154 4.35759C45.3205 4.19802 45.7528 4.11886 46.1882 4.12453C46.5609 4.10829 46.933 4.16682 47.2828 4.29665C47.6325 4.42648 47.9527 4.62499 48.2246 4.8805" fill="white"/>
<path d="M19.6067 1.2828C19.6067 1.53659 19.5314 1.78469 19.3904 1.99569C19.2494 2.20668 19.049 2.3711 18.8145 2.46813C18.58 2.56517 18.322 2.59046 18.0732 2.5408C17.8243 2.49114 17.5958 2.36878 17.4165 2.18918C17.2372 2.00958 17.1152 1.78082 17.066 1.53186C17.0167 1.28289 17.0424 1.0249 17.1397 0.790537C17.2371 0.556171 17.4018 0.35596 17.613 0.21524C17.8242 0.0745202 18.0723 -0.00038598 18.3261 1.49568e-06C18.4944 1.29886e-06 18.6611 0.0331982 18.8166 0.0976888C18.9721 0.162179 19.1134 0.2567 19.2323 0.375845C19.3512 0.494989 19.4455 0.636418 19.5098 0.792043C19.574 0.947667 19.6069 1.11443 19.6067 1.2828Z" fill="white"/>
<path d="M25.6906 1.2828C25.6902 1.53604 25.6148 1.78348 25.4739 1.99386C25.3329 2.20423 25.1328 2.3681 24.8987 2.46474C24.6647 2.56138 24.4073 2.58647 24.159 2.53683C23.9107 2.48719 23.6827 2.36504 23.5038 2.18584C23.3249 2.00663 23.2031 1.7784 23.1539 1.53C23.1046 1.28159 23.1301 1.02416 23.2271 0.790233C23.3241 0.556305 23.4882 0.356379 23.6988 0.215725C23.9093 0.0750716 24.1568 2.96041e-07 24.41 0C24.5784 -1.9682e-07 24.745 0.0331967 24.9005 0.0976873C25.056 0.162178 25.1973 0.256699 25.3162 0.375843C25.4352 0.494987 25.5295 0.636417 25.5937 0.792041C25.658 0.947666 25.6909 1.11443 25.6906 1.2828Z" fill="white"/>
<path d="M27.165 9.0834C26.9113 9.27344 26.6008 9.37213 26.2839 9.36345C26.1564 9.37131 26.0287 9.35237 25.9089 9.30785C25.7892 9.26332 25.6802 9.19419 25.5888 9.10494C25.4151 8.90036 25.3273 8.63644 25.344 8.36856V5.29963H26.7734V3.61927H15.808V5.29963H17.2374V8.39597C17.2374 9.28251 17.4822 9.95492 17.9717 10.4132C18.4612 10.8715 19.155 11.1006 20.0532 11.1006C20.3832 11.1017 20.7121 11.0616 21.0322 10.9812C21.3141 10.9147 21.5802 10.7936 21.8155 10.6247L21.228 9.0834C20.9737 9.27372 20.6625 9.37242 20.3449 9.36345C20.2177 9.37153 20.0902 9.35267 19.9708 9.30813C19.8513 9.26358 19.7426 9.19435 19.6517 9.10494C19.4773 8.90077 19.3895 8.63654 19.407 8.36856V5.29963H23.147V8.39597C23.147 9.28251 23.3924 9.95492 23.8832 10.4132C24.3741 10.8715 25.0672 11.1006 25.9628 11.1006C26.2928 11.102 26.6218 11.0618 26.9418 10.9812C27.2269 10.9153 27.4963 10.7942 27.7349 10.6247L27.165 9.0834Z" fill="white"/>
</svg>
